<?xml version="1.0" encoding="UTF-8" standalone="no"?>
<svg
   width="1024"
   height="1024"
   version="1.1"
   id="svg1"
   sodipodi:docname="icon.svg"
   inkscape:version="1.3 (0e150ed6c4, 2023-07-21)"
   xmlns:inkscape="http://www.inkscape.org/namespaces/inkscape"
   xmlns:sodipodi="http://sodipodi.sourceforge.net/DTD/sodipodi-0.dtd"
   xmlns:xlink="http://www.w3.org/1999/xlink"
   xmlns="http://www.w3.org/2000/svg"
   xmlns:svg="http://www.w3.org/2000/svg">
  <defs
     id="defs1">
    <linearGradient
       xlink:href="#a"
       id="e"
       x1="496.51901"
       x2="635.83099"
       y1="813.47699"
       y2="589.77802"
       gradientUnits="userSpaceOnUse"
       gradientTransform="matrix(1.0366431,0,0,1.0366431,-20.051111,-14.043185)" />
    <linearGradient
       id="a">
      <stop
         offset=".045"
         stop-color="#7f24ce"
         id="stop9" />
      <stop
         offset=".468"
         stop-color="#b846e4"
         id="stop10" />
      <stop
         offset=".825"
         stop-color="#d055ee"
         id="stop11" />
      <stop
         offset="1"
         stop-color="#f87cfe"
         id="stop12" />
    </linearGradient>
    <linearGradient
       xlink:href="#b"
       id="f"
       x1="269.58499"
       x2="488.26999"
       y1="847.20398"
       y2="393.07901"
       gradientUnits="userSpaceOnUse"
       gradientTransform="matrix(1.0366431,0,0,1.0366431,-20.051111,-14.043185)" />
    <linearGradient
       id="b">
      <stop
         offset=".045"
         stop-color="#7f24ce"
         id="stop5" />
      <stop
         offset=".478"
         stop-color="#b846e4"
         id="stop6" />
      <stop
         offset=".848"
         stop-color="#d055ee"
         id="stop7" />
      <stop
         offset="1"
         stop-color="#f87cfe"
         id="stop8" />
    </linearGradient>
    <linearGradient
       xlink:href="#c"
       id="g"
       x1="635.83099"
       x2="721.82202"
       y1="589.77802"
       y2="368.40799"
       gradientUnits="userSpaceOnUse"
       gradientTransform="matrix(1.0366431,0,0,1.0366431,-20.051111,-14.043185)" />
    <linearGradient
       id="c">
      <stop
         offset=".045"
         stop-color="#7f24ce"
         id="stop1" />
      <stop
         offset=".468"
         stop-color="#b846e4"
         id="stop2" />
      <stop
         offset=".848"
         stop-color="#d055ee"
         id="stop3" />
      <stop
         offset="1"
         stop-color="#f87cfe"
         id="stop4" />
    </linearGradient>
  </defs>
  <sodipodi:namedview
     id="namedview1"
     pagecolor="#ffffff"
     bordercolor="#000000"
     borderopacity="0.25"
     inkscape:showpageshadow="2"
     inkscape:pageopacity="0.0"
     inkscape:pagecheckerboard="0"
     inkscape:deskcolor="#d1d1d1"
     inkscape:zoom="0.59454974"
     inkscape:cx="444.87447"
     inkscape:cy="596.24952"
     inkscape:window-width="1858"
     inkscape:window-height="1057"
     inkscape:window-x="54"
     inkscape:window-y="-8"
     inkscape:window-maximized="1"
     inkscape:current-layer="svg1" />
  <path
     fill="url(#e)"
     d="m 518.18335,583.52088 c 71.23628,-3.91903 134.89236,62.84498 127.59419,133.82498 -2.4485,65.72039 -63.52074,123.49801 -130.0753,117.01885 -77.30198,2.83742 -137.13148,-80.10447 -118.549,-152.91143 11.04385,-56.02326 64.33718,-97.91729 121.03011,-97.9324 z"
     paint-order="markers stroke fill"
     style="mix-blend-mode:normal;fill:url(#e);stroke-width:1.03664"
     id="path12" />
  <path
     fill="url(#f)"
     d="m 274.50943,33.433858 c 15.57111,31.998785 40.98974,61.097684 50.83204,96.810372 28.382,74.40024 7.78485,156.42949 -29.14727,223.88715 -56.56988,111.08147 -111.47219,233.56588 -95.64586,361.15485 15.98433,115.25862 97.90936,221.02132 210.66799,255.2406 113.18937,37.78367 246.5376,0.14746 322.42711,-92.2186 C 785.71445,817.60348 816.0392,733.5047 801.77033,653.57938 780.06159,564.71184 710.81003,490.75575 623.22397,463.99026 570.1521,446.25732 517.83122,419.74012 482.84463,374.81955 c -8.70548,28.57527 -18.5936,64.18318 -28.97741,96.07779 -9.79908,34.53979 -24.46177,68.05818 -31.52648,103.1379 29.06071,-11.4284 63.15881,-31.16015 98.4082,-28.49558 88.72325,-1.71978 166.75211,79.32871 163.24942,167.76826 -0.71564,86.36446 -79.43819,163.06213 -166.20611,159.59985 C 431.35633,873.29871 357.27397,796.79164 354.68793,711.4352 353.50318,646.66239 379.83029,585.31946 397.58388,523.95848 431.95397,422.08936 464.90759,313.93124 451.62048,205.26441 444.85569,129.42962 392.52158,55.907892 315.81436,39.373917 302.33478,35.900803 288.49146,33.1626 274.50943,33.433858 Z"
     paint-order="markers stroke fill"
     style="mix-blend-mode:normal;fill:url(#f);stroke-width:1.03664"
     id="path13" />
  <path
     fill="url(#g)"
     d="m 566.8995,89.054215 c -34.76774,24.146725 -67.06497,58.931805 -77.78434,100.602455 7.37507,44.24643 2.21431,89.43693 1.54591,133.60688 18.92531,66.76789 88.07738,97.21734 148.31363,117.53711 73.44154,25.33962 137.13386,79.09767 168.37649,150.99666 7.28885,14.20442 32.34909,76.20619 29.59951,25.15387 C 839.44974,528.88514 801.99203,440.35267 733.04987,384.51234 682.14535,338.80635 610.23595,314.09003 578.78243,248.97264 551.54559,201.19374 553.15809,142.6377 569.34129,91.495987 l -1.22089,-1.220886 z"
     paint-order="markers stroke fill"
     style="mix-blend-mode:normal;fill:url(#g);stroke-width:1.03664"
     id="path14" />
</svg>
