<svg xmlns="http://www.w3.org/2000/svg" xmlns:xlink="http://www.w3.org/1999/xlink" width="1024" height="1024"><defs><linearGradient xlink:href="#a" id="b" x1="345.488" x2="326.393" y1="537.545" y2="278.277" gradientTransform="translate(25.645)" gradientUnits="userSpaceOnUse"/><linearGradient id="a"><stop offset="0" stop-color="#6000bf"/><stop offset="1" stop-color="#ff80ff"/></linearGradient><linearGradient xlink:href="#a" id="c" x1="628.385" x2="605.516" y1="554.552" y2="345.675" gradientTransform="translate(25.645)" gradientUnits="userSpaceOnUse"/><linearGradient xlink:href="#a" id="d" x1="711.173" x2="813.123" y1="702.796" y2="513.799" gradientTransform="translate(25.645)" gradientUnits="userSpaceOnUse"/><linearGradient xlink:href="#a" id="e" x1="263.133" x2="199.507" y1="648.504" y2="445.445" gradientTransform="translate(25.645)" gradientUnits="userSpaceOnUse"/><linearGradient xlink:href="#a" id="f" x1="760.851" x2="818.785" y1="829.706" y2="638.514" gradientTransform="translate(25.645)" gradientUnits="userSpaceOnUse"/><linearGradient xlink:href="#a" id="g" x1="447.231" x2="722.686" y1="825.105" y2="341.161" gradientTransform="translate(25.645)" gradientUnits="userSpaceOnUse"/></defs><path fill="#fff" d="m 427.67151,64.772644 c -33.41765,-2.77904 -52.50208,37.927336 -28.97264,61.835006 50.59464,51.39369 93.80303,109.20108 70.91357,174.34016 -23.16349,-71.94496 -107.18123,-113.13227 -131.63316,-68.65606 -18.79619,34.18892 20.88858,38.88522 12.84389,74.40257 -5.88807,27.08856 -27.78678,41.29305 -44.29026,59.58603 -15.81679,-10.28661 -37.44001,-6.82778 -49.05398,8.89188 -148.54973,201.16546 -65.7846,415.3807 1.26502,422.19242 74.44241,183.71787 348.01877,213.28775 461.72616,84.37286 51.94212,9.21531 183.18694,-133.86533 147.08964,-187.13775 C 951.88472,590.85535 859.29412,420.4149 814.41433,416.39024 802.38631,310.45588 718.27288,230.30196 679.36771,249.26924 649.68326,152.6319 560.55515,75.831375 427.67151,64.772644 Z" color="#000" paint-order="markers stroke fill" style="-inkscape-stroke:none" transform="matrix(1.26737 0 0 1.14468 -169.116 -74.144)"/><g color="#000" paint-order="markers stroke fill"><path fill="url(#b)" d="m 333.04148,390.83223 c 60.95648,-49.64478 68.88761,-106.2825 36.83418,-141.00059 52.95459,9.63902 98.77795,89.19743 48.01651,153.00628 -26.65727,28.88001 -68.13281,68.8029 -93.60356,105.41581 -9.2708,-12.44172 -10.12463,-91.91256 8.75287,-117.4215 z" style="-inkscape-stroke:none" transform="matrix(1.26737 0 0 1.14468 -169.116 -74.144)"/><path fill="url(#c)" d="m 605.46763,539.31749 c 99.49507,-95.417 109.65157,-174.00724 89.51164,-257.37948 90.53959,56.34382 120.32347,206.65548 27.21848,302.30568 -32.45156,-39.30764 -89.42225,-46.80136 -116.73012,-44.9262 z" style="-inkscape-stroke:none" transform="matrix(1.26737 0 0 1.14468 -169.116 -74.144)"/><path fill="url(#d)" d="m 765.39662,735.60971 c 1.02709,-90.00477 -16.0696,-105.16862 -28.65159,-129.51094 34.98134,-30.43943 78.21953,-75.63777 74.07442,-153.79971 36.26521,37.79516 66.66305,121.65638 46.94164,191.96024 -14.85854,28.34925 -56.52353,68.79815 -92.36447,91.35041 z" style="-inkscape-stroke:none" transform="matrix(1.26737 0 0 1.14468 -169.116 -74.144)"/><path fill="url(#e)" d="m 286.7715,396.80053 c -5.93266,67.16211 -0.0142,105.76452 13.27886,144.12011 C 286.96344,560.2585 230.93304,650.69743 262.60711,761.2419 218.55809,737.23285 161.82561,566.00177 286.7715,396.80053 Z" style="-inkscape-stroke:none" transform="matrix(1.26737 0 0 1.14468 -169.116 -74.144)"/><path fill="url(#f)" d="m 726.13159,846.0296 c 17.73585,-25.58971 32.54955,-56.27784 36.25546,-69.90486 25.02581,-13.2945 46.48859,-30.41422 75.77995,-60.35056 6.3761,19.04233 -68.60478,120.85509 -112.03541,130.25542 z" style="-inkscape-stroke:none" transform="matrix(1.26737 0 0 1.14468 -169.116 -74.144)"/><path fill="url(#g)" d="m 287.62386,770.66215 c -29.78142,-126.68372 26.21112,-227.13854 122.27548,-324.391 105.33248,-111.10231 158.66521,-199.01977 14.74873,-345.20912 261.96689,21.80119 302.85341,302.60789 107.16624,460.89824 -51.66636,39.08202 -116.35918,131.07193 -52.20213,201.69934 66.22057,56.08087 152.88124,4.62465 143.98406,-72.6156 C 613.31254,635.78409 547.10516,612.40275 497.42633,659.86933 507.38079,588.25452 598.94657,539.692 677.1654,583.25512 770.05339,643.46 769.04934,809.07161 659.32044,888.46646 545.23535,954.13648 341.34585,931.82258 287.62386,770.66215 Z" style="-inkscape-stroke:none" transform="matrix(1.26737 0 0 1.14468 -169.116 -74.144)"/></g></svg>