<svg xmlns="http://www.w3.org/2000/svg" width="1024" height="1024"><path fill="#8533df" stroke="#fff" stroke-linejoin="round" stroke-width="40" d="M 432.2845,59.712675 C 625.23761,130.0585 663.22839,347.02587 521.21977,476.74032 379.21125,606.45468 294.21549,639.72047 316.9855,761.47142 c 22.7701,121.75103 103.05044,149.5545 189.10629,157.70924 86.0559,8.1547 164.7517,-123.96012 141.22672,-195.84227 C 623.79353,651.45633 595.14907,611.40145 461.27859,590.37389 L 572.54623,477.20418 C 585.55121,542.85687 727.83595,605.65482 746.47359,717.9386 765.11127,830.22228 675.85903,996.84008 495.90916,979.58575 315.95933,962.33146 76.974618,779.5928 258.10666,485.55915 439.2387,191.52544 609.36867,207.345 432.2845,59.712675 Z M 726.80407,283.94592 C 678.2997,569.58101 921.18713,474.24891 787.9467,808.40933 825.70016,504.63103 477.62905,537.78783 726.80407,283.94592 Z M 486.67278,650.00427 A 108.31826,108.31826 0 0 1 594.99002,758.32153 108.31826,108.31826 0 0 1 486.67278,866.64344 108.31826,108.31826 0 0 1 378.35554,758.32153 108.31826,108.31826 0 0 1 486.67278,650.00427 Z" paint-order="stroke fill markers"/></svg>