<svg xmlns="http://www.w3.org/2000/svg" width="1024" height="1024"><path fill="#8533df" d="M 436.22359,28.073266 C 637.61616,101.49589 677.26859,327.95307 529.04875,463.34102 380.829,598.72888 292.11566,633.44967 315.88159,760.5258 339.64762,887.60204 423.4393,916.62158 513.25909,925.133 603.07894,933.64437 685.21677,795.75106 660.66285,720.7249 636.10891,645.69883 606.2116,603.89201 466.48583,581.94475 L 582.62014,463.82517 C 596.19394,532.3494 744.70199,597.89403 764.15481,715.08894 783.60768,832.28372 690.45168,1006.1892 502.63109,988.18015 314.81055,970.17115 65.373019,779.43979 254.42748,472.54557 443.48195,165.6513 621.05314,182.16278 436.22359,28.073266 Z M 743.62498,262.1141 C 692.9991,560.24241 946.51004,460.74065 807.44189,809.51671 846.84662,492.45163 483.55144,527.05865 743.62498,262.1141 Z M 492.99072,644.18326 A 113.05593,113.05593 0 0 1 606.04559,757.23815 113.05593,113.05593 0 0 1 492.99072,870.29788 113.05593,113.05593 0 0 1 379.93586,757.23815 113.05593,113.05593 0 0 1 492.99072,644.18326 Z"/></svg>