<svg xmlns="http://www.w3.org/2000/svg" width="1024" height="414"><path fill="#8533df" d="m 129.28264,30.675605 c 71.09614,25.919851 85.09434,105.864335 32.76938,153.659315 -52.32491,47.79495 -83.642699,60.05219 -75.252795,104.91294 8.389926,44.86077 37.970285,55.10532 69.678715,58.11003 31.70844,3.0047 60.70491,-45.67473 52.03684,-72.16064 -8.66812,-26.48591 -19.22252,-41.24466 -68.54884,-48.99253 l 40.998,-41.69888 c 4.79187,24.19061 57.21854,47.32934 64.08583,88.70178 6.86731,41.37237 -26.01887,102.7649 -92.32378,96.40731 C 86.421125,363.25738 -1.635941,295.92491 65.104543,187.58434 131.84504,79.243759 194.53165,85.072681 129.28264,30.675605 Z m 108.51961,82.621685 c -17.87206,105.24602 71.62304,70.11965 22.52886,193.24546 13.91071,-111.93111 -114.34064,-99.71408 -22.52886,-193.24546 z m -88.47951,134.87902 a 39.911288,39.911288 0 0 1 39.91093,39.91092 39.911288,39.911288 0 0 1 -39.91093,39.91262 39.911288,39.911288 0 0 1 -39.91088,-39.91262 39.911288,39.911288 0 0 1 39.91088,-39.91092 z"/><text xml:space="preserve" x="369.954" y="243.003" fill="#414042" stroke-width="1.07" font-family="'Inter Alia'" font-size="12.84" font-weight="700" style="-inkscape-font-specification:&quot;Inter Alia, Bold&quot;;font-variant-ligatures:normal;font-variant-caps:normal;font-variant-numeric:normal;font-variant-east-asian:normal;text-align:start"><tspan x="369.954" y="243.003" font-size="156.936" style="-inkscape-font-specification:&quot;Inter Alia, Bold&quot;;font-variant-ligatures:normal;font-variant-caps:normal;font-variant-numeric:normal;font-variant-east-asian:normal">Blazium</tspan></text><text xml:space="preserve" x="375.644" y="333.035" fill="#414042" stroke-width="1.07" font-family="'Inter Alia'" font-size="85.601" font-weight="500" style="-inkscape-font-specification:&quot;Inter Alia, Medium&quot;;font-variant-ligatures:normal;font-variant-caps:normal;font-variant-numeric:normal;font-variant-east-asian:normal;text-align:start"><tspan x="375.644" y="333.035" font-size="71.335" font-weight="400" style="-inkscape-font-specification:&quot;Inter Alia, Normal&quot;;font-variant-ligatures:normal;font-variant-caps:normal;font-variant-numeric:normal;font-variant-east-asian:normal">Game engine</tspan></text></svg>