<?xml version="1.0" encoding="UTF-8" standalone="no"?>
<!DOCTYPE svg PUBLIC "-//W3C//DTD SVG 1.1//EN" "http://www.w3.org/Graphics/SVG/1.1/DTD/svg11.dtd">
<svg width="100%" height="100%" viewBox="0 0 128 128" version="1.1" xmlns="http://www.w3.org/2000/svg" xmlns:xlink="http://www.w3.org/1999/xlink" xml:space="preserve" xmlns:serif="http://www.serif.com/" style="fill-rule:evenodd;clip-rule:evenodd;stroke-linecap:round;stroke-linejoin:round;stroke-miterlimit:2;">
    <g transform="matrix(1,0,0,1,1.83914,-43.6979)">
        <g>
            <path d="M55.506,102.095C55.506,102.609 55.203,102.939 54.598,103.085C53.993,103.232 53.141,103.305 52.041,103.305C50.648,103.305 49.456,103.232 48.466,103.085C47.476,102.939 46.642,102.719 45.963,102.425C45.285,102.132 44.726,101.775 44.286,101.353C43.846,100.931 43.498,100.427 43.241,99.84L38.621,90.215C37.338,92.195 36.073,94.185 34.826,96.183C33.579,98.181 32.223,100.299 30.756,102.535C30.683,102.645 30.417,102.884 29.958,103.25C29.5,103.617 29.014,103.8 28.501,103.8C27.988,103.8 27.41,103.516 26.768,102.948C26.127,102.38 25.531,101.701 24.981,100.913C24.431,100.125 23.973,99.281 23.606,98.383C23.239,97.485 23.056,96.705 23.056,96.045C23.056,95.275 23.459,94.35 24.266,93.268C25.073,92.186 26.081,91.068 27.291,89.913C28.501,88.758 29.812,87.63 31.223,86.53C32.635,85.43 33.964,84.459 35.211,83.615C33.708,81.049 32.296,78.675 30.976,76.493C29.656,74.311 28.519,72.395 27.566,70.745C26.613,69.095 25.861,67.775 25.311,66.785C24.761,65.795 24.486,65.209 24.486,65.025C24.486,64.842 24.798,64.659 25.421,64.475C26.044,64.292 26.943,64.2 28.116,64.2C29.546,64.2 30.802,64.292 31.883,64.475C32.965,64.659 33.9,64.97 34.688,65.41C35.477,65.85 36.164,66.437 36.751,67.17C37.338,67.904 37.869,68.802 38.346,69.865L41.371,76.74C42.141,75.75 42.819,74.815 43.406,73.935C43.993,73.055 44.598,72.139 45.221,71.185C45.844,70.232 46.523,69.205 47.256,68.105C47.989,67.005 48.851,65.74 49.841,64.31C50.171,63.87 50.629,63.65 51.216,63.65C51.876,63.65 52.545,63.953 53.223,64.558C53.902,65.163 54.516,65.878 55.066,66.703C55.616,67.528 56.065,68.371 56.413,69.233C56.762,70.095 56.936,70.782 56.936,71.295C56.936,71.992 56.505,72.872 55.643,73.935C54.782,74.999 53.728,76.099 52.481,77.235C51.234,78.372 49.914,79.481 48.521,80.563C47.128,81.645 45.899,82.534 44.836,83.23C45.276,84.11 45.844,85.128 46.541,86.283C47.238,87.438 47.98,88.648 48.768,89.913C49.557,91.178 50.354,92.443 51.161,93.708C51.968,94.973 52.692,96.155 53.333,97.255C53.975,98.355 54.498,99.336 54.901,100.198C55.304,101.06 55.506,101.692 55.506,102.095Z" style="fill:none;fill-rule:nonzero;stroke:rgb(205,252,0);stroke-width:3.5px;"/>
            <path d="M55.506,102.095C55.506,102.609 55.203,102.939 54.598,103.085C53.993,103.232 53.141,103.305 52.041,103.305C50.648,103.305 49.456,103.232 48.466,103.085C47.476,102.939 46.642,102.719 45.963,102.425C45.285,102.132 44.726,101.775 44.286,101.353C43.846,100.931 43.498,100.427 43.241,99.84L38.621,90.215C37.338,92.195 36.073,94.185 34.826,96.183C33.579,98.181 32.223,100.299 30.756,102.535C30.683,102.645 30.417,102.884 29.958,103.25C29.5,103.617 29.014,103.8 28.501,103.8C27.988,103.8 27.41,103.516 26.768,102.948C26.127,102.38 25.531,101.701 24.981,100.913C24.431,100.125 23.973,99.281 23.606,98.383C23.239,97.485 23.056,96.705 23.056,96.045C23.056,95.275 23.459,94.35 24.266,93.268C25.073,92.186 26.081,91.068 27.291,89.913C28.501,88.758 29.812,87.63 31.223,86.53C32.635,85.43 33.964,84.459 35.211,83.615C33.708,81.049 32.296,78.675 30.976,76.493C29.656,74.311 28.519,72.395 27.566,70.745C26.613,69.095 25.861,67.775 25.311,66.785C24.761,65.795 24.486,65.209 24.486,65.025C24.486,64.842 24.798,64.659 25.421,64.475C26.044,64.292 26.943,64.2 28.116,64.2C29.546,64.2 30.802,64.292 31.883,64.475C32.965,64.659 33.9,64.97 34.688,65.41C35.477,65.85 36.164,66.437 36.751,67.17C37.338,67.904 37.869,68.802 38.346,69.865L41.371,76.74C42.141,75.75 42.819,74.815 43.406,73.935C43.993,73.055 44.598,72.139 45.221,71.185C45.844,70.232 46.523,69.205 47.256,68.105C47.989,67.005 48.851,65.74 49.841,64.31C50.171,63.87 50.629,63.65 51.216,63.65C51.876,63.65 52.545,63.953 53.223,64.558C53.902,65.163 54.516,65.878 55.066,66.703C55.616,67.528 56.065,68.371 56.413,69.233C56.762,70.095 56.936,70.782 56.936,71.295C56.936,71.992 56.505,72.872 55.643,73.935C54.782,74.999 53.728,76.099 52.481,77.235C51.234,78.372 49.914,79.481 48.521,80.563C47.128,81.645 45.899,82.534 44.836,83.23C45.276,84.11 45.844,85.128 46.541,86.283C47.238,87.438 47.98,88.648 48.768,89.913C49.557,91.178 50.354,92.443 51.161,93.708C51.968,94.973 52.692,96.155 53.333,97.255C53.975,98.355 54.498,99.336 54.901,100.198C55.304,101.06 55.506,101.692 55.506,102.095Z" style="fill:rgb(36,36,75);fill-rule:nonzero;"/>
            <path d="M84.986,63.595C87.663,63.595 89.954,63.971 91.861,64.723C93.768,65.475 95.326,66.575 96.536,68.023C97.746,69.471 98.626,71.231 99.176,73.303C99.726,75.375 100.001,77.73 100.001,80.37C100.001,81.837 99.9,83.432 99.698,85.155C99.497,86.879 99.13,88.611 98.598,90.353C98.067,92.095 97.343,93.772 96.426,95.385C95.509,96.999 94.327,98.429 92.878,99.675C91.43,100.922 89.698,101.921 87.681,102.673C85.664,103.425 83.281,103.8 80.531,103.8C77.488,103.8 74.967,103.342 72.968,102.425C70.97,101.509 69.375,100.271 68.183,98.713C66.992,97.155 66.148,95.312 65.653,93.185C65.158,91.059 64.911,88.785 64.911,86.365C64.911,83.505 65.241,80.71 65.901,77.978C66.561,75.246 67.67,72.817 69.228,70.69C70.787,68.564 72.849,66.85 75.416,65.548C77.983,64.246 81.173,63.595 84.986,63.595ZM83.831,72.12C82.548,72.12 81.438,72.35 80.503,72.808C79.568,73.266 78.78,73.88 78.138,74.65C77.497,75.42 76.983,76.282 76.598,77.235C76.213,78.189 75.911,79.17 75.691,80.178C75.471,81.186 75.324,82.158 75.251,83.093C75.178,84.028 75.141,84.862 75.141,85.595C75.141,88.932 75.7,91.37 76.818,92.91C77.937,94.45 79.523,95.22 81.576,95.22C83.263,95.22 84.638,94.68 85.701,93.598C86.764,92.516 87.598,91.215 88.203,89.693C88.808,88.171 89.221,86.595 89.441,84.963C89.661,83.331 89.771,81.947 89.771,80.81C89.771,78.134 89.313,76.016 88.396,74.458C87.479,72.9 85.958,72.12 83.831,72.12Z" style="fill:none;fill-rule:nonzero;stroke:rgb(205,252,0);stroke-width:3.5px;"/>
            <path d="M84.986,63.595C87.663,63.595 89.954,63.971 91.861,64.723C93.768,65.475 95.326,66.575 96.536,68.023C97.746,69.471 98.626,71.231 99.176,73.303C99.726,75.375 100.001,77.73 100.001,80.37C100.001,81.837 99.9,83.432 99.698,85.155C99.497,86.879 99.13,88.611 98.598,90.353C98.067,92.095 97.343,93.772 96.426,95.385C95.509,96.999 94.327,98.429 92.878,99.675C91.43,100.922 89.698,101.921 87.681,102.673C85.664,103.425 83.281,103.8 80.531,103.8C77.488,103.8 74.967,103.342 72.968,102.425C70.97,101.509 69.375,100.271 68.183,98.713C66.992,97.155 66.148,95.312 65.653,93.185C65.158,91.059 64.911,88.785 64.911,86.365C64.911,83.505 65.241,80.71 65.901,77.978C66.561,75.246 67.67,72.817 69.228,70.69C70.787,68.564 72.849,66.85 75.416,65.548C77.983,64.246 81.173,63.595 84.986,63.595ZM83.831,72.12C82.548,72.12 81.438,72.35 80.503,72.808C79.568,73.266 78.78,73.88 78.138,74.65C77.497,75.42 76.983,76.282 76.598,77.235C76.213,78.189 75.911,79.17 75.691,80.178C75.471,81.186 75.324,82.158 75.251,83.093C75.178,84.028 75.141,84.862 75.141,85.595C75.141,88.932 75.7,91.37 76.818,92.91C77.937,94.45 79.523,95.22 81.576,95.22C83.263,95.22 84.638,94.68 85.701,93.598C86.764,92.516 87.598,91.215 88.203,89.693C88.808,88.171 89.221,86.595 89.441,84.963C89.661,83.331 89.771,81.947 89.771,80.81C89.771,78.134 89.313,76.016 88.396,74.458C87.479,72.9 85.958,72.12 83.831,72.12Z" style="fill:rgb(36,36,75);fill-rule:nonzero;"/>
            <path d="M44.561,111.595C47.238,111.595 49.529,111.971 51.436,112.723C53.343,113.475 54.901,114.575 56.111,116.023C57.321,117.471 58.201,119.231 58.751,121.303C59.301,123.375 59.576,125.73 59.576,128.37C59.576,129.837 59.475,131.432 59.273,133.155C59.072,134.879 58.705,136.611 58.173,138.353C57.642,140.095 56.918,141.772 56.001,143.385C55.084,144.999 53.902,146.429 52.453,147.675C51.005,148.922 49.273,149.921 47.256,150.673C45.239,151.425 42.856,151.8 40.106,151.8C37.063,151.8 34.542,151.342 32.543,150.425C30.545,149.509 28.95,148.271 27.758,146.713C26.567,145.155 25.723,143.312 25.228,141.185C24.733,139.059 24.486,136.785 24.486,134.365C24.486,131.505 24.816,128.71 25.476,125.978C26.136,123.246 27.245,120.817 28.803,118.69C30.362,116.564 32.424,114.85 34.991,113.548C37.558,112.246 40.748,111.595 44.561,111.595ZM43.406,120.12C42.123,120.12 41.013,120.35 40.078,120.808C39.143,121.266 38.355,121.88 37.713,122.65C37.072,123.42 36.558,124.282 36.173,125.235C35.788,126.189 35.486,127.17 35.266,128.178C35.046,129.186 34.899,130.158 34.826,131.093C34.753,132.028 34.716,132.862 34.716,133.595C34.716,136.932 35.275,139.37 36.393,140.91C37.512,142.45 39.098,143.22 41.151,143.22C42.838,143.22 44.213,142.68 45.276,141.598C46.339,140.516 47.173,139.215 47.778,137.693C48.383,136.171 48.796,134.595 49.016,132.963C49.236,131.331 49.346,129.947 49.346,128.81C49.346,126.134 48.888,124.016 47.971,122.458C47.054,120.9 45.533,120.12 43.406,120.12Z" style="fill:none;fill-rule:nonzero;stroke:rgb(205,252,0);stroke-width:3.5px;"/>
            <path d="M44.561,111.595C47.238,111.595 49.529,111.971 51.436,112.723C53.343,113.475 54.901,114.575 56.111,116.023C57.321,117.471 58.201,119.231 58.751,121.303C59.301,123.375 59.576,125.73 59.576,128.37C59.576,129.837 59.475,131.432 59.273,133.155C59.072,134.879 58.705,136.611 58.173,138.353C57.642,140.095 56.918,141.772 56.001,143.385C55.084,144.999 53.902,146.429 52.453,147.675C51.005,148.922 49.273,149.921 47.256,150.673C45.239,151.425 42.856,151.8 40.106,151.8C37.063,151.8 34.542,151.342 32.543,150.425C30.545,149.509 28.95,148.271 27.758,146.713C26.567,145.155 25.723,143.312 25.228,141.185C24.733,139.059 24.486,136.785 24.486,134.365C24.486,131.505 24.816,128.71 25.476,125.978C26.136,123.246 27.245,120.817 28.803,118.69C30.362,116.564 32.424,114.85 34.991,113.548C37.558,112.246 40.748,111.595 44.561,111.595ZM43.406,120.12C42.123,120.12 41.013,120.35 40.078,120.808C39.143,121.266 38.355,121.88 37.713,122.65C37.072,123.42 36.558,124.282 36.173,125.235C35.788,126.189 35.486,127.17 35.266,128.178C35.046,129.186 34.899,130.158 34.826,131.093C34.753,132.028 34.716,132.862 34.716,133.595C34.716,136.932 35.275,139.37 36.393,140.91C37.512,142.45 39.098,143.22 41.151,143.22C42.838,143.22 44.213,142.68 45.276,141.598C46.339,140.516 47.173,139.215 47.778,137.693C48.383,136.171 48.796,134.595 49.016,132.963C49.236,131.331 49.346,129.947 49.346,128.81C49.346,126.134 48.888,124.016 47.971,122.458C47.054,120.9 45.533,120.12 43.406,120.12Z" style="fill:rgb(36,36,75);fill-rule:nonzero;"/>
            <path d="M99.836,150.095C99.836,150.609 99.533,150.939 98.928,151.085C98.323,151.232 97.471,151.305 96.371,151.305C94.978,151.305 93.786,151.232 92.796,151.085C91.806,150.939 90.972,150.719 90.293,150.425C89.615,150.132 89.056,149.775 88.616,149.353C88.176,148.931 87.828,148.427 87.571,147.84L82.951,138.215C81.668,140.195 80.403,142.185 79.156,144.183C77.909,146.181 76.553,148.299 75.086,150.535C75.013,150.645 74.747,150.884 74.288,151.25C73.83,151.617 73.344,151.8 72.831,151.8C72.318,151.8 71.74,151.516 71.098,150.948C70.457,150.38 69.861,149.701 69.311,148.913C68.761,148.125 68.303,147.281 67.936,146.383C67.569,145.485 67.386,144.705 67.386,144.045C67.386,143.275 67.789,142.35 68.596,141.268C69.403,140.186 70.411,139.068 71.621,137.913C72.831,136.758 74.142,135.63 75.553,134.53C76.965,133.43 78.294,132.459 79.541,131.615C78.038,129.049 76.626,126.675 75.306,124.493C73.986,122.311 72.849,120.395 71.896,118.745C70.943,117.095 70.191,115.775 69.641,114.785C69.091,113.795 68.816,113.209 68.816,113.025C68.816,112.842 69.128,112.659 69.751,112.475C70.374,112.292 71.273,112.2 72.446,112.2C73.876,112.2 75.132,112.292 76.213,112.475C77.295,112.659 78.23,112.97 79.018,113.41C79.807,113.85 80.494,114.437 81.081,115.17C81.668,115.904 82.199,116.802 82.676,117.865L85.701,124.74C86.471,123.75 87.149,122.815 87.736,121.935C88.323,121.055 88.928,120.139 89.551,119.185C90.174,118.232 90.853,117.205 91.586,116.105C92.319,115.005 93.181,113.74 94.171,112.31C94.501,111.87 94.959,111.65 95.546,111.65C96.206,111.65 96.875,111.953 97.553,112.558C98.232,113.163 98.846,113.878 99.396,114.703C99.946,115.528 100.395,116.371 100.743,117.233C101.092,118.095 101.266,118.782 101.266,119.295C101.266,119.992 100.835,120.872 99.973,121.935C99.112,122.999 98.058,124.099 96.811,125.235C95.564,126.372 94.244,127.481 92.851,128.563C91.458,129.645 90.229,130.534 89.166,131.23C89.606,132.11 90.174,133.128 90.871,134.283C91.568,135.438 92.31,136.648 93.098,137.913C93.887,139.178 94.684,140.443 95.491,141.708C96.298,142.973 97.022,144.155 97.663,145.255C98.305,146.355 98.828,147.336 99.231,148.198C99.634,149.06 99.836,149.692 99.836,150.095Z" style="fill:none;fill-rule:nonzero;stroke:rgb(205,252,0);stroke-width:3.5px;"/>
            <path d="M99.836,150.095C99.836,150.609 99.533,150.939 98.928,151.085C98.323,151.232 97.471,151.305 96.371,151.305C94.978,151.305 93.786,151.232 92.796,151.085C91.806,150.939 90.972,150.719 90.293,150.425C89.615,150.132 89.056,149.775 88.616,149.353C88.176,148.931 87.828,148.427 87.571,147.84L82.951,138.215C81.668,140.195 80.403,142.185 79.156,144.183C77.909,146.181 76.553,148.299 75.086,150.535C75.013,150.645 74.747,150.884 74.288,151.25C73.83,151.617 73.344,151.8 72.831,151.8C72.318,151.8 71.74,151.516 71.098,150.948C70.457,150.38 69.861,149.701 69.311,148.913C68.761,148.125 68.303,147.281 67.936,146.383C67.569,145.485 67.386,144.705 67.386,144.045C67.386,143.275 67.789,142.35 68.596,141.268C69.403,140.186 70.411,139.068 71.621,137.913C72.831,136.758 74.142,135.63 75.553,134.53C76.965,133.43 78.294,132.459 79.541,131.615C78.038,129.049 76.626,126.675 75.306,124.493C73.986,122.311 72.849,120.395 71.896,118.745C70.943,117.095 70.191,115.775 69.641,114.785C69.091,113.795 68.816,113.209 68.816,113.025C68.816,112.842 69.128,112.659 69.751,112.475C70.374,112.292 71.273,112.2 72.446,112.2C73.876,112.2 75.132,112.292 76.213,112.475C77.295,112.659 78.23,112.97 79.018,113.41C79.807,113.85 80.494,114.437 81.081,115.17C81.668,115.904 82.199,116.802 82.676,117.865L85.701,124.74C86.471,123.75 87.149,122.815 87.736,121.935C88.323,121.055 88.928,120.139 89.551,119.185C90.174,118.232 90.853,117.205 91.586,116.105C92.319,115.005 93.181,113.74 94.171,112.31C94.501,111.87 94.959,111.65 95.546,111.65C96.206,111.65 96.875,111.953 97.553,112.558C98.232,113.163 98.846,113.878 99.396,114.703C99.946,115.528 100.395,116.371 100.743,117.233C101.092,118.095 101.266,118.782 101.266,119.295C101.266,119.992 100.835,120.872 99.973,121.935C99.112,122.999 98.058,124.099 96.811,125.235C95.564,126.372 94.244,127.481 92.851,128.563C91.458,129.645 90.229,130.534 89.166,131.23C89.606,132.11 90.174,133.128 90.871,134.283C91.568,135.438 92.31,136.648 93.098,137.913C93.887,139.178 94.684,140.443 95.491,141.708C96.298,142.973 97.022,144.155 97.663,145.255C98.305,146.355 98.828,147.336 99.231,148.198C99.634,149.06 99.836,149.692 99.836,150.095Z" style="fill:rgb(36,36,75);fill-rule:nonzero;"/>
        </g>
    </g>
</svg>
