<svg xmlns="http://www.w3.org/2000/svg" width="1024" height="1024"><path fill="#8533df" d="M 434.15884,51.605067 C 628.50033,122.45705 666.76446,340.98559 523.73404,471.63339 380.7037,602.2811 295.09637,635.78625 318.03021,758.41325 340.96415,881.04034 421.82215,909.04386 508.4972,917.25728 595.17231,925.47065 674.43436,792.40521 650.74011,720.00584 627.04585,647.60656 598.19529,607.26346 463.36155,586.08461 L 575.42981,472.10059 C 588.52837,538.22568 731.8369,601.47548 750.60866,714.5672 769.38044,827.6588 679.48599,995.47549 498.24131,978.09701 316.99666,960.71857 76.292351,776.66502 258.72771,480.51567 441.16308,184.36627 612.5172,200.29966 434.15884,51.605067 Z M 730.7976,277.45175 C 681.94422,565.14211 926.57933,469.12406 792.38018,805.68891 830.40529,499.72479 479.82966,533.12016 730.7976,277.45175 Z M 488.93846,646.14404 A 109.09766,109.09766 0 0 1 598.03509,755.2407 109.09766,109.09766 0 0 1 488.93846,864.34203 109.09766,109.09766 0 0 1 379.84184,755.2407 109.09766,109.09766 0 0 1 488.93846,646.14404 Z"/><rect width="309.872" height="210.528" x="673.505" y="772.849" fill="#414042" stroke="#fff" stroke-width="18.886" rx="14.413"/><path fill="#fff" d="m 702.78361,817.67017 a 7.1804097,7.1804097 0 0 0 0,10.15453 l 50.26287,50.26287 -50.26287,50.26287 a 7.1804097,7.1804097 0 0 0 0,10.15453 l 14.36082,14.36082 a 7.1804097,7.1804097 0 0 0 10.15454,0 l 69.70095,-69.70095 a 7.1804097,7.1804097 0 0 0 0,-10.15454 l -69.70095,-69.70095 a 7.1804097,7.1804097 0 0 0 -10.15454,0 z m 129.24738,104.11594 a 7.1804097,7.1804097 0 0 0 -7.18041,7.18041 v 17.95102 a 7.1804097,7.1804097 0 0 0 7.18041,7.18041 h 114.88655 a 7.1804097,7.1804097 0 0 0 7.18041,-7.18041 v -17.95102 a 7.1804097,7.1804097 0 0 0 -7.18041,-7.18041 z"/></svg>