<?xml version="1.0" encoding="UTF-8" standalone="no"?>
<!-- Created with Inkscape (http://www.inkscape.org/) -->

<svg
   width="400"
   height="400"
   viewBox="0 0 400 400"
   version="1.1"
   id="svg1"
   xml:space="preserve"
   inkscape:version="1.4 (e7c3feb100, 2024-10-09)"
   sodipodi:docname="blazium.svg"
   xmlns:inkscape="http://www.inkscape.org/namespaces/inkscape"
   xmlns:sodipodi="http://sodipodi.sourceforge.net/DTD/sodipodi-0.dtd"
   xmlns:xlink="http://www.w3.org/1999/xlink"
   xmlns="http://www.w3.org/2000/svg"
   xmlns:svg="http://www.w3.org/2000/svg"><sodipodi:namedview
     id="namedview1"
     pagecolor="#ffffff"
     bordercolor="#111111"
     borderopacity="1"
     inkscape:showpageshadow="0"
     inkscape:pageopacity="0"
     inkscape:pagecheckerboard="1"
     inkscape:deskcolor="#d1d1d1"
     inkscape:document-units="px"
     inkscape:zoom="1.375"
     inkscape:cx="200.36364"
     inkscape:cy="147.63636"
     inkscape:window-width="1920"
     inkscape:window-height="1017"
     inkscape:window-x="0"
     inkscape:window-y="0"
     inkscape:window-maximized="1"
     inkscape:current-layer="layer2" /><defs
     id="defs1"><linearGradient
       id="linearGradient115"
       inkscape:collect="always"><stop
         style="stop-color:#42006a;stop-opacity:1;"
         offset="0"
         id="stop114" /><stop
         style="stop-color:#a000ff;stop-opacity:1;"
         offset="1"
         id="stop115" /></linearGradient><linearGradient
       id="linearGradient113"
       inkscape:collect="always"><stop
         style="stop-color:#5a0090;stop-opacity:1;"
         offset="0"
         id="stop112" /><stop
         style="stop-color:#9c00ff;stop-opacity:1;"
         offset="1"
         id="stop113" /></linearGradient><linearGradient
       id="linearGradient109"
       inkscape:collect="always"><stop
         style="stop-color:#4d008d;stop-opacity:1;"
         offset="0"
         id="stop109" /><stop
         style="stop-color:#a000ff;stop-opacity:1;"
         offset="1"
         id="stop110" /></linearGradient><linearGradient
       id="swatch107"
       inkscape:swatch="solid"><stop
         style="stop-color:#000000;stop-opacity:1;"
         offset="0"
         id="stop107" /></linearGradient><linearGradient
       id="swatch104"
       inkscape:swatch="solid"><stop
         style="stop-color:#000000;stop-opacity:1;"
         offset="0"
         id="stop105" /></linearGradient><inkscape:path-effect
       effect="bspline"
       id="path-effect3"
       is_visible="true"
       lpeversion="1.3"
       weight="33.333333"
       steps="2"
       helper_size="0"
       apply_no_weight="true"
       apply_with_weight="true"
       only_selected="false"
       uniform="false" /><inkscape:path-effect
       effect="bspline"
       id="path-effect2"
       is_visible="true"
       lpeversion="1.3"
       weight="33.333333"
       steps="2"
       helper_size="0"
       apply_no_weight="true"
       apply_with_weight="true"
       only_selected="false"
       uniform="false" /><inkscape:path-effect
       effect="bspline"
       id="path-effect1"
       is_visible="true"
       lpeversion="1.3"
       weight="33.333333"
       steps="2"
       helper_size="0"
       apply_no_weight="true"
       apply_with_weight="true"
       only_selected="false"
       uniform="false" /><linearGradient
       inkscape:collect="always"
       xlink:href="#linearGradient115"
       id="linearGradient110"
       x1="149.25791"
       y1="181.39773"
       x2="287.22356"
       y2="181.39773"
       gradientUnits="userSpaceOnUse" /><linearGradient
       inkscape:collect="always"
       xlink:href="#linearGradient109"
       id="linearGradient111"
       x1="188.59091"
       y1="236.72726"
       x2="241.22727"
       y2="236.72726"
       gradientUnits="userSpaceOnUse"
       gradientTransform="matrix(1.0829016,0,0,1.0829016,-430.12777,-14.534149)" /><linearGradient
       inkscape:collect="always"
       xlink:href="#linearGradient113"
       id="linearGradient112"
       x1="124.36064"
       y1="188.74947"
       x2="174.35865"
       y2="188.74947"
       gradientUnits="userSpaceOnUse" /></defs><g
     inkscape:groupmode="layer"
     id="layer2"
     inkscape:label="logo"
     style="opacity:1"><path
       style="opacity:1;fill:url(#linearGradient110);fill-opacity:1;stroke:#000000;stroke-opacity:1"
       d="m 221.57575,66.787886 c 0,4.000003 -10.42403,19.514833 -10.30281,32.969648 0.12121,13.454816 10.78766,24.848526 24.36359,37.212296 13.57592,12.36377 30.0601,25.69656 39.87849,40.60596 9.81838,14.90939 12.96977,31.39358 10.30305,48.48483 -2.66672,17.09125 -11.15122,34.7875 -21.33325,47.15139 -10.18202,12.3639 -22.06033,19.39391 -35.75758,22.30306 -13.69725,2.90915 -29.21178,1.69708 -41.9393,-2.303 -12.72753,-4.00008 -22.66654,-10.7877 -28.84848,-20.36364 -6.18194,-9.57594 -8.60613,-21.93934 -8.12125,-33.21217 0.48489,-11.27283 3.87876,-21.45444 11.32589,-31.94346 7.44714,-10.48903 19.70438,-21.99583 31.58317,-33.14735 8.48485,8.24243 16.9697,16.48485 25.45455,24.72728 -6.78788,1.45454 -13.57576,2.90909 -21.9395,7.63644 -8.36373,4.72735 -18.30273,12.72703 -21.33309,23.2727 -3.03037,10.54566 0.84835,23.63632 6.18175,32.9697 5.3334,9.33339 12.12114,14.90904 23.03038,16.60598 10.90924,1.69695 25.93925,-0.48482 37.45448,-10.30318 11.51523,-9.81836 19.51491,-27.2722 15.2724,-43.99981 -4.24251,-16.72761 -20.72703,-32.72729 -35.63625,-47.15166 -14.90923,-14.42437 -28.24229,-27.27259 -33.81803,-39.63635 -5.57574,-12.36376 -3.39396,-24.24231 0.12124,-34.303 3.5152,-10.060686 8.36359,-18.302946 16.00005,-26.181807 7.63647,-7.878862 18.0605,-15.393859 18.0605,-11.393857 z"
       id="path1"
       inkscape:path-effect="#path-effect2"
       inkscape:original-d="m 232,55.272728 c -10.42425,15.515161 -20.84828,31.02999 -31.27273,46.545452 10.66688,11.39417 21.33333,22.78788 32,34.18182 16.48518,13.3336 32.96936,26.6664 49.45455,40 3.15158,16.48518 6.30297,32.96937 9.45455,49.45454 -8.48502,17.69733 -16.96952,35.39358 -25.45454,53.09092 -11.87903,7.03045 -23.75734,14.06046 -35.63637,21.09091 C 215.02999,298.42422 199.51546,297.21215 184,296 c -9.93959,-6.78801 -19.8786,-13.57563 -29.81819,-20.36364 -2.42428,-12.36387 -4.84848,-24.72727 -7.27272,-37.09091 3.39401,-10.18202 6.78788,-20.36363 10.18182,-30.54545 11.39417,-10.90931 35.63636,-33.45455 35.63636,-33.45455 8.48485,8.24243 16.9697,16.48485 25.45455,24.72728 0,0 -13.57576,2.90909 -20.36364,4.36363 -9.93959,8.00016 -19.87859,15.99984 -29.81818,24 3.87886,13.09117 7.75757,26.18183 11.63636,39.27273 6.78802,5.57587 13.57576,11.15152 20.36364,16.72727 15.0306,-2.18186 30.06061,-4.36363 45.09091,-6.54545 8.00016,-17.4549 15.99984,-34.90874 24,-52.36364 -16.48518,-16.00032 -32.9697,-32 -49.45455,-48 -13.3336,-12.84874 -26.66666,-25.69697 -40,-38.54545 2.18187,-11.87903 4.36364,-23.75758 6.54546,-35.63637 4.84858,-8.242585 9.69697,-16.484844 14.54545,-24.727268 C 211.15172,70.30288 221.57575,62.787883 232,55.272728 Z"
       sodipodi:nodetypes="cccccccccccccccccccccccc"
       transform="matrix(-1,0,0,1,411.5842,0)" /><circle
       style="fill:url(#linearGradient111);fill-opacity:1;stroke:#000000;stroke-width:1.0829;stroke-opacity:1"
       id="path2"
       cx="-197.40237"
       cy="241.81818"
       r="27.958549"
       transform="scale(-1,1)" /><path
       style="fill:url(#linearGradient112);fill-opacity:1;stroke:#000000;stroke-opacity:1"
       d="m 152,124.36364 c 6.54545,6.54545 13.09078,13.09078 17.21207,22.18188 4.1213,9.09109 5.81823,20.72721 3.75757,27.51511 -2.06067,6.78789 -7.87873,8.72725 -15.15154,15.27281 -7.27282,6.54557 -15.99992,17.69686 -19.63627,29.45456 -3.63634,11.7577 -2.18183,24.12109 -2.06063,29.93927 0.1212,5.81817 -1.0909,5.09091 -3.15154,1.33327 -2.06063,-3.75765 -4.96966,-10.54539 -6.66663,-18.42427 -1.69698,-7.87887 -2.18182,-16.84839 0.12126,-26.18182 2.30308,-9.33343 7.39389,-19.03021 11.99999,-26.90906 4.6061,-7.87884 8.72724,-13.93933 10.90906,-22.66672 2.18182,-8.72738 2.42424,-20.12109 2.66666,-31.51503"
       id="path3"
       inkscape:path-effect="#path-effect3"
       inkscape:original-d="m 152,124.36364 c 6.54545,6.54545 13.09078,13.09078 19.63636,19.63637 1.69701,11.6366 3.39394,23.27272 5.09091,34.90908 -5.8183,1.93943 -11.63636,3.87879 -17.45454,5.81818 -8.72745,11.15174 -17.45455,22.30303 -26.18182,33.45455 1.45457,12.36388 2.90909,24.72727 4.36364,37.09091 -1.21215,-0.72729 -2.42425,-1.45455 -3.63637,-2.18182 -2.90915,-6.78802 -5.81818,-13.57576 -8.72727,-20.36364 -0.48486,-8.96987 -0.9697,-17.93939 -1.45455,-26.90909 5.09101,-9.69716 10.18182,-19.39394 15.27273,-29.09091 4.1213,-6.06072 8.24243,-12.12121 12.36364,-18.18182 0.24243,-11.39416 0.48485,-22.78787 0.72727,-34.18181"
       sodipodi:nodetypes="cccccccccccc"
       transform="matrix(-1,0,0,1,411.5842,0)" /></g></svg>
