<svg xmlns="http://www.w3.org/2000/svg" xmlns:xlink="http://www.w3.org/1999/xlink" xml:space="preserve" width="1024" height="1024"><defs><linearGradient id="c"><stop offset=".045" stop-color="#7f24ce"/><stop offset=".468" stop-color="#b846e4"/><stop offset=".848" stop-color="#d055ee"/><stop offset="1" stop-color="#f87cfe"/></linearGradient><linearGradient id="b"><stop offset=".045" stop-color="#7f24ce"/><stop offset=".478" stop-color="#b846e4"/><stop offset=".848" stop-color="#d055ee"/><stop offset="1" stop-color="#f87cfe"/></linearGradient><linearGradient id="a"><stop offset=".045" stop-color="#7f24ce"/><stop offset=".468" stop-color="#b846e4"/><stop offset=".825" stop-color="#d055ee"/><stop offset="1" stop-color="#f87cfe"/></linearGradient><linearGradient xlink:href="#a" id="d" x1="496.519" x2="635.831" y1="813.477" y2="589.778" gradientUnits="userSpaceOnUse"/><linearGradient xlink:href="#b" id="e" x1="269.585" x2="488.27" y1="847.204" y2="393.079" gradientUnits="userSpaceOnUse"/><linearGradient xlink:href="#c" id="f" x1="635.831" x2="721.822" y1="589.778" y2="368.408" gradientUnits="userSpaceOnUse"/></defs><path fill="url(#d)" d="m 519.20898,576.44141 c 3.99455,-0.0685 8.02634,0.0524 12.08204,0.36914 4.05569,0.31676 8.13536,0.83057 12.23046,1.54687 3.0943,0.54125 6.14698,1.20116 9.1543,1.97461 3.00732,0.77345 5.97021,1.66029 8.88086,2.65625 2.91065,0.99596 5.76994,2.09982 8.57422,3.30859 2.80428,1.20878 5.55396,2.5217 8.24219,3.9336 2.68822,1.41189 5.31448,2.92398 7.87695,4.5293 2.56247,1.60531 5.0593,3.3047 7.48633,5.09375 2.42702,1.78904 4.78452,3.66778 7.0664,5.63085 2.28189,1.96308 4.48819,4.01127 6.61524,6.13868 2.12705,2.12741 4.17615,4.33318 6.13867,6.61523 1.96252,2.28205 3.83866,4.63942 5.62695,7.06641 1.7883,2.42699 3.48742,4.92409 5.0918,7.48633 1.60438,2.56224 3.11462,5.18916 4.52539,7.87695 1.41077,2.68779 2.72223,5.43659 3.92969,8.24023 1.20746,2.80365 2.31022,5.66246 3.30469,8.57227 0.99446,2.90981 1.88057,5.87068 2.65234,8.87695 0.77177,3.00627 1.42937,6.05735 1.96875,9.15039 0.7071,4.05479 1.21424,8.09985 1.52539,12.1211 0.31115,4.02125 0.42789,8.01871 0.35742,11.98437 -0.0705,3.96566 -0.32982,7.89909 -0.76758,11.78711 -0.43775,3.88802 -1.05498,7.73121 -1.8457,11.51953 -0.79071,3.78833 -1.75347,7.52092 -2.88281,11.1875 -1.12935,3.66658 -2.42526,7.26823 -3.87891,10.79102 -1.45365,3.52278 -3.06645,6.96727 -4.83008,10.32422 -1.76362,3.35694 -3.67706,6.62587 -5.73632,9.79492 -2.05927,3.16904 -4.26294,6.23816 -6.60352,9.19726 -2.34058,2.9591 -4.81821,5.80806 -7.42578,8.53516 -2.60757,2.7271 -5.34485,5.33358 -8.20508,7.80664 -2.86023,2.47306 -5.8448,4.81281 -8.94336,7.00977 -3.09856,2.19696 -6.3122,4.24962 -9.63476,6.14843 -3.32257,1.89881 -6.75292,3.64405 -10.28516,5.22266 -3.53224,1.57861 -7.16695,2.9902 -10.89453,4.22656 -3.72758,1.23637 -7.54843,2.29786 -11.45703,3.16992 -2.5,0.55779 -6.22109,1.01348 -10.56641,1.35547 -4.34532,0.342 -9.31515,0.56992 -14.31641,0.67188 -5.00125,0.10195 -10.03219,0.0783 -14.5,-0.084 -4.4678,-0.16232 -8.37222,-0.4632 -11.11718,-0.91406 -2.92258,-0.48003 -5.81513,-1.07859 -8.67383,-1.78906 -2.85871,-0.71047 -5.68445,-1.53409 -8.46875,-2.46485 -2.7843,-0.93075 -5.52722,-1.96849 -8.22656,-3.10937 -2.69935,-1.14088 -5.35514,-2.38377 -7.95899,-3.72461 -2.60385,-1.34084 -5.15648,-2.77989 -7.65429,-4.31055 -2.49782,-1.53065 -4.94103,-3.15297 -7.32227,-4.86328 -2.38124,-1.7103 -4.70096,-3.50887 -6.95508,-5.38867 -2.25411,-1.8798 -4.44214,-3.84172 -6.55859,-5.88086 -2.11645,-2.03914 -4.16066,-4.15543 -6.12891,-6.34375 -1.96824,-2.18832 -3.86042,-4.44804 -5.66992,-6.77539 -1.8095,-2.32734 -3.53753,-4.72152 -5.17773,-7.17773 -1.64021,-2.45622 -3.19197,-4.97391 -4.65235,-7.54883 -1.46037,-2.57492 -2.82765,-5.20715 -4.09765,-7.89063 -1.27,-2.68347 -2.44264,-5.4193 -3.51172,-8.20117 -1.06909,-2.78187 -2.03496,-5.61036 -2.89258,-8.48047 -0.85762,-2.8701 -1.60657,-5.78228 -2.24219,-8.73047 l -1.80859,-8.38476 v -18.5 -18.5 l 1.80859,-8.38672 c 0.85461,-3.9639 1.89692,-7.83681 3.11719,-11.61524 1.22027,-3.77842 2.61746,-7.46234 4.18164,-11.04101 1.56417,-3.57867 3.29531,-7.05332 5.18164,-10.41797 1.88633,-3.36464 3.92849,-6.61755 6.11523,-9.75391 2.18675,-3.13635 4.51703,-6.15504 6.98243,-9.04882 2.4654,-2.89379 5.0648,-5.66383 7.78711,-8.30079 2.7223,-2.63695 5.56792,-5.14196 8.52539,-7.50781 2.95746,-2.36584 6.02835,-4.59141 9.19921,-6.67187 3.17087,-2.08047 6.44217,-4.01606 9.80469,-5.79688 3.36253,-1.78082 6.81523,-3.4081 10.34766,-4.875 3.53243,-1.4669 7.14559,-2.7734 10.82617,-3.91211 3.68059,-1.13871 7.42934,-2.11 11.23633,-2.90625 3.80699,-0.79624 7.67039,-1.4179 11.58203,-1.85742 3.91164,-0.43951 7.87069,-0.69711 11.86523,-0.76562 z" style="mix-blend-mode:normal"/><path fill="url(#e)" d="m 284.14844,45.798828 0.0723,2.75 c 0.0219,0.831292 0.52466,2.161934 1.39258,3.775391 0.86792,1.613457 2.10174,3.509738 3.58399,5.474609 5.21874,6.917994 10.09934,13.953421 14.63281,21.080078 4.53347,7.126658 8.71959,14.344823 12.55078,21.626954 3.83119,7.28213 7.30605,14.62926 10.41797,22.01367 3.11191,7.38441 5.86069,14.80673 8.23633,22.24024 2.37563,7.4335 4.37959,14.87723 6.00195,22.30664 0.81118,3.7147 1.52681,7.4252 2.14648,11.1289 0.61968,3.7037 1.14232,7.39988 1.56836,11.08594 0.42605,3.68606 0.75604,7.36168 0.98633,11.02344 0.23029,3.66176 0.36213,7.31059 0.39453,10.9414 0.0324,3.63082 -0.0355,7.24467 -0.20312,10.83789 -0.1676,3.59322 -0.43496,7.16587 -0.80469,10.71485 -0.56733,5.44572 -1.20396,10.61787 -1.94531,15.625 -0.74136,5.00712 -1.58803,9.84988 -2.57813,14.63672 -0.9901,4.78683 -2.12394,9.51788 -3.4375,14.30273 -1.31356,4.78485 -2.80779,9.62187 -4.51953,14.62305 -1.71174,5.00117 -3.63958,10.16575 -5.82422,15.60156 -2.18464,5.43581 -4.62516,11.14368 -7.35742,17.23242 -5.46452,12.17749 -12.0998,25.87944 -20.20312,41.97852 -6.84635,13.60182 -13.18664,26.51859 -19.06055,38.86133 -5.87391,12.34273 -11.28013,24.11155 -16.25781,35.41601 -4.97769,11.30447 -9.52787,22.14386 -13.68555,32.63086 -4.15768,10.487 -7.924,20.62138 -11.33789,30.51172 -3.4139,9.89034 -6.47438,19.53825 -9.2207,29.05273 -2.74633,9.51449 -5.17902,18.89642 -7.33399,28.25586 -2.15497,9.35944 -4.03204,18.6959 -5.67187,28.1211 -1.63984,9.4252 -3.04128,18.93862 -4.24219,28.65039 l -1.73242,14 0.01,28 c 0.003,10.16305 0.16218,18.78565 0.59375,26.62304 0.21579,3.9187 0.50024,7.64168 0.86719,11.26172 0.36695,3.62005 0.81577,7.13854 1.36328,10.64844 0.54752,3.5099 1.19369,7.01135 1.95117,10.59961 0.75749,3.58826 1.62618,7.26205 2.62305,11.11719 1.99373,7.71027 4.49537,16.14391 7.62305,26.05273 2.23389,7.0772 4.70777,14.02434 7.4082,20.83399 2.70043,6.80965 5.62915,13.48091 8.77539,20.00586 3.14625,6.52494 6.50876,12.90387 10.08008,19.12695 3.57132,6.22308 7.3505,12.29125 11.32617,18.19531 3.97567,5.90406 8.14853,11.64305 12.50781,17.21094 4.35928,5.56789 8.9048,10.96318 13.62696,16.17773 4.72215,5.21456 9.62124,10.24968 14.68554,15.09375 5.06431,4.84408 10.29398,9.49865 15.67969,13.95508 5.38572,4.45643 10.92689,8.71399 16.61328,12.76563 5.6864,4.05163 11.51804,7.89766 17.48438,11.52734 5.96634,3.62968 12.06741,7.0438 18.29297,10.23438 6.22555,3.19057 12.57502,6.15631 19.03906,8.89062 6.46403,2.73431 13.04283,5.23716 19.72461,7.49805 6.68178,2.26089 13.4669,4.28046 20.3457,6.05078 6.8788,1.77032 13.85117,3.29015 20.90625,4.55273 7.05508,1.26259 14.19367,2.26816 21.4043,3.00586 2.475,0.25322 7.81797,0.44695 14.43359,0.55469 6.61562,0.10774 14.50392,0.1288 22.06641,0.0391 l 27.5,-0.32617 12.5,-2.04883 c 8.10261,-1.32778 15.97657,-2.88888 23.64258,-4.69531 7.666,-1.80643 15.12432,-3.85817 22.39453,-6.16406 7.2702,-2.3059 14.35237,-4.86718 21.26757,-7.69336 6.91521,-2.82618 13.66266,-5.91593 20.26368,-9.28321 6.60101,-3.36727 13.05518,-7.01026 19.38281,-10.93945 6.32763,-3.92919 12.52994,-8.14628 18.625,-12.6582 6.09505,-4.51192 12.08304,-9.32008 17.98633,-14.43555 5.90328,-5.11546 11.72034,-10.53752 17.47265,-16.27734 5.57397,-5.56186 10.86228,-11.22183 15.86914,-16.99024 5.00687,-5.76841 9.7334,-11.64549 14.1836,-17.64062 4.4502,-5.99513 8.62532,-12.1076 12.52929,-18.34961 3.90398,-6.24201 7.53612,-12.61398 10.9043,-19.12305 3.36818,-6.50906 6.47164,-13.15684 9.31445,-19.95312 2.84282,-6.79629 5.42601,-13.74008 7.75391,-20.84375 2.3279,-7.10368 4.4012,-14.36564 6.22461,-21.79688 1.82342,-7.43123 3.3972,-15.03158 4.72656,-22.81054 l 2.56055,-14.99219 0.59766,-19.54688 c 0.19816,-6.47862 0.2753,-11.893 0.17187,-16.69336 -0.10343,-4.80035 -0.38638,-8.98738 -0.9082,-13.00976 -0.52182,-4.02238 -1.28284,-7.8807 -2.33985,-12.02539 -1.057,-4.14469 -2.41015,-8.5749 -4.11914,-13.74219 -1.72004,-5.20071 -3.53907,-10.28778 -5.45898,-15.26367 -1.91991,-4.97589 -3.94056,-9.84046 -6.0625,-14.59375 -2.12194,-4.75329 -4.34574,-9.39679 -6.67188,-13.92969 -2.32613,-4.5329 -4.75463,-8.95481 -7.28711,-13.26953 -2.53247,-4.31472 -5.16917,-8.52234 -7.91015,-12.62109 -2.74099,-4.09876 -5.58741,-8.08961 -8.53906,-11.97461 -2.95165,-3.88501 -6.00741,-7.66443 -9.17188,-11.33789 -3.16447,-3.67347 -6.43695,-7.24095 -9.81641,-10.70508 -3.37945,-3.46414 -6.86629,-6.82306 -10.46289,-10.08008 -3.59659,-3.25702 -7.30325,-6.41273 -11.11914,-9.46484 -3.81589,-3.05212 -7.74195,-6.00214 -11.77929,-8.85157 -4.03735,-2.84943 -8.18631,-5.59714 -12.44727,-8.24609 -4.26096,-2.64895 -8.63436,-5.19775 -13.12109,-7.64844 -4.48674,-2.45068 -9.08612,-4.80396 -13.80078,-7.05859 -4.71467,-2.25463 -9.54353,-4.41187 -14.48829,-6.47266 -4.94475,-2.06079 -10.00463,-4.02537 -15.18164,-5.89453 -13.52155,-4.88197 -21.03929,-7.61414 -26.89062,-9.87305 -5.85134,-2.2589 -10.03703,-4.04471 -16.89258,-7.02929 -5.09399,-2.21769 -9.9904,-4.47244 -14.70117,-6.77149 -4.71077,-2.29904 -9.23676,-4.64125 -13.58594,-7.03711 -4.34918,-2.39585 -8.52203,-4.8454 -12.53125,-7.35351 -4.00922,-2.50811 -7.85403,-5.07512 -11.54492,-7.71094 -3.69089,-2.63582 -7.22885,-5.34017 -10.62305,-8.11914 -3.3942,-2.77897 -6.64453,-5.63274 -9.76367,-8.57031 -3.11914,-2.93758 -6.10694,-5.95869 -8.97266,-9.07032 -2.86571,-3.11162 -5.61022,-6.3141 -8.24414,-9.61523 -1.96459,-2.46225 -3.51082,-4.2824 -4.77148,-5.41797 -0.63033,-0.56779 -1.19022,-0.96422 -1.69336,-1.18359 -0.50314,-0.21937 -0.95091,-0.26326 -1.35937,-0.12305 -0.40847,0.14021 -0.77673,0.46366 -1.12305,0.97461 -0.34632,0.51095 -0.66963,1.21065 -0.98633,2.10352 -0.63339,1.78572 -1.24113,4.34621 -1.95117,7.72656 -1.21769,5.79713 -4.33316,18.43896 -7.46875,30.62304 -3.13559,12.18409 -6.29095,23.91048 -7.58594,27.87696 -0.71826,2.2 -4.0834,12.77501 -7.47851,23.5 -3.39512,10.72499 -9.48301,29.62501 -13.5293,42 -4.04631,12.37499 -9.66843,29.59126 -12.49219,38.25781 -1.74037,5.34146 -3.00031,9.52049 -3.74414,12.67969 -0.37192,1.5796 -0.6134,2.90389 -0.72266,3.99023 -0.10925,1.08635 -0.0863,1.93649 0.0762,2.56446 0.16243,0.62796 0.4631,1.03381 0.90625,1.23828 0.44314,0.20446 1.02884,0.2076 1.76171,0.0234 1.46575,-0.36833 3.52043,-1.47975 6.19922,-3.19336 3.26121,-2.08616 6.58169,-4.04921 9.95313,-5.88867 3.37143,-1.83945 6.79346,-3.55576 10.26172,-5.14453 3.46826,-1.58876 6.98152,-3.05066 10.5332,-4.38476 3.55168,-1.3341 7.14198,-2.53978 10.76367,-3.61524 3.62169,-1.07546 7.27483,-2.02114 10.95313,-2.83398 3.67829,-0.81284 7.38202,-1.49282 11.10351,-2.03907 3.7215,-0.54624 7.4616,-0.9587 11.21289,-1.23437 3.75129,-0.27567 7.51358,-0.41489 11.28125,-0.41602 l 14.03516,-0.004 11.46484,2.09375 c 4.66959,0.85287 9.25907,1.89541 13.75977,3.11719 4.5007,1.22178 8.91356,2.62365 13.23047,4.19726 4.31691,1.57361 8.53802,3.3182 12.65625,5.22656 4.11822,1.90837 8.13246,3.97904 12.03711,6.20508 3.90465,2.22604 7.69882,4.60812 11.375,7.13477 3.67617,2.52664 7.23516,5.19764 10.66797,8.00781 3.43281,2.81017 6.73951,5.75931 9.91406,8.83594 3.17455,3.07663 6.2158,6.28141 9.11719,9.60742 2.90139,3.32601 5.664,6.77177 8.27734,10.33008 2.61334,3.55831 5.07828,7.23036 7.38867,11.0039 2.31039,3.77354 4.46449,7.6494 6.45703,11.6211 1.99255,3.97169 3.82262,8.03863 5.48242,12.1914 1.65981,4.15277 3.15072,8.39221 4.4629,12.70899 1.31217,4.31677 2.44683,8.71012 3.39648,13.17383 0.94965,4.4637 1.71293,8.99628 2.28516,13.58984 0.57222,4.59356 0.9529,9.24874 1.13281,13.95508 l 0.55469,14.5 -1.59766,11.33203 c -0.53275,3.77975 -1.22286,7.57021 -2.0625,11.35351 -0.83964,3.78331 -1.82932,7.55978 -2.96094,11.31446 -1.13161,3.75468 -2.40579,7.48774 -3.81445,11.18164 -1.40866,3.6939 -2.95227,7.34827 -4.62305,10.94922 -1.67078,3.60094 -3.46874,7.14917 -5.38672,10.625 -1.91797,3.47583 -3.95521,6.88067 -6.10547,10.19922 -2.15025,3.31855 -4.41364,6.55058 -6.78125,9.67968 -2.3676,3.12911 -4.84013,6.15501 -7.41015,9.0625 -2.64882,2.99663 -5.45474,5.90095 -8.40625,8.70508 -2.95152,2.80414 -6.04875,5.50695 -9.27344,8.10156 -3.22468,2.59462 -6.57854,5.08117 -10.04687,7.44922 -3.46833,2.36805 -7.04998,4.61774 -10.73243,6.74219 -3.68244,2.12446 -7.46499,4.12446 -11.33203,5.98828 -3.86703,1.86383 -7.8197,3.59158 -11.84179,5.17774 -4.0221,1.58616 -8.1141,3.0308 -12.26172,4.32226 -4.14763,1.29146 -8.35012,2.43044 -12.59375,3.41016 l -9.5,2.19336 -16.23633,0.47265 c -5.07594,0.14803 -10.10931,0.0526 -15.08984,-0.27734 -4.98054,-0.32994 -9.90854,-0.8943 -14.76954,-1.68164 -4.86099,-0.78735 -9.65572,-1.79731 -14.37304,-3.02149 -4.71732,-1.22417 -9.35674,-2.66228 -13.90625,-4.30273 -4.54952,-1.64044 -9.00961,-3.48339 -13.36719,-5.51953 -4.35758,-2.03614 -8.6124,-4.26451 -12.75391,-6.67578 -4.1415,-2.41127 -8.16901,-5.00565 -12.07031,-7.77149 -3.9013,-2.76583 -7.67748,-5.70291 -11.31445,-8.80273 -3.63697,-3.09982 -7.13392,-6.36214 -10.48242,-9.77539 -3.3485,-3.41325 -6.54809,-6.97749 -9.58399,-10.6836 -3.0359,-3.7061 -5.90825,-7.55481 -8.60742,-11.5332 -2.69917,-3.97839 -5.2242,-8.08825 -7.5625,-12.31836 -2.3383,-4.23011 -4.49006,-8.57976 -6.44336,-13.04101 -1.9533,-4.46126 -3.70778,-9.03324 -5.25195,-13.70508 -1.54417,-4.67184 -2.87933,-9.44479 -3.99024,-14.30664 -1.1109,-4.86185 -1.99883,-9.81245 -2.65234,-14.84375 -0.64296,-4.95 -1.55464,-10.575 -2.02539,-12.5 -0.3989,-1.6312 -0.71728,-3.3941 -0.95703,-5.29492 -0.23976,-1.90083 -0.39921,-3.94045 -0.47657,-6.125 -0.1547,-4.36911 0.0188,-9.3196 0.53321,-14.90821 0.51443,-5.5886 1.36854,-11.81545 2.57812,-18.73633 1.20959,-6.92087 2.77431,-14.53447 4.70508,-22.90039 1.93077,-8.36592 4.22827,-17.4825 6.90625,-27.40625 2.67798,-9.92374 5.73628,-20.65565 9.1875,-32.25 3.45122,-11.59434 7.29443,-24.05196 11.54492,-37.42968 4.25049,-13.37772 8.90859,-27.67535 13.98438,-42.94922 3.55488,-10.69724 6.84745,-20.83942 9.89844,-30.51367 3.05099,-9.67426 5.85898,-18.88096 8.44726,-27.70899 2.58829,-8.82803 4.95627,-17.27699 7.12305,-25.43555 2.16677,-8.15855 4.13347,-16.02751 5.91992,-23.69335 1.78645,-7.66585 3.39252,-15.12863 4.83984,-22.47852 1.44733,-7.34989 2.73539,-14.58619 3.88477,-21.79688 1.14938,-7.21068 2.1601,-14.39629 3.05273,-21.64453 0.89264,-7.24823 1.66667,-14.55894 2.34375,-22.02148 l 1.70508,-18.79297 -0.51367,-31.20703 -0.51563,-31.20703 -2.0332,-13.06446 c -0.97263,-6.25343 -2.0897,-12.28031 -3.35937,-18.09765 -1.26967,-5.81734 -2.69045,-11.4248 -4.27149,-16.83594 -1.58104,-5.41114 -3.32178,-10.62727 -5.22851,-15.66211 -1.90674,-5.03484 -3.97981,-9.88773 -6.22657,-14.57617 -2.24675,-4.68844 -4.66647,-9.21205 -7.26757,-13.58398 -2.60111,-4.37193 -5.38374,-8.59242 -8.35352,-12.67774 -2.96978,-4.08532 -6.12769,-8.03467 -9.48047,-11.86328 -3.35278,-3.82861 -6.90028,-7.53688 -10.65039,-11.138672 -2.51332,-2.413921 -4.71046,-4.462286 -6.83008,-6.330078 -2.11961,-1.867792 -4.16181,-3.555767 -6.36914,-5.246094 -4.41466,-3.380653 -9.48656,-6.775436 -17.14062,-11.658203 -2.39388,-1.527128 -5.1084,-3.042906 -8.07032,-4.527344 -2.96191,-1.484437 -6.17205,-2.936444 -9.55664,-4.335937 -3.38458,-1.399493 -6.94356,-2.745284 -10.60546,-4.017578 -3.66191,-1.272294 -7.42489,-2.471378 -11.21875,-3.574219 -3.79387,-1.102841 -7.61797,-2.110819 -11.39844,-3.001953 -3.78047,-0.891134 -7.51891,-1.665562 -11.14063,-2.302735 -3.62171,-0.637172 -7.12771,-1.135606 -10.44531,-1.476562 -3.3176,-0.340956 -6.44632,-0.524858 -9.31445,-0.527344 z" style="mix-blend-mode:normal"/><path fill="url(#f)" d="m 566.20312,99.453125 -2.27734,1.041015 c -1.10563,0.5053 -2.93642,1.76584 -5.25195,3.57422 -2.31553,1.80838 -5.11699,4.16447 -8.16602,6.85547 -3.04899,2.69099 -6.34451,5.71807 -9.65039,8.87109 -3.30586,3.15305 -6.62219,6.43212 -9.70898,9.62695 -2.18312,2.25953 -4.25226,4.47793 -6.21875,6.66993 -1.96649,2.19198 -3.83033,4.35761 -5.60157,6.51367 -1.77121,2.15606 -3.44981,4.30288 -5.04687,6.45508 -1.59706,2.15217 -3.11261,4.30977 -4.55664,6.49023 -1.44403,2.18046 -2.81666,4.38269 -4.12891,6.62305 -1.31225,2.24036 -2.56413,4.51885 -3.76562,6.85156 -1.2015,2.33271 -2.35279,4.71881 -3.46485,7.17578 -1.11203,2.45698 -2.18488,4.98485 -3.22851,7.59766 l -4.19336,10.5 0.61328,6 c 0.33805,3.29996 1.28411,12.30004 2.10156,20 0.41799,3.93722 0.74527,8.6293 0.97852,13.80273 0.23325,5.17346 0.37161,10.82755 0.41601,16.69141 0.0444,5.86383 -0.006,11.93688 -0.15429,17.94531 -0.14863,6.00846 -0.39448,11.95329 -0.74024,17.56055 -0.50872,8.24996 -1.22092,19.95 -1.58203,26 l -0.65625,11 3.01563,8.5 c 1.61368,4.54861 3.29272,8.737 5.0957,12.66015 0.90149,1.9616 1.83443,3.85651 2.80469,5.69727 0.97025,1.84076 1.97782,3.62742 3.03125,5.37109 1.05342,1.7437 2.15177,3.44509 3.30273,5.11524 1.15096,1.67014 2.35453,3.30905 3.61719,4.92969 1.26266,1.62061 2.58566,3.22172 3.97461,4.8164 1.38895,1.59469 2.84386,3.18298 4.37305,4.77539 2.99763,3.12162 6.05643,6.1056 9.21289,8.97071 3.15642,2.86507 6.40992,5.61258 9.79882,8.26367 3.38893,2.65105 6.91234,5.206 10.60743,7.68554 3.69505,2.47958 7.56182,4.88382 11.63671,7.23438 4.07493,2.35056 8.3583,4.6461 12.88672,6.91016 4.52846,2.26402 9.30177,4.49674 14.35743,6.71679 5.05563,2.22005 10.39423,4.42794 16.05078,6.64649 5.65652,2.21851 11.63176,4.44748 17.96289,6.70703 8.24377,2.94217 16.10364,5.95218 23.61523,9.05469 3.75581,1.55122 7.42425,3.12464 11.00977,4.7246 3.5855,1.59999 7.08814,3.22664 10.51172,4.88086 3.42355,1.65425 6.76854,3.33661 10.03906,5.05079 3.27052,1.71415 6.46659,3.46017 9.5918,5.24023 3.12517,1.78006 6.17959,3.5937 9.16796,5.44531 2.98839,1.85161 5.91081,3.74124 8.77149,5.66992 2.86068,1.92872 5.6593,3.89834 8.40039,5.91016 2.74109,2.01182 5.42467,4.06583 8.05469,6.16602 2.62999,2.10016 5.20673,4.24515 7.73437,6.43945 2.52765,2.1943 5.00627,4.43794 7.43945,6.73242 2.43322,2.29448 4.82236,4.64049 7.16993,7.04102 2.34754,2.4005 4.65359,4.8556 6.92382,7.36718 2.27027,2.51162 4.50376,5.08045 6.70508,7.70899 2.20134,2.62854 4.37055,5.31679 6.51172,8.06836 3.08336,3.96231 5.93417,7.84503 8.70508,11.90234 2.77091,4.05735 5.46115,8.28832 8.2207,12.94922 2.75959,4.66093 5.58932,9.75231 8.63867,15.52539 3.04939,5.77312 6.31869,12.22919 9.95899,19.62305 3.99409,8.11246 8.01674,16.13438 11.2793,22.52344 3.26254,6.38903 5.76505,11.14531 6.7207,12.72656 0.85285,1.41114 1.61529,2.58191 2.29492,3.48047 0.67964,0.89856 1.27696,1.52535 1.79883,1.84961 0.26093,0.16216 0.50233,0.24886 0.72656,0.25586 0.22424,0.007 0.43132,-0.0668 0.6211,-0.22266 0.37955,-0.31177 0.69069,-0.95727 0.94335,-1.9668 0.2527,-1.00952 0.44658,-2.38333 0.5879,-4.15234 0.14131,-1.76901 0.23009,-3.93323 0.27539,-6.52344 0.0906,-5.18039 0.005,-12.06483 -0.19532,-20.90039 l -0.55664,-24.57031 -2.0664,-13.68946 c -0.55047,-3.64762 -1.14349,-7.235 -1.78125,-10.76757 -0.63777,-3.5326 -1.32029,-7.01048 -2.04883,-10.43555 -0.72855,-3.42507 -1.50375,-6.79855 -2.32617,-10.12305 -0.82243,-3.32447 -1.69209,-6.60003 -2.61133,-9.83008 -0.91924,-3.23002 -1.88691,-6.41397 -2.90625,-9.55664 -1.01934,-3.14264 -2.09035,-6.24407 -3.21289,-9.30664 -1.12255,-3.06254 -2.29836,-6.08712 -3.52735,-9.07617 -1.22896,-2.98905 -2.51113,-5.94264 -3.84961,-8.86523 -1.33844,-2.92262 -2.73271,-5.81456 -4.18359,-8.67774 -1.45087,-2.86315 -2.95839,-5.69759 -4.52539,-8.50781 -1.567,-2.81022 -3.19291,-5.59534 -4.87891,-8.35937 -1.68597,-2.76406 -3.43208,-5.50706 -5.24023,-8.23243 -1.80815,-2.72533 -3.67943,-5.43331 -5.61328,-8.12695 -1.93385,-2.69364 -3.93027,-5.37297 -5.99219,-8.04102 -2.06192,-2.66802 -4.18935,-5.32513 -6.38281,-7.9746 -2.19346,-2.64949 -4.45296,-5.29142 -6.78125,-7.92969 -2.42339,-2.74603 -5.04271,-5.57276 -7.81641,-8.44531 -2.77368,-2.87258 -5.7018,-5.79104 -8.74609,-8.72266 -3.0443,-2.93162 -6.20431,-5.87572 -9.43945,-8.79883 -3.23517,-2.92311 -6.54556,-5.82528 -9.89258,-8.67187 -3.34704,-2.84663 -6.73022,-5.63911 -10.10938,-8.3418 -3.37913,-2.70269 -6.75429,-5.31561 -10.08594,-7.80664 -3.33161,-2.49103 -6.61956,-4.85853 -9.82421,-7.07031 -3.20468,-2.21181 -6.32616,-4.26795 -9.32422,-6.13282 -7.15966,-4.45341 -13.76133,-8.65033 -19.87305,-12.65039 -6.11172,-4.00003 -11.73374,-7.80303 -16.93359,-11.4707 -5.19988,-3.66767 -9.97829,-7.19996 -14.40235,-10.65625 -4.42402,-3.45629 -8.49307,-6.83722 -12.27734,-10.20313 -3.78427,-3.36587 -7.28396,-6.71675 -10.56445,-10.11328 -3.28053,-3.39649 -6.34307,-6.83856 -9.25586,-10.38672 -2.91283,-3.54812 -5.67626,-7.20268 -8.35743,-11.02343 -2.68113,-3.82078 -5.27968,-7.80708 -7.86523,-12.02149 -1.74052,-2.837 -3.39197,-5.69194 -4.95312,-8.56445 -1.56118,-2.87251 -3.0321,-5.76264 -4.41407,-8.67383 -1.38197,-2.91119 -2.67395,-5.84337 -3.87695,-8.79687 -1.203,-2.95352 -2.31702,-5.92842 -3.3418,-8.92774 -1.02478,-2.99929 -1.96189,-6.02168 -2.80859,-9.07031 -0.8467,-3.04863 -1.60448,-6.12318 -2.27344,-9.22461 -0.66895,-3.10143 -1.24868,-6.23095 -1.74023,-9.38867 -0.49156,-3.15772 -0.89449,-6.34304 -1.20899,-9.56055 -0.31449,-3.21748 -0.54016,-6.46695 -0.67773,-9.74805 -0.13754,-3.28107 -0.18704,-6.59384 -0.14844,-9.9414 0.0386,-3.34756 0.16436,-6.72884 0.37891,-10.14649 0.21454,-3.41763 0.51788,-6.87169 0.9082,-10.36328 0.39033,-3.49156 0.86771,-7.02113 1.43359,-10.58984 0.56588,-3.56871 1.22026,-7.17661 1.96094,-10.82617 0.74069,-3.64959 1.56746,-7.34045 2.48242,-11.07422 0.91497,-3.73377 1.91814,-7.5105 3.00782,-11.33203 l 1.21093,-4.2461 -1.17773,-1.17773 z" style="mix-blend-mode:normal"/></svg>