<svg xmlns="http://www.w3.org/2000/svg" xmlns:xlink="http://www.w3.org/1999/xlink" width="240.158" height="51"><defs><linearGradient xlink:href="#a" id="d" x1="496.519" x2="635.831" y1="813.477" y2="589.778" gradientTransform="matrix(-.60262 -.01597 -.01567 .59105 825.56 188.537)" gradientUnits="userSpaceOnUse"/><linearGradient id="a"><stop offset=".045" stop-color="#7f24ce"/><stop offset=".468" stop-color="#b846e4"/><stop offset=".825" stop-color="#d055ee"/><stop offset="1" stop-color="#f87cfe"/></linearGradient><linearGradient xlink:href="#b" id="e" x1="269.585" x2="488.27" y1="847.204" y2="393.079" gradientTransform="matrix(-.60262 -.01597 -.01567 .59105 825.56 188.537)" gradientUnits="userSpaceOnUse"/><linearGradient id="b"><stop offset=".045" stop-color="#7f24ce"/><stop offset=".478" stop-color="#b846e4"/><stop offset=".848" stop-color="#d055ee"/><stop offset="1" stop-color="#f87cfe"/></linearGradient><linearGradient xlink:href="#c" id="f" x1="635.831" x2="721.822" y1="589.778" y2="368.408" gradientTransform="matrix(-.60262 -.01597 -.01567 .59105 825.56 188.537)" gradientUnits="userSpaceOnUse"/><linearGradient id="c"><stop offset=".045" stop-color="#7f24ce"/><stop offset=".468" stop-color="#b846e4"/><stop offset=".848" stop-color="#d055ee"/><stop offset="1" stop-color="#f87cfe"/></linearGradient></defs><g transform="translate(39.508 -202.738)"><ellipse cx=".233" cy="229.002" fill="#293252" rx="24.748" ry="24.736"/><path fill="#293252" d="m 176.37136,202.73827 c -3.74647,0 -4.12033,4.24977 -8.90455,4.24977 -1.16134,-0.006 -122.501906,0.002 -122.501906,0.002 l 0.07617,0.002 c -2.589638,-0.0625 -5.227607,0.0743 -7.798829,0.92773 -2.02404,0.67183 -3.885155,2.01591 -5.498046,3.75195 l -68.09375,-0.0527 c -2.444709,-0.002 -3.959469,2.66103 -2.708985,4.76172 l 7.304688,12.27539 -7.333985,12.82617 c -1.20168,2.10019 0.314696,4.71486 2.734375,4.71485 h 69.408203 c 0.764871,-0.0379 1.489744,-0.35313 2.58917,-1.44664 1.099427,-1.09351 3.5841,-3.18621 9.320987,-3.18621 1.739929,4e-5 3.15041,-0.002 3.15041,-0.002 l 122.019048,-0.0205 c 1.86832,-0.0185 4.80158,-1.38781 6.53257,-4.22564 h 20.82722 c 2.41968,2e-5 3.93606,-2.61466 2.73438,-4.71485 l -7.334,-12.82595 7.30469,-12.27539 c 1.25004,-2.09994 -0.26319,-4.76174 -2.70703,-4.76172 z"/><g paint-order="markers stroke fill"><path fill="url(#d)" d="m 503.64422,520.94537 c -41.35158,-3.33221 -79.36493,33.75252 -76.19515,74.33436 0.43008,37.50839 35.05902,71.3916 73.84613,68.72316 44.89401,2.80895 80.92738,-43.55865 71.22557,-85.35606 -5.57327,-32.11196 -35.92031,-56.81938 -68.87655,-57.70146 z" style="mix-blend-mode:normal" transform="matrix(-.07083 -.00191 -.00188 .07222 37.517 196.2)"/><path fill="url(#e)" d="m 653.60969,211.06665 c -9.53539,18.00415 -24.75145,34.20326 -31.01265,54.41337 -17.62337,41.98212 -6.88973,89.0688 13.55994,128.09907 31.20604,64.20511 61.27035,134.88591 50.14191,207.38735 -11.03397,65.46876 -60.25678,124.5072 -126.32233,142.27969 -66.3698,19.79829 -143.31836,-3.71611 -186.03811,-57.54723 -29.35218,-35.41343 -45.70934,-83.82979 -36.20667,-129.17962 13.96276,-50.33358 55.3376,-91.43268 106.65725,-105.34346 31.1195,-9.29248 61.93523,-23.60514 82.95239,-48.67756 4.62879,16.42634 9.83871,36.88072 15.39292,55.22547 5.17431,19.84403 13.19136,39.18058 16.76805,59.29021 -16.72071,-6.96373 -36.24428,-18.73929 -56.77554,-17.76327 -51.55026,-2.34829 -98.13459,42.65981 -97.43512,93.13781 -0.88918,49.25209 43.71418,94.19453 94.20601,93.55757 50.24065,1.55475 94.46223,-40.92422 97.25557,-89.55062 1.66789,-36.91218 -12.70951,-72.29269 -22.10256,-107.55132 -18.44018,-58.6106 -35.9619,-120.78521 -26.59551,-182.53715 5.07864,-43.13317 36.61242,-84.24527 81.45344,-92.4901 7.8884,-1.77242 15.97712,-3.12037 24.10101,-2.75021 z" style="mix-blend-mode:normal" transform="matrix(-.07083 -.00191 -.00188 .07222 37.517 196.2)"/><path fill="url(#f)" d="m 482.79812,238.27301 c 19.84611,14.30319 38.09517,34.63366 43.6967,58.55744 -4.95596,25.11352 -2.63886,50.95862 -2.9179,76.1525 -12.0107,37.77625 -52.67015,54.07147 -87.99348,64.72863 -43.07573,13.31566 -80.91355,42.98449 -100.16205,83.49644 -4.45181,7.98645 -19.95684,42.95077 -17.58683,13.88554 -0.12173,-50.24971 22.99109,-100.14951 63.91226,-130.92469 30.2824,-25.27491 72.45798,-38.25884 91.72657,-74.90108 16.55534,-26.82148 16.50301,-60.23218 7.86838,-89.64022 l 0.72839,-0.6772 z" style="mix-blend-mode:normal" transform="matrix(-.07083 -.00191 -.00188 .07222 37.517 196.2)"/></g><g fill="#797ff2"><path d="M32.762869 229.14538v-14.68281l.675921-.82917c.819814-1.00568 2.580435-2.51279 3.515733-3.00951 1.076497-.57169 2.430636-.97268 3.846921-1.13915.857084-.1007 23.205311-.15454 65.250056-.1571 71.56659-.004 65.20225.10307 66.91571-1.1293l.94144-.67712.0378 14.14797c.0274 10.23615-.007 14.26293-.12556 14.56376-.36837.93766-1.93075 2.01266-3.63908 2.50387-.85038.24452-5.00416.26642-65.43387.34508-61.301434.0798-64.579224.0975-65.593705.35515-2.092666.53139-3.277 1.25822-5.196453 3.18911l-1.194923 1.20204zM175.571 220.01109v-14.81562h11.20205c6.16113 0 11.20205.0401 11.20205.0891 0 .049-1.58703 2.76026-3.52675 6.02507-1.9397 3.26481-3.83258 6.50922-4.20638 7.20981l-.67965 1.27379 1.18607 2.16034c.65234 1.18819 2.54521 4.53783 4.20639 7.44365 1.66118 2.90581 3.02032 5.3162 3.02032 5.35641 0 .0402-5.04092.0731-11.20205.0731H175.571ZM20.238525 243.30708c1.290254-1.95061 2.438336-4.32845 3.180567-6.5874 2.285174-6.95483 1.325822-14.77593-2.578271-21.01932l-.918653-1.46909 5.497108-.0395c3.02341-.0217 5.538563.00081 5.58923.0501.05067.0493.09212 6.66797.09212 14.70813v14.61846l-5.543641.0395-5.543642.0395zM-37.051225 243.15633c0-.0297 1.651553-2.77451 3.670118-6.09975 3.822824-6.29747 4.911802-8.20561 4.911802-8.60662 0-.23845-.932973-1.76155-5.911352-9.65045-1.468813-2.32754-2.670568-4.2592-2.670568-4.29259 0-.0334 3.974082-.0607 8.831294-.0607h8.831296l-.331099.47696c-4.607413 6.63706-5.726134 14.50117-3.122449 21.94941.574299 1.64286 1.57645 3.70105 2.461867 5.05609.356931.54626.648966 1.05806.648966 1.13736 0 .0927-3.094179.14416-8.659938.14416-4.762966 0-8.659937-.0242-8.659937-.0539z"/><path fill="#af41e1" d="M 38.263892,50.079431 C 30.516666,49.584263 23.586481,45.428796 19.446933,38.796432 16.425293,33.955177 15.259183,27.970314 16.22961,22.28406 17.869802,12.6733 25.211758,5.0043178 34.726369,2.9634185 c 1.612582,-0.3459016 2.543032,-0.4467896 4.481197,-0.4858926 1.473703,-0.029732 2.121028,-0.011737 2.998579,0.083361 4.658685,0.5048476 8.815177,2.2163249 12.503243,5.1483366 0.800861,0.6366836 2.384829,2.182148 3.172456,3.0953385 2.992589,3.469665 4.890858,7.775259 5.544213,12.57521 0.156583,1.150353 0.181679,4.390521 0.04226,5.456484 -0.316336,2.418665 -0.748996,4.167094 -1.511198,6.106927 -2.391173,6.085627 -7.152167,10.928102 -13.180534,13.40611 -2.428755,0.998358 -4.952968,1.564518 -7.727727,1.733265 -1.30319,0.07925 -1.499517,0.07903 -2.784968,-0.0031 z m 3.472795,-0.723158 c 4.549653,-0.397743 8.850143,-2.115621 12.466802,-4.980003 0.99008,-0.78414 2.98511,-2.795094 3.742486,-3.772357 2.432773,-3.139078 4.010239,-6.744644 4.636331,-10.597117 0.462593,-2.846438 0.371792,-6.002866 -0.253013,-8.795164 -0.703981,-3.146141 -2.294082,-6.52996 -4.266446,-9.079225 C 54.243079,7.1953898 48.651844,4.0398873 42.385866,3.2848543 41.030871,3.1215812 38.393523,3.119409 37.111322,3.2805101 32.86187,3.814429 29.157406,5.2940763 25.848858,7.7789951 20.603193,11.718806 17.351521,17.536337 16.68976,24.165439 c -0.125007,1.252249 -0.04978,4.224165 0.137443,5.429666 0.738944,4.757985 2.814813,9.099111 5.948609,12.439928 1.375663,1.46654 3.119185,2.914985 4.687289,3.894002 1.030526,0.643389 3.023948,1.628056 4.08333,2.016994 2.129837,0.781939 4.385784,1.283525 6.468283,1.438153 0.778245,0.05778 2.925956,0.04168 3.721973,-0.02791 z" transform="translate(-39.508 202.738)"/></g><text x="42.44" y="229.732" fill="#fff" stroke-width=".937" font-family="Inter Alia" font-size="16.239"><tspan x="42.44" y="229.732">BLAZIUM DOCS</tspan></text></g></svg>