<svg enable-background="new" height="50.999832" viewBox="0 0 240.15759 50.999832" width="240.15759" xmlns="http://www.w3.org/2000/svg" xmlns:xlink="http://www.w3.org/1999/xlink"><linearGradient id="a" gradientTransform="matrix(1.1167546 0 0 1.0324025 -97.858058 -11.21196)" gradientUnits="userSpaceOnUse" x1="544.47919" x2="613.66211" y1="694.13623" y2="580.24829"><stop offset=".09532448" stop-color="#7f24ce"/><stop offset="1" stop-color="#f76dfe"/></linearGradient><linearGradient id="b" gradientTransform="matrix(.99970156 .0244293 -.0244293 .99970156 -33.783236 -49.337161)" gradientUnits="userSpaceOnUse" x1="353.38617" x2="480.31522" y1="648.13165" y2="384.90729"><stop offset=".15434083" stop-color="#7f24ce"/><stop offset="1" stop-color="#f76dfe"/></linearGradient><linearGradient id="c" gradientTransform="matrix(1.0388926 .02225591 -.02756462 .99987543 -48.176744 -46.156671)" gradientUnits="userSpaceOnUse" x1="446.11566" x2="636.15564" y1="764.13861" y2="347.01624"><stop offset=".04524595" stop-color="#7f24ce"/><stop offset=".46786892" stop-color="#b846e4"/><stop offset=".84766752" stop-color="#d055ee"/><stop offset="1" stop-color="#f87cfe"/></linearGradient><linearGradient id="d" gradientTransform="matrix(.86836616 0 0 -.86836616 19.116688 354.85379)" gradientUnits="userSpaceOnUse" x1="-50.169083" x2="266.50421" y1="214.34602" y2="111.7482"><stop offset="0" stop-color="#ff4e78"/><stop offset="1" stop-color="#f67b7b"/></linearGradient><g transform="translate(39.50845 -202.73825)"><path d="m-36.352685 214.76907 7.898437 13.27148c.249807.35818.249807.83323 0 1.19141l-7.898437 13.81445h69.406895l-.04164-28.22204zm212.441675-8.88051v28.27734h21.4043l-7.89844-13.81445c-.24981-.35818-.24981-.83323 0-1.19141l7.89649-13.27148zm-143.076606 8.93571.04183 28.22214c1.916785-1.92132 5.311962-4.63213 11.911452-4.63213v-.002l122.410154-.002c4.65321-.0933 8.2618-3.35204 8.71337-4.24438l-.0002-28.27734c-1.88269 1.61766-4.96029 4.27519-8.61161 4.24438v.006h-.16897c-.0115.00003-122.342784.002-122.342784.002-4.820702-.11635-9.145109.60314-11.953048 4.68343z" fill="#ff3252" stroke-linecap="round" stroke-linejoin="round" stroke-miterlimit="3.85" stroke-width="6.3"/><path d="m176.37136 202.73827c-3.74647 0-4.12033 4.24977-8.90455 4.24977-1.16134-.006-122.501906.002-122.501906.002l.07617.002c-2.589638-.0625-5.227607.0743-7.798829.92773-2.02404.67183-3.885155 2.01591-5.498046 3.75195l-68.09375-.0527c-2.444709-.002-3.959469 2.66103-2.708985 4.76172l7.304688 12.27539-7.333985 12.82617c-1.20168 2.10019.314696 4.71486 2.734375 4.71485h69.408203c.764871-.0379 1.489744-.35313 2.58917-1.44664 1.099427-1.09351 3.5841-3.18621 9.320987-3.18621 1.739929.00004 3.15041-.002 3.15041-.002l122.019048-.0205c1.86832-.0185 4.80158-1.38781 6.53257-4.22564h20.82722c2.41968.00002 3.93606-2.61466 2.73438-4.71485l-7.334-12.82595 7.30469-12.27539c1.25004-2.09994-.26319-4.76174-2.70703-4.76172z" fill="#293252" stroke-linecap="round" stroke-linejoin="round" stroke-miterlimit="3.85"/><path d="m-36.352483 214.76907 7.898437 13.27148c.249807.35818.249807.83323 0 1.19141l-7.898437 13.81445h67.294674v-28.27734zm212.441673-8.88051v28.27734h21.4043l-7.89844-13.81445c-.24981-.35818-.24981-.83323 0-1.19141l7.89649-13.27148zm-143.061061 9.13658-.000031 27.78894c.0083.0578.01128.11542.0098.17383 3.823563-4.01646 5.328272-4.57363 11.927766-4.57363v-.002l122.410156-.002c4.65321-.0933 6.10098-1.97074 6.55255-2.86308v-27.20191c-1.88269 1.61766-2.79967 1.81846-6.45099 1.78765v.006h-.13477c-.0115.00003-.0217.002-.0332.002-.0113-.00048-.0239-.00095-.0352-.002l-122.308586.002c-5.051311 0-7.839192-.026-11.9375 4.8843z" fill="url(#d)"/><ellipse cx=".233013" cy="229.00215" fill="#293252" rx="24.748463" ry="24.735935"/><circle cx=".23356" cy="229.0197" r="23.505161" style="fill:#293252;stroke:#506dbd;stroke-width:.634659;stroke-linejoin:round;stroke-miterlimit:3.8;stroke-dashoffset:37.7953"/><g transform="matrix(-.07083023 -.00191438 -.00187762 .07221699 37.516528 196.199363)"><ellipse cx="534.98291" cy="646.91638" fill="url(#a)" rx="72.271469" ry="66.812576" stroke-width="1.07376" transform="matrix(.99665453 -.08172972 -.0244293 .99970156 0 0)"/><path d="m404.86967 295.69403c24.41384 46.26919-3.18997 102.71838-43.76659 129.58377-50.43398 44.73561-77.83803 126.23401-39.93199 186.82696 3.04603-24.2343 5.78164-65.82415 25.28612-91.3723 18.3948-32.32588 49.06873-54.25496 79.60879-73.87935 48.16822-41.17941 28.4258-120.65733-21.19633-151.15908z" fill="url(#b)"/><path d="m591.6589 177.60634c-26.30575 15.91854-44.53704 44.02123-44.28364 74.33977.45243 65.35468 57.94359 109.04342 101.06021 151.93858 66.45394 57.56824 83.39742 155.15784 50.78219 233.93611-44.45244 111.80813-207.3192 160.68592-306.19086 85.97339-66.07571-46.20389-63.71502-143.46764-16.2287-201.76974 24.80942-39.8442 83.22846-46.8489 101.71321-91.00883 17.66848.83368 45.89413 54.57353 67.68707 76.07976-68.4892-7.2993-144.84407 55.40055-130.29394 124.37151 15.09353 59.56076 93.0435 79.4283 146.66318 56.45448 45.01268-15.19538 77.63713-60.10105 68.36334-106.58406-11.93281-80.0956-93.00138-121.97349-135.44389-185.349-60.50533-77.72747-2.02775-203.61872 96.17183-218.38197z" fill="url(#c)" stroke-width="1.0195"/></g><g transform="translate(-39.50845 202.73825)"><path d="m18.811247 37.669697c-.896787-1.613922-1.704134-3.686446-2.18731-5.615002-.64114-2.559058-.852986-5.29205-.613994-7.921048.448263-4.931064 2.415591-9.591704 5.637222-13.354696.743902-.8689076 1.720531-1.8458392 2.588689-2.5894922 6.120654-5.2428749 14.455659-7.0376212 22.191712-4.7784607 3.39999.9928993 6.476367 2.6991409 9.185861 5.0947249.427895.3783203 1.528303 1.4787289 1.906625 1.906623.950342 1.074873 1.743895 2.136875 2.460173 3.292409 4.524809 7.299668 4.79052 16.398355.699479 23.952166l-.155682.287457h-.369174c-.285076 0-.366282-.0073-.35648-.03194.007-.01757.111886-.210164.233119-.427993 1.476762-2.653423 2.443278-5.73094 2.760495-8.789808.09436-.909866.1037-1.127361.1037-2.414643 0-1.286734-.0092-1.501626-.103559-2.414642-.463995-4.490346-2.25729-8.778076-5.144893-12.301331-.66986-.817318-1.732461-1.9233492-2.496594-2.5986365-3.5432-3.1312268-7.834024-5.0802061-12.504732-5.6799027-1.659809-.2131114-3.665442-.2325521-5.353096-.0518878-5.070169.5427645-9.828267 2.7393926-13.491334 6.2284229-.477036.454371-1.187409 1.1903881-1.533756 1.5891231-2.427293 2.794448-4.143199 6.09923-5.030125 9.687868-1.048486 4.242335-.866601 8.727554.522608 12.887331.437145 1.308966 1.094083 2.800072 1.732569 3.932563.114205.202564.207645.372164.207645.376888 0 .0047-.165722.0086-.36827.0086h-.368269z" fill="#7f24ce" stroke-width=".025552"/><g fill="#f079f2"><path d="m38.263892 50.079431c-7.747226-.495168-14.677411-4.650635-18.816959-11.282999-3.02164-4.841255-4.18775-10.826118-3.217323-16.512372 1.640192-9.61076 8.982148-17.2797422 18.496759-19.3206415 1.612582-.3459016 2.543032-.4467896 4.481197-.4858926 1.473703-.029732 2.121028-.011737 2.998579.083361 4.658685.5048476 8.815177 2.2163249 12.503243 5.1483366.800861.6366836 2.384829 2.182148 3.172456 3.0953385 2.992589 3.469665 4.890858 7.775259 5.544213 12.57521.156583 1.150353.181679 4.390521.04226 5.456484-.316336 2.418665-.748996 4.167094-1.511198 6.106927-2.391173 6.085627-7.152167 10.928102-13.180534 13.40611-2.428755.998358-4.952968 1.564518-7.727727 1.733265-1.30319.07925-1.499517.07903-2.784968-.0031zm3.472795-.723158c4.549653-.397743 8.850143-2.115621 12.466802-4.980003.99008-.78414 2.98511-2.795094 3.742486-3.772357 2.432773-3.139078 4.010239-6.744644 4.636331-10.597117.462593-2.846438.371792-6.002866-.253013-8.795164-.703981-3.146141-2.294082-6.52996-4.266446-9.079225-3.819768-4.9370172-9.411003-8.0925197-15.676981-8.8475527-1.354995-.1632731-3.992343-.1654453-5.274544-.0043442-4.249452.5339189-7.953916 2.0135662-11.262464 4.498485-5.245665 3.9398109-8.497337 9.7573419-9.159098 16.3864439-.125007 1.252249-.04978 4.224165.137443 5.429666.738944 4.757985 2.814813 9.099111 5.948609 12.439928 1.375663 1.46654 3.119185 2.914985 4.687289 3.894002 1.030526.643389 3.023948 1.628056 4.08333 2.016994 2.129837.781939 4.385784 1.283525 6.468283 1.438153.778245.05778 2.925956.04168 3.721973-.02791z" stroke-width=".072271"/><g stroke-width=".144543"><path d="m3.2213508 40.218989c.03216-.05962 1.8631912-3.274359 4.0689569-7.143858 3.1508253-5.527383 3.9888903-7.103483 3.9097493-7.352835-.0554-.174562-1.8825959-3.310072-4.0604266-6.9678-2.1778309-3.657728-3.9596924-6.6745-3.9596924-6.703936 0-.02944 3.6718013-.05352 8.159558-.05352h8.159559l-.740819 1.192477c-3.99876 6.436704-4.818948 14.212163-2.263109 21.454466.486662 1.379019 1.480704 3.443669 2.214393 4.599344.252349.397492.507742.804019.567536.903392.08646.143688-1.55195.180678-8.00273.180678-4.4612971 0-8.0851358-.04878-8.0529752-.108408z"/><path d="m60.22026 40.148553c.06042-.100382.316321-.507735.568672-.905227 1.286678-2.026723 2.674012-5.49029 3.157712-7.88343 1.30422-6.452711.0035-13.399592-3.476309-18.566258l-.487844-.724328 5.095723-.03802c2.802647-.02091 5.177691-.0066 5.277874.03187.14513.05569.174661 2.927712.1453 14.130931l-.03685 14.061034-5.177065.03797c-4.138914.03036-5.155036.0014-5.067211-.144543z"/></g></g></g><path d="m32.762869 229.14538v-14.68281l.675921-.82917c.819814-1.00568 2.580435-2.51279 3.515733-3.00951 1.076497-.57169 2.430636-.97268 3.846921-1.13915.857084-.1007 23.205311-.15454 65.250056-.1571 71.56659-.004 65.20225.10307 66.91571-1.1293l.94144-.67712.0378 14.14797c.0274 10.23615-.007 14.26293-.12556 14.56376-.36837.93766-1.93075 2.01266-3.63908 2.50387-.85038.24452-5.00416.26642-65.43387.34508-61.301434.0798-64.579224.0975-65.593705.35515-2.092666.53139-3.277 1.25822-5.196453 3.18911l-1.194923 1.20204z" fill="#797ff2" stroke-width=".148277"/><path d="m215.65762 17.272845v-14.092907h10.63934c8.45446 0 10.6242.037104 10.56559.1806783-.0406.099373-1.83624 3.1383835-3.99039 6.7533567-2.15414 3.614973-3.91662 6.72154-3.91662 6.903482s1.78871 3.459746 3.97492 7.284009 3.97492 6.978199 3.97492 7.008746c0 .03055-4.78074.05554-10.62388.05554h-10.62388z" fill="#f079f2" stroke-width=".144543" transform="translate(-39.50845 202.73825)"/><g fill="#797ff2"><path d="m175.571 220.01109v-14.81562h11.20205c6.16113 0 11.20205.0401 11.20205.0891s-1.58703 2.76026-3.52675 6.02507c-1.9397 3.26481-3.83258 6.50922-4.20638 7.20981l-.67965 1.27379 1.18607 2.16034c.65234 1.18819 2.54521 4.53783 4.20639 7.44365 1.66118 2.90581 3.02032 5.3162 3.02032 5.35641 0 .0402-5.04092.0731-11.20205.0731h-11.20205z" stroke-width=".152182"/><path d="m20.238525 243.30708c1.290254-1.95061 2.438336-4.32845 3.180567-6.5874 2.285174-6.95483 1.325822-14.77593-2.578271-21.01932l-.918653-1.46909 5.497108-.0395c3.02341-.0217 5.538563.00081 5.58923.0501.05067.0493.09212 6.66797.09212 14.70813v14.61846l-5.543641.0395-5.543642.0395z" stroke-width=".152477"/><path d="m-37.051225 243.15633c0-.0297 1.651553-2.77451 3.670118-6.09975 3.822824-6.29747 4.911802-8.20561 4.911802-8.60662 0-.23845-.932973-1.76155-5.911352-9.65045-1.468813-2.32754-2.670568-4.2592-2.670568-4.29259 0-.0334 3.974082-.0607 8.831294-.0607h8.831296l-.331099.47696c-4.607413 6.63706-5.726134 14.50117-3.122449 21.94941.574299 1.64286 1.57645 3.70105 2.461867 5.05609.356931.54626.648966 1.05806.648966 1.13736 0 .0927-3.094179.14416-8.659938.14416-4.762966 0-8.659937-.0242-8.659937-.0539z" stroke-width=".151324"/></g><text fill="#fff" font-family="Inter Alia" font-size="16.2388" stroke-width=".936857" x="42.44025" y="229.73161"><tspan stroke-width=".936857" x="42.44025" y="229.73161">BLAZIUM DOCS</tspan></text></g></svg>