<?xml version="1.0" encoding="UTF-8" standalone="no"?>
<svg
   enable-background="new"
   height="50.999832"
   viewBox="0 0 240.15759 50.999832"
   width="240.15759"
   version="1.1"
   id="svg25"
   sodipodi:docname="docs_logo.svg"
   inkscape:version="1.3 (0e150ed6c4, 2023-07-21)"
   xmlns:inkscape="http://www.inkscape.org/namespaces/inkscape"
   xmlns:sodipodi="http://sodipodi.sourceforge.net/DTD/sodipodi-0.dtd"
   xmlns:xlink="http://www.w3.org/1999/xlink"
   xmlns="http://www.w3.org/2000/svg"
   xmlns:svg="http://www.w3.org/2000/svg">
  <defs
     id="defs25">
    <linearGradient
       xlink:href="#a-5"
       id="e"
       x1="496.51901"
       x2="635.83099"
       y1="813.47699"
       y2="589.77802"
       gradientUnits="userSpaceOnUse"
       gradientTransform="matrix(-0.60261691,-0.0159746,-0.01566786,0.59104506,825.55985,188.53673)" />
    <linearGradient
       id="a-5">
      <stop
         offset=".045"
         stop-color="#7f24ce"
         id="stop9-7" />
      <stop
         offset=".468"
         stop-color="#b846e4"
         id="stop10-2" />
      <stop
         offset=".825"
         stop-color="#d055ee"
         id="stop11" />
      <stop
         offset="1"
         stop-color="#f87cfe"
         id="stop12" />
    </linearGradient>
    <linearGradient
       xlink:href="#b-5"
       id="f"
       x1="269.58499"
       x2="488.26999"
       y1="847.20398"
       y2="393.07901"
       gradientUnits="userSpaceOnUse"
       gradientTransform="matrix(-0.60261691,-0.0159746,-0.01566786,0.59104506,825.55985,188.53673)" />
    <linearGradient
       id="b-5">
      <stop
         offset=".045"
         stop-color="#7f24ce"
         id="stop5-4" />
      <stop
         offset=".478"
         stop-color="#b846e4"
         id="stop6-5" />
      <stop
         offset=".848"
         stop-color="#d055ee"
         id="stop7-2" />
      <stop
         offset="1"
         stop-color="#f87cfe"
         id="stop8-7" />
    </linearGradient>
    <linearGradient
       xlink:href="#c-7"
       id="g"
       x1="635.83099"
       x2="721.82202"
       y1="589.77802"
       y2="368.40799"
       gradientUnits="userSpaceOnUse"
       gradientTransform="matrix(-0.60261691,-0.0159746,-0.01566786,0.59104506,825.55985,188.53673)" />
    <linearGradient
       id="c-7">
      <stop
         offset=".045"
         stop-color="#7f24ce"
         id="stop1-7" />
      <stop
         offset=".468"
         stop-color="#b846e4"
         id="stop2-9" />
      <stop
         offset=".848"
         stop-color="#d055ee"
         id="stop3-3" />
      <stop
         offset="1"
         stop-color="#f87cfe"
         id="stop4-0" />
    </linearGradient>
  </defs>
  <sodipodi:namedview
     id="namedview25"
     pagecolor="#ffffff"
     bordercolor="#000000"
     borderopacity="0.25"
     inkscape:showpageshadow="2"
     inkscape:pageopacity="0.0"
     inkscape:pagecheckerboard="0"
     inkscape:deskcolor="#d1d1d1"
     inkscape:zoom="3.6598207"
     inkscape:cx="105.05979"
     inkscape:cy="40.848996"
     inkscape:window-width="1858"
     inkscape:window-height="1057"
     inkscape:window-x="54"
     inkscape:window-y="-8"
     inkscape:window-maximized="1"
     inkscape:current-layer="g14" />
  <linearGradient
     id="a"
     gradientTransform="matrix(1.1167546 0 0 1.0324025 -97.858058 -11.21196)"
     gradientUnits="userSpaceOnUse"
     x1="544.47919"
     x2="613.66211"
     y1="694.13623"
     y2="580.24829">
    <stop
       offset=".09532448"
       stop-color="#7f24ce"
       id="stop1" />
    <stop
       offset="1"
       stop-color="#f76dfe"
       id="stop2" />
  </linearGradient>
  <linearGradient
     id="b"
     gradientTransform="matrix(.99970156 .0244293 -.0244293 .99970156 -33.783236 -49.337161)"
     gradientUnits="userSpaceOnUse"
     x1="353.38617"
     x2="480.31522"
     y1="648.13165"
     y2="384.90729">
    <stop
       offset=".15434083"
       stop-color="#7f24ce"
       id="stop3" />
    <stop
       offset="1"
       stop-color="#f76dfe"
       id="stop4" />
  </linearGradient>
  <linearGradient
     id="c"
     gradientTransform="matrix(1.0388926 .02225591 -.02756462 .99987543 -48.176744 -46.156671)"
     gradientUnits="userSpaceOnUse"
     x1="446.11566"
     x2="636.15564"
     y1="764.13861"
     y2="347.01624">
    <stop
       offset=".04524595"
       stop-color="#7f24ce"
       id="stop5" />
    <stop
       offset=".46786892"
       stop-color="#b846e4"
       id="stop6" />
    <stop
       offset=".84766752"
       stop-color="#d055ee"
       id="stop7" />
    <stop
       offset="1"
       stop-color="#f87cfe"
       id="stop8" />
  </linearGradient>
  <linearGradient
     id="d"
     gradientTransform="matrix(.86836616 0 0 -.86836616 19.116688 354.85379)"
     gradientUnits="userSpaceOnUse"
     x1="-50.169083"
     x2="266.50421"
     y1="214.34602"
     y2="111.7482">
    <stop
       offset="0"
       stop-color="#ff4e78"
       id="stop9" />
    <stop
       offset="1"
       stop-color="#f67b7b"
       id="stop10" />
  </linearGradient>
  <g
     transform="translate(39.50845 -202.73825)"
     id="g25">
    <ellipse
       cx="0.233013"
       cy="229.00215"
       fill="#293252"
       rx="24.748463"
       ry="24.735935"
       id="ellipse12"
       style="display:inline" />
    <path
       d="m 176.37136,202.73827 c -3.74647,0 -4.12033,4.24977 -8.90455,4.24977 -1.16134,-0.006 -122.501906,0.002 -122.501906,0.002 l 0.07617,0.002 c -2.589638,-0.0625 -5.227607,0.0743 -7.798829,0.92773 -2.02404,0.67183 -3.885155,2.01591 -5.498046,3.75195 l -68.09375,-0.0527 c -2.444709,-0.002 -3.959469,2.66103 -2.708985,4.76172 l 7.304688,12.27539 -7.333985,12.82617 c -1.20168,2.10019 0.314696,4.71486 2.734375,4.71485 h 69.408203 c 0.764871,-0.0379 1.489744,-0.35313 2.58917,-1.44664 1.099427,-1.09351 3.5841,-3.18621 9.320987,-3.18621 1.739929,4e-5 3.15041,-0.002 3.15041,-0.002 l 122.019048,-0.0205 c 1.86832,-0.0185 4.80158,-1.38781 6.53257,-4.22564 h 20.82722 c 2.41968,2e-5 3.93606,-2.61466 2.73438,-4.71485 l -7.334,-12.82595 7.30469,-12.27539 c 1.25004,-2.09994 -0.26319,-4.76174 -2.70703,-4.76172 z"
       fill="#293252"
       stroke-linecap="round"
       stroke-linejoin="round"
       stroke-miterlimit="3.85"
       id="path11"
       style="display:inline" />
    <g
       transform="matrix(-0.07083023,-0.00191438,-0.00187762,0.07221699,37.516528,196.19936)"
       id="g14">
      <path
         fill="url(#e)"
         d="m 503.64422,520.94537 c -41.35158,-3.33221 -79.36493,33.75252 -76.19515,74.33436 0.43008,37.50839 35.05902,71.3916 73.84613,68.72316 44.89401,2.80895 80.92738,-43.55865 71.22557,-85.35606 -5.57327,-32.11196 -35.92031,-56.81938 -68.87655,-57.70146 z"
         paint-order="markers stroke fill"
         style="mix-blend-mode:normal;fill:url(#e);stroke-width:0.597013"
         id="path12" />
      <path
         fill="url(#f)"
         d="m 653.60969,211.06665 c -9.53539,18.00415 -24.75145,34.20326 -31.01265,54.41337 -17.62337,41.98212 -6.88973,89.0688 13.55994,128.09907 31.20604,64.20511 61.27035,134.88591 50.14191,207.38735 -11.03397,65.46876 -60.25678,124.5072 -126.32233,142.27969 -66.3698,19.79829 -143.31836,-3.71611 -186.03811,-57.54723 -29.35218,-35.41343 -45.70934,-83.82979 -36.20667,-129.17962 13.96276,-50.33358 55.3376,-91.43268 106.65725,-105.34346 31.1195,-9.29248 61.93523,-23.60514 82.95239,-48.67756 4.62879,16.42634 9.83871,36.88072 15.39292,55.22547 5.17431,19.84403 13.19136,39.18058 16.76805,59.29021 -16.72071,-6.96373 -36.24428,-18.73929 -56.77554,-17.76327 -51.55026,-2.34829 -98.13459,42.65981 -97.43512,93.13781 -0.88918,49.25209 43.71418,94.19453 94.20601,93.55757 50.24065,1.55475 94.46223,-40.92422 97.25557,-89.55062 1.66789,-36.91218 -12.70951,-72.29269 -22.10256,-107.55132 -18.44018,-58.6106 -35.9619,-120.78521 -26.59551,-182.53715 5.07864,-43.13317 36.61242,-84.24527 81.45344,-92.4901 7.8884,-1.77242 15.97712,-3.12037 24.10101,-2.75021 z"
         paint-order="markers stroke fill"
         style="mix-blend-mode:normal;fill:url(#f);stroke-width:0.597013"
         id="path13-8" />
      <path
         fill="url(#g)"
         d="m 482.79812,238.27301 c 19.84611,14.30319 38.09517,34.63366 43.6967,58.55744 -4.95596,25.11352 -2.63886,50.95862 -2.9179,76.1525 -12.0107,37.77625 -52.67015,54.07147 -87.99348,64.72863 -43.07573,13.31566 -80.91355,42.98449 -100.16205,83.49644 -4.45181,7.98645 -19.95684,42.95077 -17.58683,13.88554 -0.12173,-50.24971 22.99109,-100.14951 63.91226,-130.92469 30.2824,-25.27491 72.45798,-38.25884 91.72657,-74.90108 16.55534,-26.82148 16.50301,-60.23218 7.86838,-89.64022 l 0.72839,-0.6772 z"
         paint-order="markers stroke fill"
         style="mix-blend-mode:normal;fill:url(#g);stroke-width:0.597013"
         id="path14-0" />
    </g>
    <g
       fill="#797ff2"
       id="g24">
      <path
         d="m 32.762869,229.14538 v -14.68281 l 0.675921,-0.82917 c 0.819814,-1.00568 2.580435,-2.51279 3.515733,-3.00951 1.076497,-0.57169 2.430636,-0.97268 3.846921,-1.13915 0.857084,-0.1007 23.205311,-0.15454 65.250056,-0.1571 71.56659,-0.004 65.20225,0.10307 66.91571,-1.1293 l 0.94144,-0.67712 0.0378,14.14797 c 0.0274,10.23615 -0.007,14.26293 -0.12556,14.56376 -0.36837,0.93766 -1.93075,2.01266 -3.63908,2.50387 -0.85038,0.24452 -5.00416,0.26642 -65.43387,0.34508 -61.301434,0.0798 -64.579224,0.0975 -65.593705,0.35515 -2.092666,0.53139 -3.277,1.25822 -5.196453,3.18911 l -1.194923,1.20204 z"
         fill="#797ff2"
         stroke-width="0.148277"
         id="path20"
         style="display:inline" />
      <path
         d="m 175.571,220.01109 v -14.81562 h 11.20205 c 6.16113,0 11.20205,0.0401 11.20205,0.0891 0,0.049 -1.58703,2.76026 -3.52675,6.02507 -1.9397,3.26481 -3.83258,6.50922 -4.20638,7.20981 l -0.67965,1.27379 1.18607,2.16034 c 0.65234,1.18819 2.54521,4.53783 4.20639,7.44365 1.66118,2.90581 3.02032,5.3162 3.02032,5.35641 0,0.0402 -5.04092,0.0731 -11.20205,0.0731 H 175.571 Z"
         stroke-width="0.152182"
         id="path22"
         style="display:inline" />
      <path
         d="m 20.238525,243.30708 c 1.290254,-1.95061 2.438336,-4.32845 3.180567,-6.5874 2.285174,-6.95483 1.325822,-14.77593 -2.578271,-21.01932 l -0.918653,-1.46909 5.497108,-0.0395 c 3.02341,-0.0217 5.538563,8.1e-4 5.58923,0.0501 0.05067,0.0493 0.09212,6.66797 0.09212,14.70813 v 14.61846 l -5.543641,0.0395 -5.543642,0.0395 z"
         stroke-width="0.152477"
         id="path23"
         style="display:inline" />
      <path
         d="m -37.051225,243.15633 c 0,-0.0297 1.651553,-2.77451 3.670118,-6.09975 3.822824,-6.29747 4.911802,-8.20561 4.911802,-8.60662 0,-0.23845 -0.932973,-1.76155 -5.911352,-9.65045 -1.468813,-2.32754 -2.670568,-4.2592 -2.670568,-4.29259 0,-0.0334 3.974082,-0.0607 8.831294,-0.0607 h 8.831296 l -0.331099,0.47696 c -4.607413,6.63706 -5.726134,14.50117 -3.122449,21.94941 0.574299,1.64286 1.57645,3.70105 2.461867,5.05609 0.356931,0.54626 0.648966,1.05806 0.648966,1.13736 0,0.0927 -3.094179,0.14416 -8.659938,0.14416 -4.762966,0 -8.659937,-0.0242 -8.659937,-0.0539 z"
         stroke-width="0.151324"
         id="path24"
         style="display:inline" />
      <path
         d="M 38.263892,50.079431 C 30.516666,49.584263 23.586481,45.428796 19.446933,38.796432 16.425293,33.955177 15.259183,27.970314 16.22961,22.28406 17.869802,12.6733 25.211758,5.0043178 34.726369,2.9634185 c 1.612582,-0.3459016 2.543032,-0.4467896 4.481197,-0.4858926 1.473703,-0.029732 2.121028,-0.011737 2.998579,0.083361 4.658685,0.5048476 8.815177,2.2163249 12.503243,5.1483366 0.800861,0.6366836 2.384829,2.182148 3.172456,3.0953385 2.992589,3.469665 4.890858,7.775259 5.544213,12.57521 0.156583,1.150353 0.181679,4.390521 0.04226,5.456484 -0.316336,2.418665 -0.748996,4.167094 -1.511198,6.106927 -2.391173,6.085627 -7.152167,10.928102 -13.180534,13.40611 -2.428755,0.998358 -4.952968,1.564518 -7.727727,1.733265 -1.30319,0.07925 -1.499517,0.07903 -2.784968,-0.0031 z m 3.472795,-0.723158 c 4.549653,-0.397743 8.850143,-2.115621 12.466802,-4.980003 0.99008,-0.78414 2.98511,-2.795094 3.742486,-3.772357 2.432773,-3.139078 4.010239,-6.744644 4.636331,-10.597117 0.462593,-2.846438 0.371792,-6.002866 -0.253013,-8.795164 -0.703981,-3.146141 -2.294082,-6.52996 -4.266446,-9.079225 C 54.243079,7.1953898 48.651844,4.0398873 42.385866,3.2848543 41.030871,3.1215812 38.393523,3.119409 37.111322,3.2805101 32.86187,3.814429 29.157406,5.2940763 25.848858,7.7789951 20.603193,11.718806 17.351521,17.536337 16.68976,24.165439 c -0.125007,1.252249 -0.04978,4.224165 0.137443,5.429666 0.738944,4.757985 2.814813,9.099111 5.948609,12.439928 1.375663,1.46654 3.119185,2.914985 4.687289,3.894002 1.030526,0.643389 3.023948,1.628056 4.08333,2.016994 2.129837,0.781939 4.385784,1.283525 6.468283,1.438153 0.778245,0.05778 2.925956,0.04168 3.721973,-0.02791 z"
         stroke-width="0.072271"
         id="path16"
         style="display:inline;stroke:none;stroke-opacity:1;fill:#af41e1;fill-opacity:1"
         transform="translate(-39.50845,202.73825)" />
    </g>
    <text
       fill="#fff"
       font-family="Inter Alia"
       font-size="16.2388"
       stroke-width=".936857"
       x="42.44025"
       y="229.73161"
       id="text24"><tspan
         stroke-width=".936857"
         x="42.44025"
         y="229.73161"
         id="tspan24">BLAZIUM DOCS</tspan></text>
  </g>
</svg>
