<?xml version="1.0" encoding="UTF-8" standalone="no"?>
<svg
   width="240.158"
   height="51"
   version="1.1"
   id="svg18"
   sodipodi:docname="docs_logo.svg"
   xml:space="preserve"
   inkscape:version="1.3 (0e150ed6c4, 2023-07-21)"
   inkscape:export-filename="docs_logo.svg"
   inkscape:export-xdpi="96"
   inkscape:export-ydpi="96"
   xmlns:inkscape="http://www.inkscape.org/namespaces/inkscape"
   xmlns:sodipodi="http://sodipodi.sourceforge.net/DTD/sodipodi-0.dtd"
   xmlns:xlink="http://www.w3.org/1999/xlink"
   xmlns="http://www.w3.org/2000/svg"
   xmlns:svg="http://www.w3.org/2000/svg"><sodipodi:namedview
     id="namedview18"
     pagecolor="#ffffff"
     bordercolor="#000000"
     borderopacity="0.25"
     inkscape:showpageshadow="2"
     inkscape:pageopacity="0.0"
     inkscape:pagecheckerboard="0"
     inkscape:deskcolor="#d1d1d1"
     inkscape:zoom="2.0465693"
     inkscape:cx="185.9209"
     inkscape:cy="41.288609"
     inkscape:window-width="1858"
     inkscape:window-height="1057"
     inkscape:window-x="54"
     inkscape:window-y="-8"
     inkscape:window-maximized="1"
     inkscape:current-layer="g18" /><defs
     id="defs12"><linearGradient
       id="linearGradient19"
       inkscape:collect="always"><stop
         style="stop-color:#6000bf;stop-opacity:1;"
         offset="0"
         id="stop18" /><stop
         style="stop-color:#ff80ff;stop-opacity:1;"
         offset="1"
         id="stop19" /></linearGradient><linearGradient
       xlink:href="#a"
       id="d"
       x1="496.519"
       x2="635.831"
       y1="813.477"
       y2="589.778"
       gradientTransform="matrix(-.60262 -.01597 -.01567 .59105 825.56 188.537)"
       gradientUnits="userSpaceOnUse" /><linearGradient
       id="a"><stop
         offset=".045"
         stop-color="#7f24ce"
         id="stop1" /><stop
         offset=".468"
         stop-color="#b846e4"
         id="stop2" /><stop
         offset=".825"
         stop-color="#d055ee"
         id="stop3" /><stop
         offset="1"
         stop-color="#f87cfe"
         id="stop4" /></linearGradient><linearGradient
       xlink:href="#b"
       id="e"
       x1="269.585"
       x2="488.27"
       y1="847.204"
       y2="393.079"
       gradientTransform="matrix(-.60262 -.01597 -.01567 .59105 825.56 188.537)"
       gradientUnits="userSpaceOnUse" /><linearGradient
       id="b"><stop
         offset=".045"
         stop-color="#7f24ce"
         id="stop5" /><stop
         offset=".478"
         stop-color="#b846e4"
         id="stop6" /><stop
         offset=".848"
         stop-color="#d055ee"
         id="stop7" /><stop
         offset="1"
         stop-color="#f87cfe"
         id="stop8" /></linearGradient><linearGradient
       xlink:href="#c"
       id="f"
       x1="635.831"
       x2="721.822"
       y1="589.778"
       y2="368.408"
       gradientTransform="matrix(-.60262 -.01597 -.01567 .59105 825.56 188.537)"
       gradientUnits="userSpaceOnUse" /><linearGradient
       id="c"><stop
         offset=".045"
         stop-color="#7f24ce"
         id="stop9" /><stop
         offset=".468"
         stop-color="#b846e4"
         id="stop10" /><stop
         offset=".848"
         stop-color="#d055ee"
         id="stop11" /><stop
         offset="1"
         stop-color="#f87cfe"
         id="stop12" /></linearGradient><linearGradient
       inkscape:collect="always"
       xlink:href="#linearGradient42"
       id="linearGradient28"
       x1="345.48788"
       y1="537.54504"
       x2="326.39346"
       y2="278.27698"
       gradientUnits="userSpaceOnUse"
       gradientTransform="translate(25.644623)" /><linearGradient
       id="linearGradient42"
       inkscape:collect="always"><stop
         style="stop-color:#6000bf;stop-opacity:1;"
         offset="0"
         id="stop41" /><stop
         style="stop-color:#ff80ff;stop-opacity:1;"
         offset="1"
         id="stop42" /></linearGradient><linearGradient
       inkscape:collect="always"
       xlink:href="#linearGradient42"
       id="linearGradient38"
       gradientUnits="userSpaceOnUse"
       x1="628.38464"
       y1="554.55164"
       x2="605.51581"
       y2="345.67511"
       gradientTransform="translate(25.644623)" /><linearGradient
       inkscape:collect="always"
       xlink:href="#linearGradient42"
       id="linearGradient37"
       gradientUnits="userSpaceOnUse"
       x1="711.17267"
       y1="702.79602"
       x2="813.1228"
       y2="513.79858"
       gradientTransform="translate(25.644623)" /><linearGradient
       inkscape:collect="always"
       xlink:href="#linearGradient42"
       id="linearGradient36"
       gradientUnits="userSpaceOnUse"
       x1="263.13342"
       y1="648.50427"
       x2="199.50737"
       y2="445.44455"
       gradientTransform="translate(25.644623)" /><linearGradient
       inkscape:collect="always"
       xlink:href="#linearGradient42"
       id="linearGradient35"
       gradientUnits="userSpaceOnUse"
       x1="760.85095"
       y1="829.70624"
       x2="818.7851"
       y2="638.51398"
       gradientTransform="translate(25.644623)" /><linearGradient
       inkscape:collect="always"
       xlink:href="#linearGradient19"
       id="linearGradient34"
       gradientUnits="userSpaceOnUse"
       x1="447.2309"
       y1="825.1051"
       x2="722.6864"
       y2="341.16104"
       gradientTransform="translate(25.644623)" /></defs><g
     transform="translate(39.508 -202.738)"
     id="g18"><path
       id="ellipse12"
       style="display:inline;fill:#220f25;fill-opacity:1"
       d="m 176.37091,202.738 c -3.74647,0 -4.12009,4.25 -8.9043,4.25 -1.16134,-0.006 -122.501954,0.002 -122.501954,0.002 l 0.07617,0.002 c -2.589635,-0.0625 -5.227609,0.0743 -7.798828,0.92773 -2.024038,0.67183 -3.885157,2.01592 -5.498047,3.75195 l -13.869141,-0.01 A 24.747999,24.736 0 0 0 0.23223437,204.26534 24.747999,24.736 0 0 0 -17.300969,211.63448 l -19.048828,-0.0156 c -2.444706,-0.002 -3.959467,2.66103 -2.708984,4.76172 l 7.304687,12.27539 -7.333984,12.82617 c -1.201679,2.10019 0.314698,4.71485 2.734375,4.71484 h 18.878906 A 24.747999,24.736 0 0 0 0.23223437,253.738 24.747999,24.736 0 0 0 17.939266,246.19698 H 33.0545 c 0.76487,-0.0379 1.490419,-0.35375 2.589844,-1.44726 1.099426,-1.09351 3.583431,-3.18555 9.320312,-3.18555 1.739928,4e-5 3.150391,-0.002 3.150391,-0.002 l 122.019533,-0.0195 c 1.86832,-0.0185 4.80221,-1.38874 6.5332,-4.22657 h 20.82617 c 2.41968,2e-5 3.93606,-2.61465 2.73438,-4.71484 l -7.33399,-12.82617 7.30469,-12.27539 c 1.25004,-2.09994 -0.26319,-4.76174 -2.70703,-4.76172 z" /><path
       d="m 32.762869,229.14538 v -14.68281 l 0.675921,-0.82917 c 0.819814,-1.00568 2.580435,-2.51279 3.515733,-3.00951 1.076497,-0.57169 2.430636,-0.97268 3.846921,-1.13915 0.857084,-0.1007 23.205311,-0.15454 65.250056,-0.1571 71.56659,-0.004 65.20225,0.10307 66.91571,-1.1293 l 0.94144,-0.67712 0.0378,14.14797 c 0.0274,10.23615 -0.007,14.26293 -0.12556,14.56376 -0.36837,0.93766 -1.93075,2.01266 -3.63908,2.50387 -0.85038,0.24452 -5.00416,0.26642 -65.43387,0.34508 -61.301434,0.0798 -64.579224,0.0975 -65.593705,0.35515 -2.092666,0.53139 -3.277,1.25822 -5.196453,3.18911 l -1.194923,1.20204 z M 175.571,220.01109 v -14.81562 h 11.20205 c 6.16113,0 11.20205,0.0401 11.20205,0.0891 0,0.049 -1.58703,2.76026 -3.52675,6.02507 -1.9397,3.26481 -3.83258,6.50922 -4.20638,7.20981 l -0.67965,1.27379 1.18607,2.16034 c 0.65234,1.18819 2.54521,4.53783 4.20639,7.44365 1.66118,2.90581 3.02032,5.3162 3.02032,5.35641 0,0.0402 -5.04092,0.0731 -11.20205,0.0731 H 175.571 Z M 20.238525,243.30708 c 1.290254,-1.95061 2.438336,-4.32845 3.180567,-6.5874 2.285174,-6.95483 1.325822,-14.77593 -2.578271,-21.01932 l -0.918653,-1.46909 5.497108,-0.0395 c 3.02341,-0.0217 5.538563,8.1e-4 5.58923,0.0501 0.05067,0.0493 0.09212,6.66797 0.09212,14.70813 v 14.61846 l -5.543641,0.0395 -5.543642,0.0395 z m -57.28975,-0.15075 c 0,-0.0297 1.651553,-2.77451 3.670118,-6.09975 3.822824,-6.29747 4.911802,-8.20561 4.911802,-8.60662 0,-0.23845 -0.932973,-1.76155 -5.911352,-9.65045 -1.468813,-2.32754 -2.670568,-4.2592 -2.670568,-4.29259 0,-0.0334 3.974082,-0.0607 8.831294,-0.0607 h 8.831296 l -0.331099,0.47696 c -4.607413,6.63706 -5.726134,14.50117 -3.122449,21.94941 0.574299,1.64286 1.57645,3.70105 2.461867,5.05609 0.356931,0.54626 0.648966,1.05806 0.648966,1.13736 0,0.0927 -3.094179,0.14416 -8.659938,0.14416 -4.762966,0 -8.659937,-0.0242 -8.659937,-0.0539 z"
       id="path16"
       style="display:inline;fill:#736ede;fill-opacity:1" /><path
       fill="#af41e1"
       d="M 38.263892,50.079431 C 30.516666,49.584263 23.586481,45.428796 19.446933,38.796432 16.425293,33.955177 15.259183,27.970314 16.22961,22.28406 17.869802,12.6733 25.211758,5.0043178 34.726369,2.9634185 c 1.612582,-0.3459016 2.543032,-0.4467896 4.481197,-0.4858926 1.473703,-0.029732 2.121028,-0.011737 2.998579,0.083361 4.658685,0.5048476 8.815177,2.2163249 12.503243,5.1483366 0.800861,0.6366836 2.384829,2.182148 3.172456,3.0953385 2.992589,3.469665 4.890858,7.775259 5.544213,12.57521 0.156583,1.150353 0.181679,4.390521 0.04226,5.456484 -0.316336,2.418665 -0.748996,4.167094 -1.511198,6.106927 -2.391173,6.085627 -7.152167,10.928102 -13.180534,13.40611 -2.428755,0.998358 -4.952968,1.564518 -7.727727,1.733265 -1.30319,0.07925 -1.499517,0.07903 -2.784968,-0.0031 z m 3.472795,-0.723158 c 4.549653,-0.397743 8.850143,-2.115621 12.466802,-4.980003 0.99008,-0.78414 2.98511,-2.795094 3.742486,-3.772357 2.432773,-3.139078 4.010239,-6.744644 4.636331,-10.597117 0.462593,-2.846438 0.371792,-6.002866 -0.253013,-8.795164 -0.703981,-3.146141 -2.294082,-6.52996 -4.266446,-9.079225 C 54.243079,7.1953898 48.651844,4.0398873 42.385866,3.2848543 41.030871,3.1215812 38.393523,3.119409 37.111322,3.2805101 32.86187,3.814429 29.157406,5.2940763 25.848858,7.7789951 20.603193,11.718806 17.351521,17.536337 16.68976,24.165439 c -0.125007,1.252249 -0.04978,4.224165 0.137443,5.429666 0.738944,4.757985 2.814813,9.099111 5.948609,12.439928 1.375663,1.46654 3.119185,2.914985 4.687289,3.894002 1.030526,0.643389 3.023948,1.628056 4.08333,2.016994 2.129837,0.781939 4.385784,1.283525 6.468283,1.438153 0.778245,0.05778 2.925956,0.04168 3.721973,-0.02791 z"
       id="path17"
       style="display:inline;fill:#af40df;fill-opacity:1"
       transform="translate(-39.508,202.738)" /><text
       x="41.805363"
       y="230.55101"
       fill="#ffffff"
       stroke-width="0.937"
       font-family="'Inter Alia'"
       font-size="16.239px"
       id="text17"
       style="font-style:normal;font-variant:normal;font-weight:600;font-stretch:normal;font-size:16.7567px;font-family:Inter;-inkscape-font-specification:'Inter, Semi-Bold';font-variant-ligatures:normal;font-variant-caps:normal;font-variant-numeric:normal;font-variant-east-asian:normal;display:inline;fill:#ffffff;stroke-width:0.966874"><tspan
         x="41.805363"
         y="230.55101"
         id="tspan17"
         style="font-style:normal;font-variant:normal;font-weight:600;font-stretch:normal;font-size:16.75670052px;font-family:Inter;-inkscape-font-specification:'Inter, Semi-Bold';font-variant-ligatures:normal;font-variant-caps:normal;font-variant-numeric:normal;font-variant-east-asian:normal;stroke-width:0.966874">BLAZIUM DOCS</tspan></text></g><g
     id="g13"
     style="display:inline"
     transform="matrix(0.20278715,0,0,0.20278715,13.784245,0.30724396)"><path
       style="color:#000000;display:inline;fill:url(#linearGradient28);stroke:none;stroke-width:62.3103;stroke-linecap:round;stroke-linejoin:round;-inkscape-stroke:none;paint-order:markers stroke fill"
       d="m 333.04148,390.83223 c 60.95648,-49.64478 68.88761,-106.2825 36.83418,-141.00059 52.95459,9.63902 98.77795,89.19743 48.01651,153.00628 -26.65727,28.88001 -68.13281,68.8029 -93.60356,105.41581 -9.2708,-12.44172 -10.12463,-91.91256 8.75287,-117.4215 z"
       id="path3-6"
       transform="matrix(0.27019025,0,0,0.24403398,-17.18939,3.054602)" /><path
       style="color:#000000;display:inline;fill:url(#linearGradient38);stroke:none;stroke-width:62.3103;stroke-linecap:round;stroke-linejoin:round;-inkscape-stroke:none;paint-order:markers stroke fill"
       d="m 605.46763,539.31749 c 99.49507,-95.417 109.65157,-174.00724 89.51164,-257.37948 90.53959,56.34382 120.32347,206.65548 27.21848,302.30568 -32.45156,-39.30764 -89.42225,-46.80136 -116.73012,-44.9262 z"
       id="path5"
       transform="matrix(0.27019025,0,0,0.24403398,-17.18939,3.054602)" /><path
       style="color:#000000;display:inline;fill:url(#linearGradient37);stroke:none;stroke-width:62.3103;stroke-linecap:round;stroke-linejoin:round;-inkscape-stroke:none;paint-order:markers stroke fill"
       d="m 765.39662,735.60971 c 1.02709,-90.00477 -16.0696,-105.16862 -28.65159,-129.51094 34.98134,-30.43943 78.21953,-75.63777 74.07442,-153.79971 36.26521,37.79516 66.66305,121.65638 46.94164,191.96024 -14.85854,28.34925 -56.52353,68.79815 -92.36447,91.35041 z"
       id="path7"
       transform="matrix(0.27019025,0,0,0.24403398,-17.18939,3.054602)" /><path
       style="color:#000000;display:inline;fill:url(#linearGradient36);stroke:none;stroke-width:62.3103;stroke-linecap:round;stroke-linejoin:round;-inkscape-stroke:none;paint-order:markers stroke fill"
       d="m 286.7715,396.80053 c -5.93266,67.16211 -0.0142,105.76452 13.27886,144.12011 C 286.96344,560.2585 230.93304,650.69743 262.60711,761.2419 218.55809,737.23285 161.82561,566.00177 286.7715,396.80053 Z"
       id="path9"
       transform="matrix(0.27019025,0,0,0.24403398,-17.18939,3.054602)" /><path
       style="color:#000000;display:inline;fill:url(#linearGradient35);stroke:none;stroke-width:62.3103;stroke-linecap:round;stroke-linejoin:round;-inkscape-stroke:none;paint-order:markers stroke fill"
       d="m 726.13159,846.0296 c 17.73585,-25.58971 32.54955,-56.27784 36.25546,-69.90486 25.02581,-13.2945 46.48859,-30.41422 75.77995,-60.35056 6.3761,19.04233 -68.60478,120.85509 -112.03541,130.25542 z"
       id="path11"
       transform="matrix(0.27019025,0,0,0.24403398,-17.18939,3.054602)" /><path
       style="color:#000000;display:inline;fill:url(#linearGradient34);stroke:none;stroke-width:62.3103;stroke-linecap:round;stroke-linejoin:round;-inkscape-stroke:none;paint-order:markers stroke fill"
       d="m 287.62386,770.66215 c -29.78142,-126.68372 26.21112,-227.13854 122.27548,-324.391 105.33248,-111.10231 158.66521,-199.01977 14.74873,-345.20912 261.96689,21.80119 302.85341,302.60789 107.16624,460.89824 -51.66636,39.08202 -116.35918,131.07193 -52.20213,201.69934 66.22057,56.08087 152.88124,4.62465 143.98406,-72.6156 C 613.31254,635.78409 547.10516,612.40275 497.42633,659.86933 507.38079,588.25452 598.94657,539.692 677.1654,583.25512 770.05339,643.46 769.04934,809.07161 659.32044,888.46646 545.23535,954.13648 341.34585,931.82258 287.62386,770.66215 Z"
       id="path13-2"
       transform="matrix(0.27019025,0,0,0.24403398,-17.18939,3.054602)" /></g></svg>
