<svg xmlns="http://www.w3.org/2000/svg" xmlns:xlink="http://www.w3.org/1999/xlink" xml:space="preserve" width="1280" height="720" viewBox="0 0 1200 675"><defs><linearGradient id="a"><stop offset=".045" stop-color="#7f24ce"/><stop offset="1" stop-color="#f87cfe"/></linearGradient><linearGradient xlink:href="#a" id="d" x1="269.585" x2="488.27" y1="847.204" y2="393.079" gradientTransform="translate(-62.274 3.857)scale(.37518)" gradientUnits="userSpaceOnUse"/><linearGradient xlink:href="#a" id="c" x1="496.519" x2="635.831" y1="813.477" y2="589.778" gradientTransform="translate(-62.274 3.857)scale(.37518)" gradientUnits="userSpaceOnUse"/><linearGradient xlink:href="#a" id="b" x1="635.831" x2="721.822" y1="589.778" y2="368.408" gradientTransform="translate(-62.274 3.857)scale(.37518)" gradientUnits="userSpaceOnUse"/></defs><path fill="url(#b)" d="M150.153 41.17c-12.583 8.739-24.094 22.13-28.15 36.41s-4.933 28.759.56 48.355 31.877 35.185 53.676 42.539c26.58 9.17 49.631 28.626 60.94 54.647 2.637 5.142 11.707 27.58 10.711 9.104.906-31.872-12.651-63.915-37.603-84.124-18.423-16.542-44.448-25.487-55.832-49.055-9.858-17.291-9.274-38.484-3.417-56.992l-.441-.442z" paint-order="stroke fill markers" style="mix-blend-mode:normal;fill:url(#b)" transform="matrix(1.24521 0 0 1.24521 -1.801 90.27)"/><path fill="url(#c)" d="M132.523 220.126c25.78-1.419 48.82 22.744 46.178 48.433-.887 23.785-22.99 44.696-47.077 42.352-27.977 1.026-49.63-28.992-42.904-55.342 3.997-20.275 23.285-35.437 43.802-35.443z" paint-order="stroke fill markers" style="mix-blend-mode:normal;fill:url(#c)" transform="matrix(1.24521 0 0 1.24521 -1.801 90.27)"/><path fill="url(#d)" d="M48.347 31.638C54.095 39.41 59.73 46.57 62.73 56.078 73 83.003 65.548 112.691 52.18 137.104c-20.474 40.203-40.344 84.533-34.616 130.709 5.786 41.714 35.435 79.99 76.244 92.376 40.965 13.674 89.226.053 116.692-33.376 18.845-21.97 29.82-52.407 24.657-81.332-7.857-32.164-32.92-58.93-64.62-68.617-19.207-6.417-40.92-18.203-54.633-33.015-1.732 10.5-4.084 23.492-7.737 35.516s-9.894 29.76-12.45 42.455c11.122-11.66 24.94-15.538 37.733-15.441 32.116.245 60.35 28.71 59.083 60.718-.26 31.257-28.75 59.015-60.153 57.762-31.282.142-58.094-27.548-59.03-58.44-.429-23.443 9.1-45.644 15.524-67.85 12.44-36.868 17.775-67.067 17.568-88.022s-5.462-41.867-19.75-57.366C72.933 38.255 53.407 31.54 48.347 31.638" paint-order="stroke fill markers" style="mix-blend-mode:normal;fill:url(#d)" transform="matrix(1.24521 0 0 1.24521 -1.801 90.27)"/><path fill="#fefefe" d="M406.113 194.923q0 39.655-50.327 39.655h-53.364V100.617h48.12q24.75 0 38.734 9.11 14.076 9.107 14.076 27.877 0 9.109-4.231 16.929-4.233 7.728-14.63 11.685 11.869 3.035 16.746 11.316 4.875 8.188 4.875 17.39zm-71.397-69.372v30.914h15.641q11.225 0 15.918-3.772 4.785-3.773 4.785-11.225 0-15.917-20.518-15.917zm39.287 68.912q0-7.728-3.864-12.236-3.864-4.6-13.065-4.6h-22.358v32.11h21.07q9.845 0 13.985-4.417 4.232-4.509 4.232-10.857m77.295-101.206v141.32h-31.097V93.258Zm71.04 141.32q-1.75-3.588-2.854-8.924-3.587 4.508-9.291 7.637-5.613 3.128-14.63 3.128-13.8 0-23.829-8.28-9.937-8.374-9.937-21.623 0-15.363 11.316-24.013 11.318-8.74 35.331-8.74h9.57v-5.245q0-6.256-2.761-9.936-2.668-3.773-9.11-3.773-11.04 0-11.04 10.858h-31.005q0-13.893 11.868-23.187 11.869-9.292 31.834-9.292 17.757 0 29.534 8.925 11.87 8.832 11.87 26.59v40.758q0 9.753 1.102 14.813 1.105 4.969 3.13 8.741v1.564zm-19.414-20.24q5.704 0 9.57-2.393 3.863-2.483 5.519-5.52v-16.1h-9.752q-8.742 0-12.146 4.507-3.31 4.417-3.31 10.029 0 4.233 2.85 6.9 2.944 2.577 7.269 2.577m58.71-55.388v-23.921h81.7v16.745l-44.253 58.883h45.174v23.922h-84.461V217.28l44.07-58.332zm93.58-49.591q0-6.624 4.785-10.857 4.784-4.232 12.42-4.232t12.421 4.232q4.785 4.233 4.785 10.857 0 6.625-4.785 10.857-4.784 4.232-12.42 4.232t-12.422-4.232q-4.784-4.232-4.784-10.857m32.938 25.67v99.55h-31.097v-99.55zm75.18 99.55-.92-10.673q-9.753 12.513-26.498 12.513-14.813 0-24.106-8.649-9.2-8.649-9.2-28.338v-64.403h31.006v64.588q0 12.88 12.512 12.88 10.857 0 15.182-7.82v-69.648h31.097v99.55zm86.955-77.47q-8.74 0-13.524 8.19v69.28h-31.008v-99.55h29.075l1.103 11.685q10.305-13.526 28.338-13.526 8.742 0 15.273 3.589 6.625 3.587 10.213 11.408 4.692-6.992 11.96-10.948 7.36-4.048 17.206-4.048 13.617 0 22.357 8.556 8.741 8.556 8.741 30.178v62.656h-31.098v-62.656q0-9.293-3.22-12.052-3.13-2.761-8.65-2.761-9.292 0-13.8 8.188.091 1.38.091 2.853v66.428H862.34v-62.472q0-9.477-3.22-12.237-3.129-2.76-8.833-2.76z" aria-label="Blazium" font-family="Roboto" font-size="186.667" font-weight="900" letter-spacing="-4" paint-order="stroke fill markers" style="line-height:1.25;-inkscape-font-specification:&quot;Roboto Heavy&quot;;fill:#fefefe;fill-opacity:1" transform="matrix(1.24521 0 0 1.24521 -1.801 90.27)"/><path d="M435.842 280.688q-2.61-5.49-7.56-8.46-4.95-3.06-11.52-3.06t-11.88 3.06q-5.22 2.97-8.28 8.64-2.97 5.58-2.97 12.96t2.97 12.96q3.06 5.58 8.28 8.64 5.31 2.97 11.88 2.97 9.18 0 15.12-5.49t6.93-14.85h-25.02v-6.66h33.75v6.3q-.72 7.74-4.86 14.22-4.14 6.39-10.89 10.17-6.75 3.69-15.03 3.69-8.73 0-15.93-4.05-7.2-4.14-11.43-11.43-4.14-7.29-4.14-16.47t4.14-16.47q4.23-7.38 11.43-11.43 7.2-4.14 15.93-4.14 9.99 0 17.64 4.95 7.74 4.95 11.25 13.95zm19.44 19.71q0-7.56 3.06-13.23 3.06-5.76 8.37-8.91 5.4-3.15 11.97-3.15 6.48 0 11.25 2.79t7.11 7.02v-9h8.28v49.32h-8.28v-9.18q-2.43 4.32-7.29 7.2-4.77 2.79-11.16 2.79-6.57 0-11.88-3.24t-8.37-9.09-3.06-13.32m41.76.09q0-5.58-2.25-9.72t-6.12-6.3q-3.78-2.25-8.37-2.25t-8.37 2.16-6.03 6.3-2.25 9.72q0 5.67 2.25 9.9 2.25 4.14 6.03 6.39 3.78 2.16 8.37 2.16t8.37-2.16q3.87-2.25 6.12-6.39 2.25-4.23 2.25-9.81m81.45-25.47q5.76 0 10.26 2.43 4.5 2.34 7.11 7.11t2.61 11.61v29.07h-8.1v-27.9q0-7.38-3.69-11.25-3.6-3.96-9.81-3.96-6.39 0-10.17 4.14-3.78 4.05-3.78 11.79v27.18h-8.1v-27.9q0-7.38-3.69-11.25-3.6-3.96-9.81-3.96-6.39 0-10.17 4.14-3.78 4.05-3.78 11.79v27.18h-8.19v-49.32h8.19v7.11q2.43-3.87 6.48-5.94 4.14-2.07 9.09-2.07 6.21 0 10.98 2.79t7.11 8.19q2.07-5.22 6.84-8.1t10.62-2.88m78.39 23.67q0 2.34-.27 4.95h-39.42q.45 7.29 4.95 11.43 4.59 4.05 11.07 4.05 5.31 0 8.82-2.43 3.6-2.52 5.04-6.66h8.82q-1.98 7.11-7.92 11.61-5.94 4.41-14.76 4.41-7.02 0-12.6-3.15-5.49-3.15-8.64-8.91-3.15-5.85-3.15-13.5t3.06-13.41 8.55-8.82q5.58-3.15 12.78-3.15 7.02 0 12.42 3.06t8.28 8.46q2.97 5.31 2.97 12.06m-8.46-1.71q0-4.68-2.07-8.01-2.07-3.42-5.67-5.13-3.51-1.8-7.83-1.8-6.21 0-10.62 3.96-4.32 3.96-4.95 10.98zm50.85-34.47v46.35q0 7.74-4.77 12.42-4.77 4.59-12.6 4.59-7.92 0-12.69-4.68-4.77-4.77-4.77-12.96h8.19q.09 4.59 2.34 7.47 2.34 2.88 6.93 2.88t6.84-2.7q2.25-2.79 2.25-7.02v-46.35zm13.05 37.89q0-7.56 3.06-13.23 3.06-5.76 8.37-8.91 5.4-3.15 11.97-3.15 6.48 0 11.25 2.79t7.11 7.02v-9h8.28v49.32h-8.28v-9.18q-2.43 4.32-7.29 7.2-4.77 2.79-11.16 2.79-6.57 0-11.88-3.24t-8.37-9.09-3.06-13.32m41.76.09q0-5.58-2.25-9.72t-6.12-6.3q-3.78-2.25-8.37-2.25t-8.37 2.16-6.03 6.3-2.25 9.72q0 5.67 2.25 9.9 2.25 4.14 6.03 6.39 3.78 2.16 8.37 2.16t8.37-2.16q3.87-2.25 6.12-6.39 2.25-4.23 2.25-9.81m81.45-25.47q5.76 0 10.26 2.43 4.5 2.34 7.11 7.11t2.61 11.61v29.07h-8.1v-27.9q0-7.38-3.69-11.25-3.6-3.96-9.81-3.96-6.39 0-10.17 4.14-3.78 4.05-3.78 11.79v27.18h-8.1v-27.9q0-7.38-3.69-11.25-3.6-3.96-9.81-3.96-6.39 0-10.17 4.14-3.78 4.05-3.78 11.79v27.18h-8.19v-49.32h8.19v7.11q2.43-3.87 6.48-5.94 4.14-2.07 9.09-2.07 6.21 0 10.98 2.79t7.11 8.19q2.07-5.22 6.84-8.1t10.62-2.88" aria-label="GameJam" style="font-size:90px;line-height:1.25;font-family:Poppins;-inkscape-font-specification:Poppins;fill:#fefefe;stroke-width:.9375" transform="matrix(1.24521 0 0 1.24521 -1.801 90.27)"/></svg>