<?xml version="1.0" encoding="UTF-8" standalone="no"?>
<svg
   xml:space="preserve"
   width="1280"
   height="720"
   viewBox="0 0 1200 675"
   version="1.1"
   id="svg6"
   sodipodi:docname="logo.svg"
   inkscape:version="1.3 (0e150ed6c4, 2023-07-21)"
   xmlns:inkscape="http://www.inkscape.org/namespaces/inkscape"
   xmlns:sodipodi="http://sodipodi.sourceforge.net/DTD/sodipodi-0.dtd"
   xmlns:xlink="http://www.w3.org/1999/xlink"
   xmlns="http://www.w3.org/2000/svg"
   xmlns:svg="http://www.w3.org/2000/svg"><sodipodi:namedview
     id="namedview6"
     pagecolor="#000000"
     bordercolor="#000000"
     borderopacity="0.25"
     inkscape:showpageshadow="2"
     inkscape:pageopacity="0.0"
     inkscape:pagecheckerboard="0"
     inkscape:deskcolor="#d1d1d1"
     inkscape:zoom="0.44636116"
     inkscape:cx="806.52179"
     inkscape:cy="641.85693"
     inkscape:window-width="1858"
     inkscape:window-height="1057"
     inkscape:window-x="54"
     inkscape:window-y="-8"
     inkscape:window-maximized="1"
     inkscape:current-layer="svg6" /><defs
     id="defs2"><linearGradient
       inkscape:collect="always"
       xlink:href="#linearGradient42"
       id="linearGradient28"
       x1="345.48788"
       y1="537.54504"
       x2="326.39346"
       y2="278.27698"
       gradientUnits="userSpaceOnUse"
       gradientTransform="translate(25.644623)" /><linearGradient
       id="linearGradient42"
       inkscape:collect="always"><stop
         style="stop-color:#6000bf;stop-opacity:1;"
         offset="0"
         id="stop41" /><stop
         style="stop-color:#ff80ff;stop-opacity:1;"
         offset="1"
         id="stop42" /></linearGradient><linearGradient
       inkscape:collect="always"
       xlink:href="#linearGradient42"
       id="linearGradient38"
       gradientUnits="userSpaceOnUse"
       x1="628.38464"
       y1="554.55164"
       x2="605.51581"
       y2="345.67511"
       gradientTransform="translate(25.644623)" /><linearGradient
       inkscape:collect="always"
       xlink:href="#linearGradient42"
       id="linearGradient37"
       gradientUnits="userSpaceOnUse"
       x1="711.17267"
       y1="702.79602"
       x2="813.1228"
       y2="513.79858"
       gradientTransform="translate(25.644623)" /><linearGradient
       inkscape:collect="always"
       xlink:href="#linearGradient42"
       id="linearGradient36"
       gradientUnits="userSpaceOnUse"
       x1="263.13342"
       y1="648.50427"
       x2="199.50737"
       y2="445.44455"
       gradientTransform="translate(25.644623)" /><linearGradient
       inkscape:collect="always"
       xlink:href="#linearGradient42"
       id="linearGradient35"
       gradientUnits="userSpaceOnUse"
       x1="760.85095"
       y1="829.70624"
       x2="818.7851"
       y2="638.51398"
       gradientTransform="translate(25.644623)" /><linearGradient
       inkscape:collect="always"
       xlink:href="#linearGradient42"
       id="linearGradient34"
       gradientUnits="userSpaceOnUse"
       x1="447.2309"
       y1="825.1051"
       x2="722.6864"
       y2="341.16104"
       gradientTransform="translate(25.644623)" /></defs><g
     id="g6"
     transform="matrix(1.2142353,0,0,1.2142353,-0.0917506,86.833716)"><text
       xml:space="preserve"
       style="font-style:normal;font-variant:normal;font-weight:normal;font-stretch:normal;font-size:74.6666px;font-family:Poppins;-inkscape-font-specification:'Poppins, Normal';font-variant-ligatures:normal;font-variant-caps:normal;font-variant-numeric:normal;font-variant-east-asian:normal;opacity:1;fill:#ffffff;fill-opacity:1;stroke:none;stroke-width:57.2913;stroke-linecap:round;stroke-linejoin:round;paint-order:markers stroke fill"
       x="443.82877"
       y="333.01666"
       id="text1"><tspan
         sodipodi:role="line"
         id="tspan1"
         x="443.82877"
         y="333.01666"
         style="stroke-width:57.2913">Game Jam</tspan></text><path
       fill="#414042"
       stroke="#fefefe"
       stroke-linecap="round"
       stroke-linejoin="round"
       stroke-width="15"
       d="M 434.022,203.716 Q 434.022,243 384.165,243 H 331.3 V 110.291 h 47.67 q 24.518,0 38.372,9.024 13.945,9.023 13.945,27.617 0,9.024 -4.192,16.771 -4.193,7.656 -14.493,11.576 11.758,3.007 16.589,11.21 4.83,8.112 4.83,17.227 z m -70.73,-68.724 v 30.625 h 15.495 q 11.12,0 15.769,-3.737 4.74,-3.737 4.74,-11.12 0,-15.768 -20.326,-15.768 z m 38.92,68.268 q 0,-7.656 -3.828,-12.122 -3.828,-4.557 -12.943,-4.557 h -22.149 v 31.81 h 20.873 q 9.753,0 13.854,-4.375 4.193,-4.467 4.193,-10.756 M 478.785,103 V 243 H 447.978 V 103 Z m 70.375,140 q -1.732,-3.555 -2.826,-8.841 -3.554,4.466 -9.205,7.565 -5.56,3.099 -14.492,3.099 -13.672,0 -23.607,-8.203 -9.844,-8.295 -9.844,-21.42 0,-15.22 11.21,-23.789 11.212,-8.659 35.001,-8.659 h 9.48 v -5.195 q 0,-6.198 -2.735,-9.844 -2.643,-3.737 -9.024,-3.737 -10.937,0 -10.937,10.756 h -30.716 q 0,-13.763 11.757,-22.97 11.758,-9.205 31.537,-9.205 17.591,0 29.258,8.841 11.758,8.75 11.758,26.341 v 40.378 q 0,9.662 1.093,14.675 1.094,4.922 3.1,8.659 V 243 Z m -19.232,-20.052 q 5.651,0 9.48,-2.37 3.828,-2.46 5.468,-5.469 v -15.95 h -9.661 q -8.66,0 -12.032,4.466 -3.28,4.375 -3.28,9.935 0,4.193 2.825,6.836 2.916,2.552 7.2,2.552 m 58.162,-54.87 V 144.38 h 80.937 v 16.589 l -43.84,58.333 h 44.752 V 243 h -83.672 v -17.135 l 43.659,-57.787 z m 92.706,-49.128 q 0,-6.562 4.74,-10.755 4.739,-4.193 12.304,-4.193 7.565,0 12.305,4.193 4.74,4.193 4.74,10.755 0,6.563 -4.74,10.756 -4.74,4.192 -12.305,4.192 -7.565,0 -12.305,-4.192 -4.74,-4.192 -4.74,-10.756 z m 32.63,25.43 V 243 h -30.807 v -98.62 z m 74.477,98.62 -0.912,-10.573 q -9.661,12.396 -26.25,12.396 -14.674,0 -23.88,-8.568 -9.115,-8.568 -9.115,-28.073 V 144.38 h 30.717 v 63.985 q 0,12.76 12.395,12.76 10.756,0 15.04,-7.747 V 144.38 h 30.807 V 243 Z m 86.143,-76.745 q -8.659,0 -13.398,8.112 V 243 H 829.93 v -98.62 h 28.803 l 1.093,11.576 q 10.209,-13.399 28.073,-13.399 8.66,0 15.13,3.555 6.563,3.554 10.118,11.302 4.648,-6.927 11.849,-10.846 7.291,-4.01 17.044,-4.01 13.49,0 22.148,8.476 8.66,8.476 8.66,29.896 V 243 H 942.04 v -62.07 q 0,-9.206 -3.19,-11.94 -3.1,-2.735 -8.568,-2.735 -9.206,0 -13.672,8.112 0.091,1.367 0.091,2.826 V 243 h -30.716 v -61.888 q 0,-9.388 -3.19,-12.123 -3.099,-2.734 -8.75,-2.734 z"
       aria-label="Blazium"
       font-family="Roboto"
       font-size="186.667px"
       font-weight="900"
       letter-spacing="-4"
       paint-order="stroke fill markers"
       style="line-height:1.25;-inkscape-font-specification:'Roboto Heavy';display:inline;fill:#faf7ff;fill-opacity:1;stroke:none;stroke-opacity:1"
       id="path5-2" /><g
       id="g14"
       transform="matrix(1.5858556,0,0,1.5858556,-47.462507,3.7558852)"
       style="display:inline"><g
         id="g13"
         style="display:inline"><path
           style="color:#000000;display:inline;fill:url(#linearGradient28);stroke:none;stroke-width:62.3103;stroke-linecap:round;stroke-linejoin:round;-inkscape-stroke:none;paint-order:markers stroke fill"
           d="m 333.04148,390.83223 c 60.95648,-49.64478 68.88761,-106.2825 36.83418,-141.00059 52.95459,9.63902 98.77795,89.19743 48.01651,153.00628 -26.65727,28.88001 -68.13281,68.8029 -93.60356,105.41581 -9.2708,-12.44172 -10.12463,-91.91256 8.75287,-117.4215 z"
           id="path3-6"
           transform="matrix(0.27019025,0,0,0.24403398,-17.18939,3.054602)" /><path
           style="color:#000000;display:inline;fill:url(#linearGradient38);stroke:none;stroke-width:62.3103;stroke-linecap:round;stroke-linejoin:round;-inkscape-stroke:none;paint-order:markers stroke fill"
           d="m 605.46763,539.31749 c 99.49507,-95.417 109.65157,-174.00724 89.51164,-257.37948 90.53959,56.34382 120.32347,206.65548 27.21848,302.30568 -32.45156,-39.30764 -89.42225,-46.80136 -116.73012,-44.9262 z"
           id="path5-5"
           transform="matrix(0.27019025,0,0,0.24403398,-17.18939,3.054602)" /><path
           style="color:#000000;display:inline;fill:url(#linearGradient37);stroke:none;stroke-width:62.3103;stroke-linecap:round;stroke-linejoin:round;-inkscape-stroke:none;paint-order:markers stroke fill"
           d="m 765.39662,735.60971 c 1.02709,-90.00477 -16.0696,-105.16862 -28.65159,-129.51094 34.98134,-30.43943 78.21953,-75.63777 74.07442,-153.79971 36.26521,37.79516 66.66305,121.65638 46.94164,191.96024 -14.85854,28.34925 -56.52353,68.79815 -92.36447,91.35041 z"
           id="path7"
           transform="matrix(0.27019025,0,0,0.24403398,-17.18939,3.054602)" /><path
           style="color:#000000;display:inline;fill:url(#linearGradient36);stroke:none;stroke-width:62.3103;stroke-linecap:round;stroke-linejoin:round;-inkscape-stroke:none;paint-order:markers stroke fill"
           d="m 286.7715,396.80053 c -5.93266,67.16211 -0.0142,105.76452 13.27886,144.12011 C 286.96344,560.2585 230.93304,650.69743 262.60711,761.2419 218.55809,737.23285 161.82561,566.00177 286.7715,396.80053 Z"
           id="path9"
           transform="matrix(0.27019025,0,0,0.24403398,-17.18939,3.054602)" /><path
           style="color:#000000;display:inline;fill:url(#linearGradient35);stroke:none;stroke-width:62.3103;stroke-linecap:round;stroke-linejoin:round;-inkscape-stroke:none;paint-order:markers stroke fill"
           d="m 726.13159,846.0296 c 17.73585,-25.58971 32.54955,-56.27784 36.25546,-69.90486 25.02581,-13.2945 46.48859,-30.41422 75.77995,-60.35056 6.3761,19.04233 -68.60478,120.85509 -112.03541,130.25542 z"
           id="path11"
           transform="matrix(0.27019025,0,0,0.24403398,-17.18939,3.054602)" /><path
           style="color:#000000;display:inline;fill:url(#linearGradient34);stroke:none;stroke-width:62.3103;stroke-linecap:round;stroke-linejoin:round;-inkscape-stroke:none;paint-order:markers stroke fill"
           d="m 287.62386,770.66215 c -29.78142,-126.68372 26.21112,-227.13854 122.27548,-324.391 105.33248,-111.10231 158.66521,-199.01977 14.74873,-345.20912 261.96689,21.80119 302.85341,302.60789 107.16624,460.89824 -51.66636,39.08202 -116.35918,131.07193 -52.20213,201.69934 66.22057,56.08087 152.88124,4.62465 143.98406,-72.6156 C 613.31254,635.78409 547.10516,612.40275 497.42633,659.86933 507.38079,588.25452 598.94657,539.692 677.1654,583.25512 770.05339,643.46 769.04934,809.07161 659.32044,888.46646 545.23535,954.13648 341.34585,931.82258 287.62386,770.66215 Z"
           id="path13"
           transform="matrix(0.27019025,0,0,0.24403398,-17.18939,3.054602)" /></g></g></g></svg>
