<svg xmlns="http://www.w3.org/2000/svg" xmlns:xlink="http://www.w3.org/1999/xlink" xml:space="preserve" width="512" height="512"><defs><linearGradient id="c"><stop offset=".088" stop-color="#a300fe"/><stop offset=".902" stop-color="#d248e8"/><stop offset="1" stop-color="#891dfe"/></linearGradient><linearGradient id="b"><stop offset="0" stop-color="#a300fe"/><stop offset=".891" stop-color="#d248e8"/><stop offset="1" stop-color="#891dfe"/></linearGradient><linearGradient id="a"><stop offset=".392" stop-color="#8700d1"/><stop offset=".755" stop-color="#851296"/><stop offset="1" stop-color="#5b01c2"/></linearGradient><linearGradient xlink:href="#a" id="d" x1="192.66" x2="324.386" y1="388.027" y2="215.222" gradientTransform="matrix(.47137 .11813 -.11228 .76092 161.915 32.087)" gradientUnits="userSpaceOnUse"/><linearGradient xlink:href="#b" id="f" x1="249.505" x2="291.546" y1="215.396" y2="144.484" gradientTransform="matrix(1.0274 .01967 .02624 1.15654 -40.88 12.413)" gradientUnits="userSpaceOnUse"/><linearGradient xlink:href="#c" id="e" x1="322.125" x2="331.776" y1="240.702" y2="220.757" gradientTransform="matrix(1.0272 .018 .03675 1.24765 -37.421 -11.414)" gradientUnits="userSpaceOnUse"/></defs><g stroke="#000" stroke-linecap="round" stroke-linejoin="round" stroke-width="5.17" paint-order="markers stroke fill"><path fill="url(#d)" d="m 230.89769,226.44621 c -4.86174,23.67514 -1.4118,34.84494 3.85774,50.35733 3.16258,10.05367 7.87317,20.75998 5.76968,33.11844 -3.0244,13.77908 -13.48936,20.42155 -21.59449,17.38962 -6.54746,-1.33446 -12.70448,-6.64852 -16.25621,-15.29667 2.66059,33.15615 21.7501,54.25868 42.49136,53.0156 14.29499,-2.11181 29.39784,-12.63763 35.42765,-35.99318 5.07384,-23.81536 0.96781,-42.46341 -9.5895,-54.6488 -6.6467,-6.66916 -13.42804,-11.6465 -19.89188,-21.89753 -3.80724,-8.71922 -5.86856,-15.04107 -2.38585,-27.11785 9.6037,-21.39212 31.02091,2.87026 21.9099,-19.60696 -12.08919,-8.38416 -29.99483,-18.21721 -39.7384,20.68 z" display="none" style="mix-blend-mode:normal" transform="matrix(2.92137 -.13098 -.33721 3.29314 -389.391 -469.047)"/><path fill="url(#e)" d="m 251.54805,270.42634 c 31.84859,-5.78024 52.41968,11.97191 52.14383,22.36648 50.50935,-13.75428 -14.9294,-55.46283 -52.14383,-22.36648 z" transform="matrix(2.92137 -.13098 -.33721 3.29314 -389.391 -469.047)"/><path fill="url(#f)" d="m 169.96141,162.66663 c 17.41205,41.35221 27.04713,37.80379 47.64246,49.55603 3.68452,1.54055 10.79557,8.49391 11.77522,12.27213 -20.15205,-4.78468 -41.80605,-12.38997 -65.83391,-9.82586 34.22004,9.5171 46.1883,25.28803 67.17854,34.5316 7.70924,2.2812 15.81809,4.47568 22.83907,0.23492 -8.31479,10.37714 -32.27749,8.27861 -43.79139,2.80537 7.75483,15.41186 31.53386,22.84188 41.38869,18.17009 8.89286,-5.97039 10.84878,-10.10481 19.02404,-12.05868 32.27114,-6.26839 47.66352,19.82603 50.24937,25.30588 11.41352,-14.96439 12.42207,-37.67171 -0.47091,-51.9151 0.90521,5.35929 -2.23403,9.4196 -13.31966,8.67167 -7.39171,-0.90782 -15.63484,-7.34066 -19.66998,-10.09377 -5.07679,-21.81413 -33.44114,-47.51607 -55.95026,-56.70679 16.44088,17.97098 18.31689,19.32665 23.26549,29.73133 -41.90227,-21.76518 -58.1203,-11.60377 -84.32677,-40.67882 z" transform="matrix(2.92137 -.13098 -.33721 3.29314 -389.391 -469.047)"/><path fill="#260055" stroke="none" d="m 239.0264,212.65828 c 10.01694,8.68953 9.26863,12.30237 18.5411,18.33213 8.50236,4.33585 12.31947,4.04091 17.12398,4.65793 5.785,0.63409 6.56721,0.76022 11.2137,3.60703 -7.99001,-11.58124 -16.81383,-15.62789 -26.00927,-17.48395 -7.87679,-2.2064 -13.51991,-5.62669 -20.86951,-9.11314 z" transform="matrix(2.92137 -.13098 -.33721 3.29314 -389.391 -469.047)"/></g></svg>