<?xml version="1.0" encoding="UTF-8" standalone="no"?>
<!-- Created with Inkscape (http://www.inkscape.org/) -->

<svg
   width="512"
   height="512"
   viewBox="0 0 512 512"
   version="1.1"
   id="svg1"
   xml:space="preserve"
   inkscape:version="1.3 (0e150ed6c4, 2023-07-21)"
   sodipodi:docname="logo_dragon.svg"
   inkscape:export-filename="logo_dragon.png"
   inkscape:export-xdpi="96"
   inkscape:export-ydpi="96"
   xmlns:inkscape="http://www.inkscape.org/namespaces/inkscape"
   xmlns:sodipodi="http://sodipodi.sourceforge.net/DTD/sodipodi-0.dtd"
   xmlns:xlink="http://www.w3.org/1999/xlink"
   xmlns="http://www.w3.org/2000/svg"
   xmlns:svg="http://www.w3.org/2000/svg"><sodipodi:namedview
     id="namedview1"
     pagecolor="#ffffff"
     bordercolor="#000000"
     borderopacity="0.25"
     inkscape:showpageshadow="2"
     inkscape:pageopacity="0.0"
     inkscape:pagecheckerboard="0"
     inkscape:deskcolor="#d1d1d1"
     inkscape:document-units="px"
     inkscape:zoom="1.2733766"
     inkscape:cx="252.87099"
     inkscape:cy="311.37685"
     inkscape:window-width="1858"
     inkscape:window-height="1057"
     inkscape:window-x="54"
     inkscape:window-y="-8"
     inkscape:window-maximized="1"
     inkscape:current-layer="layer1" /><defs
     id="defs1"><linearGradient
       id="linearGradient7"
       inkscape:collect="always"><stop
         style="stop-color:#a300fe;stop-opacity:1;"
         offset="0.08843868"
         id="stop4" /><stop
         style="stop-color:#d248e8;stop-opacity:1;"
         offset="0.90224594"
         id="stop5" /><stop
         style="stop-color:#891dfe;stop-opacity:1;"
         offset="1"
         id="stop6" /></linearGradient><linearGradient
       id="linearGradient3"
       inkscape:collect="always"><stop
         style="stop-color:#a300fe;stop-opacity:1;"
         offset="0.0001"
         id="stop1" /><stop
         style="stop-color:#d248e8;stop-opacity:1;"
         offset="0.89108932"
         id="stop2" /><stop
         style="stop-color:#891dfe;stop-opacity:1;"
         offset="1"
         id="stop3" /></linearGradient><linearGradient
       id="linearGradient28"
       inkscape:collect="always"><stop
         style="stop-color:#0c0c15;stop-opacity:1;"
         offset="0"
         id="stop27" /><stop
         style="stop-color:#191b26;stop-opacity:1;"
         offset="1"
         id="stop28" /></linearGradient><linearGradient
       id="linearGradient22"
       inkscape:collect="always"><stop
         style="stop-color:#0c0c1e;stop-opacity:1;"
         offset="0"
         id="stop22" /><stop
         style="stop-color:#2a2e45;stop-opacity:1;"
         offset="1"
         id="stop23" /></linearGradient><linearGradient
       id="linearGradient70"
       inkscape:collect="always"><stop
         style="stop-color:#8700d1;stop-opacity:1;"
         offset="0.39230362"
         id="stop70" /><stop
         style="stop-color:#851296;stop-opacity:1;"
         offset="0.75503194"
         id="stop73" /><stop
         style="stop-color:#5b01c2;stop-opacity:1;"
         offset="1"
         id="stop72" /></linearGradient><linearGradient
       inkscape:collect="always"
       xlink:href="#linearGradient70"
       id="linearGradient71"
       x1="192.65964"
       y1="388.0271"
       x2="324.38608"
       y2="215.22244"
       gradientUnits="userSpaceOnUse"
       gradientTransform="matrix(0.47136843,0.11813273,-0.11228079,0.76092006,161.91506,32.087491)" /><linearGradient
       inkscape:collect="always"
       xlink:href="#linearGradient3"
       id="linearGradient75"
       x1="249.50459"
       y1="215.39592"
       x2="291.54575"
       y2="144.48425"
       gradientUnits="userSpaceOnUse"
       gradientTransform="matrix(1.0274,0.01966943,0.02623563,1.1565427,-40.880462,12.413171)" /><linearGradient
       inkscape:collect="always"
       xlink:href="#linearGradient7"
       id="linearGradient2"
       x1="322.12463"
       y1="240.70201"
       x2="331.7757"
       y2="220.75674"
       gradientUnits="userSpaceOnUse"
       gradientTransform="matrix(1.0272071,0.01799822,0.03675266,1.2476546,-37.421203,-11.413589)" /><linearGradient
       inkscape:collect="always"
       xlink:href="#linearGradient22"
       id="linearGradient23"
       x1="0.089398354"
       y1="550.00964"
       x2="529.82538"
       y2="9.2707462"
       gradientUnits="userSpaceOnUse" /><linearGradient
       inkscape:collect="always"
       xlink:href="#linearGradient28"
       id="linearGradient24"
       gradientUnits="userSpaceOnUse"
       x1="179.48566"
       y1="473.42432"
       x2="447.46106"
       y2="-12.776546" /></defs><g
     inkscape:groupmode="layer"
     id="layer2"
     inkscape:label="Layer 2"
     transform="matrix(0.96038262,0,0,0.93381077,2.0813013,-4.0474303)"
     style="display:inline;fill:url(#linearGradient23);stroke-width:0;stroke-dasharray:none"><rect
       style="display:inline;fill:url(#linearGradient24);fill-opacity:1;stroke:#000000;stroke-width:0;stroke-linecap:round;stroke-linejoin:round;stroke-dasharray:none;stroke-opacity:1;paint-order:markers stroke fill"
       id="rect21"
       width="533.12085"
       height="548.29095"
       x="-2.1671579"
       y="4.3343158" /></g><g
     inkscape:label="Layer 1"
     inkscape:groupmode="layer"
     id="layer1"
     style="display:inline;fill:#000000;fill-opacity:1;stroke:#000000;stroke-width:7.46429;stroke-linecap:round;stroke-linejoin:round;stroke-dasharray:none;stroke-opacity:1;paint-order:markers stroke fill"
     transform="matrix(2.2684053,0,0,2.0255458,-304.63468,-281.79823)"><g
       id="g1"
       inkscape:label="Head"
       transform="matrix(1.287851,-0.06466467,-0.14865605,1.6258047,-37.363956,-92.443688)"
       style="stroke-width:5.17036;stroke-linecap:round;stroke-linejoin:round;stroke-dasharray:none;paint-order:markers stroke fill"><path
         d="m 230.89769,226.44621 c -4.86174,23.67514 -1.4118,34.84494 3.85774,50.35733 3.16258,10.05367 7.87317,20.75998 5.76968,33.11844 -3.0244,13.77908 -13.48936,20.42155 -21.59449,17.38962 -6.54746,-1.33446 -12.70448,-6.64852 -16.25621,-15.29667 2.66059,33.15615 21.7501,54.25868 42.49136,53.0156 14.29499,-2.11181 29.39784,-12.63763 35.42765,-35.99318 5.07384,-23.81536 0.96781,-42.46341 -9.5895,-54.6488 -6.6467,-6.66916 -13.42804,-11.6465 -19.89188,-21.89753 -3.80724,-8.71922 -5.86856,-15.04107 -2.38585,-27.11785 9.6037,-21.39212 31.02091,2.87026 21.9099,-19.60696 -12.08919,-8.38416 -29.99483,-18.21721 -39.7384,20.68 z"
         style="display:none;opacity:1;mix-blend-mode:normal;fill:url(#linearGradient71);fill-opacity:1;fill-rule:nonzero;stroke:#000000;stroke-width:5.17036;stroke-linecap:round;stroke-linejoin:round;stroke-dasharray:none;stroke-opacity:1;paint-order:markers stroke fill"
         id="path8"
         sodipodi:nodetypes="cccccccccccc"
         inkscape:label="Body" /><path
         d="m 251.54805,270.42634 c 31.84859,-5.78024 52.41968,11.97191 52.14383,22.36648 50.50935,-13.75428 -14.9294,-55.46283 -52.14383,-22.36648 z"
         style="display:inline;fill:url(#linearGradient2);fill-opacity:1;stroke:#000000;stroke-width:5.17036;stroke-linecap:round;stroke-linejoin:round;stroke-dasharray:none;stroke-opacity:1;paint-order:markers stroke fill"
         id="path19"
         sodipodi:nodetypes="ccc"
         inkscape:label="Chin" /><path
         d="m 169.96141,162.66663 c 17.41205,41.35221 27.04713,37.80379 47.64246,49.55603 3.68452,1.54055 10.79557,8.49391 11.77522,12.27213 -20.15205,-4.78468 -41.80605,-12.38997 -65.83391,-9.82586 34.22004,9.5171 46.1883,25.28803 67.17854,34.5316 7.70924,2.2812 15.81809,4.47568 22.83907,0.23492 -8.31479,10.37714 -32.27749,8.27861 -43.79139,2.80537 7.75483,15.41186 31.53386,22.84188 41.38869,18.17009 8.89286,-5.97039 10.84878,-10.10481 19.02404,-12.05868 32.27114,-6.26839 47.66352,19.82603 50.24937,25.30588 11.41352,-14.96439 12.42207,-37.67171 -0.47091,-51.9151 0.90521,5.35929 -2.23403,9.4196 -13.31966,8.67167 -7.39171,-0.90782 -15.63484,-7.34066 -19.66998,-10.09377 -5.07679,-21.81413 -33.44114,-47.51607 -55.95026,-56.70679 16.44088,17.97098 18.31689,19.32665 23.26549,29.73133 -41.90227,-21.76518 -58.1203,-11.60377 -84.32677,-40.67882 z"
         style="display:inline;fill:url(#linearGradient75);fill-opacity:1;stroke:#000000;stroke-width:5.17036;stroke-linecap:round;stroke-linejoin:round;stroke-dasharray:none;stroke-opacity:1;paint-order:markers stroke fill"
         id="path42"
         sodipodi:nodetypes="cccccccccccccccc"
         inkscape:label="Head" /><path
         d="m 239.0264,212.65828 c 10.01694,8.68953 9.26863,12.30237 18.5411,18.33213 8.50236,4.33585 12.31947,4.04091 17.12398,4.65793 5.785,0.63409 6.56721,0.76022 11.2137,3.60703 -7.99001,-11.58124 -16.81383,-15.62789 -26.00927,-17.48395 -7.87679,-2.2064 -13.51991,-5.62669 -20.86951,-9.11314 z"
         style="display:inline;fill:#260055;fill-opacity:1;stroke:none;stroke-width:5.17036;stroke-linecap:round;stroke-linejoin:round;stroke-dasharray:none;stroke-opacity:1;paint-order:markers stroke fill"
         id="path70"
         sodipodi:nodetypes="cccccc"
         inkscape:label="Eye" /></g></g></svg>
