<svg xmlns="http://www.w3.org/2000/svg" width="128" height="128"><rect width="124" height="124" x="2" y="2" fill="#00002e" stroke="#8130f2" stroke-width="4" rx="14"/><path fill="#8533df" d="M 54.348199,6.4927415 C 78.002544,15.116518 82.659877,41.714798 65.250877,57.616642 47.841889,73.518474 37.42216,77.596566 40.213562,92.522154 43.004975,107.44775 52.846635,110.85621 63.39632,111.85591 73.946013,112.8556 83.593421,96.659499 80.709468,87.847382 77.825512,79.035279 74.313956,74.124905 57.902618,71.547112 L 71.543047,57.673507 c 1.594295,8.048439 19.037146,15.746911 21.321956,29.51191 C 95.149817,100.9504 84.208282,121.37627 62.148021,119.26104 40.087764,117.14582 10.790352,94.743677 32.995537,58.697751 55.200723,22.651821 76.057152,24.591158 54.348199,6.4927415 Z M 90.453693,33.981753 C 84.507487,68.998089 114.28333,57.311217 97.949236,98.276328 102.57748,61.035796 59.90704,65.100526 90.453693,33.981753 Z M 61.015722,78.857269 A 13.278861,13.278861 0 0 1 74.294457,92.136006 13.278861,13.278861 0 0 1 61.015722,105.41531 13.278861,13.278861 0 0 1 47.736987,92.136006 13.278861,13.278861 0 0 1 61.015722,78.857269 Z"/></svg>