<svg xmlns="http://www.w3.org/2000/svg" width="16" height="16"><path fill="#8533df" d="M 6.6846043,0.37716126 C 9.8949518,1.5475726 10.527041,5.1574682 8.1643063,7.3156527 5.8015733,9.4738357 4.3874169,10.027311 4.7662634,12.052998 c 0.3788482,2.02569 1.7145498,2.488283 3.146344,2.623962 1.4317952,0.135677 2.7411336,-2.062445 2.3497256,-3.258417 C 9.8709247,10.222571 9.3943394,9.5561399 7.1670069,9.2062842 L 9.0182742,7.3233704 c 0.2163762,1.0923272 2.5837048,2.1371573 2.8937978,4.0053316 0.310093,1.868171 -1.174883,4.640352 -4.1688827,4.353275 C 4.7491902,15.394901 0.77297068,12.354502 3.7866393,7.46238 6.8003081,2.5702574 9.6309246,2.8334627 6.6846043,0.37716126 Z M 11.584811,4.1079461 C 10.777797,8.8603329 14.818949,7.2742008 12.6021,12.83395 13.23024,7.7796975 7.4390454,8.331359 11.584811,4.1079461 Z M 7.5895145,10.198413 a 1.8021955,1.8021955 0 0 1 1.8021788,1.802178 1.8021955,1.8021955 0 0 1 -1.8021788,1.802256 1.8021955,1.8021955 0 0 1 -1.8021783,-1.802256 1.8021955,1.8021955 0 0 1 1.8021783,-1.802178 z"/></svg>