<svg xmlns="http://www.w3.org/2000/svg" width="16" height="16"><path fill="#fff" d="M 6.8727891,0.67587852 C 9.9247429,1.7885437 10.525646,5.2203332 8.279485,7.2720365 6.0333255,9.3237384 4.6889412,9.8499057 5.049096,11.77565 5.4092525,13.701396 6.6790527,14.141164 8.0402047,14.270148 9.4013574,14.399133 10.646095,12.309462 10.273999,11.172497 9.9019022,10.035533 9.4488306,9.4019818 7.3313909,9.0693874 L 9.0913195,7.2793734 C 9.2970204,8.317807 11.547549,9.311087 11.842342,11.087088 12.137135,12.863087 10.725426,15.498494 7.8791453,15.225581 5.0328651,14.952668 1.2528256,12.062277 4.1178049,7.4115245 6.9827842,2.760771 9.6737429,3.0109902 6.8727891,0.67587852 Z M 11.531227,4.2225927 c -0.767197,4.517912 3.074572,3.010037 0.967099,8.2954783 C 13.095475,7.713186 7.5900073,8.2376295 11.531227,4.2225927 Z M 7.7330527,10.012565 a 1.7132782,1.7132782 0 0 1 1.7132621,1.713263 1.7132782,1.7132782 0 0 1 -1.7132621,1.713336 1.7132782,1.7132782 0 0 1 -1.713262,-1.713336 1.7132782,1.7132782 0 0 1 1.713262,-1.713263 z"/></svg>