<svg xmlns="http://www.w3.org/2000/svg" width="64" height="64"><path fill="#fff" fill-opacity=".6" d="m 14,5 a 4,4 0 0 0 -4,4 v 46 a 4,4 0 0 0 4,4 h 36 a 4,4 0 0 0 4,-4 V 22 a 1,1 0 0 0 -0.285,-0.707 l -16,-16 A 1,1 0 0 0 37,5 Z m 0,2 h 22 v 12 a 4,4 0 0 0 4,4 h 12 v 32 a 2,2 0 0 1 -2,2 H 14 A 2,2 0 0 1 12,55 V 9 a 2,2 0 0 1 2,-2 z"/><path fill="#8533df" d="m 28.948185,16.181453 c 8.171285,2.979044 9.780139,12.167298 3.76628,17.660517 -6.013855,5.493215 -9.613302,6.901973 -8.649026,12.05795 0.964281,5.15598 4.364038,6.333416 8.008378,6.678758 3.644343,0.345339 6.976996,-5.249532 5.980747,-8.293637 -0.996249,-3.044101 -2.2093,-4.740367 -7.878521,-5.630854 l 4.712023,-4.792573 c 0.550743,2.780296 6.576295,5.439698 7.365572,10.194754 0.789279,4.755051 -2.990424,11.811074 -10.61104,11.080378 C 24.021983,54.406052 13.901326,46.667334 21.572006,34.215435 29.242685,21.763533 36.447443,22.433468 28.948185,16.181453 Z m 12.472477,9.495953 c -2.054089,12.096233 8.231841,8.059057 2.589302,22.210267 C 45.608769,35.023101 30.868461,36.427244 41.420662,25.677406 Z M 31.25145,41.179447 a 4.5871216,4.5871216 0 0 1 4.587078,4.58708 4.5871216,4.5871216 0 0 1 -4.587078,4.587275 4.5871216,4.5871216 0 0 1 -4.587078,-4.587275 4.5871216,4.5871216 0 0 1 4.587078,-4.58708 z"/></svg>