<svg xmlns="http://www.w3.org/2000/svg" xmlns:xlink="http://www.w3.org/1999/xlink" xml:space="preserve" width="187" height="69"><defs><linearGradient xlink:href="#a" id="b" x1="345.488" x2="326.393" y1="537.545" y2="278.277" gradientTransform="translate(25.645)" gradientUnits="userSpaceOnUse"/><linearGradient id="a"><stop offset="0" stop-color="#6000bf"/><stop offset="1" stop-color="#ff80ff"/></linearGradient><linearGradient xlink:href="#a" id="c" x1="628.385" x2="605.516" y1="554.552" y2="345.675" gradientTransform="translate(25.645)" gradientUnits="userSpaceOnUse"/><linearGradient xlink:href="#a" id="d" x1="711.173" x2="813.123" y1="702.796" y2="513.799" gradientTransform="translate(25.645)" gradientUnits="userSpaceOnUse"/><linearGradient xlink:href="#a" id="e" x1="263.133" x2="199.507" y1="648.504" y2="445.445" gradientTransform="translate(25.645)" gradientUnits="userSpaceOnUse"/><linearGradient xlink:href="#a" id="f" x1="760.851" x2="818.785" y1="829.706" y2="638.514" gradientTransform="translate(25.645)" gradientUnits="userSpaceOnUse"/><linearGradient xlink:href="#a" id="g" x1="447.231" x2="722.686" y1="825.105" y2="341.161" gradientTransform="translate(25.645)" gradientUnits="userSpaceOnUse"/></defs><path fill="#fbf9ff" d="M 434.022,203.716 Q 434.022,243 384.165,243 H 331.3 V 110.291 h 47.67 q 24.518,0 38.372,9.024 13.945,9.023 13.945,27.617 0,9.024 -4.192,16.771 -4.193,7.656 -14.493,11.576 11.758,3.007 16.589,11.21 4.83,8.112 4.83,17.227 z m -70.73,-68.724 v 30.625 h 15.495 q 11.12,0 15.769,-3.737 4.74,-3.737 4.74,-11.12 0,-15.768 -20.326,-15.768 z m 38.92,68.268 q 0,-7.656 -3.828,-12.122 -3.828,-4.557 -12.943,-4.557 h -22.149 v 31.81 h 20.873 q 9.753,0 13.854,-4.375 4.193,-4.467 4.193,-10.756 M 478.785,103 V 243 H 447.978 V 103 Z m 70.375,140 q -1.732,-3.555 -2.826,-8.841 -3.554,4.466 -9.205,7.565 -5.56,3.099 -14.492,3.099 -13.672,0 -23.607,-8.203 -9.844,-8.295 -9.844,-21.42 0,-15.22 11.21,-23.789 11.212,-8.659 35.001,-8.659 h 9.48 v -5.195 q 0,-6.198 -2.735,-9.844 -2.643,-3.737 -9.024,-3.737 -10.937,0 -10.937,10.756 h -30.716 q 0,-13.763 11.757,-22.97 11.758,-9.205 31.537,-9.205 17.591,0 29.258,8.841 11.758,8.75 11.758,26.341 v 40.378 q 0,9.662 1.093,14.675 1.094,4.922 3.1,8.659 V 243 Z m -19.232,-20.052 q 5.651,0 9.48,-2.37 3.828,-2.46 5.468,-5.469 v -15.95 h -9.661 q -8.66,0 -12.032,4.466 -3.28,4.375 -3.28,9.935 0,4.193 2.825,6.836 2.916,2.552 7.2,2.552 m 58.162,-54.87 V 144.38 h 80.937 v 16.589 l -43.84,58.333 h 44.752 V 243 h -83.672 v -17.135 l 43.659,-57.787 z m 92.706,-49.128 q 0,-6.562 4.74,-10.755 4.739,-4.193 12.304,-4.193 7.565,0 12.305,4.193 4.74,4.193 4.74,10.755 0,6.563 -4.74,10.756 -4.74,4.192 -12.305,4.192 -7.565,0 -12.305,-4.192 -4.74,-4.192 -4.74,-10.756 z m 32.63,25.43 V 243 h -30.807 v -98.62 z m 74.477,98.62 -0.912,-10.573 q -9.661,12.396 -26.25,12.396 -14.674,0 -23.88,-8.568 -9.115,-8.568 -9.115,-28.073 V 144.38 h 30.717 v 63.985 q 0,12.76 12.395,12.76 10.756,0 15.04,-7.747 V 144.38 h 30.807 V 243 Z m 86.143,-76.745 q -8.659,0 -13.398,8.112 V 243 H 829.93 v -98.62 h 28.803 l 1.093,11.576 q 10.209,-13.399 28.073,-13.399 8.66,0 15.13,3.555 6.563,3.554 10.118,11.302 4.648,-6.927 11.849,-10.846 7.291,-4.01 17.044,-4.01 13.49,0 22.148,8.476 8.66,8.476 8.66,29.896 V 243 H 942.04 v -62.07 q 0,-9.206 -3.19,-11.94 -3.1,-2.735 -8.568,-2.735 -9.206,0 -13.672,8.112 0.091,1.367 0.091,2.826 V 243 h -30.716 v -61.888 q 0,-9.388 -3.19,-12.123 -3.099,-2.734 -8.75,-2.734 z" aria-label="Blazium" font-family="Roboto" font-size="186.667" font-weight="900" letter-spacing="-4" paint-order="stroke fill markers" style="line-height:1.25;-inkscape-font-specification:&quot;Roboto Heavy&quot;" transform="translate(-3.043 -5.887)scale(.19535)"/><path fill="#fbf9ff" d="m 371.952,296.056 q -2.165,-4.555 -6.272,-7.019 -4.106,-2.538 -9.557,-2.538 -5.45,0 -9.856,2.538 -4.33,2.464 -6.87,7.168 -2.463,4.63 -2.463,10.752 0,6.122 2.464,10.752 2.538,4.63 6.869,7.168 4.405,2.464 9.856,2.464 7.616,0 12.544,-4.554 4.928,-4.554 5.75,-12.32 h -20.758 v -5.526 h 28 v 5.227 q -0.597,6.421 -4.032,11.797 -3.435,5.302 -9.035,8.438 -5.6,3.061 -12.469,3.061 -7.243,0 -13.216,-3.36 -5.973,-3.435 -9.483,-9.483 -3.434,-6.048 -3.434,-13.664 0,-7.616 3.434,-13.664 3.51,-6.122 9.483,-9.482 5.973,-3.435 13.216,-3.435 8.288,0 14.635,4.107 6.421,4.106 9.333,11.573 z m 16.128,16.352 q 0,-6.272 2.539,-10.976 2.539,-4.779 6.944,-7.392 4.48,-2.613 9.93,-2.613 5.377,0 9.334,2.314 3.957,2.314 5.899,5.824 V 292.1 h 6.869 v 40.917 h -6.87 V 325.4 q -2.015,3.584 -6.047,5.973 -3.958,2.315 -9.259,2.315 -5.45,0 -9.856,-2.688 -4.406,-2.688 -6.944,-7.541 -2.538,-4.853 -2.539,-11.051 m 34.646,0.075 q 0,-4.63 -1.867,-8.064 -1.867,-3.434 -5.077,-5.227 -3.136,-1.867 -6.944,-1.867 -3.808,0 -6.944,1.792 -3.136,1.792 -5.003,5.227 -1.867,3.435 -1.867,8.064 0,4.704 1.867,8.213 1.867,3.435 5.003,5.302 3.136,1.792 6.944,1.792 3.808,0 6.944,-1.792 3.21,-1.867 5.077,-5.302 1.867,-3.509 1.867,-8.138 m 67.573,-21.131 q 4.779,0 8.512,2.016 3.733,1.941 5.899,5.899 2.165,3.957 2.165,9.632 v 24.117 h -6.72 v -23.147 q 0,-6.122 -3.061,-9.333 -2.987,-3.285 -8.139,-3.285 -5.301,0 -8.437,3.434 -3.136,3.36 -3.136,9.782 v 22.549 h -6.72 v -23.147 q 0,-6.122 -3.062,-9.333 -2.986,-3.285 -8.138,-3.285 -5.302,0 -8.438,3.434 -3.136,3.36 -3.136,9.782 v 22.549 h -6.794 v -40.917 h 6.794 v 5.898 q 2.016,-3.21 5.376,-4.928 3.435,-1.717 7.542,-1.717 5.152,0 9.11,2.315 3.956,2.314 5.898,6.794 1.717,-4.33 5.674,-6.72 3.957,-2.39 8.811,-2.389 m 65.035,19.637 q 0,1.942 -0.224,4.107 h -32.704 q 0.373,6.048 4.106,9.483 3.808,3.36 9.184,3.36 4.406,0 7.318,-2.016 2.987,-2.091 4.181,-5.526 h 7.318 q -1.643,5.899 -6.571,9.632 -4.928,3.659 -12.246,3.659 -5.824,0 -10.453,-2.613 -4.555,-2.614 -7.168,-7.392 -2.613,-4.854 -2.613,-11.2 0,-6.347 2.538,-11.126 2.54,-4.778 7.094,-7.317 4.63,-2.613 10.602,-2.613 5.825,0 10.305,2.538 4.48,2.539 6.869,7.019 2.464,4.405 2.464,10.005 m -7.019,-1.418 q 0,-3.883 -1.717,-6.646 -1.717,-2.837 -4.704,-4.256 -2.912,-1.493 -6.496,-1.493 -5.152,0 -8.81,3.285 -3.585,3.286 -4.107,9.11 z m 42.71,-23.072 v 17.397 h 18.965 v 5.6 h -18.965 v 17.92 h 21.205 v 5.6 h -28 v -52.117 h 28 v 5.6 z m 51.445,4.853 q 7.467,0 12.096,4.555 4.63,4.48 4.63,12.992 v 24.117 h -6.72 v -23.147 q 0,-6.122 -3.062,-9.333 -3.061,-3.285 -8.363,-3.285 -5.376,0 -8.586,3.36 -3.136,3.36 -3.136,9.781 v 22.624 h -6.795 v -40.917 h 6.795 v 5.824 q 2.016,-3.136 5.45,-4.854 3.51,-1.717 7.691,-1.717 m 44.725,0.075 q 5.302,0 9.259,2.314 4.032,2.315 5.973,5.824 V 292.1 h 6.87 v 41.813 q 0,5.6 -2.39,9.93 -2.389,4.406 -6.869,6.87 -4.405,2.464 -10.304,2.464 -8.064,0 -13.44,-3.808 -5.376,-3.808 -6.347,-10.379 h 6.72 q 1.12,3.734 4.63,5.974 3.509,2.314 8.437,2.314 5.6,0 9.11,-3.509 3.583,-3.51 3.583,-9.856 v -8.587 q -2.016,3.584 -5.973,5.974 -3.957,2.39 -9.259,2.39 -5.45,0 -9.93,-2.689 -4.406,-2.688 -6.944,-7.541 -2.539,-4.854 -2.539,-11.051 0,-6.272 2.539,-10.976 2.538,-4.779 6.944,-7.392 4.48,-2.613 9.93,-2.613 z m 15.232,21.056 q 0,-4.63 -1.866,-8.064 -1.866,-3.434 -5.078,-5.227 -3.136,-1.867 -6.944,-1.867 -3.808,0 -6.944,1.792 -3.136,1.792 -5.002,5.227 -1.866,3.435 -1.867,8.064 0,4.704 1.867,8.213 1.866,3.435 5.002,5.302 3.136,1.792 6.944,1.792 3.808,0 6.944,-1.792 3.211,-1.867 5.078,-5.302 1.866,-3.509 1.866,-8.138 m 21.878,-27.03 q -1.942,0 -3.286,-1.344 -1.344,-1.344 -1.344,-3.285 0,-1.941 1.344,-3.285 1.344,-1.344 3.286,-1.344 1.866,0 3.136,1.344 1.344,1.344 1.344,3.285 0,1.941 -1.344,3.285 -1.27,1.344 -3.136,1.344 m 3.285,6.646 v 40.917 h -6.795 V 292.1 Z m 31.51,-0.747 q 7.466,0 12.095,4.555 4.63,4.48 4.63,12.992 v 24.117 h -6.72 V 309.87 q 0,-6.122 -3.062,-9.333 -3.06,-3.285 -8.362,-3.285 -5.376,0 -8.587,3.36 -3.136,3.36 -3.136,9.781 v 22.624 h -6.795 V 292.1 h 6.795 v 5.824 q 2.016,-3.136 5.45,-4.854 3.51,-1.717 7.691,-1.717 z m 65.183,19.637 q 0,1.942 -0.224,4.107 h -32.704 q 0.374,6.048 4.107,9.483 3.808,3.36 9.184,3.36 4.405,0 7.317,-2.016 2.987,-2.09 4.182,-5.526 h 7.317 q -1.643,5.9 -6.57,9.632 -4.929,3.66 -12.246,3.66 -5.824,0 -10.453,-2.614 -4.555,-2.614 -7.168,-7.392 -2.614,-4.854 -2.614,-11.2 0,-6.347 2.539,-11.126 2.539,-4.779 7.093,-7.317 4.63,-2.613 10.603,-2.613 5.824,0 10.304,2.538 4.48,2.539 6.87,7.019 2.463,4.405 2.463,10.005 m -7.018,-1.418 q 0,-3.883 -1.718,-6.646 -1.717,-2.837 -4.704,-4.256 -2.912,-1.493 -6.496,-1.493 -5.152,0 -8.81,3.285 -3.584,3.286 -4.107,9.11 z" aria-label="Game Engine" font-family="Poppins" font-size="74.667" paint-order="stroke fill markers" style="line-height:1.25;-inkscape-font-specification:Poppins" transform="translate(-3.043 -5.887)scale(.19535)"/><g color="#000" paint-order="markers stroke fill"><path fill="url(#b)" d="m 333.04148,390.83223 c 60.95648,-49.64478 68.88761,-106.2825 36.83418,-141.00059 52.95459,9.63902 98.77795,89.19743 48.01651,153.00628 -26.65727,28.88001 -68.13281,68.8029 -93.60356,105.41581 -9.2708,-12.44172 -10.12463,-91.91256 8.75287,-117.4215 z" style="-inkscape-stroke:none" transform="matrix(.0837 0 0 .0756 -17.64 -4.207)"/><path fill="url(#c)" d="m 605.46763,539.31749 c 99.49507,-95.417 109.65157,-174.00724 89.51164,-257.37948 90.53959,56.34382 120.32347,206.65548 27.21848,302.30568 -32.45156,-39.30764 -89.42225,-46.80136 -116.73012,-44.9262 z" style="-inkscape-stroke:none" transform="matrix(.0837 0 0 .0756 -17.64 -4.207)"/><path fill="url(#d)" d="m 765.39662,735.60971 c 1.02709,-90.00477 -16.0696,-105.16862 -28.65159,-129.51094 34.98134,-30.43943 78.21953,-75.63777 74.07442,-153.79971 36.26521,37.79516 66.66305,121.65638 46.94164,191.96024 -14.85854,28.34925 -56.52353,68.79815 -92.36447,91.35041 z" style="-inkscape-stroke:none" transform="matrix(.0837 0 0 .0756 -17.64 -4.207)"/><path fill="url(#e)" d="m 286.7715,396.80053 c -5.93266,67.16211 -0.0142,105.76452 13.27886,144.12011 C 286.96344,560.2585 230.93304,650.69743 262.60711,761.2419 218.55809,737.23285 161.82561,566.00177 286.7715,396.80053 Z" style="-inkscape-stroke:none" transform="matrix(.0837 0 0 .0756 -17.64 -4.207)"/><path fill="url(#f)" d="m 726.13159,846.0296 c 17.73585,-25.58971 32.54955,-56.27784 36.25546,-69.90486 25.02581,-13.2945 46.48859,-30.41422 75.77995,-60.35056 6.3761,19.04233 -68.60478,120.85509 -112.03541,130.25542 z" style="-inkscape-stroke:none" transform="matrix(.0837 0 0 .0756 -17.64 -4.207)"/><path fill="url(#g)" d="m 287.62386,770.66215 c -29.78142,-126.68372 26.21112,-227.13854 122.27548,-324.391 105.33248,-111.10231 158.66521,-199.01977 14.74873,-345.20912 261.96689,21.80119 302.85341,302.60789 107.16624,460.89824 -51.66636,39.08202 -116.35918,131.07193 -52.20213,201.69934 66.22057,56.08087 152.88124,4.62465 143.98406,-72.6156 C 613.31254,635.78409 547.10516,612.40275 497.42633,659.86933 507.38079,588.25452 598.94657,539.692 677.1654,583.25512 770.05339,643.46 769.04934,809.07161 659.32044,888.46646 545.23535,954.13648 341.34585,931.82258 287.62386,770.66215 Z" style="-inkscape-stroke:none" transform="matrix(.0837 0 0 .0756 -17.64 -4.207)"/></g></svg>