<svg xmlns="http://www.w3.org/2000/svg" width="187" height="69"><path fill="#8533df" d="M 27.105909,0.74353289 C 40.897205,5.7714908 43.612588,21.279197 33.462542,30.550512 23.312509,39.821822 17.237455,42.199493 18.864936,50.901623 c 1.627486,8.702134 7.365511,10.689382 13.516342,11.272239 6.150833,0.582854 11.775595,-8.860027 10.094155,-13.99779 -1.681449,-5.137761 -3.728802,-8.000678 -13.297169,-9.503617 l 7.952831,-8.088787 c 0.929531,4.692516 11.099307,9.180989 12.431429,17.206454 1.332129,8.025451 -5.047165,19.934432 -17.909052,18.701181 C 18.791592,65.25806 1.7102005,52.196845 14.656582,31.180839 27.602965,10.164829 39.762972,11.29553 27.105909,0.74353289 Z M 48.156644,16.770567 C 44.689805,37.186289 62.050149,30.372442 52.526813,54.256502 55.225226,32.544001 30.346908,34.913873 48.156644,16.770567 Z M 30.993305,42.934526 a 7.7420293,7.7420293 0 0 1 7.741959,7.741958 7.7420293,7.7420293 0 0 1 -7.741959,7.742287 7.7420293,7.7420293 0 0 1 -7.741947,-7.742287 7.7420293,7.7420293 0 0 1 7.741947,-7.741958 z"/><text xml:space="preserve" x="63.792" y="41.931" fill="#fff" stroke-width=".208" font-family="'Inter Alia'" font-size="2.491" font-weight="700" style="-inkscape-font-specification:&quot;Inter Alia, Bold&quot;;font-variant-ligatures:normal;font-variant-caps:normal;font-variant-numeric:normal;font-variant-east-asian:normal;text-align:start"><tspan x="63.792" y="41.931" font-size="30.442" style="-inkscape-font-specification:&quot;Inter Alia, Bold&quot;;font-variant-ligatures:normal;font-variant-caps:normal;font-variant-numeric:normal;font-variant-east-asian:normal">Blazium</tspan></text><text xml:space="preserve" x="64.895" y="59.395" fill="#dedede" stroke-width=".208" font-family="'Inter Alia'" font-size="16.605" font-weight="500" style="-inkscape-font-specification:&quot;Inter Alia, Medium&quot;;font-variant-ligatures:normal;font-variant-caps:normal;font-variant-numeric:normal;font-variant-east-asian:normal;text-align:start"><tspan x="64.895" y="59.395" font-size="13.838" font-weight="400" style="-inkscape-font-specification:&quot;Inter Alia, Normal&quot;;font-variant-ligatures:normal;font-variant-caps:normal;font-variant-numeric:normal;font-variant-east-asian:normal">Game engine</tspan></text></svg>