<svg xmlns="http://www.w3.org/2000/svg" width="100" height="24" stroke-linejoin="round"><path fill="#8533df" d="m 11.161946,0.34594329 c 4.864697,1.77354551 5.822513,7.24368431 2.242218,10.51401771 -3.5802901,3.270333 -5.7231853,4.109025 -5.1491129,7.178586 0.5740742,3.069564 2.5980869,3.770539 4.7677109,3.976134 2.169626,0.205594 4.153686,-3.125258 3.560581,-4.937535 -0.59311,-1.812278 -1.315287,-2.822134 -4.690401,-3.352276 l 2.805255,-2.853213 c 0.327881,1.655223 3.915134,3.238472 4.385023,6.069349 0.46989,2.830873 -1.780321,7.031608 -6.317182,6.596596 C 8.2291802,23.10259 2.2039448,18.49542 6.77061,11.082301 11.337276,3.6691809 15.626557,4.0680206 11.161946,0.34594329 Z m 7.425368,5.65332421 c -1.222881,7.2013765 4.90075,4.7978815 1.54152,13.2226695 0.951829,-7.658799 -7.823669,-6.822858 -1.54152,-13.2226695 z m -6.054141,9.2289915 a 2.7308986,2.7308986 0 0 1 2.730874,2.730874 2.7308986,2.7308986 0 0 1 -2.730874,2.730989 2.7308986,2.7308986 0 0 1 -2.7308701,-2.730989 2.7308986,2.7308986 0 0 1 2.7308701,-2.730874 z"/><text xml:space="preserve" x="25.369" y="18.899" fill="#dfdfe0" stroke-width=".13" font-family="'Inter Alia'" font-size="1.555" font-weight="700" style="-inkscape-font-specification:&quot;Inter Alia, Bold&quot;;font-variant-ligatures:normal;font-variant-caps:normal;font-variant-numeric:normal;font-variant-east-asian:normal;text-align:start"><tspan x="25.369" y="18.899" font-size="19.006" style="-inkscape-font-specification:&quot;Inter Alia, Bold&quot;;font-variant-ligatures:normal;font-variant-caps:normal;font-variant-numeric:normal;font-variant-east-asian:normal">Blazium</tspan></text></svg>