<svg xmlns="http://www.w3.org/2000/svg" xmlns:xlink="http://www.w3.org/1999/xlink" xml:space="preserve" width="100" height="24" stroke-linejoin="round"><defs><linearGradient xlink:href="#a" id="b" x1="345.488" x2="326.393" y1="537.545" y2="278.277" gradientTransform="translate(25.645)" gradientUnits="userSpaceOnUse"/><linearGradient id="a"><stop offset="0" stop-color="#6000bf"/><stop offset="1" stop-color="#ff80ff"/></linearGradient><linearGradient xlink:href="#a" id="c" x1="628.385" x2="605.516" y1="554.552" y2="345.675" gradientTransform="translate(25.645)" gradientUnits="userSpaceOnUse"/><linearGradient xlink:href="#a" id="d" x1="711.173" x2="813.123" y1="702.796" y2="513.799" gradientTransform="translate(25.645)" gradientUnits="userSpaceOnUse"/><linearGradient xlink:href="#a" id="e" x1="263.133" x2="199.507" y1="648.504" y2="445.445" gradientTransform="translate(25.645)" gradientUnits="userSpaceOnUse"/><linearGradient xlink:href="#a" id="f" x1="760.851" x2="818.785" y1="829.706" y2="638.514" gradientTransform="translate(25.645)" gradientUnits="userSpaceOnUse"/><linearGradient xlink:href="#a" id="g" x1="447.231" x2="722.686" y1="825.105" y2="341.161" gradientTransform="translate(25.645)" gradientUnits="userSpaceOnUse"/></defs><path fill="#fefefe" d="m 33.503999,16.164 q 0,4.848 -6.154,4.848 h -6.524 V 4.634 h 5.883 q 3.026,0 4.736,1.114 1.72,1.113 1.72,3.408 0,1.113 -0.517,2.07 -0.517,0.944 -1.788,1.428 1.45,0.371 2.047,1.384 0.596,1 0.596,2.126 z m -8.73,-8.482 v 3.78 h 1.912 q 1.373,0 1.947,-0.461 0.585,-0.462 0.585,-1.373 0,-1.946 -2.509,-1.946 z m 4.803,8.425 q 0,-0.945 -0.472,-1.496 -0.472,-0.562 -1.597,-0.562 h -2.734 v 3.926 h 2.576 q 1.204,0 1.71,-0.54 0.517,-0.552 0.517,-1.328 m 9.45,-12.373 v 17.278 h -3.802 V 3.734 Z m 8.685,17.278 q -0.213,-0.44 -0.348,-1.091 -0.439,0.55 -1.136,0.933 -0.686,0.383 -1.789,0.383 -1.687,0 -2.913,-1.013 -1.215,-1.023 -1.215,-2.643 0,-1.878 1.383,-2.936 1.384,-1.069 4.32,-1.069 h 1.17 v -0.64 q 0,-0.766 -0.338,-1.216 -0.326,-0.46 -1.113,-0.46 -1.35,0 -1.35,1.327 h -3.79 q 0,-1.699 1.45,-2.835 1.451,-1.136 3.892,-1.136 2.171,0 3.611,1.09 1.451,1.08 1.451,3.252 v 4.983 q 0,1.192 0.135,1.81 0.135,0.608 0.382,1.07 v 0.19 z m -2.373,-2.475 q 0.697,0 1.17,-0.292 0.472,-0.304 0.675,-0.675 V 15.6 h -1.193 q -1.068,0 -1.484,0.551 -0.405,0.54 -0.405,1.226 0,0.518 0.348,0.844 0.36,0.315 0.889,0.315 z m 7.178,-6.772 V 8.841 h 9.988 v 2.047 l -5.41,7.2 h 5.523 v 2.924 h -10.326 v -2.115 l 5.388,-7.132 z m 11.44,-6.063 q 0,-0.81 0.586,-1.327 0.585,-0.517 1.518,-0.517 0.934,0 1.519,0.517 0.585,0.518 0.585,1.327 0,0.81 -0.585,1.328 -0.585,0.517 -1.519,0.517 -0.934,0 -1.518,-0.517 -0.585,-0.518 -0.585,-1.328 z m 4.028,3.139 v 12.17 h -3.802 V 8.842 Z m 9.191,12.17 -0.113,-1.304 q -1.192,1.53 -3.24,1.53 -1.81,0 -2.946,-1.058 -1.125,-1.057 -1.125,-3.464 V 8.84 h 3.79 v 7.896 q 0,1.575 1.53,1.575 1.328,0 1.857,-0.956 V 8.841 h 3.802 v 12.17 z m 10.631,-9.47 q -1.069,0 -1.653,1 v 8.47 h -3.791 V 8.842 h 3.554 l 0.135,1.428 q 1.26,-1.653 3.465,-1.653 1.068,0 1.867,0.439 0.81,0.438 1.249,1.394 0.573,-0.854 1.462,-1.338 0.9,-0.495 2.103,-0.495 1.665,0 2.734,1.046 1.069001,1.046 1.068,3.69 v 7.66 h -3.802 v -7.66 q 0,-1.137 -0.393,-1.474 -0.383,-0.338 -1.058,-0.338 -1.136,0 -1.687,1.002 0.011,0.168 0.011,0.348 v 8.122 h -3.79 v -7.638 q 0,-1.159 -0.394,-1.496 -0.383,-0.338 -1.08,-0.338" aria-label="Blazium" font-family="Roboto" font-size="186.667" font-weight="900" letter-spacing="-4" paint-order="stroke fill markers" style="line-height:1.25;-inkscape-font-specification:&quot;Roboto Heavy&quot;"/><g color="#000" paint-order="markers stroke fill"><path fill="url(#b)" d="m 333.04148,390.83223 c 60.95648,-49.64478 68.88761,-106.2825 36.83418,-141.00059 52.95459,9.63902 98.77795,89.19743 48.01651,153.00628 -26.65727,28.88001 -68.13281,68.8029 -93.60356,105.41581 -9.2708,-12.44172 -10.12463,-91.91256 8.75287,-117.4215 z" style="-inkscape-stroke:none" transform="matrix(.02911 0 0 .0263 -6.135 -1.462)"/><path fill="url(#c)" d="m 605.46763,539.31749 c 99.49507,-95.417 109.65157,-174.00724 89.51164,-257.37948 90.53959,56.34382 120.32347,206.65548 27.21848,302.30568 -32.45156,-39.30764 -89.42225,-46.80136 -116.73012,-44.9262 z" style="-inkscape-stroke:none" transform="matrix(.02911 0 0 .0263 -6.135 -1.462)"/><path fill="url(#d)" d="m 765.39662,735.60971 c 1.02709,-90.00477 -16.0696,-105.16862 -28.65159,-129.51094 34.98134,-30.43943 78.21953,-75.63777 74.07442,-153.79971 36.26521,37.79516 66.66305,121.65638 46.94164,191.96024 -14.85854,28.34925 -56.52353,68.79815 -92.36447,91.35041 z" style="-inkscape-stroke:none" transform="matrix(.02911 0 0 .0263 -6.135 -1.462)"/><path fill="url(#e)" d="m 286.7715,396.80053 c -5.93266,67.16211 -0.0142,105.76452 13.27886,144.12011 C 286.96344,560.2585 230.93304,650.69743 262.60711,761.2419 218.55809,737.23285 161.82561,566.00177 286.7715,396.80053 Z" style="-inkscape-stroke:none" transform="matrix(.02911 0 0 .0263 -6.135 -1.462)"/><path fill="url(#f)" d="m 726.13159,846.0296 c 17.73585,-25.58971 32.54955,-56.27784 36.25546,-69.90486 25.02581,-13.2945 46.48859,-30.41422 75.77995,-60.35056 6.3761,19.04233 -68.60478,120.85509 -112.03541,130.25542 z" style="-inkscape-stroke:none" transform="matrix(.02911 0 0 .0263 -6.135 -1.462)"/><path fill="url(#g)" d="m 287.62386,770.66215 c -29.78142,-126.68372 26.21112,-227.13854 122.27548,-324.391 105.33248,-111.10231 158.66521,-199.01977 14.74873,-345.20912 261.96689,21.80119 302.85341,302.60789 107.16624,460.89824 -51.66636,39.08202 -116.35918,131.07193 -52.20213,201.69934 66.22057,56.08087 152.88124,4.62465 143.98406,-72.6156 C 613.31254,635.78409 547.10516,612.40275 497.42633,659.86933 507.38079,588.25452 598.94657,539.692 677.1654,583.25512 770.05339,643.46 769.04934,809.07161 659.32044,888.46646 545.23535,954.13648 341.34585,931.82258 287.62386,770.66215 Z" style="-inkscape-stroke:none" transform="matrix(.02911 0 0 .0263 -6.135 -1.462)"/></g></svg>