<?xml version="1.0" encoding="UTF-8" standalone="no"?>
<svg
   width="100"
   height="24"
   stroke-linejoin="round"
   version="1.1"
   id="svg1"
   sodipodi:docname="TitleBarLogo.svg"
   inkscape:version="1.3 (0e150ed6c4, 2023-07-21)"
   xmlns:inkscape="http://www.inkscape.org/namespaces/inkscape"
   xmlns:sodipodi="http://sodipodi.sourceforge.net/DTD/sodipodi-0.dtd"
   xmlns="http://www.w3.org/2000/svg"
   xmlns:svg="http://www.w3.org/2000/svg">
  <defs
     id="defs1" />
  <sodipodi:namedview
     id="namedview1"
     pagecolor="#ffffff"
     bordercolor="#000000"
     borderopacity="0.25"
     inkscape:showpageshadow="2"
     inkscape:pageopacity="0.0"
     inkscape:pagecheckerboard="0"
     inkscape:deskcolor="#d1d1d1"
     inkscape:zoom="3.1075"
     inkscape:cx="30.410298"
     inkscape:cy="31.375704"
     inkscape:window-width="1858"
     inkscape:window-height="1057"
     inkscape:window-x="54"
     inkscape:window-y="-8"
     inkscape:window-maximized="1"
     inkscape:current-layer="svg1" />
  <text
     xml:space="preserve"
     x="25.369"
     y="18.899"
     fill="#dfdfe0"
     stroke-width=".13"
     font-family="'Inter Alia'"
     font-size="1.555"
     font-weight="700"
     style="-inkscape-font-specification:&quot;Inter Alia, Bold&quot;;font-variant-ligatures:normal;font-variant-caps:normal;font-variant-numeric:normal;font-variant-east-asian:normal;text-align:start"
     id="text1"><tspan
       x="25.369"
       y="18.899"
       font-size="19.006"
       style="-inkscape-font-specification:&quot;Inter Alia, Bold&quot;;font-variant-ligatures:normal;font-variant-caps:normal;font-variant-numeric:normal;font-variant-east-asian:normal"
       id="tspan1">Blazium</tspan></text>
  <path
     fill="#d848fb"
     d="m 13.275932,13.846789 c 1.707295,-0.09392 3.232916,1.50618 3.058005,3.207334 -0.05866,1.575096 -1.522379,2.95983 -3.117468,2.804545 -1.852667,0.06801 -3.2865799,-1.919833 -2.84122,-3.66477 0.264685,-1.34269 1.541945,-2.346746 2.900683,-2.347109 z"
     style="mix-blend-mode:normal;stroke-width:0.0261791"
     id="path2" />
  <path
     fill="#d848fb"
     d="M 7.4358885,0.66305067 C 7.8090741,1.4299542 8.4182751,2.1273567 8.6541596,2.9832691 9.3343826,4.766394 8.8407369,6.7323582 7.9555997,8.3490919 6.5998095,11.011341 5.2839838,13.946881 5.6632884,17.004757 c 0.3830905,2.762363 2.3465573,5.297142 5.0490056,6.117264 2.712766,0.905547 5.90868,0.0034 7.727494,-2.210172 1.247965,-1.45489 1.974748,-3.470454 1.632773,-5.385996 -0.520285,-2.129856 -2.180013,-3.902335 -4.279158,-4.543814 -1.271955,-0.424999 -2.525909,-1.0605249 -3.364421,-2.1371216 -0.233828,0.6856474 -0.440618,1.5522356 -0.694489,2.3026616 -0.234854,0.827803 -0.523998,1.623342 -0.755586,2.471869 0.696487,-0.2739 1.513705,-0.746806 2.358515,-0.682945 2.126399,-0.04121 3.996485,1.901243 3.912539,4.020843 -0.01709,2.069864 -1.903865,3.908048 -3.983402,3.825071 -2.07158,0.0093 -3.8470841,-1.824247 -3.9090628,-3.869954 -0.028382,-1.552389 0.6025784,-3.02257 1.0280708,-4.493187 C 11.209302,9.9778152 11.999092,7.3856296 11.680645,4.7812507 11.518515,2.9637455 10.26424,1.2016777 8.4258281,0.80541248 8.1027668,0.72217658 7.7709897,0.65654953 7.4358885,0.66305067 Z"
     style="mix-blend-mode:normal;stroke-width:0.0261791"
     id="path3" />
  <path
     fill="#d848fb"
     d="m 14.443496,1.9960833 c -0.833267,0.5787155 -1.607321,1.4123977 -1.86423,2.4111026 0.176755,1.0604384 0.05307,2.1435024 0.03706,3.2021078 0.453578,1.6002028 2.110918,2.329973 3.554581,2.8169693 1.760148,0.607305 3.286638,1.895705 4.035416,3.618883 0.174698,0.340433 0.775302,1.826403 0.709404,0.602853 0.05988,-2.110647 -0.837846,-4.232473 -2.49016,-5.5707773 C 17.20556,7.9818026 15.482133,7.3894355 14.728297,5.8287896 14.075522,4.6836902 14.114166,3.2802998 14.502025,2.0546048 l -0.02928,-0.02926 z"
     style="mix-blend-mode:normal;stroke-width:0.0261791"
     id="path4" />
</svg>
