<svg height="128" viewBox="0 0 128 128" width="128" xmlns="http://www.w3.org/2000/svg" xmlns:xlink="http://www.w3.org/1999/xlink"><linearGradient id="a" gradientUnits="userSpaceOnUse" x1="-71.15761530842" x2="-44.98367301494" y1="82.99173536585" y2="70.05128510811"><stop offset="0" stop-color="#404045"/><stop offset="1" stop-color="#8c8c96"/></linearGradient><filter id="b" color-interpolation-filters="sRGB" height="1.000318" width="1.000193" x="-.000096" y="-.000159"><feGaussianBlur stdDeviation=".0014700688"/></filter><linearGradient id="c" gradientUnits="userSpaceOnUse" x1="-53.20337724199" x2="-54.25561242827" y1="81.33947825254" y2="70.52873478342"><stop offset="0" stop-color="#ffbea6"/><stop offset="1" stop-color="#8e89ff"/></linearGradient><g transform="matrix(2.2920741 0 0 2.2541557 190.41158 -88.830431)"><path d="m-60.670791 85.299634c.03434.171557.06668.347122.109062.505039.06491.241967.139075.468415.221669.681017.0826.212602.173794.411387.27264.597849.09885.18646.205216.360781.318874.524323.113656.163541.234517.316599.361546.460439.127029.143841.260519.278839.399481.406199.138963.127362.283211.2475.432672.361603.14946.114102.306725.219903.470603.319416.163876.0995.334505.191643.510907.276023.176398.08438.358254.161516.545282.23022.187029.0687.379155.129517.574921.182004.195762.05248.394837.09687.597441.132595.202603.03573.408856.06232.616407.08074.207549.01844.416478.02836.627076.02893.2106.000584.42243-.0076.63419-.02531.211759-.01779.421718-.045.629449-.08074.207726-.03574.413324-.07975.61522-.132593.201895-.05285.400812-.114129.595069-.18321.194259-.06909.38418-.146949.568995-.231427.184812-.08448.364604-.175803.53817-.274817.173567-.09902.34091-.20551.501423-.318209.160512-.112698.314281-.23125.459936-.356781.145657-.12554.283527-.257841.412518-.395351.100007-.106601.193337-.218564.282126-.336291.0888-.117732.172347-.241107.250121-.370039.07777-.128935.149979-.263576.216926-.403789.06694-.140213.128613-.285962.184923-.437537.11263-.303151.204938-.629651.276199-.978739.07126-.349082.121476-.72048.152916-1.116142l-.749174-.688249c-.05752-.02845-.112573-.06046-.170698-.08799-.22303-.105661-.450061-.204864-.681604-.296513-.231544-.09165-.467288-.175609-.706499-.251915-.239211-.07631-.482987-.145282-.729022-.204908-.246034-.05962-.494788-.11026-.746801-.151875-.252014-.0416-.506251-.07416-.763398-.09643-.257147-.02226-.517369-.03461-.778807-.03615-.261439-.0015-.524595.0073-.789476.02773-.264882.02045-.527564.05312-.788291.09523-.260725.04209-.519573.09443-.775251.156693-.255678.06226-.508917.133637-.758654.21455-.249741.08092-.495594.170694-.738506.268792-.242911.09811-.481973.204421-.717166.318209-.235191.113796-.466876.236023-.693458.364013-.226587.128002-.449112.261879-.666195.402582-.217085.140705-.428681.288019-.635374.439951-.16737.123034-.32836.251384-.488385.380886z" fill="#a07b88"/><path d="m-62.030953 37.068396 3.905714 39.825983 8.375689 7.698585c-.09619 1.210338-.431232 2.133751-1.043057 2.785966-.789181.84128-2.008211 1.399855-3.303747 1.508756-1.295537.108901-2.585936-.238735-3.50033-.936817-.9144-.698081-1.589488-1.681219-1.743936-3.579958-.137693-1.703394-1.607918-2.970657-3.283535-2.830246-1.676564.14005-2.923448 1.636093-2.783959 3.340269.27986 3.440524 1.898905 6.294282 4.156084 8.01749 2.257183 1.723206 5.013698 2.379433 7.65739 2.157211 2.643694-.222225 5.25907-1.330004 7.207158-3.406698 1.948087-2.076695 3.084031-5.162031 2.804169-8.602556l-.09926-1.22032-8.573501-7.879974-3.707382-37.387713z" fill="url(#a)" stroke="#212121" stroke-linecap="round" stroke-width="1.317621"/><path d="m-69.548713 75.981033c-.06211 8.386446 7.629774 11.154305 14.599872 11.112578 7.603375-.04552 16.028086-3.001898 15.790764-15.185773-.337317-17.31741-30.390636-16.215305-30.390636 4.07319z" fill="url(#c)"/><path d="m26.523502 8.6286404c-3.417502.037311-6.642066 2.6625746-5.902588 5.7633396-3.158498.682525-2.919679 2.955035-2.159211 4.306388-4.641903.365085-4.798334 5.882549-3.041978 7.050099-1.014171.618748-1.446805 1.352881-1.40194 2.068957.09732 1.553277 2.443171 3.01877 5.982528 3.01877 4.451738 0 7.013762-2.317175 5.598304-4.210977 4.053055.224574 8.608228-2.16359 7.12574-5.093744.248305.327705 2.837684 4.539002 7.877854 2.08357.06408 5.627778 7.14525 4.100687 8.675524 1.181033.433242-.826594.423525-1.762496-.318896-2.681822 3.809941-2.0338.388083-6.08757-3.825896-6.168192-.386376-2.915306-3.007443-2.995576-4.914955-2.64744.333301-3.015625-5.577733-6.1499053-9.266041-2.915623l-.0017-.0017c-1.279521-1.2508172-2.873335-1.769618-4.426745-1.7526586z" fill="#ffc747" filter="url(#b)" transform="matrix(1.1316997 0 0 1.1520156 -91.123108 38.205732)"/><path d="m-54.948757 60.376249c-.328347 5.256131-5.63136 6.333682-9.760862 6.459191-.221509 5.14595-6.840469 4.302261-10.549568 3.416401.101388 1.645909 2.35572 3.214279 5.844217 3.446654-.163418 1.399518-.19949 2.855342.06497 4.59708.337807.02621.682404.09056 1.043025.09056 5.029894 0 7.924506-2.661747 6.325208-4.837497 4.579449.258008 9.772988-2.52489 8.097954-5.891289.134962-.01909 3.205388 5.214928 8.90014 2.393929.04481 4.002372 3.00067 4.973117 5.754317 4.246558.08975-1.330745.237362-2.120693-.168757-4.718735 1.857623-.370799 3.326984-1.419587 4.042604-2.807905-3.33484 1.342289-7.513378.152112-8.451003-3.487998-4.147996 1.234999-7.858465-.447192-11.142352-2.906913z" fill="#1f1f5f" fill-opacity=".423529"/></g></svg>