<svg xmlns="http://www.w3.org/2000/svg" xmlns:xlink="http://www.w3.org/1999/xlink" xml:space="preserve" width="1280" height="640"><defs><linearGradient id="c"><stop offset=".045" stop-color="#7f24ce"/><stop offset=".468" stop-color="#b846e4"/><stop offset=".825" stop-color="#d055ee"/><stop offset="1" stop-color="#f87cfe"/></linearGradient><linearGradient id="b"><stop offset=".045" stop-color="#7f24ce"/><stop offset=".478" stop-color="#b846e4"/><stop offset=".848" stop-color="#d055ee"/><stop offset="1" stop-color="#f87cfe"/></linearGradient><linearGradient id="a"><stop offset=".045" stop-color="#7f24ce"/><stop offset=".468" stop-color="#b846e4"/><stop offset=".848" stop-color="#d055ee"/><stop offset="1" stop-color="#f87cfe"/></linearGradient><linearGradient xlink:href="#a" id="j" x1="635.831" x2="721.822" y1="589.778" y2="368.408" gradientTransform="translate(-23.58 17.032)scale(.3755)" gradientUnits="userSpaceOnUse"/><linearGradient xlink:href="#b" id="i" x1="269.585" x2="488.27" y1="847.204" y2="393.079" gradientTransform="translate(-23.58 17.032)scale(.3755)" gradientUnits="userSpaceOnUse"/><linearGradient xlink:href="#c" id="h" x1="496.519" x2="635.831" y1="813.477" y2="589.778" gradientTransform="translate(-23.58 17.032)scale(.3755)" gradientUnits="userSpaceOnUse"/><path id="e" d="m 65.486113,72.485801 c 8.151996,-0.448479 15.436546,7.191728 14.601373,15.314398 -0.280199,7.520779 -7.269062,14.132641 -14.885301,13.391171 -8.84613,0.32471 -15.692784,-9.166837 -13.566278,-17.498573 1.263814,-6.411081 7.362492,-11.205263 13.850206,-11.206996 z"/><path id="f" d="m 37.601038,9.5360268 c 1.781888,3.6618122 4.690702,6.9917772 5.817013,11.0785952 3.247923,8.514066 0.890867,17.901169 -3.335498,25.620755 -6.473632,12.711719 -12.756433,26.72835 -10.945332,41.329124 1.829183,13.189739 11.204357,25.292809 24.108009,29.208729 12.952941,4.3238 28.212782,0.0169 36.897277,-10.55314 C 96.101308,99.273281 99.57155,89.649352 97.938679,80.503015 95.454414,70.333367 87.529544,61.870126 77.50654,58.807189 71.433208,56.777902 65.445813,53.743382 61.442087,48.602847 c -1.116471,3.273832 -2.103871,7.411622 -3.316059,10.99476 -1.121369,3.952599 -2.501975,7.751143 -3.607768,11.802693 3.325591,-1.307822 7.227643,-3.565846 11.261443,-3.260922 10.153136,-0.196804 19.082449,9.078063 18.681614,19.198733 -0.08189,9.883205 -9.090589,18.660169 -19.019965,18.263979 C 55.549967,105.6468 47.072277,96.891655 46.776341,87.123806 46.640767,79.711461 49.653532,72.69162 51.685183,65.669714 55.618358,54.012215 59.389442,41.63503 57.868918,29.199632 57.094781,20.521399 51.105874,12.107864 42.327805,10.215782 40.785255,9.8183341 39.201083,9.5049828 37.601038,9.5360268 Z"/><path id="g" d="m 71.060995,15.901 c -3.978682,2.763254 -7.674648,6.743923 -8.901332,11.512544 0.843968,5.063386 0.253395,10.234808 0.17691,15.289439 2.165738,7.640654 10.079225,11.125168 16.972424,13.450482 8.404356,2.899764 15.693054,9.051623 19.268335,17.279459 0.834116,1.625497 3.701898,8.720732 3.387258,2.878507 0.28597,-10.077929 -4.000539,-20.209233 -11.890005,-26.59938 -5.825313,-5.23041 -14.054337,-8.058847 -17.653753,-15.510623 -3.116876,-5.46763 -2.932349,-12.168547 -1.08041,-18.021 l -0.139711,-0.139714 z"/><filter id="d" width="1" height="1" x="0" y="0" color-interpolation-filters="sRGB"><feColorMatrix result="colormatrix" values="1 0 0 0 0 0 1 0 0 0 0 0 1 0 0 0 0 0 1 -0"/><feComposite in2="colormatrix" k2=".395" operator="arithmetic" result="composite"/></filter></defs><rect width="1280" height="640" fill="#230d26" paint-order="markers stroke fill" rx="0" ry="0"/><g fill="#d848fb" filter="url(#d)" paint-order="markers stroke fill" transform="rotate(-13.737 -975.427 665.976)scale(1.08551)"><g opacity=".686" transform="rotate(21.886 -447.36 269.537)scale(.9382)"><use xlink:href="#e" style="mix-blend-mode:normal"/><use xlink:href="#f" style="mix-blend-mode:normal"/><use xlink:href="#g" style="mix-blend-mode:normal"/></g><g opacity=".541" transform="rotate(-21.665 846.21 122.889)scale(1.05191)"><use xlink:href="#e" style="mix-blend-mode:normal"/><use xlink:href="#f" style="mix-blend-mode:normal"/><use xlink:href="#g" style="mix-blend-mode:normal"/></g><use xlink:href="#e" style="mix-blend-mode:normal" transform="rotate(6.593 -3491.547 470.84)scale(1.22183)"/><use xlink:href="#f" style="mix-blend-mode:normal" transform="rotate(6.593 -3491.547 470.84)scale(1.22183)"/><use xlink:href="#g" style="mix-blend-mode:normal" transform="rotate(6.593 -3491.547 470.84)scale(1.22183)"/><g opacity=".804" transform="rotate(28.084 -1014.544 247.887)scale(1.14481)"><use xlink:href="#e" style="mix-blend-mode:normal"/><use xlink:href="#f" style="mix-blend-mode:normal"/><use xlink:href="#g" style="mix-blend-mode:normal"/></g><use xlink:href="#e" style="mix-blend-mode:normal" transform="matrix(.7965 .70526 -.70526 .7965 -30.75 637.263)"/><use xlink:href="#f" style="mix-blend-mode:normal" transform="matrix(.7965 .70526 -.70526 .7965 -30.75 637.263)"/><use xlink:href="#g" style="mix-blend-mode:normal" transform="matrix(.7965 .70526 -.70526 .7965 -30.75 637.263)"/><g opacity=".539" transform="rotate(142.809 71.283 146.163)scale(.78509)"><use xlink:href="#e" style="mix-blend-mode:normal"/><use xlink:href="#f" style="mix-blend-mode:normal"/><use xlink:href="#g" style="mix-blend-mode:normal"/></g><g opacity=".786" transform="rotate(141.269 66.661 198.354)scale(.83319)"><use xlink:href="#e" style="mix-blend-mode:normal"/><use xlink:href="#f" style="mix-blend-mode:normal"/><use xlink:href="#g" style="mix-blend-mode:normal"/></g><use xlink:href="#e" style="mix-blend-mode:normal" transform="matrix(-.83412 .4109 -.4109 -.83412 255.537 429.5)"/><use xlink:href="#f" style="mix-blend-mode:normal" transform="matrix(-.83412 .4109 -.4109 -.83412 255.537 429.5)"/><use xlink:href="#g" style="mix-blend-mode:normal" transform="matrix(-.83412 .4109 -.4109 -.83412 255.537 429.5)"/><g opacity=".652" transform="rotate(-175.884 102.816 331.544)scale(.92272)"><use xlink:href="#e" style="mix-blend-mode:normal"/><use xlink:href="#f" style="mix-blend-mode:normal"/><use xlink:href="#g" style="mix-blend-mode:normal"/></g><g opacity=".842" transform="rotate(-172.365 104.951 395.358)scale(1.2324)"><use xlink:href="#e" style="mix-blend-mode:normal"/><use xlink:href="#f" style="mix-blend-mode:normal"/><use xlink:href="#g" style="mix-blend-mode:normal"/></g><g opacity=".932" transform="matrix(-1.09427 -.57291 .57291 -1.09427 71.823 943.528)"><use xlink:href="#e" style="mix-blend-mode:normal"/><use xlink:href="#f" style="mix-blend-mode:normal"/><use xlink:href="#g" style="mix-blend-mode:normal"/></g><g opacity=".862" transform="rotate(18.278 -282.699 611.13)scale(1.22954)"><use xlink:href="#e" style="mix-blend-mode:normal"/><use xlink:href="#f" style="mix-blend-mode:normal"/><use xlink:href="#g" style="mix-blend-mode:normal"/></g><use xlink:href="#e" style="mix-blend-mode:normal" transform="rotate(17.035 -738.307 799.843)scale(.91352)"/><use xlink:href="#f" style="mix-blend-mode:normal" transform="rotate(17.035 -738.307 799.843)scale(.91352)"/><use xlink:href="#g" style="mix-blend-mode:normal" transform="rotate(17.035 -738.307 799.843)scale(.91352)"/><g opacity=".716" transform="rotate(35.086 -382.601 554.343)scale(1.1735)"><use xlink:href="#e" style="mix-blend-mode:normal"/><use xlink:href="#f" style="mix-blend-mode:normal"/><use xlink:href="#g" style="mix-blend-mode:normal"/></g><use xlink:href="#e" style="mix-blend-mode:normal" transform="rotate(29.361 -729.688 553.466)scale(1.07524)"/><use xlink:href="#f" style="mix-blend-mode:normal" transform="rotate(29.361 -729.688 553.466)scale(1.07524)"/><use xlink:href="#g" style="mix-blend-mode:normal" transform="rotate(29.361 -729.688 553.466)scale(1.07524)"/><g opacity=".617" transform="rotate(25.668 -1297.591 667.79)scale(.87649)"><use xlink:href="#e" style="mix-blend-mode:normal"/><use xlink:href="#f" style="mix-blend-mode:normal"/><use xlink:href="#g" style="mix-blend-mode:normal"/></g><g opacity=".842" transform="rotate(-11.588 3875.622 -45.283)scale(.7791)"><use xlink:href="#e" style="mix-blend-mode:normal"/><use xlink:href="#f" style="mix-blend-mode:normal"/><use xlink:href="#g" style="mix-blend-mode:normal"/></g><g opacity=".72" transform="rotate(-141.324 203.418 101.058)scale(.76571)"><use xlink:href="#e" style="mix-blend-mode:normal"/><use xlink:href="#f" style="mix-blend-mode:normal"/><use xlink:href="#g" style="mix-blend-mode:normal"/></g><use xlink:href="#e" style="mix-blend-mode:normal" transform="rotate(140.558 129.54 244.777)scale(.77064)"/><use xlink:href="#f" style="mix-blend-mode:normal" transform="rotate(140.558 129.54 244.777)scale(.77064)"/><use xlink:href="#g" style="mix-blend-mode:normal" transform="rotate(140.558 129.54 244.777)scale(.77064)"/><use xlink:href="#e" style="mix-blend-mode:normal" transform="rotate(-176.53 196.113 289.7)scale(1.14212)"/><use xlink:href="#f" style="mix-blend-mode:normal" transform="rotate(-176.53 196.113 289.7)scale(1.14212)"/><use xlink:href="#g" style="mix-blend-mode:normal" transform="rotate(-176.53 196.113 289.7)scale(1.14212)"/><use xlink:href="#e" style="mix-blend-mode:normal" transform="rotate(142.65 47.296 365.668)scale(.86607)"/><use xlink:href="#f" style="mix-blend-mode:normal" transform="rotate(142.65 47.296 365.668)scale(.86607)"/><use xlink:href="#g" style="mix-blend-mode:normal" transform="rotate(142.65 47.296 365.668)scale(.86607)"/><use xlink:href="#e" style="mix-blend-mode:normal" transform="rotate(-143.596 256.623 389.62)scale(.92654)"/><use xlink:href="#f" style="mix-blend-mode:normal" transform="rotate(-143.596 256.623 389.62)scale(.92654)"/><use xlink:href="#g" style="mix-blend-mode:normal" transform="rotate(-143.596 256.623 389.62)scale(.92654)"/><g opacity=".769" transform="rotate(156.837 61.866 484.66)scale(.85537)"><use xlink:href="#e" style="mix-blend-mode:normal"/><use xlink:href="#f" style="mix-blend-mode:normal"/><use xlink:href="#g" style="mix-blend-mode:normal"/></g><g opacity=".707" transform="translate(291.039 183.86)scale(1.23355)"><use xlink:href="#e" style="mix-blend-mode:normal"/><use xlink:href="#f" style="mix-blend-mode:normal"/><use xlink:href="#g" style="mix-blend-mode:normal"/></g><g opacity=".52" transform="rotate(43.619 -259.716 622.839)scale(.86822)"><use xlink:href="#e" style="mix-blend-mode:normal"/><use xlink:href="#f" style="mix-blend-mode:normal"/><use xlink:href="#g" style="mix-blend-mode:normal"/></g><g opacity=".847" transform="rotate(-30.581 1183.339 -165.878)scale(1.16035)"><use xlink:href="#e" style="mix-blend-mode:normal"/><use xlink:href="#f" style="mix-blend-mode:normal"/><use xlink:href="#g" style="mix-blend-mode:normal"/></g><g opacity=".979" transform="rotate(-5.241 7116.287 -1971.727)scale(.94465)"><use xlink:href="#e" style="mix-blend-mode:normal"/><use xlink:href="#f" style="mix-blend-mode:normal"/><use xlink:href="#g" style="mix-blend-mode:normal"/></g><use xlink:href="#e" style="mix-blend-mode:normal" transform="rotate(-26.333 1750.196 -135.353)scale(.86942)"/><use xlink:href="#f" style="mix-blend-mode:normal" transform="rotate(-26.333 1750.196 -135.353)scale(.86942)"/><use xlink:href="#g" style="mix-blend-mode:normal" transform="rotate(-26.333 1750.196 -135.353)scale(.86942)"/><use xlink:href="#e" style="mix-blend-mode:normal" transform="rotate(17.998 -2408.557 1364.252)scale(1.01738)"/><use xlink:href="#f" style="mix-blend-mode:normal" transform="rotate(17.998 -2408.557 1364.252)scale(1.01738)"/><use xlink:href="#g" style="mix-blend-mode:normal" transform="rotate(17.998 -2408.557 1364.252)scale(1.01738)"/><g opacity=".796" transform="matrix(-.97855 .02453 -.02453 -.97855 476.217 413.26)"><use xlink:href="#e" style="mix-blend-mode:normal"/><use xlink:href="#f" style="mix-blend-mode:normal"/><use xlink:href="#g" style="mix-blend-mode:normal"/></g><use xlink:href="#e" style="mix-blend-mode:normal" transform="rotate(-165.296 262.241 262.691)scale(.95288)"/><use xlink:href="#f" style="mix-blend-mode:normal" transform="rotate(-165.296 262.241 262.691)scale(.95288)"/><use xlink:href="#g" style="mix-blend-mode:normal" transform="rotate(-165.296 262.241 262.691)scale(.95288)"/><use xlink:href="#e" style="mix-blend-mode:normal" transform="rotate(-161.605 290.582 298.003)scale(.95526)"/><use xlink:href="#f" style="mix-blend-mode:normal" transform="rotate(-161.605 290.582 298.003)scale(.95526)"/><use xlink:href="#g" style="mix-blend-mode:normal" transform="rotate(-161.605 290.582 298.003)scale(.95526)"/><g opacity=".603" transform="rotate(-163.134 267.523 359.598)scale(.99806)"><use xlink:href="#e" style="mix-blend-mode:normal"/><use xlink:href="#f" style="mix-blend-mode:normal"/><use xlink:href="#g" style="mix-blend-mode:normal"/></g><use xlink:href="#e" style="mix-blend-mode:normal" transform="rotate(-171.062 277.504 419.969)scale(1.13919)"/><use xlink:href="#f" style="mix-blend-mode:normal" transform="rotate(-171.062 277.504 419.969)scale(1.13919)"/><use xlink:href="#g" style="mix-blend-mode:normal" transform="rotate(-171.062 277.504 419.969)scale(1.13919)"/><use xlink:href="#e" style="mix-blend-mode:normal" transform="rotate(-144.499 381.151 417.674)scale(.82134)"/><use xlink:href="#f" style="mix-blend-mode:normal" transform="rotate(-144.499 381.151 417.674)scale(.82134)"/><use xlink:href="#g" style="mix-blend-mode:normal" transform="rotate(-144.499 381.151 417.674)scale(.82134)"/><g opacity=".513" transform="matrix(.86578 -.55216 .55216 .86578 371.887 238.42)"><use xlink:href="#e" style="mix-blend-mode:normal"/><use xlink:href="#f" style="mix-blend-mode:normal"/><use xlink:href="#g" style="mix-blend-mode:normal"/></g><g opacity=".963" transform="rotate(-43.111 713.84 -248.195)scale(1.18146)"><use xlink:href="#e" style="mix-blend-mode:normal"/><use xlink:href="#f" style="mix-blend-mode:normal"/><use xlink:href="#g" style="mix-blend-mode:normal"/></g><g opacity=".822" transform="rotate(21.928 -910.119 1455.326)scale(.96388)"><use xlink:href="#e" style="mix-blend-mode:normal"/><use xlink:href="#f" style="mix-blend-mode:normal"/><use xlink:href="#g" style="mix-blend-mode:normal"/></g><g opacity=".849" transform="rotate(3.728 -8364.701 7660.424)scale(1.0513)"><use xlink:href="#e" style="mix-blend-mode:normal"/><use xlink:href="#f" style="mix-blend-mode:normal"/><use xlink:href="#g" style="mix-blend-mode:normal"/></g><use xlink:href="#e" style="mix-blend-mode:normal" transform="rotate(42.06 -543.622 904.063)scale(1.06676)"/><use xlink:href="#f" style="mix-blend-mode:normal" transform="rotate(42.06 -543.622 904.063)scale(1.06676)"/><use xlink:href="#g" style="mix-blend-mode:normal" transform="rotate(42.06 -543.622 904.063)scale(1.06676)"/><g opacity=".7" transform="rotate(-42.653 1292.292 -148.35)scale(.8241)"><use xlink:href="#e" style="mix-blend-mode:normal"/><use xlink:href="#f" style="mix-blend-mode:normal"/><use xlink:href="#g" style="mix-blend-mode:normal"/></g><g opacity=".558" transform="matrix(.77919 -.35578 .35578 .77919 471.423 881.878)"><use xlink:href="#e" style="mix-blend-mode:normal"/><use xlink:href="#f" style="mix-blend-mode:normal"/><use xlink:href="#g" style="mix-blend-mode:normal"/></g><use xlink:href="#e" style="mix-blend-mode:normal" transform="rotate(44.435 -832.144 1191.712)scale(.83503)"/><use xlink:href="#f" style="mix-blend-mode:normal" transform="rotate(44.435 -832.144 1191.712)scale(.83503)"/><use xlink:href="#g" style="mix-blend-mode:normal" transform="rotate(44.435 -832.144 1191.712)scale(.83503)"/><use xlink:href="#e" style="mix-blend-mode:normal" transform="rotate(-144.366 317.344 123.15)scale(.78015)"/><use xlink:href="#f" style="mix-blend-mode:normal" transform="rotate(-144.366 317.344 123.15)scale(.78015)"/><use xlink:href="#g" style="mix-blend-mode:normal" transform="rotate(-144.366 317.344 123.15)scale(.78015)"/><g opacity=".81" transform="matrix(-.63655 .48097 -.48097 -.63655 648.49 331.679)"><use xlink:href="#e" style="mix-blend-mode:normal"/><use xlink:href="#f" style="mix-blend-mode:normal"/><use xlink:href="#g" style="mix-blend-mode:normal"/></g><use xlink:href="#e" style="mix-blend-mode:normal" transform="matrix(-1.02395 .0388 -.0388 -1.02395 636.42 457.088)"/><use xlink:href="#f" style="mix-blend-mode:normal" transform="matrix(-1.02395 .0388 -.0388 -1.02395 636.42 457.088)"/><use xlink:href="#g" style="mix-blend-mode:normal" transform="matrix(-1.02395 .0388 -.0388 -1.02395 636.42 457.088)"/><use xlink:href="#e" style="mix-blend-mode:normal" transform="rotate(-144.737 420.618 236.88)scale(1.23265)"/><use xlink:href="#f" style="mix-blend-mode:normal" transform="rotate(-144.737 420.618 236.88)scale(1.23265)"/><use xlink:href="#g" style="mix-blend-mode:normal" transform="rotate(-144.737 420.618 236.88)scale(1.23265)"/><use xlink:href="#e" style="mix-blend-mode:normal" transform="rotate(165.318 264.985 443.069)scale(1.22163)"/><use xlink:href="#f" style="mix-blend-mode:normal" transform="rotate(165.318 264.985 443.069)scale(1.22163)"/><use xlink:href="#g" style="mix-blend-mode:normal" transform="rotate(165.318 264.985 443.069)scale(1.22163)"/><g opacity=".687" transform="rotate(-144.137 454.305 334.27)scale(.9749)"><use xlink:href="#e" style="mix-blend-mode:normal"/><use xlink:href="#f" style="mix-blend-mode:normal"/><use xlink:href="#g" style="mix-blend-mode:normal"/></g><g opacity=".954" transform="rotate(-152.397 445.951 409.664)scale(.96345)"><use xlink:href="#e" style="mix-blend-mode:normal"/><use xlink:href="#f" style="mix-blend-mode:normal"/><use xlink:href="#g" style="mix-blend-mode:normal"/></g><use xlink:href="#e" style="mix-blend-mode:normal" transform="rotate(145.216 233.11 608.397)scale(.9529)"/><use xlink:href="#f" style="mix-blend-mode:normal" transform="rotate(145.216 233.11 608.397)scale(.9529)"/><use xlink:href="#g" style="mix-blend-mode:normal" transform="rotate(145.216 233.11 608.397)scale(.9529)"/><use xlink:href="#e" style="mix-blend-mode:normal" transform="rotate(27.411 -31.606 1148.404)scale(1.18089)"/><use xlink:href="#f" style="mix-blend-mode:normal" transform="rotate(27.411 -31.606 1148.404)scale(1.18089)"/><use xlink:href="#g" style="mix-blend-mode:normal" transform="rotate(27.411 -31.606 1148.404)scale(1.18089)"/><use xlink:href="#e" style="mix-blend-mode:normal" transform="rotate(-16.331 1402.386 -1850.783)scale(1.04728)"/><use xlink:href="#f" style="mix-blend-mode:normal" transform="rotate(-16.331 1402.386 -1850.783)scale(1.04728)"/><use xlink:href="#g" style="mix-blend-mode:normal" transform="rotate(-16.331 1402.386 -1850.783)scale(1.04728)"/><g opacity=".608" transform="rotate(26.211 -539.886 1419.366)scale(1.06264)"><use xlink:href="#e" style="mix-blend-mode:normal"/><use xlink:href="#f" style="mix-blend-mode:normal"/><use xlink:href="#g" style="mix-blend-mode:normal"/></g><g opacity=".599" transform="rotate(34.846 -398.544 1340.6)scale(1.1994)"><use xlink:href="#e" style="mix-blend-mode:normal"/><use xlink:href="#f" style="mix-blend-mode:normal"/><use xlink:href="#g" style="mix-blend-mode:normal"/></g><g opacity=".637" transform="rotate(-7.954 4775.49 -3815.697)scale(.7866)"><use xlink:href="#e" style="mix-blend-mode:normal"/><use xlink:href="#f" style="mix-blend-mode:normal"/><use xlink:href="#g" style="mix-blend-mode:normal"/></g><g opacity=".976" transform="rotate(29.113 -896.838 1622.676)scale(1.20427)"><use xlink:href="#e" style="mix-blend-mode:normal"/><use xlink:href="#f" style="mix-blend-mode:normal"/><use xlink:href="#g" style="mix-blend-mode:normal"/></g><use xlink:href="#e" style="mix-blend-mode:normal" transform="matrix(.7463 .64797 -.64797 .7463 708.528 753.825)"/><use xlink:href="#f" style="mix-blend-mode:normal" transform="matrix(.7463 .64797 -.64797 .7463 708.528 753.825)"/><use xlink:href="#g" style="mix-blend-mode:normal" transform="matrix(.7463 .64797 -.64797 .7463 708.528 753.825)"/><g opacity=".994" transform="matrix(1.0197 -.07 .07 1.0197 699.765 935.224)"><use xlink:href="#e" style="mix-blend-mode:normal"/><use xlink:href="#f" style="mix-blend-mode:normal"/><use xlink:href="#g" style="mix-blend-mode:normal"/></g><use xlink:href="#e" style="mix-blend-mode:normal" transform="rotate(-162.278 428.453 168.4)scale(.86061)"/><use xlink:href="#f" style="mix-blend-mode:normal" transform="rotate(-162.278 428.453 168.4)scale(.86061)"/><use xlink:href="#g" style="mix-blend-mode:normal" transform="rotate(-162.278 428.453 168.4)scale(.86061)"/><g opacity=".55" transform="rotate(179.406 372.102 261.875)scale(.88426)"><use xlink:href="#e" style="mix-blend-mode:normal"/><use xlink:href="#f" style="mix-blend-mode:normal"/><use xlink:href="#g" style="mix-blend-mode:normal"/></g><use xlink:href="#e" style="mix-blend-mode:normal" transform="rotate(150.528 361.77 416.657)scale(.78)"/><use xlink:href="#f" style="mix-blend-mode:normal" transform="rotate(150.528 361.77 416.657)scale(.78)"/><use xlink:href="#g" style="mix-blend-mode:normal" transform="rotate(150.528 361.77 416.657)scale(.78)"/><g opacity=".715" transform="rotate(156.043 338.154 434.599)scale(1.01042)"><use xlink:href="#e" style="mix-blend-mode:normal"/><use xlink:href="#f" style="mix-blend-mode:normal"/><use xlink:href="#g" style="mix-blend-mode:normal"/></g><use xlink:href="#e" style="mix-blend-mode:normal" transform="rotate(157.742 352.364 484.83)scale(.8735)"/><use xlink:href="#f" style="mix-blend-mode:normal" transform="rotate(157.742 352.364 484.83)scale(.8735)"/><use xlink:href="#g" style="mix-blend-mode:normal" transform="rotate(157.742 352.364 484.83)scale(.8735)"/><g opacity=".52" transform="rotate(169.846 377.6 504.733)scale(.95187)"><use xlink:href="#e" style="mix-blend-mode:normal"/><use xlink:href="#f" style="mix-blend-mode:normal"/><use xlink:href="#g" style="mix-blend-mode:normal"/></g><g opacity=".578" transform="rotate(-177.393 470.151 516.683)scale(1.1678)"><use xlink:href="#e" style="mix-blend-mode:normal"/><use xlink:href="#f" style="mix-blend-mode:normal"/><use xlink:href="#g" style="mix-blend-mode:normal"/></g><use xlink:href="#e" style="mix-blend-mode:normal" transform="rotate(-39.887 724.985 -773.002)scale(1.03968)"/><use xlink:href="#f" style="mix-blend-mode:normal" transform="rotate(-39.887 724.985 -773.002)scale(1.03968)"/><use xlink:href="#g" style="mix-blend-mode:normal" transform="rotate(-39.887 724.985 -773.002)scale(1.03968)"/><g opacity=".672" transform="rotate(44.914 71.08 1162.833)scale(.84695)"><use xlink:href="#e" style="mix-blend-mode:normal"/><use xlink:href="#f" style="mix-blend-mode:normal"/><use xlink:href="#g" style="mix-blend-mode:normal"/></g><g opacity=".702" transform="rotate(-39.051 1003.154 -759.81)scale(1.08044)"><use xlink:href="#e" style="mix-blend-mode:normal"/><use xlink:href="#f" style="mix-blend-mode:normal"/><use xlink:href="#g" style="mix-blend-mode:normal"/></g><use xlink:href="#e" style="mix-blend-mode:normal" transform="rotate(37.278 -251.081 1531.171)scale(.88649)"/><use xlink:href="#f" style="mix-blend-mode:normal" transform="rotate(37.278 -251.081 1531.171)scale(.88649)"/><use xlink:href="#g" style="mix-blend-mode:normal" transform="rotate(37.278 -251.081 1531.171)scale(.88649)"/><use xlink:href="#e" style="mix-blend-mode:normal" transform="rotate(27.763 -793.045 1917.072)scale(1.01898)"/><use xlink:href="#f" style="mix-blend-mode:normal" transform="rotate(27.763 -793.045 1917.072)scale(1.01898)"/><use xlink:href="#g" style="mix-blend-mode:normal" transform="rotate(27.763 -793.045 1917.072)scale(1.01898)"/><use xlink:href="#e" style="mix-blend-mode:normal" transform="rotate(-12.979 3645.716 -3233.35)scale(.95736)"/><use xlink:href="#f" style="mix-blend-mode:normal" transform="rotate(-12.979 3645.716 -3233.35)scale(.95736)"/><use xlink:href="#g" style="mix-blend-mode:normal" transform="rotate(-12.979 3645.716 -3233.35)scale(.95736)"/><use xlink:href="#e" style="mix-blend-mode:normal" transform="rotate(-28.022 2029.753 -1080.683)scale(1.19518)"/><use xlink:href="#f" style="mix-blend-mode:normal" transform="rotate(-28.022 2029.753 -1080.683)scale(1.19518)"/><use xlink:href="#g" style="mix-blend-mode:normal" transform="rotate(-28.022 2029.753 -1080.683)scale(1.19518)"/><g opacity=".808" transform="rotate(33.155 -1123.827 2009.226)scale(1.12981)"><use xlink:href="#e" style="mix-blend-mode:normal"/><use xlink:href="#f" style="mix-blend-mode:normal"/><use xlink:href="#g" style="mix-blend-mode:normal"/></g><g opacity=".689" transform="rotate(140.854 406.965 401.16)scale(.90565)"><use xlink:href="#e" style="mix-blend-mode:normal"/><use xlink:href="#f" style="mix-blend-mode:normal"/><use xlink:href="#g" style="mix-blend-mode:normal"/></g><use xlink:href="#e" style="mix-blend-mode:normal" transform="rotate(-139.758 585.533 191.747)scale(.9153)"/><use xlink:href="#f" style="mix-blend-mode:normal" transform="rotate(-139.758 585.533 191.747)scale(.9153)"/><use xlink:href="#g" style="mix-blend-mode:normal" transform="rotate(-139.758 585.533 191.747)scale(.9153)"/><use xlink:href="#e" style="mix-blend-mode:normal" transform="rotate(142.567 342.646 528.537)scale(.77579)"/><use xlink:href="#f" style="mix-blend-mode:normal" transform="rotate(142.567 342.646 528.537)scale(.77579)"/><use xlink:href="#g" style="mix-blend-mode:normal" transform="rotate(142.567 342.646 528.537)scale(.77579)"/><use xlink:href="#e" style="mix-blend-mode:normal" transform="rotate(-140.794 660.531 284.161)scale(1.04045)"/><use xlink:href="#f" style="mix-blend-mode:normal" transform="rotate(-140.794 660.531 284.161)scale(1.04045)"/><use xlink:href="#g" style="mix-blend-mode:normal" transform="rotate(-140.794 660.531 284.161)scale(1.04045)"/><g opacity=".948" transform="rotate(178.058 497.392 500.864)scale(1.09493)"><use xlink:href="#e" style="mix-blend-mode:normal"/><use xlink:href="#f" style="mix-blend-mode:normal"/><use xlink:href="#g" style="mix-blend-mode:normal"/></g><use xlink:href="#e" style="mix-blend-mode:normal" transform="rotate(-41.43 1004.098 -980.685)scale(1.22555)"/><use xlink:href="#f" style="mix-blend-mode:normal" transform="rotate(-41.43 1004.098 -980.685)scale(1.22555)"/><use xlink:href="#g" style="mix-blend-mode:normal" transform="rotate(-41.43 1004.098 -980.685)scale(1.22555)"/><use xlink:href="#e" style="mix-blend-mode:normal" transform="rotate(-22.241 1713.683 -2007.406)scale(.94105)"/><use xlink:href="#f" style="mix-blend-mode:normal" transform="rotate(-22.241 1713.683 -2007.406)scale(.94105)"/><use xlink:href="#g" style="mix-blend-mode:normal" transform="rotate(-22.241 1713.683 -2007.406)scale(.94105)"/><use xlink:href="#e" style="mix-blend-mode:normal" transform="rotate(11.985 -2249.375 4899.745)scale(.75418)"/><use xlink:href="#f" style="mix-blend-mode:normal" transform="rotate(11.985 -2249.375 4899.745)scale(.75418)"/><use xlink:href="#g" style="mix-blend-mode:normal" transform="rotate(11.985 -2249.375 4899.745)scale(.75418)"/><use xlink:href="#e" style="mix-blend-mode:normal" transform="rotate(36.442 -488.735 1777.264)scale(1.0529)"/><use xlink:href="#f" style="mix-blend-mode:normal" transform="rotate(36.442 -488.735 1777.264)scale(1.0529)"/><use xlink:href="#g" style="mix-blend-mode:normal" transform="rotate(36.442 -488.735 1777.264)scale(1.0529)"/><use xlink:href="#e" style="mix-blend-mode:normal" transform="rotate(-27.27 2298.967 -1531.106)scale(1.23341)"/><use xlink:href="#f" style="mix-blend-mode:normal" transform="rotate(-27.27 2298.967 -1531.106)scale(1.23341)"/><use xlink:href="#g" style="mix-blend-mode:normal" transform="rotate(-27.27 2298.967 -1531.106)scale(1.23341)"/><use xlink:href="#e" style="mix-blend-mode:normal" transform="rotate(-36.562 1980.539 -931.297)scale(.79424)"/><use xlink:href="#f" style="mix-blend-mode:normal" transform="rotate(-36.562 1980.539 -931.297)scale(.79424)"/><use xlink:href="#g" style="mix-blend-mode:normal" transform="rotate(-36.562 1980.539 -931.297)scale(.79424)"/><g opacity=".631" transform="rotate(29.307 -1458.063 2518.608)scale(.76105)"><use xlink:href="#e" style="mix-blend-mode:normal"/><use xlink:href="#f" style="mix-blend-mode:normal"/><use xlink:href="#g" style="mix-blend-mode:normal"/></g><use xlink:href="#e" style="mix-blend-mode:normal" transform="rotate(168.424 558.744 302.181)scale(.90117)"/><use xlink:href="#f" style="mix-blend-mode:normal" transform="rotate(168.424 558.744 302.181)scale(.90117)"/><use xlink:href="#g" style="mix-blend-mode:normal" transform="rotate(168.424 558.744 302.181)scale(.90117)"/><g opacity=".562" transform="rotate(174.695 549.007 323.618)scale(1.05976)"><use xlink:href="#e" style="mix-blend-mode:normal"/><use xlink:href="#f" style="mix-blend-mode:normal"/><use xlink:href="#g" style="mix-blend-mode:normal"/></g><use xlink:href="#e" style="mix-blend-mode:normal" transform="rotate(154.49 475.15 499.837)scale(.80606)"/><use xlink:href="#f" style="mix-blend-mode:normal" transform="rotate(154.49 475.15 499.837)scale(.80606)"/><use xlink:href="#g" style="mix-blend-mode:normal" transform="rotate(154.49 475.15 499.837)scale(.80606)"/><g opacity=".787" transform="rotate(173.897 553.195 459.35)scale(.95285)"><use xlink:href="#e" style="mix-blend-mode:normal"/><use xlink:href="#f" style="mix-blend-mode:normal"/><use xlink:href="#g" style="mix-blend-mode:normal"/></g><use xlink:href="#e" style="mix-blend-mode:normal" transform="rotate(-153.49 714.871 382.896)scale(1.04126)"/><use xlink:href="#f" style="mix-blend-mode:normal" transform="rotate(-153.49 714.871 382.896)scale(1.04126)"/><use xlink:href="#g" style="mix-blend-mode:normal" transform="rotate(-153.49 714.871 382.896)scale(1.04126)"/><use xlink:href="#e" style="mix-blend-mode:normal" transform="rotate(155.271 477.231 663.535)scale(.9373)"/><use xlink:href="#f" style="mix-blend-mode:normal" transform="rotate(155.271 477.231 663.535)scale(.9373)"/><use xlink:href="#g" style="mix-blend-mode:normal" transform="rotate(155.271 477.231 663.535)scale(.9373)"/><use xlink:href="#e" style="mix-blend-mode:normal" transform="rotate(159.242 521.614 704.07)scale(1.24179)"/><use xlink:href="#f" style="mix-blend-mode:normal" transform="rotate(159.242 521.614 704.07)scale(1.24179)"/><use xlink:href="#g" style="mix-blend-mode:normal" transform="rotate(159.242 521.614 704.07)scale(1.24179)"/><g opacity=".901" transform="matrix(.6491 -.64366 .64366 .6491 1058.075 531.214)"><use xlink:href="#e" style="mix-blend-mode:normal"/><use xlink:href="#f" style="mix-blend-mode:normal"/><use xlink:href="#g" style="mix-blend-mode:normal"/></g><use xlink:href="#e" style="mix-blend-mode:normal" transform="rotate(28.807 -499.199 2355.864)scale(1.2163)"/><use xlink:href="#f" style="mix-blend-mode:normal" transform="rotate(28.807 -499.199 2355.864)scale(1.2163)"/><use xlink:href="#g" style="mix-blend-mode:normal" transform="rotate(28.807 -499.199 2355.864)scale(1.2163)"/><g opacity=".553" transform="rotate(6.527 -5324.013 10008.476)scale(.84057)"><use xlink:href="#e" style="mix-blend-mode:normal"/><use xlink:href="#f" style="mix-blend-mode:normal"/><use xlink:href="#g" style="mix-blend-mode:normal"/></g><use xlink:href="#e" style="mix-blend-mode:normal" transform="rotate(29.226 -872.772 2544.717)scale(1.13177)"/><use xlink:href="#f" style="mix-blend-mode:normal" transform="rotate(29.226 -872.772 2544.717)scale(1.13177)"/><use xlink:href="#g" style="mix-blend-mode:normal" transform="rotate(29.226 -872.772 2544.717)scale(1.13177)"/><g opacity=".825" transform="rotate(168.361 611.406 325.783)scale(1.02147)"><use xlink:href="#e" style="mix-blend-mode:normal"/><use xlink:href="#f" style="mix-blend-mode:normal"/><use xlink:href="#g" style="mix-blend-mode:normal"/></g><g opacity=".568" transform="rotate(-152.369 705.487 166.55)scale(.88743)"><use xlink:href="#e" style="mix-blend-mode:normal"/><use xlink:href="#f" style="mix-blend-mode:normal"/><use xlink:href="#g" style="mix-blend-mode:normal"/></g><use xlink:href="#e" style="mix-blend-mode:normal" transform="rotate(-158.495 664.963 233.87)scale(.82179)"/><use xlink:href="#f" style="mix-blend-mode:normal" transform="rotate(-158.495 664.963 233.87)scale(.82179)"/><use xlink:href="#g" style="mix-blend-mode:normal" transform="rotate(-158.495 664.963 233.87)scale(.82179)"/><use xlink:href="#e" style="mix-blend-mode:normal" transform="rotate(137.474 534.223 609.074)scale(1.12634)"/><use xlink:href="#f" style="mix-blend-mode:normal" transform="rotate(137.474 534.223 609.074)scale(1.12634)"/><use xlink:href="#g" style="mix-blend-mode:normal" transform="rotate(137.474 534.223 609.074)scale(1.12634)"/><use xlink:href="#e" style="mix-blend-mode:normal" transform="rotate(-176.319 656.733 407.734)scale(.94471)"/><use xlink:href="#f" style="mix-blend-mode:normal" transform="rotate(-176.319 656.733 407.734)scale(.94471)"/><use xlink:href="#g" style="mix-blend-mode:normal" transform="rotate(-176.319 656.733 407.734)scale(.94471)"/></g><g stroke="#000" stroke-linejoin="round"><path fill="url(#h)" stroke-linecap="round" stroke-width="24.032" d="m 171.38263,233.48538 c 25.80372,-1.41959 48.86166,22.76415 46.21807,48.47501 -0.8869,23.80571 -23.00891,44.73432 -47.11678,42.3874 -28.00087,1.02777 -49.67273,-29.01601 -42.94165,-55.38866 4.00038,-20.29313 23.30465,-35.46829 43.84036,-35.47375 z" paint-order="markers stroke fill" style="mix-blend-mode:normal" transform="translate(40.938 85.86)scale(1.13322)"/><path fill="url(#i)" stroke-linecap="round" stroke-width="24.032" d="m 83.117367,34.229004 c 5.640272,11.590826 14.847583,22.131229 18.412733,35.067331 10.28073,26.949779 2.81987,56.662975 -10.557927,81.097955 -20.491143,40.23672 -40.378239,84.60388 -34.645517,130.82004 5.789955,41.7498 35.465416,80.05991 76.309654,92.45505 41.00023,13.68626 89.30256,0.0536 116.79179,-33.40406 18.86154,-21.98891 29.84597,-52.45176 24.67741,-81.40288 -7.8635,-32.19022 -32.9483,-58.97909 -64.67431,-68.67428 -19.22407,-6.42336 -38.17611,-16.02861 -50.84919,-32.30005 -3.15336,10.35073 -6.73511,23.24888 -10.4964,34.80197 -3.5495,12.51124 -8.86071,24.65253 -11.41974,37.35933 10.52656,-4.13966 22.87782,-11.28704 35.64611,-10.32186 32.13794,-0.62295 60.40212,28.73499 59.13333,60.77021 -0.25922,31.28352 -28.77465,59.06548 -60.20433,57.81136 -31.30942,0.14161 -58.14406,-27.57131 -59.08079,-58.48973 -0.42916,-23.46245 9.10724,-45.68252 15.53808,-67.90912 12.44975,-36.89975 24.38645,-76.07754 19.57351,-115.439607 C 144.82138,69.001262 125.86456,42.369703 98.079123,36.380651 93.196455,35.1226 88.182033,34.13075 83.117367,34.229004 Z" paint-order="markers stroke fill" style="mix-blend-mode:normal" transform="translate(40.938 85.86)scale(1.13322)"/><path fill="url(#j)" stroke-linecap="round" stroke-width="24.032" d="m 189.02894,54.376199 c -12.59382,8.74659 -24.29273,21.346697 -28.17558,36.440921 2.67144,16.02727 0.80207,32.39646 0.55997,48.39603 6.85527,24.18514 31.904,35.21474 53.72321,42.5751 26.60248,9.1787 49.67357,28.65131 60.9905,54.69508 2.64021,5.14523 11.71772,27.60392 10.72174,9.11141 0.90523,-31.8999 -12.66297,-63.96877 -37.63567,-84.19563 -18.43901,-16.55595 -44.48653,-25.50886 -55.87985,-49.09615 -9.86592,-17.306803 -9.28182,-38.517372 -3.41984,-57.042282 l -0.44223,-0.442237 z" paint-order="markers stroke fill" style="mix-blend-mode:normal" transform="translate(40.938 85.86)scale(1.13322)"/><g fill="#e5e5e5" stroke-width="14" font-family="'Inter Alia'" paint-order="stroke fill markers"><path d="m 518.44598,212.83368 q 0,7.73439 -3.15105,13.82165 -3.07943,6.08725 -8.52215,10.09768 -6.3021,4.72657 -13.89326,6.73178 -7.51955,2.00522 -19.12114,2.00522 H 427.20879 V 138.85564 h 41.39333 q 12.89065,0 18.83468,0.85938 6.01564,0.85938 11.88805,3.79558 6.08725,3.07944 9.02345,8.30731 3.00782,5.15626 3.00782,11.81644 0,7.73439 -4.08204,13.67841 -4.08204,5.87241 -11.52997,9.16669 v 0.57292 q 10.45575,2.07683 16.543,8.59377 6.15887,6.51694 6.15887,17.18754 z m -35.23445,-43.82823 q 0,-2.64974 -1.36068,-5.29949 -1.28907,-2.64974 -4.65496,-3.93881 -3.00782,-1.14584 -7.51955,-1.21745 -4.44012,-0.14323 -12.53258,-0.14323 h -2.57813 v 22.55865 h 4.29688 q 6.51694,0 11.10029,-0.21485 4.58334,-0.21484 7.23309,-1.43229 3.72396,-1.64714 4.8698,-4.22527 1.14584,-2.64975 1.14584,-6.08726 z m 6.73178,43.39854 q 0,-5.08465 -2.00521,-7.80601 -1.9336,-2.79297 -6.66017,-4.15365 -3.22267,-0.93099 -8.88023,-1.00261 -5.65757,-0.0716 -11.81643,-0.0716 h -6.01564 v 26.56907 h 2.00521 q 11.60159,0 16.61462,-0.0716 5.01303,-0.0716 9.2383,-1.86198 4.29689,-1.79037 5.87241,-4.72657 1.64714,-3.00782 1.64714,-6.87502 z m 73.33351,33.08602 H 537.49551 V 134.05745 h 25.78131 z m 73.04704,-20.98313 v -16.75785 q -5.22787,0.42969 -11.31513,1.21745 -6.08725,0.71615 -9.2383,1.71876 -3.8672,1.21745 -5.94403,3.58073 -2.00521,2.29168 -2.00521,6.08726 0,2.50651 0.42969,4.08204 0.42969,1.57552 2.14844,3.00782 1.64714,1.43229 3.93881,2.14844 2.29168,0.64453 7.16148,0.64453 3.8672,0 7.80601,-1.57552 4.01042,-1.57553 7.01824,-4.15366 z m 0,12.46097 q -2.07683,1.57552 -5.15626,3.79558 -3.07943,2.22006 -5.80079,3.50912 -3.79559,1.71876 -7.87763,2.50652 -4.08204,0.85938 -8.95184,0.85938 -11.45836,0 -19.19275,-7.08986 -7.7344,-7.08986 -7.7344,-18.11853 0,-8.80862 3.93881,-14.39457 3.93882,-5.58595 11.17191,-8.80861 7.16147,-3.22267 17.76045,-4.58335 10.59899,-1.36068 21.98573,-2.00521 v -0.42969 q 0,-6.66017 -5.44272,-9.16669 -5.44272,-2.57813 -16.0417,-2.57813 -6.37372,0 -13.60681,2.29167 -7.23309,2.22006 -10.38413,3.43751 h -2.36329 V 166.7854 q 4.08204,-1.07423 13.24873,-2.50652 9.2383,-1.50391 18.4766,-1.50391 21.98573,0 31.72534,6.8034 9.81122,6.73179 9.81122,21.19797 v 54.71367 h -25.56647 z m 118.66563,8.52216 H 679.43593 V 228.947 l 42.39593,-45.04568 h -40.67718 v -18.83468 h 73.04705 v 16.25655 l -41.7514,44.97406 h 42.53916 z m 43.89986,0 h -25.78131 v -80.42337 h 25.78131 z m 0.71615,-91.88173 h -27.21361 v -19.55083 h 27.21361 z m 103.76976,91.88173 h -25.78131 v -8.88023 q -7.16148,5.44272 -13.1055,8.30731 -5.94403,2.79297 -14.17972,2.79297 -13.32035,0 -20.55344,-7.66278 -7.16147,-7.66277 -7.16147,-22.63026 v -52.35038 h 25.92454 v 39.88942 q 0,6.08725 0.35807,10.16929 0.42969,4.01043 1.86198,6.66017 1.36068,2.64975 4.08204,3.8672 2.79298,1.21745 7.7344,1.21745 3.29428,0 7.3047,-1.21745 4.01043,-1.21745 7.7344,-3.58074 v -57.00534 h 25.78131 z m 102.98204,-57.00535 v 57.00535 h -25.92456 v -40.17588 q 0,-5.87241 -0.28646,-9.95445 -0.28646,-4.15365 -1.57553,-6.73179 -1.28906,-2.57813 -3.93881,-3.72396 -2.57813,-1.21745 -7.3047,-1.21745 -3.79558,0 -7.37632,1.57552 -3.58074,1.50391 -6.44533,3.22266 v 57.00535 h -25.78131 v -80.42337 h 25.78131 v 8.88023 q 6.66017,-5.22788 12.74743,-8.16408 6.08725,-2.93621 13.46357,-2.93621 7.94924,0 14.03649,3.58074 6.08725,3.50912 9.52472,10.38414 7.7344,-6.51694 15.0391,-10.24091 7.3047,-3.72397 14.323,-3.72397 13.0339,0 19.7657,7.80601 6.8034,7.80601 6.8034,22.48703 v 52.35039 h -25.9246 v -40.17588 q 0,-5.94402 -0.2864,-10.02606 -0.2149,-4.08204 -1.5039,-6.66018 -1.2175,-2.57813 -3.8672,-3.72396 -2.6498,-1.21745 -7.448,-1.21745 -3.2226,0 -6.3021,1.14583 -3.0794,1.07422 -7.5195,3.65235 z" aria-label="Blazium" font-size="146.667" font-weight="700" style="-inkscape-font-specification:&quot;Inter Alia, Bold&quot;" transform="translate(-82.796 67.767)scale(1.19376)"/><path d="m 465.86035,326.05026 q -3.97137,1.82293 -8.69145,3.19013 -4.68752,1.33464 -9.08207,1.33464 -5.66409,0 -10.38417,-1.56251 -4.72008,-1.56251 -8.04041,-4.68752 -3.35288,-3.15757 -5.1758,-7.87765 -1.82293,-4.75263 -1.82293,-11.10031 0,-11.62116 6.77087,-18.32692 6.80342,-6.73831 18.65244,-6.73831 4.13413,0 8.43103,1.00912 4.32945,0.97656 9.30994,3.35288 v 7.64978 h -0.58594 q -1.00912,-0.78126 -2.9297,-2.0508 -1.92059,-1.26953 -3.77606,-2.11589 -2.24611,-1.00912 -5.11071,-1.66017 -2.83204,-0.68359 -6.44534,-0.68359 -8.13806,0 -12.89069,5.24091 -4.72008,5.20836 -4.72008,14.12767 0,9.4076 4.94795,14.64851 4.94794,5.20836 13.47663,5.20836 3.12501,0 6.21747,-0.61849 3.12502,-0.61849 5.46878,-1.59506 v -11.88157 h -12.98834 v -5.66409 h 19.36858 z m 39.03014,3.58075 h -6.08727 v -3.87372 q -0.8138,0.55339 -2.21355,1.56251 -1.36719,0.97657 -2.66928,1.56251 -1.52996,0.7487 -3.51564,1.23699 -1.98569,0.52083 -4.65498,0.52083 -4.91538,0 -8.33337,-3.25522 -3.41799,-3.25523 -3.41799,-8.30083 0,-4.13413 1.75782,-6.67321 1.79038,-2.57162 5.07816,-4.03647 3.32032,-1.46486 7.9753,-1.98569 4.65497,-0.52084 9.99353,-0.78126 v -0.94401 q 0,-2.08334 -0.7487,-3.45054 -0.71615,-1.36719 -2.08334,-2.14845 -1.30209,-0.7487 -3.12502,-1.00912 -1.82292,-0.26041 -3.80861,-0.26041 -2.40887,0 -5.37112,0.65104 -2.96225,0.61849 -6.11982,1.82293 h -0.32552 v -6.21748 q 1.79037,-0.48829 5.1758,-1.07423 3.38544,-0.58594 6.67321,-0.58594 3.84117,0 6.67321,0.65105 2.8646,0.61849 4.94795,2.14845 2.05079,1.4974 3.12501,3.87371 1.07422,2.37632 1.07422,5.89196 z m -6.08727,-8.95187 V 310.5554 q -2.79949,0.16276 -6.6081,0.48828 -3.77606,0.32552 -5.98961,0.94401 -2.63674,0.74871 -4.26435,2.34377 -1.62761,1.5625 -1.62761,4.32945 0,3.12501 1.88803,4.72007 1.88803,1.56251 5.76175,1.56251 3.22267,0 5.89195,-1.23699 2.66929,-1.26953 4.94794,-3.02736 z m 70.93134,8.95187 h -6.11982 v -20.70323 q 0,-2.34376 -0.22786,-4.52476 -0.19532,-2.181 -0.87892,-3.48309 -0.7487,-1.39975 -2.14844,-2.1159 -1.39975,-0.71614 -4.03648,-0.71614 -2.57163,0 -5.14326,1.30209 -2.57162,1.26953 -5.14325,3.25522 0.0977,0.7487 0.16276,1.75782 0.0651,0.97657 0.0651,1.95314 v 23.27485 h -6.11982 v -20.70323 q 0,-2.40886 -0.22786,-4.55731 -0.19532,-2.181 -0.87891,-3.48309 -0.74871,-1.39975 -2.14845,-2.08335 -1.39975,-0.71614 -4.03648,-0.71614 -2.50652,0 -5.0456,1.23698 -2.50652,1.23699 -5.01305,3.15757 v 27.14857 h -6.11982 v -36.36086 h 6.11982 v 4.03648 q 2.8646,-2.37631 5.69665,-3.71095 2.8646,-1.33465 6.08727,-1.33465 3.71095,0 6.28258,1.56251 2.60418,1.56251 3.87372,4.32945 3.71095,-3.12502 6.77087,-4.49221 3.05991,-1.39975 6.543,-1.39975 5.98961,0 8.82166,3.64586 2.86459,3.61329 2.86459,10.12374 z m 42.22026,-17.54566 h -26.7905 q 0,3.35288 1.00912,5.85941 1.00912,2.47397 2.76694,4.06903 1.69272,1.5625 4.00393,2.34376 2.34376,0.78125 5.14326,0.78125 3.71095,0 7.45446,-1.46485 3.77606,-1.4974 5.37112,-2.9297 h 0.32552 v 6.67321 q -3.09246,1.30209 -6.31513,2.181 -3.22267,0.87891 -6.77087,0.87891 -9.04952,0 -14.12767,-4.88284 -5.07815,-4.91539 -5.07815,-13.93236 0,-8.91931 4.85028,-14.16022 4.88284,-5.24092 12.82559,-5.24092 7.3568,0 11.32818,4.2969 4.00392,4.2969 4.00392,12.20709 z m -5.95706,-4.68752 q -0.0326,-4.81773 -2.44142,-7.45447 -2.37631,-2.63673 -7.25915,-2.63673 -4.91539,0 -7.84509,2.89715 -2.89715,2.89715 -3.28778,7.19405 z m 69.10843,4.68752 h -26.7905 q 0,3.35288 1.00912,5.85941 1.00912,2.47397 2.76694,4.06903 1.69272,1.5625 4.00393,2.34376 2.34376,0.78125 5.14325,0.78125 3.71096,0 7.45447,-1.46485 3.77606,-1.4974 5.37112,-2.9297 h 0.32552 v 6.67321 q -3.09246,1.30209 -6.31514,2.181 -3.22267,0.87891 -6.77086,0.87891 -9.04953,0 -14.12768,-4.88284 -5.07815,-4.91539 -5.07815,-13.93236 0,-8.91931 4.85029,-14.16022 4.88283,-5.24092 12.82558,-5.24092 7.35681,0 11.32818,4.2969 4.00393,4.2969 4.00393,12.20709 z m -5.95706,-4.68752 q -0.0326,-4.81773 -2.44142,-7.45447 -2.37631,-2.63673 -7.25915,-2.63673 -4.91539,0 -7.84509,2.89715 -2.89715,2.89715 -3.28778,7.19405 z m 45.63825,22.23318 h -6.11982 v -20.70323 q 0,-2.50652 -0.29297,-4.68752 -0.29297,-2.21355 -1.07422,-3.45054 -0.81381,-1.36719 -2.34377,-2.01824 -1.52995,-0.68359 -3.97137,-0.68359 -2.50652,0 -5.24091,1.23698 -2.73439,1.23699 -5.24091,3.15757 v 27.14857 h -6.11982 v -36.36086 h 6.11982 v 4.03648 q 2.8646,-2.37631 5.92451,-3.71095 3.05991,-1.33465 6.28258,-1.33465 5.89196,0 8.98442,3.5482 3.09246,3.54819 3.09246,10.2214 z m 41.27625,-4.13413 q 0,9.24483 -4.19924,13.57428 -4.19924,4.32945 -12.92324,4.32945 -2.89715,0 -5.66409,-0.42318 -2.73439,-0.39062 -5.40367,-1.13933 v -6.25003 h 0.32552 q 1.4974,0.58594 4.75263,1.4323 3.25522,0.87891 6.51045,0.87891 3.12501,0 5.17581,-0.7487 2.05079,-0.7487 3.19012,-2.08334 1.13932,-1.26954 1.62761,-3.05991 0.48828,-1.79038 0.48828,-4.00393 v -3.32033 q -2.76694,2.21355 -5.30601,3.32033 -2.50653,1.07422 -6.4128,1.07422 -6.51045,0 -10.35161,-4.68752 -3.80861,-4.72008 -3.80861,-13.28132 0,-4.68752 1.30209,-8.07295 1.33464,-3.41799 3.6133,-5.89196 2.11589,-2.31121 5.14325,-3.58075 3.02736,-1.30209 6.02217,-1.30209 3.15756,0 5.27346,0.65105 2.14845,0.61849 4.52476,1.92058 l 0.39063,-1.56251 h 5.72919 z m -6.11982,-5.85941 v -19.82432 q -2.44142,-1.10677 -4.55731,-1.5625 -2.08335,-0.48829 -4.16669,-0.48829 -5.0456,0 -7.94275,3.38544 -2.89715,3.38543 -2.89715,9.83078 0,6.11982 2.14845,9.27739 2.14845,3.15756 7.12894,3.15756 2.66929,0 5.33857,-1.00912 2.70184,-1.04167 4.94794,-2.76694 z m 24.73969,-32.45459 h -6.90107 v -6.34768 h 6.90107 z m -0.39062,42.44813 h -6.11983 v -36.36086 h 6.11983 z m 42.51324,0 h -6.11982 v -20.70323 q 0,-2.50652 -0.29297,-4.68752 -0.29297,-2.21355 -1.07423,-3.45054 -0.8138,-1.36719 -2.34376,-2.01824 -1.52995,-0.68359 -3.97137,-0.68359 -2.50652,0 -5.24091,1.23698 -2.73439,1.23699 -5.24091,3.15757 v 27.14857 h -6.11983 v -36.36086 h 6.11983 v 4.03648 q 2.86459,-2.37631 5.9245,-3.71095 3.05992,-1.33465 6.28259,-1.33465 5.89195,0 8.98442,3.5482 3.09246,3.54819 3.09246,10.2214 z m 42.22027,-17.54566 h -26.7905 q 0,3.35288 1.00912,5.85941 1.00912,2.47397 2.76694,4.06903 1.69272,1.5625 4.00392,2.34376 2.34377,0.78125 5.14326,0.78125 3.71096,0 7.45446,-1.46485 3.77606,-1.4974 5.37112,-2.9297 h 0.32553 v 6.67321 q -3.09247,1.30209 -6.31514,2.181 -3.22267,0.87891 -6.77087,0.87891 -9.04952,0 -14.12767,-4.88284 -5.07815,-4.91539 -5.07815,-13.93236 0,-8.91931 4.85028,-14.16022 4.88284,-5.24092 12.82559,-5.24092 7.35681,0 11.32818,4.2969 4.00393,4.2969 4.00393,12.20709 z m -5.95706,-4.68752 q -0.0326,-4.81773 -2.44142,-7.45447 -2.37632,-2.63673 -7.25915,-2.63673 -4.91539,0 -7.84509,2.89715 -2.89715,2.89715 -3.28778,7.19405 z" aria-label="Game engine" font-size="66.667" style="-inkscape-font-specification:&quot;Inter Alia, Normal&quot;" transform="translate(-82.796 67.767)scale(1.19376)"/></g></g></svg>