<svg xmlns="http://www.w3.org/2000/svg" xml:space="preserve" width="1024" height="414" viewBox="0 0 960 388.125"><path fill="#8533df" d="m 172.54991,21.336236 c 71.19214,25.95486 85.20924,106.007304 32.81362,153.866824 -52.39556,47.85949 -83.75564,60.13329 -75.3544,105.05461 8.40125,44.92136 38.02155,55.17975 69.77279,58.18852 31.75127,3.00876 60.78689,-45.73642 52.10711,-72.2581 -8.67982,-26.52167 -19.24847,-41.30036 -68.6414,-49.05869 l 41.05335,-41.75519 c 4.79836,24.22328 57.29582,47.39325 64.17238,88.82157 6.87659,41.42823 -26.05401,102.90367 -92.44845,96.53751 C 129.63051,354.36714 41.454534,286.94376 108.28514,178.45687 175.11576,69.96998 237.88702,75.806774 172.54991,21.336236 Z m 108.66615,82.733254 c -17.89619,105.38816 71.71976,70.21435 22.55928,193.50643 13.9295,-112.08226 -114.49505,-99.84873 -22.55928,-193.50643 z m -88.599,135.06118 a 39.965185,39.965185 0 0 1 39.96483,39.96482 39.965185,39.965185 0 0 1 -39.96483,39.96651 39.965185,39.965185 0 0 1 -39.96477,-39.96651 39.965185,39.965185 0 0 1 39.96477,-39.96482 z"/><text xml:space="preserve" x="400.119" y="228.613" fill="#e0dfe0" stroke-width=".938" font-family="'Inter Alia'" font-size="11.25" font-weight="700" style="-inkscape-font-specification:&quot;Inter Alia, Bold&quot;;font-variant-ligatures:normal;font-variant-caps:normal;font-variant-numeric:normal;font-variant-east-asian:normal;text-align:start"><tspan x="400.119" y="228.613" font-size="137.5" style="-inkscape-font-specification:&quot;Inter Alia, Bold&quot;;font-variant-ligatures:normal;font-variant-caps:normal;font-variant-numeric:normal;font-variant-east-asian:normal">Blazium</tspan></text><text xml:space="preserve" x="405.104" y="307.496" fill="#e0dfe0" stroke-width=".938" font-family="'Inter Alia'" font-size="75" font-weight="500" style="-inkscape-font-specification:&quot;Inter Alia, Medium&quot;;font-variant-ligatures:normal;font-variant-caps:normal;font-variant-numeric:normal;font-variant-east-asian:normal;text-align:start"><tspan x="405.104" y="307.496" font-size="62.5" font-weight="400" style="-inkscape-font-specification:&quot;Inter Alia, Normal&quot;;font-variant-ligatures:normal;font-variant-caps:normal;font-variant-numeric:normal;font-variant-east-asian:normal">Game engine</tspan></text></svg>