<svg xmlns="http://www.w3.org/2000/svg" xml:space="preserve" width="1024" height="1024"><path fill="#8533df" stroke="#fff" stroke-linejoin="round" stroke-width="40" d="M 428.54255,57.364186 C 621.49566,127.71001 659.48644,344.67738 517.47782,474.39183 375.4693,604.10619 290.47354,637.37198 313.24355,759.12293 c 22.7701,121.75103 103.05044,149.5545 189.10629,157.70924 86.0559,8.1547 164.7517,-123.96012 141.22672,-195.84227 C 620.05158,649.10784 591.40712,609.05296 457.53664,588.0254 L 568.80428,474.85569 C 581.80926,540.50838 724.094,603.30633 742.73164,715.59011 761.36932,827.87379 672.11708,994.49159 492.16721,977.23726 312.21738,959.98297 73.232668,777.24431 254.36471,483.21066 435.49675,189.17695 605.62672,204.99651 428.54255,57.364186 Z M 723.06212,281.59743 C 674.55775,567.23252 917.44518,471.90042 784.20475,806.06084 821.95821,502.28254 473.8871,535.43934 723.06212,281.59743 Z M 482.93083,647.65578 A 108.31826,108.31826 0 0 1 591.24807,755.97304 108.31826,108.31826 0 0 1 482.93083,864.29495 108.31826,108.31826 0 0 1 374.61359,755.97304 108.31826,108.31826 0 0 1 482.93083,647.65578 Z" paint-order="stroke fill markers"/></svg>