<?xml version="1.0" encoding="UTF-8" standalone="no"?>
<svg
   xml:space="preserve"
   width="1024"
   height="1024"
   version="1.1"
   id="svg17"
   sodipodi:docname="Blazium Logo - Black Rounded Square Flat.svg"
   inkscape:version="1.4 (e7c3feb100, 2024-10-09)"
   xmlns:inkscape="http://www.inkscape.org/namespaces/inkscape"
   xmlns:sodipodi="http://sodipodi.sourceforge.net/DTD/sodipodi-0.dtd"
   xmlns:xlink="http://www.w3.org/1999/xlink"
   xmlns="http://www.w3.org/2000/svg"
   xmlns:svg="http://www.w3.org/2000/svg"><sodipodi:namedview
     id="namedview17"
     pagecolor="#ffffff"
     bordercolor="#000000"
     borderopacity="0.25"
     inkscape:showpageshadow="2"
     inkscape:pageopacity="0.0"
     inkscape:pagecheckerboard="0"
     inkscape:deskcolor="#d1d1d1"
     inkscape:zoom="0.5"
     inkscape:cx="545"
     inkscape:cy="534"
     inkscape:window-width="1920"
     inkscape:window-height="1017"
     inkscape:window-x="0"
     inkscape:window-y="0"
     inkscape:window-maximized="1"
     inkscape:current-layer="svg17" /><defs
     id="defs14"><linearGradient
       id="d"><stop
         offset=".238"
         stop-color="#1a1a1a"
         id="stop1" /><stop
         offset="1"
         stop-color="#4f4f4f"
         id="stop2"
         style="stop-color:#1a1a1a;stop-opacity:1;" /></linearGradient><linearGradient
       id="c"><stop
         offset="0.045"
         stop-color="#7f24ce"
         id="stop3"
         style="stop-color:#d746fb;stop-opacity:1;" /><stop
         offset="1"
         stop-color="#f87cfe"
         id="stop6"
         style="stop-color:#d846fb;stop-opacity:1;" /></linearGradient><linearGradient
       id="b"><stop
         offset="0.84799999"
         stop-color="#d055ee"
         id="stop9"
         style="stop-color:#d746fb;stop-opacity:1;" /><stop
         offset="1"
         stop-color="#f87cfe"
         id="stop10"
         style="stop-color:#d746fb;stop-opacity:1;" /></linearGradient><linearGradient
       id="a"><stop
         offset="0.82499999"
         stop-color="#d055ee"
         id="stop13"
         style="stop-color:#d746fb;stop-opacity:1;" /><stop
         offset="1"
         stop-color="#f87cfe"
         id="stop14"
         style="stop-color:#d747fb;stop-opacity:1;" /></linearGradient><linearGradient
       xlink:href="#a"
       id="f"
       x1="496.519"
       x2="635.831"
       y1="813.477"
       y2="589.778"
       gradientUnits="userSpaceOnUse"
       gradientTransform="translate(10.00189,4.9970625)" /><linearGradient
       xlink:href="#b"
       id="g"
       x1="269.585"
       x2="488.27"
       y1="847.204"
       y2="393.079"
       gradientUnits="userSpaceOnUse"
       gradientTransform="translate(10.00189,4.9970625)" /><linearGradient
       xlink:href="#c"
       id="i"
       x1="635.831"
       x2="721.822"
       y1="589.778"
       y2="368.408"
       gradientUnits="userSpaceOnUse"
       gradientTransform="translate(10.00189,4.9970625)" /><linearGradient
       xlink:href="#d"
       id="e"
       x1="225.381"
       x2="813.757"
       y1="1019.947"
       y2="4.053"
       gradientUnits="userSpaceOnUse" /><clipPath
       clipPathUnits="userSpaceOnUse"
       id="clipPath20"><path
         fill="#230d26"
         stroke="#390054"
         stroke-linecap="round"
         stroke-linejoin="round"
         stroke-width="63.2701"
         d="M 151.7248,31.6347 H 872.27008 A 120.09088,120.09088 0 0 1 992.36096,151.72557 V 872.27085 A 120.09088,120.09088 0 0 1 872.27008,992.36173 H 151.7248 A 120.09088,120.09088 0 0 1 31.633927,872.27085 V 151.72557 A 120.09088,120.09088 0 0 1 151.7248,31.6347 Z"
         id="path20" /></clipPath><linearGradient
       id="d-8"><stop
         offset=".238"
         stop-color="#1a1a1a"
         id="stop1-8" /><stop
         offset="1"
         stop-color="#4f4f4f"
         id="stop2-5" /></linearGradient><linearGradient
       id="c-0"><stop
         offset=".045"
         stop-color="#7f24ce"
         id="stop3-9" /><stop
         offset=".468"
         stop-color="#b846e4"
         id="stop4" /><stop
         offset=".848"
         stop-color="#d055ee"
         id="stop5" /><stop
         offset="1"
         stop-color="#f87cfe"
         id="stop6-6" /></linearGradient><linearGradient
       id="b-3"><stop
         offset=".045"
         stop-color="#7f24ce"
         id="stop7" /><stop
         offset=".478"
         stop-color="#b846e4"
         id="stop8" /><stop
         offset=".848"
         stop-color="#d055ee"
         id="stop9-8" /><stop
         offset="1"
         stop-color="#f87cfe"
         id="stop10-5" /></linearGradient><linearGradient
       id="a-6"><stop
         offset=".045"
         stop-color="#7f24ce"
         id="stop11" /><stop
         offset=".468"
         stop-color="#b846e4"
         id="stop12" /><stop
         offset=".825"
         stop-color="#d055ee"
         id="stop13-1" /><stop
         offset="1"
         stop-color="#f87cfe"
         id="stop14-1" /></linearGradient><linearGradient
       xlink:href="#a-6"
       id="f-5"
       x1="496.519"
       x2="635.831"
       y1="813.477"
       y2="589.778"
       gradientUnits="userSpaceOnUse"
       gradientTransform="translate(10,5)" /><linearGradient
       xlink:href="#b-3"
       id="g-9"
       x1="269.585"
       x2="488.27"
       y1="847.204"
       y2="393.079"
       gradientUnits="userSpaceOnUse"
       gradientTransform="translate(10,5)" /><linearGradient
       xlink:href="#c-0"
       id="i-8"
       x1="635.831"
       x2="721.822"
       y1="589.778"
       y2="368.408"
       gradientUnits="userSpaceOnUse"
       gradientTransform="translate(10,5)" /><linearGradient
       xlink:href="#d-8"
       id="e-3"
       x1="225.381"
       x2="813.757"
       y1="1019.947"
       y2="4.053"
       gradientUnits="userSpaceOnUse" /><clipPath
       clipPathUnits="userSpaceOnUse"
       id="clipPath24"><path
         fill="#230d26"
         stroke="#390054"
         stroke-linecap="round"
         stroke-linejoin="round"
         stroke-width="63.2701"
         d="M 151.72837,31.636484 H 872.27365 A 120.09088,120.09088 0 0 1 992.36453,151.72736 V 872.27264 A 120.09088,120.09088 0 0 1 872.27365,992.36352 H 151.72837 A 120.09088,120.09088 0 0 1 31.63749,872.27264 V 151.72736 A 120.09088,120.09088 0 0 1 151.72837,31.636484 Z"
         id="path24" /></clipPath></defs><path
     fill="url(#e)"
     d="M0 0H1024V1024H0z"
     paint-order="markers stroke fill"
     id="path14"
     clip-path="url(#clipPath20)" /><path
     fill="url(#f)"
     d="m 529.21087,581.43848 c 68.71823,-3.7805 130.1242,60.62353 123.08401,129.09454 -2.36196,63.39731 -61.27542,119.13261 -125.47741,112.88247 -74.56951,2.73713 -132.28417,-77.27294 -114.35855,-147.50632 10.65348,-54.04296 62.063,-94.45612 116.75195,-94.47069 z"
     paint-order="markers stroke fill"
     style="mix-blend-mode:normal;fill:url(#f)"
     id="path15" /><path
     fill="url(#g)"
     d="m 294.15033,50.795892 c 15.02069,30.867694 39.54083,58.938018 49.03522,93.388328 27.37876,71.77034 7.50967,150.90003 -28.11697,215.9732 -54.57025,107.15496 -107.53187,225.30981 -92.26498,348.38877 15.41932,111.18447 94.44847,213.20867 203.22132,246.21837 109.18835,36.4481 237.823,0.14226 311.02998,-88.95886 50.23041,-58.55896 79.48324,-139.68502 65.71875,-216.78515 C 781.83226,563.2943 715.0286,491.9524 630.53853,466.13301 579.34264,449.0269 528.87119,423.44703 495.12131,380.1143 c -8.39777,27.5652 -17.93636,61.91444 -27.95312,92.68164 -9.45271,33.31888 -23.5971,65.65247 -30.41209,99.49219 28.03347,-11.02443 60.92628,-30.05871 94.92968,-27.48832 85.58706,-1.65898 160.85777,76.5246 157.47888,161.838 -0.69033,83.31166 -76.63021,157.29822 -160.33106,153.95833 -83.38059,0.37712 -154.84429,-73.42559 -157.33892,-155.76485 -1.14287,-62.48323 24.25363,-121.65781 41.37966,-180.84981 33.15518,-98.26826 64.94397,-202.60322 52.12653,-307.42889 C 458.47519,143.39841 407.99099,72.475515 333.99521,56.525982 320.9921,53.175635 307.63812,50.534223 294.15033,50.795892 Z"
     paint-order="markers stroke fill"
     style="mix-blend-mode:normal;fill:url(#g)"
     id="path16" /><path
     fill="url(#i)"
     d="m 576.20501,104.45019 c -33.53877,23.29318 -64.69436,56.84869 -75.03482,97.04636 7.11437,42.68241 2.13603,86.27552 1.49126,128.88415 18.25634,64.40778 84.96403,93.78091 143.07106,113.38242 70.84552,24.44391 132.28646,76.30173 162.42472,145.65924 7.0312,13.70233 31.20562,73.51246 28.55323,24.26473 C 839.12117,528.734 802.98751,443.33096 736.48231,389.46447 687.37716,345.3741 618.00961,321.53145 587.66791,258.71582 561.39383,212.6258 562.94933,156.13961 578.56048,106.80566 l -1.17773,-1.17774 z"
     paint-order="markers stroke fill"
     style="mix-blend-mode:normal;fill:url(#i)"
     id="path17" /></svg>
