<svg xmlns="http://www.w3.org/2000/svg" xmlns:xlink="http://www.w3.org/1999/xlink" xml:space="preserve" width="1024" height="1024"><defs><linearGradient id="d"><stop offset=".238" stop-color="#1a1a1a"/><stop offset="1" stop-color="#1a1a1a"/></linearGradient><linearGradient id="c"><stop offset=".045" stop-color="#d746fb"/><stop offset="1" stop-color="#d846fb"/></linearGradient><linearGradient id="b"><stop offset=".848" stop-color="#d746fb"/><stop offset="1" stop-color="#d746fb"/></linearGradient><linearGradient id="a"><stop offset=".825" stop-color="#d746fb"/><stop offset="1" stop-color="#d747fb"/></linearGradient><linearGradient xlink:href="#a" id="g" x1="496.519" x2="635.831" y1="813.477" y2="589.778" gradientTransform="translate(10.002 4.997)" gradientUnits="userSpaceOnUse"/><linearGradient xlink:href="#b" id="h" x1="269.585" x2="488.27" y1="847.204" y2="393.079" gradientTransform="translate(10.002 4.997)" gradientUnits="userSpaceOnUse"/><linearGradient xlink:href="#c" id="i" x1="635.831" x2="721.822" y1="589.778" y2="368.408" gradientTransform="translate(10.002 4.997)" gradientUnits="userSpaceOnUse"/><linearGradient xlink:href="#d" id="e" x1="225.381" x2="813.757" y1="1019.947" y2="4.053" gradientUnits="userSpaceOnUse"/><clipPath id="f" clipPathUnits="userSpaceOnUse"><path fill="#230d26" stroke="#390054" stroke-linecap="round" stroke-linejoin="round" stroke-width="63.27" d="M 151.7248,31.6347 H 872.27008 A 120.09088,120.09088 0 0 1 992.36096,151.72557 V 872.27085 A 120.09088,120.09088 0 0 1 872.27008,992.36173 H 151.7248 A 120.09088,120.09088 0 0 1 31.633927,872.27085 V 151.72557 A 120.09088,120.09088 0 0 1 151.7248,31.6347 Z"/></clipPath></defs><path fill="url(#e)" d="M0 0H1024V1024H0z" clip-path="url(#f)" paint-order="markers stroke fill"/><path fill="url(#g)" d="m 529.21087,581.43848 c 68.71823,-3.7805 130.1242,60.62353 123.08401,129.09454 -2.36196,63.39731 -61.27542,119.13261 -125.47741,112.88247 -74.56951,2.73713 -132.28417,-77.27294 -114.35855,-147.50632 10.65348,-54.04296 62.063,-94.45612 116.75195,-94.47069 z" paint-order="markers stroke fill" style="mix-blend-mode:normal"/><path fill="url(#h)" d="m 294.15033,50.795892 c 15.02069,30.867694 39.54083,58.938018 49.03522,93.388328 27.37876,71.77034 7.50967,150.90003 -28.11697,215.9732 -54.57025,107.15496 -107.53187,225.30981 -92.26498,348.38877 15.41932,111.18447 94.44847,213.20867 203.22132,246.21837 109.18835,36.4481 237.823,0.14226 311.02998,-88.95886 50.23041,-58.55896 79.48324,-139.68502 65.71875,-216.78515 C 781.83226,563.2943 715.0286,491.9524 630.53853,466.13301 579.34264,449.0269 528.87119,423.44703 495.12131,380.1143 c -8.39777,27.5652 -17.93636,61.91444 -27.95312,92.68164 -9.45271,33.31888 -23.5971,65.65247 -30.41209,99.49219 28.03347,-11.02443 60.92628,-30.05871 94.92968,-27.48832 85.58706,-1.65898 160.85777,76.5246 157.47888,161.838 -0.69033,83.31166 -76.63021,157.29822 -160.33106,153.95833 -83.38059,0.37712 -154.84429,-73.42559 -157.33892,-155.76485 -1.14287,-62.48323 24.25363,-121.65781 41.37966,-180.84981 33.15518,-98.26826 64.94397,-202.60322 52.12653,-307.42889 C 458.47519,143.39841 407.99099,72.475515 333.99521,56.525982 320.9921,53.175635 307.63812,50.534223 294.15033,50.795892 Z" paint-order="markers stroke fill" style="mix-blend-mode:normal"/><path fill="url(#i)" d="m 576.20501,104.45019 c -33.53877,23.29318 -64.69436,56.84869 -75.03482,97.04636 7.11437,42.68241 2.13603,86.27552 1.49126,128.88415 18.25634,64.40778 84.96403,93.78091 143.07106,113.38242 70.84552,24.44391 132.28646,76.30173 162.42472,145.65924 7.0312,13.70233 31.20562,73.51246 28.55323,24.26473 C 839.12117,528.734 802.98751,443.33096 736.48231,389.46447 687.37716,345.3741 618.00961,321.53145 587.66791,258.71582 561.39383,212.6258 562.94933,156.13961 578.56048,106.80566 l -1.17773,-1.17774 z" paint-order="markers stroke fill" style="mix-blend-mode:normal"/></svg>