<svg xmlns="http://www.w3.org/2000/svg" xmlns:xlink="http://www.w3.org/1999/xlink" xml:space="preserve" width="1024" height="1024"><defs><linearGradient id="d"><stop offset=".238" stop-color="#1a1a1a"/><stop offset="1" stop-color="#4f4f4f"/></linearGradient><linearGradient id="c"><stop offset=".045" stop-color="#7f24ce"/><stop offset=".468" stop-color="#b846e4"/><stop offset=".848" stop-color="#d055ee"/><stop offset="1" stop-color="#f87cfe"/></linearGradient><linearGradient id="b"><stop offset=".045" stop-color="#7f24ce"/><stop offset=".478" stop-color="#b846e4"/><stop offset=".848" stop-color="#d055ee"/><stop offset="1" stop-color="#f87cfe"/></linearGradient><linearGradient id="a"><stop offset=".045" stop-color="#7f24ce"/><stop offset=".468" stop-color="#b846e4"/><stop offset=".825" stop-color="#d055ee"/><stop offset="1" stop-color="#f87cfe"/></linearGradient><linearGradient xlink:href="#a" id="g" x1="496.519" x2="635.831" y1="813.477" y2="589.778" gradientTransform="translate(10 5)" gradientUnits="userSpaceOnUse"/><linearGradient xlink:href="#b" id="h" x1="269.585" x2="488.27" y1="847.204" y2="393.079" gradientTransform="translate(10 5)" gradientUnits="userSpaceOnUse"/><linearGradient xlink:href="#c" id="i" x1="635.831" x2="721.822" y1="589.778" y2="368.408" gradientTransform="translate(10 5)" gradientUnits="userSpaceOnUse"/><linearGradient xlink:href="#d" id="e" x1="225.381" x2="813.757" y1="1019.947" y2="4.053" gradientUnits="userSpaceOnUse"/><clipPath id="f" clipPathUnits="userSpaceOnUse"><path fill="#230d26" stroke="#390054" stroke-linecap="round" stroke-linejoin="round" stroke-width="63.27" d="M 151.72837,31.636484 H 872.27365 A 120.09088,120.09088 0 0 1 992.36453,151.72736 V 872.27264 A 120.09088,120.09088 0 0 1 872.27365,992.36352 H 151.72837 A 120.09088,120.09088 0 0 1 31.63749,872.27264 V 151.72736 A 120.09088,120.09088 0 0 1 151.72837,31.636484 Z"/></clipPath></defs><path fill="url(#e)" d="M0 0H1024V1024H0z" clip-path="url(#f)" paint-order="markers stroke fill"/><path fill="url(#g)" d="m 529.20898,581.44141 c 68.71823,-3.7805 130.1242,60.62353 123.08401,129.09454 -2.36196,63.39731 -61.27542,119.13261 -125.47741,112.88247 -74.56951,2.73713 -132.28417,-77.27294 -114.35855,-147.50632 10.65348,-54.04296 62.063,-94.45612 116.75195,-94.47069 z" paint-order="markers stroke fill" style="mix-blend-mode:normal"/><path fill="url(#h)" d="m 294.14844,50.798828 c 15.02069,30.867694 39.54083,58.938012 49.03522,93.388322 27.37876,71.77034 7.50967,150.90003 -28.11697,215.9732 -54.57025,107.15496 -107.53187,225.30981 -92.26498,348.38877 15.41932,111.18447 94.44847,213.20867 203.22132,246.21837 109.18835,36.4481 237.823,0.14226 311.02998,-88.95886 50.23041,-58.55896 79.48324,-139.68502 65.71875,-216.78515 C 781.83037,563.29723 715.02671,491.95533 630.53664,466.13594 579.34075,449.02983 528.8693,423.44996 495.11942,380.11723 c -8.39777,27.5652 -17.93636,61.91444 -27.95312,92.68164 -9.45271,33.31888 -23.5971,65.65247 -30.41209,99.49219 28.03347,-11.02443 60.92628,-30.05871 94.92968,-27.48832 85.58706,-1.65898 160.85777,76.5246 157.47888,161.838 -0.69033,83.31166 -76.63021,157.29822 -160.33106,153.95833 -83.38059,0.37712 -154.84429,-73.42559 -157.33892,-155.76485 -1.14287,-62.48323 24.25363,-121.65781 41.37966,-180.84981 33.15518,-98.26826 64.94397,-202.60322 52.12653,-307.42889 C 458.4733,143.40134 407.9891,72.478451 333.99332,56.528918 320.99021,53.178571 307.63623,50.537159 294.14844,50.798828 Z" paint-order="markers stroke fill" style="mix-blend-mode:normal"/><path fill="url(#i)" d="m 576.20312,104.45313 c -33.53877,23.29317 -64.69436,56.84868 -75.03482,97.04635 7.11437,42.68241 2.13603,86.27552 1.49126,128.88415 18.25634,64.40778 84.96403,93.78091 143.07106,113.38242 70.84552,24.44391 132.28646,76.30173 162.42472,145.65924 7.0312,13.70233 31.20562,73.51246 28.55323,24.26473 C 839.11928,528.73693 802.98562,443.33389 736.48042,389.4674 687.37527,345.37703 618.00772,321.53438 587.66602,258.71875 561.39194,212.62873 562.94744,156.14254 578.55859,106.80859 l -1.17773,-1.17773 z" paint-order="markers stroke fill" style="mix-blend-mode:normal"/></svg>