<svg xmlns="http://www.w3.org/2000/svg" xmlns:xlink="http://www.w3.org/1999/xlink" xml:space="preserve" width="1023.997" height="1024"><defs><linearGradient id="d"><stop offset=".238" stop-color="#1a1a1a"/><stop offset="1" stop-color="#1a1a1a"/></linearGradient><linearGradient id="c"><stop offset=".848" stop-color="#d746fb"/><stop offset="1" stop-color="#d747fb"/></linearGradient><linearGradient id="b"><stop offset=".848" stop-color="#d848fb"/><stop offset="1" stop-color="#d747fb"/></linearGradient><linearGradient id="a"><stop offset=".825" stop-color="#d748fb"/><stop offset="1" stop-color="#d747fb"/></linearGradient><linearGradient xlink:href="#a" id="g" x1="496.519" x2="635.831" y1="813.477" y2="589.778" gradientTransform="matrix(.94 0 0 .94 31.111 30.287)" gradientUnits="userSpaceOnUse"/><linearGradient xlink:href="#b" id="h" x1="269.585" x2="488.27" y1="847.204" y2="393.079" gradientTransform="matrix(.94 0 0 .94 31.111 30.287)" gradientUnits="userSpaceOnUse"/><linearGradient xlink:href="#c" id="i" x1="635.831" x2="721.822" y1="589.778" y2="368.408" gradientTransform="matrix(.94 0 0 .94 31.111 30.287)" gradientUnits="userSpaceOnUse"/><linearGradient xlink:href="#d" id="e" x1="225.381" x2="813.757" y1="1019.947" y2="4.053" gradientUnits="userSpaceOnUse"/><clipPath id="f" clipPathUnits="userSpaceOnUse"><path fill="#b3b3b3" stroke-linejoin="round" stroke-width="42.71" d="M 1023.9967,512.00104 A 511.99835,512.00104 0 0 1 511.99835,1024.0021 511.99835,512.00104 0 0 1 0,512.00104 511.99835,512.00104 0 0 1 511.99835,0 511.99835,512.00104 0 0 1 1023.9967,512.00104 Z" paint-order="stroke fill markers"/></clipPath></defs><path fill="url(#e)" d="M 0,0 H 1024 V 1024 H 0 Z" clip-path="url(#f)" paint-order="markers stroke fill"/><path fill="url(#g)" d="m 519.1679,572.14215 c 64.59514,-3.55367 122.31675,56.98612 115.69897,121.34887 -2.22024,59.59347 -57.5989,111.98465 -117.94877,106.10952 -70.09534,2.5729 -124.34712,-72.63656 -107.49703,-138.65594 10.01427,-50.80038 58.33922,-88.78875 109.74683,-88.80245 z" paint-order="markers stroke fill" style="mix-blend-mode:normal"/><path fill="url(#h)" d="m 298.21099,73.338126 c 14.11945,29.015634 37.16838,55.401734 46.09311,87.785024 25.73603,67.46412 7.05909,141.84603 -26.42995,203.01481 -51.29604,100.72566 -101.07996,211.79122 -86.72908,327.48544 14.49416,104.5134 88.78156,200.41615 191.02804,231.44527 102.63705,34.26121 223.55362,0.13372 292.36818,-83.62133 47.21658,-55.04542 74.71424,-131.30392 61.77562,-203.77804 -19.6849,-80.58268 -82.48034,-147.64406 -161.90101,-171.91429 -48.12414,-16.07974 -95.5673,-40.12482 -127.29219,-80.85759 -7.8939,25.91129 -16.86017,58.19958 -26.27593,87.12075 -8.88555,31.31974 -22.18127,61.71332 -28.58736,93.52265 26.35146,-10.36296 57.2707,-28.25518 89.2339,-25.83902 80.45183,-1.55944 151.2063,71.93313 148.03014,152.12772 -0.64891,78.31296 -72.03239,147.86033 -150.71119,144.72083 -78.37776,0.3545 -145.55364,-69.02005 -147.89859,-146.41896 -1.0743,-58.73423 22.79841,-114.35834 38.89688,-169.99882 C 440.97743,425.76041 470.85889,327.68555 458.8105,229.14942 452.67636,160.38449 405.22121,93.716971 335.66518,78.72441 323.44226,75.575084 310.88951,73.092157 298.21099,73.338126 Z" paint-order="markers stroke fill" style="mix-blend-mode:normal"/><path fill="url(#i)" d="m 563.34239,123.77316 c -31.52644,21.89559 -60.8127,53.43777 -70.53273,91.22358 6.68751,40.12146 2.00787,81.09899 1.40179,121.1511 17.16095,60.54331 79.86618,88.15406 134.48679,106.57947 66.59479,22.97728 124.34927,71.72363 152.67924,136.91969 6.60933,12.88019 29.33328,69.10171 26.84003,22.80885 C 810.48358,522.59994 776.51794,442.32108 714.00305,391.68658 667.84421,350.24164 602.63872,327.82954 574.11752,268.78285 549.41988,225.45823 550.88205,172.36122 565.55653,125.9873 l -1.10706,-1.10706 z" paint-order="markers stroke fill" style="mix-blend-mode:normal"/></svg>