<svg xmlns="http://www.w3.org/2000/svg" xmlns:xlink="http://www.w3.org/1999/xlink" width="1024" height="1024"><defs><linearGradient id="d"><stop offset=".286" stop-color="#1a1a1a"/><stop offset="1" stop-color="#4f4f4f"/></linearGradient><linearGradient id="a"><stop offset=".045" stop-color="#7f24ce"/><stop offset=".468" stop-color="#b846e4"/><stop offset=".848" stop-color="#d055ee"/><stop offset="1" stop-color="#f87cfe"/></linearGradient><linearGradient id="b"><stop offset=".154" stop-color="#7f24ce"/><stop offset="1" stop-color="#f76dfe"/></linearGradient><linearGradient id="c"><stop offset=".095" stop-color="#7f24ce"/><stop offset="1" stop-color="#f76dfe"/></linearGradient><linearGradient xlink:href="#a" id="i" x1="446.116" x2="636.156" y1="764.139" y2="347.016" gradientTransform="matrix(1.0389 .02226 -.02756 .99988 -48.177 -46.157)" gradientUnits="userSpaceOnUse"/><linearGradient xlink:href="#b" id="h" x1="353.386" x2="480.315" y1="648.132" y2="384.907" gradientTransform="rotate(1.4 2002.397 -1407.36)" gradientUnits="userSpaceOnUse"/><linearGradient xlink:href="#c" id="g" x1="544.479" x2="613.662" y1="694.136" y2="580.248" gradientTransform="matrix(1.11675 0 0 1.0324 -97.858 -11.212)" gradientUnits="userSpaceOnUse"/><linearGradient xlink:href="#d" id="e" x1="3.364" x2="1022.318" y1="1023.311" y2="-.993" gradientUnits="userSpaceOnUse"/><linearGradient xlink:href="#a" id="f" x1="0" x2="220.142" y1="1025.725" y2="823.541" gradientUnits="userSpaceOnUse"/></defs><path fill="url(#e)" d="M0 0H1024V1024H0z"/><path fill="url(#f)" d="M 400.91797,1024 0,623.08203 V 1024 Z" display="none"/><g transform="matrix(-1.41307 -.0382 -.03746 1.44073 1256.99 -170.833)"><ellipse cx="534.983" cy="646.916" fill="url(#g)" rx="72.271" ry="66.813" transform="matrix(.99665 -.08173 -.02443 .9997 0 0)"/><path fill="url(#h)" d="m 404.86967,295.69403 c 24.41384,46.26919 -3.18997,102.71838 -43.76659,129.58377 -50.43398,44.73561 -77.83803,126.23401 -39.93199,186.82696 3.04603,-24.2343 5.78164,-65.82415 25.28612,-91.3723 18.3948,-32.32588 49.06873,-54.25496 79.60879,-73.87935 48.16822,-41.17941 28.4258,-120.65733 -21.19633,-151.15908 z"/><path fill="url(#i)" d="m 591.65861,177.60633 c -98.19968,14.76327 -156.67643,140.65404 -96.17104,218.38158 42.44255,63.37558 123.51033,105.25399 135.44315,185.34967 9.2738,46.48306 -23.35055,91.38898 -68.36327,106.58437 -53.61973,22.97385 -131.56989,3.10558 -146.66344,-56.45524 -14.55014,-68.97103 61.80506,-131.67069 130.29433,-124.37138 -21.79296,-21.50625 -50.01812,-75.24559 -67.68661,-76.07927 -18.48477,44.15998 -76.90459,51.16439 -101.71403,91.00863 -47.48637,58.30216 -49.84716,155.56603 16.22862,201.76997 98.87175,74.71261 261.73929,25.83405 306.19178,-85.97419 32.61526,-78.77835 15.67073,-176.36769 -50.78328,-233.93599 -43.11666,-42.8952 -100.6067,-86.58396 -101.05913,-151.9387 -0.2534,-30.31857 17.97714,-58.42089 44.28292,-74.33945 z"/></g></svg>