<?xml version="1.0" encoding="UTF-8" standalone="no"?>
<svg
   width="800"
   height="600"
   version="1.1"
   id="svg15"
   xml:space="preserve"
   xmlns:xlink="http://www.w3.org/1999/xlink"
   xmlns="http://www.w3.org/2000/svg"
   xmlns:svg="http://www.w3.org/2000/svg"><defs
     id="defs12"><linearGradient
       id="c"><stop
         offset=".045"
         stop-color="#7f24ce"
         id="stop1" /><stop
         offset=".468"
         stop-color="#b846e4"
         id="stop2" /><stop
         offset=".825"
         stop-color="#d055ee"
         id="stop3" /><stop
         offset="1"
         stop-color="#f87cfe"
         id="stop4" /></linearGradient><linearGradient
       id="b"><stop
         offset=".045"
         stop-color="#7f24ce"
         id="stop5" /><stop
         offset=".478"
         stop-color="#b846e4"
         id="stop6" /><stop
         offset=".848"
         stop-color="#d055ee"
         id="stop7" /><stop
         offset="1"
         stop-color="#f87cfe"
         id="stop8" /></linearGradient><linearGradient
       id="a"><stop
         offset=".045"
         stop-color="#7f24ce"
         id="stop9" /><stop
         offset=".468"
         stop-color="#b846e4"
         id="stop10" /><stop
         offset=".848"
         stop-color="#d055ee"
         id="stop11" /><stop
         offset="1"
         stop-color="#f87cfe"
         id="stop12" /></linearGradient><linearGradient
       xlink:href="#a"
       id="g"
       x1="635.83099"
       x2="721.82202"
       y1="589.77802"
       y2="368.40799"
       gradientTransform="matrix(0.35371721,0,0,0.35371721,218.44129,14.664153)"
       gradientUnits="userSpaceOnUse" /><linearGradient
       xlink:href="#b"
       id="f"
       x1="269.58499"
       x2="488.26999"
       y1="847.20398"
       y2="393.07901"
       gradientTransform="matrix(0.35371721,0,0,0.35371721,218.44129,14.664153)"
       gradientUnits="userSpaceOnUse" /><linearGradient
       xlink:href="#c"
       id="d"
       x1="496.51901"
       x2="635.83099"
       y1="813.47699"
       y2="589.77802"
       gradientTransform="matrix(0.35371721,0,0,0.35371721,218.44129,14.664153)"
       gradientUnits="userSpaceOnUse" /></defs><g
     id="g2"
     transform="matrix(1.0819128,0,0,1.0819128,-32.916807,-15.826834)"><path
       fill="url(#d)"
       stroke="#ffffff"
       stroke-linecap="round"
       stroke-linejoin="round"
       stroke-width="24.032"
       d="m 402.09413,218.56106 c 24.30683,-1.33723 46.02719,21.44359 43.53696,45.66297 -0.83546,22.42474 -21.67417,42.13929 -44.38354,39.9285 -26.37653,0.96815 -46.79122,-27.33278 -40.4506,-52.17555 3.76832,-19.11593 21.95275,-33.41077 41.29718,-33.41592 z"
       paint-order="markers stroke fill"
       style="mix-blend-mode:normal;fill:url(#d);stroke:none;stroke-width:4.70995;stroke-dasharray:none"
       id="path12" /><path
       fill="url(#f)"
       stroke="#ffffff"
       stroke-linecap="round"
       stroke-linejoin="round"
       stroke-width="24.032"
       d="m 318.94914,30.863555 c 5.31307,10.918451 13.98627,20.847397 17.34461,33.033086 9.68434,25.386414 2.65629,53.375949 -9.94546,76.393449 -19.30246,37.90258 -38.03589,79.696 -32.63573,123.23116 5.45408,39.32789 33.40807,75.41563 71.88292,87.09173 38.62181,12.89232 84.12212,0.0505 110.01669,-31.46629 17.76739,-20.71334 28.1146,-49.40904 23.24588,-76.6807 -7.40735,-30.32286 -31.03697,-55.55771 -60.92256,-64.69048 -18.10887,-6.05073 -35.9615,-15.09878 -47.89942,-30.42631 -2.97043,9.75028 -6.3444,21.90021 -9.8875,32.78309 -3.34359,11.78548 -8.3467,23.22244 -10.75728,35.19213 9.91591,-3.89953 21.55067,-10.63228 33.57827,-9.72309 30.27361,-0.58683 56.8982,27.06807 55.703,57.24492 -0.24418,29.46876 -27.10543,55.63908 -56.71187,54.45772 -29.49316,0.13339 -54.77112,-25.97189 -55.65351,-55.09675 -0.40426,-22.10138 8.57893,-43.03245 14.63672,-63.96969 11.72754,-34.75919 22.97179,-71.66428 18.43805,-108.742952 -2.30826,-25.875905 -20.16539,-50.962562 -46.33899,-56.60419 -4.59942,-1.185069 -9.32296,-2.119379 -14.09382,-2.026833 z"
       paint-order="markers stroke fill"
       style="mix-blend-mode:normal;fill:url(#f);stroke:none;stroke-width:4.70995;stroke-dasharray:none"
       id="path13" /><path
       fill="url(#g)"
       stroke="#ffffff"
       stroke-linecap="round"
       stroke-linejoin="round"
       stroke-width="24.032"
       d="m 418.71677,49.842014 c -11.86324,8.2392 -22.8835,20.108385 -26.54111,34.326987 2.51646,15.097525 0.75554,30.517129 0.52748,45.588569 6.4576,22.78215 30.05325,33.17193 50.60673,40.10532 25.05927,8.64624 46.792,26.98924 57.45244,51.52221 2.48705,4.84675 11.03796,26.00261 10.09977,8.58285 0.85271,-30.04937 -11.92839,-60.25794 -35.45242,-79.31143 C 458.0403,135.06099 433.5038,126.62744 422.7714,104.40845 413.47781,88.105611 414.02801,68.125466 419.54995,50.675189 l -0.41659,-0.416587 z"
       paint-order="markers stroke fill"
       style="mix-blend-mode:normal;fill:url(#g);stroke:none;stroke-width:4.70995;stroke-dasharray:none"
       id="path14" /></g><g
     fill="#414042"
     stroke="#ffffff"
     stroke-linejoin="round"
     stroke-width="14"
     font-family="'Inter Alia'"
     paint-order="stroke fill markers"
     id="g15"
     style="stroke:none;stroke-width:5;stroke-dasharray:none;stroke-opacity:1"
     transform="translate(-277.50403,311.63921)"><text
       xml:space="preserve"
       style="font-style:normal;font-variant:normal;font-weight:900;font-stretch:normal;font-size:133.333px;font-family:'Inter Alia';-inkscape-font-specification:'Inter Alia Heavy';letter-spacing:3px;fill:#b2b2b2;fill-opacity:1;stroke:none"
       x="401.63922"
       y="202.63412"
       id="text1"><tspan
         id="tspan1"
         x="401.63922"
         y="202.63412">Blazium</tspan></text></g><text
     xml:space="preserve"
     style="font-style:normal;font-variant:normal;font-weight:900;font-stretch:normal;font-size:42.6667px;font-family:'Inter Alia';-inkscape-font-specification:'Inter Alia Heavy';letter-spacing:1px;fill:#b2b2b2;fill-opacity:1;stroke:none"
     x="256.50809"
     y="566.15344"
     id="text2"><tspan
       id="tspan2"
       x="256.50809"
       y="566.15344">Game engine</tspan></text></svg>
