<?xml version="1.0" encoding="UTF-8" standalone="no"?>
<svg
   width="800"
   height="600"
   version="1.1"
   id="svg15"
   xmlns:xlink="http://www.w3.org/1999/xlink"
   xmlns="http://www.w3.org/2000/svg"
   xmlns:svg="http://www.w3.org/2000/svg">
  <defs
     id="defs12">
    <linearGradient
       id="c">
      <stop
         offset=".045"
         stop-color="#7f24ce"
         id="stop1" />
      <stop
         offset=".468"
         stop-color="#b846e4"
         id="stop2" />
      <stop
         offset=".825"
         stop-color="#d055ee"
         id="stop3" />
      <stop
         offset="1"
         stop-color="#f87cfe"
         id="stop4" />
    </linearGradient>
    <linearGradient
       id="b">
      <stop
         offset=".045"
         stop-color="#7f24ce"
         id="stop5" />
      <stop
         offset=".478"
         stop-color="#b846e4"
         id="stop6" />
      <stop
         offset=".848"
         stop-color="#d055ee"
         id="stop7" />
      <stop
         offset="1"
         stop-color="#f87cfe"
         id="stop8" />
    </linearGradient>
    <linearGradient
       id="a">
      <stop
         offset=".045"
         stop-color="#7f24ce"
         id="stop9" />
      <stop
         offset=".468"
         stop-color="#b846e4"
         id="stop10" />
      <stop
         offset=".848"
         stop-color="#d055ee"
         id="stop11" />
      <stop
         offset="1"
         stop-color="#f87cfe"
         id="stop12" />
    </linearGradient>
    <linearGradient
       xlink:href="#a"
       id="g"
       x1="635.83099"
       x2="721.82202"
       y1="589.77802"
       y2="368.40799"
       gradientTransform="matrix(0.35371721,0,0,0.35371721,226.44129,-1.3358467)"
       gradientUnits="userSpaceOnUse" />
    <linearGradient
       xlink:href="#b"
       id="f"
       x1="269.58499"
       x2="488.26999"
       y1="847.20398"
       y2="393.07901"
       gradientTransform="matrix(0.35371721,0,0,0.35371721,226.44129,-1.3358467)"
       gradientUnits="userSpaceOnUse" />
    <linearGradient
       xlink:href="#c"
       id="d"
       x1="496.51901"
       x2="635.83099"
       y1="813.47699"
       y2="589.77802"
       gradientTransform="matrix(0.35371721,0,0,0.35371721,226.44129,-1.3358467)"
       gradientUnits="userSpaceOnUse" />
  </defs>
  <path
     fill="url(#d)"
     stroke="#ffffff"
     stroke-linecap="round"
     stroke-linejoin="round"
     stroke-width="24.032"
     d="m 410.09413,202.56106 c 24.30683,-1.33723 46.02719,21.44359 43.53696,45.66297 -0.83546,22.42474 -21.67417,42.13929 -44.38354,39.9285 -26.37653,0.96815 -46.79122,-27.33278 -40.4506,-52.17555 3.76832,-19.11593 21.95275,-33.41077 41.29718,-33.41592 z"
     paint-order="markers stroke fill"
     style="mix-blend-mode:normal;fill:url(#d);stroke-width:4.70995;stroke-dasharray:none"
     id="path12" />
  <path
     fill="url(#f)"
     stroke="#ffffff"
     stroke-linecap="round"
     stroke-linejoin="round"
     stroke-width="24.032"
     d="m 326.94914,14.863555 c 5.31307,10.918451 13.98627,20.847397 17.34461,33.033086 9.68434,25.386414 2.65629,53.375949 -9.94546,76.393449 -19.30246,37.90258 -38.03589,79.696 -32.63573,123.23116 5.45408,39.32789 33.40807,75.41563 71.88292,87.09173 38.62181,12.89232 84.12212,0.0505 110.01669,-31.46629 17.76739,-20.71334 28.1146,-49.40904 23.24588,-76.6807 -7.40735,-30.32286 -31.03697,-55.55771 -60.92256,-64.69048 -18.10887,-6.05073 -35.9615,-15.09878 -47.89942,-30.42631 -2.97043,9.75028 -6.3444,21.90021 -9.8875,32.78309 -3.34359,11.78548 -8.3467,23.22244 -10.75728,35.19213 9.91591,-3.89953 21.55067,-10.63228 33.57827,-9.72309 30.27361,-0.58683 56.8982,27.06807 55.703,57.24492 -0.24418,29.46876 -27.10543,55.63908 -56.71187,54.45772 -29.49316,0.13339 -54.77112,-25.97189 -55.65351,-55.09675 -0.40426,-22.10138 8.57893,-43.03245 14.63672,-63.96969 11.72754,-34.75919 22.97179,-71.66428 18.43805,-108.742952 -2.30826,-25.875905 -20.16539,-50.962562 -46.33899,-56.60419 -4.59942,-1.185069 -9.32296,-2.119379 -14.09382,-2.026833 z"
     paint-order="markers stroke fill"
     style="mix-blend-mode:normal;fill:url(#f);stroke-width:4.70995;stroke-dasharray:none"
     id="path13" />
  <path
     fill="url(#g)"
     stroke="#ffffff"
     stroke-linecap="round"
     stroke-linejoin="round"
     stroke-width="24.032"
     d="m 426.71677,33.842014 c -11.86324,8.2392 -22.8835,20.108385 -26.54111,34.326987 2.51646,15.097525 0.75554,30.517131 0.52748,45.588569 6.4576,22.78215 30.05325,33.17193 50.60673,40.10532 25.05927,8.64624 46.792,26.98924 57.45244,51.52221 2.48705,4.84675 11.03796,26.00261 10.09977,8.58285 0.85271,-30.04937 -11.92839,-60.25794 -35.45242,-79.31143 C 466.0403,119.06099 441.5038,110.62744 430.7714,88.408451 421.47781,72.105611 422.02801,52.125466 427.54995,34.675189 l -0.41659,-0.416587 z"
     paint-order="markers stroke fill"
     style="mix-blend-mode:normal;fill:url(#g);stroke-width:4.70995;stroke-dasharray:none"
     id="path14" />
  <g
     fill="#414042"
     stroke="#ffffff"
     stroke-linejoin="round"
     stroke-width="14"
     font-family="'Inter Alia'"
     paint-order="stroke fill markers"
     id="g15"
     style="stroke:#ffffff;stroke-width:5;stroke-dasharray:none;stroke-opacity:1"
     transform="translate(-271.21585,293.63921)">
    <path
       style="font-weight:700;font-size:146.667px;-inkscape-font-specification:'Inter Alia, Bold';stroke:#ffffff;stroke-width:4.99999;stroke-dasharray:none;stroke-opacity:1"
       d="m 442.29226,158.05265 q 0,8.14756 -3.31938,14.56 -3.24393,6.41243 -8.9774,10.6371 -6.63876,4.97906 -14.63544,7.09139 -7.92125,2.11234 -20.14259,2.11234 H 346.18118 V 80.122698 h 43.60456 q 13.57927,0 19.84083,0.905288 6.33699,0.905289 12.52311,3.99834 6.41243,3.243944 9.50548,8.751087 3.1685,5.431707 3.1685,12.447677 0,8.14756 -4.3001,14.40911 -4.30011,6.18611 -12.1459,9.65637 v 0.60353 q 11.01429,2.18777 17.42672,9.05285 6.48788,6.86507 6.48788,18.1057 z m -37.11668,-46.16954 q 0,-2.79129 -1.43336,-5.58259 -1.35794,-2.79129 -4.90363,-4.14922 -3.1685,-1.20705 -7.92125,-1.28248 -4.67731,-0.15089 -13.20207,-0.15089 h -2.71585 v 23.76374 h 4.52642 q 6.86507,0 11.69327,-0.22633 4.82818,-0.22632 7.61948,-1.5088 3.92289,-1.73513 5.12994,-4.45099 1.20705,-2.7913 1.20705,-6.41244 z m 7.0914,45.71689 q 0,-5.35627 -2.11233,-8.22301 -2.03689,-2.94217 -7.01596,-4.37553 -3.39482,-0.98073 -9.35461,-1.05617 -5.9598,-0.0754 -12.44766,-0.0754 h -6.337 v 27.98839 h 2.11233 q 12.22135,0 17.50217,-0.0754 5.28083,-0.0754 9.73181,-1.96145 4.52643,-1.88601 6.18612,-4.97906 1.73513,-3.1685 1.73513,-7.24229 z m 77.25098,34.85348 H 462.35941 V 75.068189 h 27.15855 z m 76.94922,-22.10405 v -17.65306 q -5.50715,0.45265 -11.91959,1.28249 -6.41243,0.75441 -9.73181,1.81058 -4.07378,1.28248 -6.26156,3.77201 -2.11233,2.4141 -2.11233,6.41244 0,2.64041 0.45265,4.3001 0.45264,1.65969 2.26321,3.1685 1.73513,1.5088 4.14922,2.26321 2.4141,0.67896 7.54404,0.67896 4.07379,0 8.22301,-1.65968 4.22466,-1.6597 7.39316,-4.37555 z m 0,13.12663 q -2.18778,1.65969 -5.43171,3.99834 -3.24394,2.33866 -6.11067,3.69658 -3.99835,1.81058 -8.29845,2.64042 -4.30011,0.90529 -9.43005,0.90529 -12.07047,0 -20.21803,-7.4686 -8.14757,-7.4686 -8.14757,-19.08643 0,-9.27917 4.14922,-15.16352 4.14923,-5.88436 11.76872,-9.27917 7.54403,-3.39482 18.70921,-4.82819 11.16519,-1.43337 23.16021,-2.11233 v -0.45264 q 0,-7.01596 -5.73347,-9.65638 -5.73347,-2.71585 -16.89865,-2.71585 -6.71421,0 -14.33369,2.41409 -7.61948,2.33865 -10.93885,3.62114 h -2.48953 v -20.44434 q 4.3001,-1.13162 13.95647,-2.64042 9.73181,-1.58425 19.46362,-1.58425 23.16021,0 33.42011,7.16684 10.33534,7.0914 10.33534,22.33036 v 57.63648 h -26.93223 z m 125.00474,8.97742 h -79.58963 v -17.42674 l 44.66072,-47.45202 h -42.85015 v -19.84083 h 76.94922 v 17.12497 l -43.98176,47.37658 h 44.8116 z m 46.24499,0 h -27.15854 v -84.71959 h 27.15854 z m 0.75441,-96.790056 H 709.80396 V 75.068189 h 28.66736 z m 109.31314,96.790056 h -27.15855 v -9.35462 q -7.54404,5.73347 -13.80559,8.75109 -6.26156,2.94217 -14.9372,2.94217 -14.03193,0 -21.65141,-8.07212 -7.54403,-8.07212 -7.54403,-23.83917 v -55.14694 h 27.30943 v 42.02031 q 0,6.41243 0.37719,10.71254 0.45265,4.22466 1.96145,7.01595 1.43337,2.7913 4.3001,4.07379 2.94218,1.28248 8.14757,1.28248 3.47027,0 7.69492,-1.28248 4.22467,-1.28249 8.14757,-3.77202 v -60.05057 h 27.15855 z M 956.2678,132.4029 v 60.05058 H 928.95835 V 150.1314 q 0,-6.18611 -0.30176,-10.48622 -0.30176,-4.37553 -1.6597,-7.0914 -1.35792,-2.71585 -4.14922,-3.92289 -2.71585,-1.28249 -7.69491,-1.28249 -3.99834,0 -7.77037,1.65969 -3.77202,1.58425 -6.78964,3.39481 v 60.05058 h -27.15854 v -84.71959 h 27.15854 v 9.35461 q 7.01596,-5.50715 13.4284,-8.6002 6.41243,-3.09307 14.18279,-3.09307 8.37389,0 14.78632,3.77203 6.41244,3.69657 10.03353,10.93886 8.14758,-6.86508 15.84249,-10.78798 7.69492,-3.92291 15.08814,-3.92291 13.73017,0 20.82158,8.22301 7.1668,8.22301 7.1668,23.68829 v 55.14695 H 984.63335 V 150.1314 q 0,-6.26155 -0.3017,-10.56165 -0.22638,-4.3001 -1.58424,-7.01597 -1.28254,-2.71585 -4.07379,-3.92289 -2.79135,-1.28249 -7.84587,-1.28249 -3.39475,0 -6.63876,1.20704 -3.2439,1.13161 -7.92119,3.84746 z"
       id="text14"
       aria-label="Blazium" />
    <path
       style="font-size:66.667px;-inkscape-font-specification:'Inter Alia, Normal';stroke:#ffffff;stroke-width:3;stroke-dasharray:none;stroke-opacity:1"
       d="m 490.47206,264.5039 q -4.18352,1.92032 -9.15575,3.36055 -4.93793,1.40594 -9.56723,1.40594 -5.96667,0 -10.9389,-1.64598 -4.97222,-1.64598 -8.46993,-4.93793 -3.53199,-3.32625 -5.45229,-8.29847 -1.92031,-5.00652 -1.92031,-11.69329 0,-12.24196 7.13257,-19.30595 7.16686,-7.09827 19.64886,-7.09827 4.35497,0 8.88141,1.06303 4.56073,1.02873 9.80728,3.53199 v 8.05843 h -0.61724 q -1.06303,-0.82299 -3.08621,-2.16035 -2.02319,-1.33735 -3.97777,-2.22892 -2.3661,-1.06303 -5.38373,-1.74886 -2.98333,-0.7201 -6.78965,-0.7201 -8.57279,0 -13.57931,5.52087 -4.97223,5.4866 -4.97223,14.88237 0,9.91016 5.21227,15.43104 5.21226,5.48659 14.19656,5.48659 3.29194,0 6.5496,-0.65153 3.29196,-0.65153 5.76092,-1.68027 v -12.51628 h -13.68217 v -5.96667 h 20.40325 z m 41.11513,3.77204 h -6.41245 v -4.08066 q -0.85728,0.58296 -2.3318,1.64598 -1.44023,1.02874 -2.81188,1.64598 -1.61169,0.7887 -3.70344,1.30307 -2.09177,0.54866 -4.90365,0.54866 -5.17796,0 -8.77854,-3.42912 -3.60058,-3.42912 -3.60058,-8.74426 0,-4.35497 1.85173,-7.02969 1.88602,-2.709 5.34943,-4.2521 3.49769,-1.54311 8.40134,-2.09177 4.90364,-0.54866 10.52739,-0.82299 v -0.99444 q 0,-2.19463 -0.7887,-3.63487 -0.75441,-1.44022 -2.19463,-2.26322 -1.37165,-0.78869 -3.29196,-1.06302 -1.9203,-0.27433 -4.01207,-0.27433 -2.53755,0 -5.65804,0.68582 -3.1205,0.65153 -6.44674,1.92031 h -0.34291 v -6.54961 q 1.88601,-0.51438 5.45229,-1.13162 3.56629,-0.61724 7.02969,-0.61724 4.04637,0 7.02969,0.68583 3.01763,0.65153 5.21227,2.26322 2.16035,1.57739 3.29195,4.08064 1.13161,2.50327 1.13161,6.20671 z m -6.41245,-9.43008 v -10.66455 q -2.94904,0.17145 -6.96111,0.51436 -3.97778,0.34291 -6.30957,0.99444 -2.7776,0.78871 -4.49216,2.46898 -1.71455,1.64597 -1.71455,4.56073 0,3.29194 1.98889,4.97221 1.98888,1.64598 6.06954,1.64598 3.39482,0 6.2067,-1.30307 2.81188,-1.33735 5.21226,-3.18908 z m 74.72049,9.43008 h -6.44674 v -21.8092 q 0,-2.46896 -0.24004,-4.76647 -0.20575,-2.29751 -0.92587,-3.66916 -0.78869,-1.47452 -2.26321,-2.22893 -1.47452,-0.75439 -4.25211,-0.75439 -2.709,0 -5.41801,1.37164 -2.70899,1.33735 -5.418,3.42912 0.10292,0.78869 0.17145,1.85172 0.0686,1.02874 0.0686,2.05748 v 24.51819 h -6.44674 v -21.8092 q 0,-2.53754 -0.24003,-4.80076 -0.20576,-2.29751 -0.92586,-3.66916 -0.78871,-1.47452 -2.26322,-2.19464 -1.47453,-0.75439 -4.25211,-0.75439 -2.64042,0 -5.31514,1.30305 -2.64042,1.30307 -5.28085,3.32625 v 28.59885 h -6.44674 v -38.30326 h 6.44674 v 4.25211 q 3.01763,-2.50325 6.00097,-3.90919 3.01763,-1.40595 6.41245,-1.40595 3.90919,0 6.6182,1.64598 2.74329,1.64598 4.08065,4.56073 3.90919,-3.29196 7.13257,-4.73218 3.22337,-1.47453 6.89253,-1.47453 6.30957,0 9.29291,3.84063 3.01762,3.80631 3.01762,10.66455 z m 44.47566,-18.48295 h -28.22164 q 0,3.53199 1.06302,6.17242 1.06303,2.60613 2.91475,4.2864 1.78315,1.64597 4.21782,2.46896 2.46897,0.82298 5.41802,0.82298 3.90918,0 7.85267,-1.5431 3.97778,-1.57739 5.65805,-3.0862 h 0.34291 v 7.02969 q -3.25766,1.37165 -6.65249,2.29751 -3.39482,0.92586 -7.13257,0.92586 -9.53294,0 -14.88237,-5.14368 -5.34942,-5.17797 -5.34942,-14.67663 0,-9.39578 5.10938,-14.91666 5.14368,-5.52089 13.51073,-5.52089 7.7498,0 11.93333,4.52644 4.21781,4.52645 4.21781,12.8592 z m -6.27528,-4.93793 q -0.0343,-5.07509 -2.57184,-7.85269 -2.50326,-2.77758 -7.64694,-2.77758 -5.17797,0 -8.26417,3.05192 -3.05192,3.05191 -3.46341,7.57835 z m 72.8002,4.93793 h -28.22165 q 0,3.53199 1.06303,6.17242 1.06303,2.60613 2.91475,4.2864 1.78314,1.64597 4.21782,2.46896 2.46896,0.82298 5.418,0.82298 3.9092,0 7.85269,-1.5431 3.97778,-1.57739 5.65804,-3.0862 h 0.34291 v 7.02969 q -3.25766,1.37165 -6.65249,2.29751 -3.39483,0.92586 -7.13256,0.92586 -9.53296,0 -14.88238,-5.14368 -5.34943,-5.17797 -5.34943,-14.67663 0,-9.39578 5.1094,-14.91666 5.14367,-5.52089 13.51072,-5.52089 7.74981,0 11.93333,4.52644 4.21782,4.52645 4.21782,12.8592 z m -6.27529,-4.93793 q -0.0343,-5.07509 -2.57184,-7.85269 -2.50325,-2.77758 -7.64693,-2.77758 -5.17797,0 -8.26418,3.05192 -3.05191,3.05191 -3.46341,7.57835 z m 48.07625,23.42088 h -6.44674 v -21.8092 q 0,-2.64042 -0.30862,-4.93793 -0.30862,-2.33179 -1.13161,-3.63486 -0.85728,-1.44023 -2.46897,-2.12606 -1.61168,-0.7201 -4.18352,-0.7201 -2.64042,0 -5.52088,1.30305 -2.88046,1.30307 -5.52088,3.32625 v 28.59885 h -6.44674 v -38.30326 h 6.44674 v 4.25211 q 3.01763,-2.50325 6.241,-3.90919 3.22337,-1.40595 6.61819,-1.40595 6.20671,0 9.46437,3.73775 3.25766,3.73773 3.25766,10.76743 z m 43.48123,-4.35498 q 0,9.73869 -4.42357,14.29942 -4.42356,4.56073 -13.6136,4.56073 -3.05191,0 -5.96666,-0.44579 -2.88046,-0.41148 -5.69234,-1.20019 v -6.58391 h 0.34291 q 1.57739,0.61725 5.00652,1.50882 3.42911,0.92586 6.85824,0.92586 3.29194,0 5.4523,-0.7887 2.16034,-0.78869 3.36053,-2.19463 1.20019,-1.33736 1.71456,-3.22337 0.51437,-1.88602 0.51437,-4.21782 v -3.4977 q -2.91475,2.3318 -5.58946,3.4977 -2.64043,1.13161 -6.75537,1.13161 -6.85824,0 -10.9046,-4.93793 -4.01206,-4.97223 -4.01206,-13.99081 0,-4.93793 1.37165,-8.50421 1.40593,-3.60057 3.80632,-6.2067 2.22892,-2.43468 5.418,-3.77204 3.18908,-1.37165 6.34387,-1.37165 3.32624,0 5.55517,0.68583 2.26322,0.65153 4.76648,2.02318 l 0.41149,-1.64598 h 6.03525 z m -6.44674,-6.17242 v -20.88333 q -2.57185,-1.1659 -4.80077,-1.64597 -2.19464,-0.51437 -4.38927,-0.51437 -5.31514,0 -8.36705,3.56629 -3.05192,3.56628 -3.05192,10.35594 0,6.44674 2.26322,9.77298 2.26322,3.32624 7.50977,3.32624 2.81188,0 5.62376,-1.06303 2.84617,-1.09731 5.21226,-2.91475 z m 26.06128,-34.18831 h -7.26973 v -6.68677 h 7.26973 z m -0.41149,44.71571 h -6.44675 v -38.30326 h 6.44675 z m 44.7843,0 h -6.44674 v -21.8092 q 0,-2.64042 -0.30862,-4.93793 -0.30862,-2.33179 -1.13162,-3.63486 -0.85727,-1.44023 -2.46896,-2.12606 -1.61168,-0.7201 -4.18352,-0.7201 -2.64042,0 -5.52088,1.30305 -2.88046,1.30307 -5.52088,3.32625 v 28.59885 h -6.44675 v -38.30326 h 6.44675 v 4.25211 q 3.01762,-2.50325 6.24099,-3.90919 3.22338,-1.40595 6.6182,-1.40595 6.2067,0 9.46437,3.73775 3.25766,3.73773 3.25766,10.76743 z m 44.47568,-18.48295 h -28.22165 q 0,3.53199 1.06303,6.17242 1.06302,2.60613 2.91475,4.2864 1.78314,1.64597 4.2178,2.46896 2.46898,0.82298 5.41802,0.82298 3.9092,0 7.85268,-1.5431 3.97777,-1.57739 5.65804,-3.0862 h 0.34292 v 7.02969 q -3.25767,1.37165 -6.65249,2.29751 -3.39483,0.92586 -7.13257,0.92586 -9.53295,0 -14.88237,-5.14368 -5.34943,-5.17797 -5.34943,-14.67663 0,-9.39578 5.10938,-14.91666 5.14368,-5.52089 13.51074,-5.52089 7.74981,0 11.93333,4.52644 4.21782,4.52645 4.21782,12.8592 z m -6.27529,-4.93793 q -0.0343,-5.07509 -2.57184,-7.85269 -2.50326,-2.77758 -7.64693,-2.77758 -5.17797,0 -8.26418,3.05192 -3.05191,3.05191 -3.46341,7.57835 z"
       id="text15"
       aria-label="Game engine" />
  </g>
</svg>
