<?xml version="1.0" encoding="UTF-8" standalone="no"?>
<svg
   width="1024"
   height="1024"
   version="1.1"
   id="svg6"
   sodipodi:docname="icon.svg"
   xml:space="preserve"
   inkscape:version="1.4 (e7c3feb100, 2024-10-09)"
   xmlns:inkscape="http://www.inkscape.org/namespaces/inkscape"
   xmlns:sodipodi="http://sodipodi.sourceforge.net/DTD/sodipodi-0.dtd"
   xmlns="http://www.w3.org/2000/svg"
   xmlns:svg="http://www.w3.org/2000/svg"><defs
     id="defs6" /><sodipodi:namedview
     id="namedview6"
     pagecolor="#ffffff"
     bordercolor="#000000"
     borderopacity="0.25"
     inkscape:showpageshadow="2"
     inkscape:pageopacity="0.0"
     inkscape:pagecheckerboard="0"
     inkscape:deskcolor="#d1d1d1"
     inkscape:zoom="0.27897572"
     inkscape:cx="510.79714"
     inkscape:cy="817.27542"
     inkscape:window-width="1920"
     inkscape:window-height="1017"
     inkscape:window-x="0"
     inkscape:window-y="0"
     inkscape:window-maximized="1"
     inkscape:current-layer="svg6" /><path
     id="path2-6"
     style="display:inline;fill:#8533df;fill-opacity:1;stroke-width:1.24733"
     d="M 439.09874,75.47853 C 622.86361,142.47455 659.0453,349.11014 523.799,472.64771 388.55279,596.18519 307.60445,627.8669 329.29017,743.82018 350.97598,859.77355 427.43345,886.25304 509.3914,894.01946 591.3494,901.78584 666.29778,775.9622 643.89304,707.50301 621.48829,639.04391 594.20786,600.8964 466.71216,580.87016 L 572.68134,473.08948 c 12.3857,62.52637 147.89497,122.33394 165.64511,229.27088 C 756.07662,809.29719 671.07448,967.98081 499.69366,951.54812 328.31287,935.11546 100.70838,761.07864 273.21508,481.04659 445.72179,201.01449 607.75033,216.08074 439.09874,75.47853 Z M 719.59357,289.03399 C 673.39893,561.06741 904.72029,470.27494 777.82465,788.52296 813.78032,499.21029 482.28403,530.78819 719.59357,289.03399 Z M 490.8971,637.66099 A 103.16025,103.16025 0 0 1 594.05638,740.82029 103.16025,103.16025 0 0 1 490.8971,843.98401 103.16025,103.16025 0 0 1 387.73783,740.82029 103.16025,103.16025 0 0 1 490.8971,637.66099 Z" /></svg>
