<?xml version="1.0" encoding="UTF-8" standalone="no"?>
<svg
   width="1024"
   height="1024"
   version="1.1"
   id="svg7"
   sodipodi:docname="icon_outlined.svg"
   xml:space="preserve"
   inkscape:version="1.4 (e7c3feb100, 2024-10-09)"
   xmlns:inkscape="http://www.inkscape.org/namespaces/inkscape"
   xmlns:sodipodi="http://sodipodi.sourceforge.net/DTD/sodipodi-0.dtd"
   xmlns="http://www.w3.org/2000/svg"
   xmlns:svg="http://www.w3.org/2000/svg"><defs
     id="defs7" /><sodipodi:namedview
     id="namedview7"
     pagecolor="#ffffff"
     bordercolor="#000000"
     borderopacity="0.25"
     inkscape:showpageshadow="2"
     inkscape:pageopacity="0.0"
     inkscape:pagecheckerboard="0"
     inkscape:deskcolor="#d1d1d1"
     inkscape:zoom="0.7890625"
     inkscape:cx="511.36634"
     inkscape:cy="610.85149"
     inkscape:window-width="1920"
     inkscape:window-height="1017"
     inkscape:window-x="1920"
     inkscape:window-y="0"
     inkscape:window-maximized="1"
     inkscape:current-layer="svg7" /><path
     id="path2-6"
     style="display:inline;fill:#8533df;fill-opacity:1;stroke:#ffffff;stroke-width:40;stroke-linecap:butt;stroke-linejoin:round;stroke-dasharray:none;paint-order:stroke fill markers"
     d="M 428.54255,57.364186 C 621.49566,127.71001 659.48644,344.67738 517.47782,474.39183 375.4693,604.10619 290.47354,637.37198 313.24355,759.12293 c 22.7701,121.75103 103.05044,149.5545 189.10629,157.70924 86.0559,8.1547 164.7517,-123.96012 141.22672,-195.84227 C 620.05158,649.10784 591.40712,609.05296 457.53664,588.0254 L 568.80428,474.85569 C 581.80926,540.50838 724.094,603.30633 742.73164,715.59011 761.36932,827.87379 672.11708,994.49159 492.16721,977.23726 312.21738,959.98297 73.232668,777.24431 254.36471,483.21066 435.49675,189.17695 605.62672,204.99651 428.54255,57.364186 Z M 723.06212,281.59743 C 674.55775,567.23252 917.44518,471.90042 784.20475,806.06084 821.95821,502.28254 473.8871,535.43934 723.06212,281.59743 Z M 482.93083,647.65578 A 108.31826,108.31826 0 0 1 591.24807,755.97304 108.31826,108.31826 0 0 1 482.93083,864.29495 108.31826,108.31826 0 0 1 374.61359,755.97304 108.31826,108.31826 0 0 1 482.93083,647.65578 Z" /></svg>
