<?xml version="1.0" encoding="UTF-8" standalone="no"?>
<svg
   width="1024"
   height="414"
   version="1.1"
   id="svg8"
   sodipodi:docname="logo.svg"
   xml:space="preserve"
   inkscape:version="1.4 (e7c3feb100, 2024-10-09)"
   xmlns:inkscape="http://www.inkscape.org/namespaces/inkscape"
   xmlns:sodipodi="http://sodipodi.sourceforge.net/DTD/sodipodi-0.dtd"
   xmlns="http://www.w3.org/2000/svg"
   xmlns:svg="http://www.w3.org/2000/svg"><defs
     id="defs8"><rect
       x="445.36789"
       y="118.84169"
       width="533.0569"
       height="141.34085"
       id="rect8" /></defs><sodipodi:namedview
     id="namedview8"
     pagecolor="#ffffff"
     bordercolor="#000000"
     borderopacity="0.25"
     inkscape:showpageshadow="2"
     inkscape:pageopacity="0.0"
     inkscape:pagecheckerboard="0"
     inkscape:deskcolor="#d1d1d1"
     inkscape:zoom="0.86669922"
     inkscape:cx="425.17634"
     inkscape:cy="293.06592"
     inkscape:window-width="1920"
     inkscape:window-height="1017"
     inkscape:window-x="0"
     inkscape:window-y="0"
     inkscape:window-maximized="1"
     inkscape:current-layer="svg8" /><path
     id="path2-7"
     style="display:inline;fill:#8533df;fill-opacity:1;stroke-width:0.450996"
     d="m 188.67872,47.055874 c 66.44412,24.223845 79.52638,98.937346 30.62518,143.604966 -48.90114,44.6676 -78.16972,56.12282 -70.32879,98.0482 7.84095,41.92541 35.48578,51.49963 65.11944,54.30774 29.63367,2.80809 56.73282,-42.68611 48.63193,-67.43898 -8.10094,-24.75286 -17.96474,-38.54591 -64.06351,-45.78681 l 38.31539,-38.97041 c 4.47833,22.60775 53.47458,44.23245 59.89252,82.89778 6.41797,38.66526 -24.31638,96.04071 -86.28278,90.09912 C 148.62175,357.87592 66.326498,294.9492 128.69997,193.69765 191.07345,92.446082 249.6583,97.893602 188.67872,47.055874 Z M 290.09759,124.2714 c -16.70264,98.35949 66.93655,65.53153 21.05473,180.60088 C 324.15282,200.26513 204.2933,211.68277 290.09759,124.2714 Z m -82.69006,126.05352 a 37.299784,37.299784 0 0 1 37.29945,37.29944 37.299784,37.299784 0 0 1 -37.29945,37.30103 37.299784,37.299784 0 0 1 -37.29939,-37.30103 37.299784,37.299784 0 0 1 37.29939,-37.29944 z" /><text
     xml:space="preserve"
     id="text8"
     style="fill:#000000;text-orientation:auto;text-align:start;writing-mode:lr-tb;direction:ltr;white-space:pre;shape-inside:url(#rect8)" /><text
     xml:space="preserve"
     style="font-style:normal;font-variant:normal;font-weight:bold;font-stretch:normal;font-size:12px;font-family:'Inter Alia';-inkscape-font-specification:'Inter Alia, Bold';font-variant-ligatures:normal;font-variant-caps:normal;font-variant-numeric:normal;font-variant-east-asian:normal;text-align:start;writing-mode:lr-tb;direction:ltr;text-anchor:start;fill:#414042;fill-opacity:1"
     x="413.60168"
     y="245.48973"
     id="text9"><tspan
       sodipodi:role="line"
       id="tspan9"
       x="413.60168"
       y="245.48973"
       style="font-style:normal;font-variant:normal;font-weight:bold;font-stretch:normal;font-size:146.667px;font-family:'Inter Alia';-inkscape-font-specification:'Inter Alia, Bold';font-variant-ligatures:normal;font-variant-caps:normal;font-variant-numeric:normal;font-variant-east-asian:normal;fill:#414042;fill-opacity:1">Blazium</tspan></text><text
     xml:space="preserve"
     style="font-style:normal;font-variant:normal;font-weight:500;font-stretch:normal;font-size:80px;font-family:'Inter Alia';-inkscape-font-specification:'Inter Alia, Medium';font-variant-ligatures:normal;font-variant-caps:normal;font-variant-numeric:normal;font-variant-east-asian:normal;text-align:start;writing-mode:lr-tb;direction:ltr;text-anchor:start;fill:#414042;fill-opacity:1"
     x="418.92029"
     y="329.63062"
     id="text10"><tspan
       sodipodi:role="line"
       id="tspan10"
       x="418.92029"
       y="329.63062"
       style="font-style:normal;font-variant:normal;font-weight:normal;font-stretch:normal;font-size:66.6667px;font-family:'Inter Alia';-inkscape-font-specification:'Inter Alia, Normal';font-variant-ligatures:normal;font-variant-caps:normal;font-variant-numeric:normal;font-variant-east-asian:normal">Game engine</tspan></text></svg>
