<?xml version="1.0" encoding="UTF-8" standalone="no"?>
<svg
   width="1024"
   height="414"
   version="1.1"
   id="svg2"
   sodipodi:docname="logo_outlined.svg"
   xmlns:inkscape="http://www.inkscape.org/namespaces/inkscape"
   xmlns:sodipodi="http://sodipodi.sourceforge.net/DTD/sodipodi-0.dtd"
   xmlns="http://www.w3.org/2000/svg"
   xmlns:svg="http://www.w3.org/2000/svg">
  <defs
     id="defs2" />
  <sodipodi:namedview
     id="namedview2"
     pagecolor="#ffffff"
     bordercolor="#000000"
     borderopacity="0.25"
     inkscape:showpageshadow="2"
     inkscape:pageopacity="0.0"
     inkscape:pagecheckerboard="0"
     inkscape:deskcolor="#d1d1d1" />
  <g
     stroke="#ffffff"
     stroke-linejoin="round"
     stroke-width="14"
     paint-order="stroke fill markers"
     id="g2">
    <path
       fill="#8533df"
       d="m 188.67872,47.055874 c 66.44412,24.223845 79.52638,98.937346 30.62518,143.604966 -48.90114,44.6676 -78.16972,56.12282 -70.32879,98.0482 7.84095,41.92541 35.48578,51.49963 65.11944,54.30774 29.63367,2.80809 56.73282,-42.68611 48.63193,-67.43898 -8.10094,-24.75286 -17.96474,-38.54591 -64.06351,-45.78681 l 38.31539,-38.97041 c 4.47833,22.60775 53.47458,44.23245 59.89252,82.89778 6.41797,38.66526 -24.31638,96.04071 -86.28278,90.09912 C 148.62175,357.87592 66.326498,294.9492 128.69997,193.69765 191.07345,92.446082 249.6583,97.893602 188.67872,47.055874 Z M 290.09759,124.2714 c -16.70264,98.35949 66.93655,65.53153 21.05473,180.60088 C 324.15282,200.26513 204.2933,211.68277 290.09759,124.2714 Z m -82.69006,126.05352 a 37.299784,37.299784 0 0 1 37.29945,37.29944 37.299784,37.299784 0 0 1 -37.29945,37.30103 37.299784,37.299784 0 0 1 -37.29939,-37.30103 37.299784,37.299784 0 0 1 37.29939,-37.29944 z"
       transform="matrix(1.05342,0,0,1.05342,-60.07,-15.965)"
       id="path1" />
    <text
       xml:space="preserve"
       x="413.60199"
       y="245.49001"
       fill="#414042"
       font-family="'Inter Alia'"
       font-size="12px"
       font-weight="700"
       style="-inkscape-font-specification:'Inter Alia, Bold';font-variant-ligatures:normal;font-variant-caps:normal;font-variant-numeric:normal;font-variant-east-asian:normal;text-align:start"
       transform="matrix(1.05342,0,0,1.05342,-60.07,-15.965)"
       id="text1"><tspan
         x="413.60199"
         y="245.49001"
         font-size="146.667px"
         style="-inkscape-font-specification:'Inter Alia, Bold';font-variant-ligatures:normal;font-variant-caps:normal;font-variant-numeric:normal;font-variant-east-asian:normal"
         id="tspan1">Blazium</tspan></text>
    <text
       xml:space="preserve"
       x="418.92001"
       y="329.63101"
       fill="#414042"
       font-family="'Inter Alia'"
       font-size="80px"
       font-weight="500"
       style="-inkscape-font-specification:'Inter Alia, Medium';font-variant-ligatures:normal;font-variant-caps:normal;font-variant-numeric:normal;font-variant-east-asian:normal;text-align:start"
       transform="matrix(1.05342,0,0,1.05342,-60.07,-15.965)"
       id="text2"><tspan
         x="418.92001"
         y="329.63101"
         font-size="66.667px"
         font-weight="400"
         style="-inkscape-font-specification:'Inter Alia, Normal';font-variant-ligatures:normal;font-variant-caps:normal;font-variant-numeric:normal;font-variant-east-asian:normal"
         id="tspan2">Game engine</tspan></text>
  </g>
</svg>
