<svg xmlns="http://www.w3.org/2000/svg" xmlns:xlink="http://www.w3.org/1999/xlink" xml:space="preserve" width="2000" height="2621.254" viewBox="0 0 529.167 693.54"><defs><linearGradient xlink:href="#a" id="f" x1="635.831" x2="721.822" y1="589.778" y2="368.408" gradientTransform="translate(66.624 69.601)scale(.38636)" gradientUnits="userSpaceOnUse"/><linearGradient id="a"><stop offset=".045" stop-color="#7f24ce"/><stop offset=".468" stop-color="#b846e4"/><stop offset=".848" stop-color="#d055ee"/><stop offset="1" stop-color="#f87cfe"/></linearGradient><linearGradient xlink:href="#b" id="e" x1="269.585" x2="488.27" y1="847.204" y2="393.079" gradientTransform="translate(66.624 69.601)scale(.38636)" gradientUnits="userSpaceOnUse"/><linearGradient id="b"><stop offset=".045" stop-color="#7f24ce"/><stop offset=".478" stop-color="#b846e4"/><stop offset=".848" stop-color="#d055ee"/><stop offset="1" stop-color="#f87cfe"/></linearGradient><linearGradient xlink:href="#c" id="d" x1="496.519" x2="635.831" y1="813.477" y2="589.778" gradientTransform="translate(66.624 69.601)scale(.38636)" gradientUnits="userSpaceOnUse"/><linearGradient id="c"><stop offset=".045" stop-color="#7f24ce"/><stop offset=".468" stop-color="#b846e4"/><stop offset=".825" stop-color="#d055ee"/><stop offset="1" stop-color="#f87cfe"/></linearGradient></defs><text xml:space="preserve" x="64.747" y="607.943" fill="#414042" stroke="#fff" stroke-linejoin="round" stroke-width="0" font-family="Inter Alia" font-size="102.582" font-weight="700" paint-order="stroke fill markers" style="-inkscape-font-specification:&quot;Inter Alia, Bold&quot;;font-variant-ligatures:normal;font-variant-caps:normal;font-variant-numeric:normal;font-variant-east-asian:normal;text-align:start" transform="scale(.99777 1.00223)"><tspan x="64.747" y="607.943" style="-inkscape-font-specification:&quot;Inter Alia, Bold&quot;;font-variant-ligatures:normal;font-variant-caps:normal;font-variant-numeric:normal;font-variant-east-asian:normal">Blazium</tspan></text><path fill="url(#d)" d="m 267.22779,292.31781 c 26.55029,-1.46066 50.27536,23.42277 47.55529,49.87752 -0.91258,24.49447 -23.67465,46.02861 -48.48001,43.61378 -28.81101,1.05754 -51.1099,-29.85552 -44.18408,-56.99119 4.11612,-20.88028 23.97895,-36.49449 45.1088,-36.50011 z" paint-order="markers stroke fill" style="mix-blend-mode:normal"/><path fill="url(#e)" d="m 176.40876,87.296388 c 5.80346,11.926169 15.27717,22.771542 18.94546,36.081922 10.57818,27.72951 2.90146,58.3024 -10.86339,83.44436 -21.08401,41.40086 -41.54649,87.0517 -35.64791,134.60503 5.95748,42.95773 36.49152,82.37625 78.5175,95.13002 42.18648,14.08224 91.88634,0.0549 120.17092,-34.37055 19.40723,-22.62509 30.7095,-53.9693 25.39137,-83.75806 -8.09099,-33.12158 -33.90156,-60.68555 -66.54551,-70.66124 -19.78027,-6.6092 -39.28064,-16.49235 -52.3204,-33.23456 -3.2446,10.65021 -6.92997,23.92152 -10.8001,35.80888 -3.65218,12.87323 -9.11707,25.36578 -11.75014,38.44024 10.83114,-4.25944 23.53975,-11.61362 36.67745,-10.6205 33.06779,-0.64098 62.14971,29.56638 60.84424,62.52843 -0.26671,32.18867 -29.60719,60.77445 -61.94622,59.48403 -32.21529,0.14574 -59.82633,-28.36904 -60.79015,-60.182 -0.44158,-24.14129 9.37072,-47.00425 15.98761,-69.87393 12.80999,-37.96736 25.09205,-78.27867 20.13983,-118.7796 -2.52128,-28.26416 -22.02658,-55.666247 -50.61592,-61.828578 -5.02394,-1.294446 -10.18344,-2.315003 -15.39464,-2.213894 z" paint-order="markers stroke fill" style="mix-blend-mode:normal"/><path fill="url(#f)" d="m 285.38467,108.02649 c -12.95819,8.99965 -24.99561,21.96431 -28.99081,37.49527 2.74875,16.49096 0.82529,33.33378 0.57619,49.79624 7.05359,24.88488 32.82707,36.23361 55.27756,43.80694 27.37219,9.44425 51.11079,29.48028 62.75513,56.27755 2.71662,5.2941 12.05675,28.40259 11.03196,9.37503 0.93141,-32.82286 -13.02936,-65.81956 -38.72459,-86.63166 -18.97249,-17.03494 -45.77364,-26.24689 -57.49659,-50.51662 -10.15138,-17.80754 -9.55039,-39.63179 -3.51879,-58.69267 l -0.45503,-0.45504 z" paint-order="markers stroke fill" style="mix-blend-mode:normal"/></svg>