<?xml version="1.0" encoding="UTF-8" standalone="no"?>
<svg
   xml:space="preserve"
   width="2000"
   height="2621.254"
   viewBox="0 0 529.167 693.54"
   version="1.1"
   id="svg14"
   sodipodi:docname="Blazium Logo &amp; Wordmark A.svg"
   inkscape:version="1.3 (0e150ed6c4, 2023-07-21)"
   xmlns:inkscape="http://www.inkscape.org/namespaces/inkscape"
   xmlns:sodipodi="http://sodipodi.sourceforge.net/DTD/sodipodi-0.dtd"
   xmlns:xlink="http://www.w3.org/1999/xlink"
   xmlns="http://www.w3.org/2000/svg"
   xmlns:svg="http://www.w3.org/2000/svg"><sodipodi:namedview
     id="namedview14"
     pagecolor="#ffffff"
     bordercolor="#000000"
     borderopacity="0.25"
     inkscape:showpageshadow="2"
     inkscape:pageopacity="0.0"
     inkscape:pagecheckerboard="0"
     inkscape:deskcolor="#d1d1d1"
     inkscape:zoom="0.30824942"
     inkscape:cx="1000.8129"
     inkscape:cy="1309.0049"
     inkscape:window-width="1858"
     inkscape:window-height="1057"
     inkscape:window-x="54"
     inkscape:window-y="-8"
     inkscape:window-maximized="1"
     inkscape:current-layer="svg14" /><defs
     id="defs12"><linearGradient
       xlink:href="#a"
       id="f"
       x1="635.831"
       x2="721.822"
       y1="589.778"
       y2="368.408"
       gradientTransform="translate(68.3 75.792)scale(.38017)"
       gradientUnits="userSpaceOnUse" /><linearGradient
       id="a"><stop
         offset=".045"
         stop-color="#7f24ce"
         id="stop1" /><stop
         offset=".468"
         stop-color="#b846e4"
         id="stop2" /><stop
         offset=".848"
         stop-color="#d055ee"
         id="stop3" /><stop
         offset="1"
         stop-color="#f87cfe"
         id="stop4" /></linearGradient><linearGradient
       xlink:href="#b"
       id="e"
       x1="269.585"
       x2="488.27"
       y1="847.204"
       y2="393.079"
       gradientTransform="translate(68.3 75.792)scale(.38017)"
       gradientUnits="userSpaceOnUse" /><linearGradient
       id="b"><stop
         offset=".045"
         stop-color="#7f24ce"
         id="stop5" /><stop
         offset=".478"
         stop-color="#b846e4"
         id="stop6" /><stop
         offset=".848"
         stop-color="#d055ee"
         id="stop7" /><stop
         offset="1"
         stop-color="#f87cfe"
         id="stop8" /></linearGradient><linearGradient
       xlink:href="#c"
       id="d"
       x1="496.519"
       x2="635.831"
       y1="813.477"
       y2="589.778"
       gradientTransform="translate(68.3 75.792)scale(.38017)"
       gradientUnits="userSpaceOnUse" /><linearGradient
       id="c"><stop
         offset=".045"
         stop-color="#7f24ce"
         id="stop9" /><stop
         offset=".468"
         stop-color="#b846e4"
         id="stop10" /><stop
         offset=".825"
         stop-color="#d055ee"
         id="stop11" /><stop
         offset="1"
         stop-color="#f87cfe"
         id="stop12" /></linearGradient></defs><g
     stroke="#fff"
     stroke-linejoin="round"
     stroke-width="26.458"
     paint-order="stroke fill markers"
     id="g14"
     style="stroke:none"><path
       style="font-weight:700;font-size:102.582px;font-family:'Inter Alia';-inkscape-font-specification:'Inter Alia, Bold';fill:#414042;stroke-width:15.346"
       d="m 107.97017,585.10094 q 0,5.4096 -2.20391,9.66716 -2.15383,4.25755 -5.960579,7.06253 -4.40782,3.30586 -9.71724,4.70835 -5.259331,1.40249 -13.373728,1.40249 H 44.156949 v -74.58233 h 28.951366 q 9.015996,0 13.173372,0.60107 4.207465,0.60107 8.314752,2.65471 4.257553,2.15382 6.311201,5.81031 2.10373,3.6064 2.10373,8.26466 0,5.4096 -2.85507,9.56698 -2.855062,4.10728 -8.064305,6.41137 v 0.40071 q 7.312975,1.45258 11.570525,6.01067 4.30765,4.55808 4.30765,12.02132 z M 83.326443,554.44656 q 0,-1.85329 -0.951688,-3.70658 -0.9016,-1.85329 -3.255776,-2.75489 -2.103733,-0.80142 -5.259331,-0.85151 -3.10551,-0.10018 -8.765552,-0.10018 h -1.8032 v 15.778 h 3.005333 q 4.558086,0 7.763774,-0.15027 3.205688,-0.15027 5.058976,-1.00178 2.604621,-1.15204 3.406043,-2.95524 0.801421,-1.85329 0.801421,-4.25755 z m 4.708354,30.35385 q 0,-3.55631 -1.402488,-5.45969 -1.3524,-1.95346 -4.658265,-2.90515 -2.253999,-0.65116 -6.21102,-0.70124 -3.95702,-0.0501 -8.264663,-0.0501 h -4.207465 v 18.58297 h 1.402489 q 8.114396,0 11.620617,-0.0501 3.506221,-0.0501 6.461464,-1.30231 3.005332,-1.25222 4.107287,-3.30587 1.152044,-2.10373 1.152044,-4.80853 z m 51.291003,23.14106 h -18.03199 v -77.93828 h 18.03199 z m 51.09064,-14.67604 v -11.7208 q -3.65649,0.30054 -7.91404,0.85151 -4.25756,0.50089 -6.46147,1.20214 -2.7048,0.85151 -4.15737,2.50444 -1.40249,1.60284 -1.40249,4.25755 0,1.75312 0.30053,2.85507 0.30053,1.10196 1.50267,2.10373 1.15204,1.00178 2.75489,1.50267 1.60284,0.4508 5.00888,0.4508 2.7048,0 5.45969,-1.10196 2.80498,-1.10195 4.90871,-2.90515 z m 0,8.71546 q -1.45258,1.10196 -3.6064,2.65471 -2.15382,1.55276 -4.0572,2.45436 -2.65471,1.20213 -5.50977,1.75311 -2.85507,0.60106 -6.26111,0.60106 -8.01422,0 -13.42382,-4.95879 -5.4096,-4.9588 -5.4096,-12.67249 0,-6.16093 2.75489,-10.06786 2.75489,-3.90693 7.81386,-6.16093 5.00889,-2.254 12.42204,-3.20569 7.41316,-0.95169 15.37729,-1.40249 v -0.30053 q 0,-4.65826 -3.80676,-6.41138 -3.80675,-1.80319 -11.2199,-1.80319 -4.45791,0 -9.51689,1.60284 -5.05898,1.55275 -7.26289,2.40426 h -1.65293 V 552.8938 q 2.85507,-0.75133 9.26644,-1.75311 6.46147,-1.05186 12.92293,-1.05186 15.37728,0 22.18937,4.75844 6.86217,4.70835 6.86217,14.8263 v 38.2679 h -17.88172 z m 82.99726,5.96058 h -52.84376 v -11.57053 l 29.65261,-31.5059 h -28.45048 v -13.17337 h 51.09065 v 11.37017 l -29.20181,31.45581 h 29.75279 z m 30.70446,0 h -18.03199 v -56.2498 h 18.03199 z m 0.50089,-64.26402 h -19.03377 v -13.67426 h 19.03377 z m 72.57879,64.26402 h -18.03199 v -6.21102 q -5.00889,3.80675 -9.16627,5.81031 -4.15737,1.95346 -9.91759,1.95346 -9.31653,0 -14.37551,-5.35951 -5.00888,-5.35951 -5.00888,-15.82808 v -36.61496 h 18.13217 v 27.8995 q 0,4.25755 0.25044,7.11262 0.30053,2.80497 1.30231,4.65826 0.95169,1.85329 2.85507,2.7048 1.95346,0.85151 5.4096,0.85151 2.30408,0 5.10906,-0.85151 2.80498,-0.85151 5.4096,-2.50444 v -39.87074 h 18.03199 z m 72.02778,-39.87074 v 39.87074 h -18.13217 v -28.09986 q 0,-4.10728 -0.20035,-6.96235 -0.20036,-2.90515 -1.10196,-4.70835 -0.9016,-1.8032 -2.75488,-2.60462 -1.8032,-0.85152 -5.10907,-0.85152 -2.65471,0 -5.15915,1.10196 -2.50445,1.05187 -4.508,2.254 v 39.87074 h -18.03199 v -56.2498 h 18.03199 v 6.21102 q 4.65826,-3.65649 8.91582,-5.71013 4.25755,-2.05365 9.41671,-2.05365 5.55986,0 9.81741,2.50445 4.25756,2.45435 6.66182,7.26288 5.4096,-4.55808 10.51867,-7.1627 5.10906,-2.60463 10.01777,-2.60463 9.11617,0 13.82453,5.45969 4.75844,5.45969 4.75844,15.72791 v 36.61496 h -18.13217 v -28.09986 q 0,-4.15737 -0.20036,-7.01244 -0.15026,-2.85506 -1.05186,-4.65826 -0.85151,-1.8032 -2.7048,-2.60462 -1.85329,-0.85152 -5.20924,-0.85152 -2.254,0 -4.40782,0.80143 -2.15383,0.75133 -5.25934,2.55453 z"
       id="text12"
       transform="scale(0.99777248,1.0022325)"
       aria-label="Blazium" /><path
       fill="url(#d)"
       stroke-linecap="round"
       stroke-width="24.331"
       d="m 265.68739,294.93777 c 26.12462,-1.43723 49.46934,23.04725 46.79286,49.07787 -0.89795,24.10176 -23.29508,45.29065 -47.70275,42.91455 -28.3491,1.04056 -50.29048,-29.37686 -43.47571,-56.07748 4.05013,-20.54552 23.59451,-35.9094 44.3856,-35.91494 z"
       paint-order="markers stroke fill"
       style="mix-blend-mode:normal;stroke:none"
       id="path12" /><path
       fill="url(#e)"
       stroke-linecap="round"
       stroke-width="24.331"
       d="m 176.32441,93.203352 c 5.71042,11.734958 15.03224,22.406458 18.64172,35.503438 10.4086,27.28495 2.85496,57.36767 -10.68923,82.10654 -20.74597,40.73711 -40.88039,85.65605 -35.07638,132.44699 5.86197,42.26901 35.90649,81.05555 77.25867,93.60485 41.51015,13.85647 90.41318,0.054 118.24429,-33.81951 19.09609,-22.26235 30.21714,-53.10404 24.98429,-82.41521 -7.96129,-32.59056 -33.35805,-59.71261 -65.47864,-69.52838 -19.46314,-6.50322 -38.65087,-16.22793 -51.48156,-32.70172 -3.19259,10.47946 -6.81887,23.538 -10.62695,35.23478 -3.59364,12.66683 -8.97091,24.9591 -11.56176,37.82395 10.65748,-4.19116 23.16235,-11.42743 36.08941,-10.45023 32.53765,-0.6307 61.15332,29.09236 59.86877,61.52595 -0.26245,31.67261 -29.13252,59.80008 -60.95308,58.53036 -31.69879,0.14339 -58.86717,-27.91422 -59.81554,-59.21714 -0.43449,-23.75424 9.2205,-46.25066 15.7313,-68.75369 12.6046,-37.35865 24.68976,-77.02366 19.81696,-116.87526 -2.48088,-27.81101 -21.67345,-54.77379 -49.80443,-60.83732 -4.94339,-1.273694 -10.02019,-2.277892 -15.14784,-2.178398 z"
       paint-order="markers stroke fill"
       style="mix-blend-mode:normal;stroke:none"
       id="path13" /><path
       fill="url(#f)"
       stroke-linecap="round"
       stroke-width="24.331"
       d="m 283.55316,113.6011 c -12.75044,8.85536 -24.59486,21.61216 -28.52601,36.89412 2.70469,16.22657 0.81207,32.79937 0.56696,48.99788 6.9405,24.48593 32.30077,35.65271 54.39132,43.10461 26.93335,9.29284 50.29136,29.00765 61.74902,55.37529 2.67305,5.20922 11.86344,27.94724 10.85509,9.22472 0.91647,-32.29661 -12.82046,-64.76429 -38.10375,-85.24273 -18.66831,-16.76183 -45.03978,-25.8261 -56.57478,-49.70672 -9.98861,-17.52204 -9.39727,-38.99639 -3.46237,-57.75169 l -0.44774,-0.44774 z"
       paint-order="markers stroke fill"
       style="mix-blend-mode:normal;stroke:none"
       id="path14" /></g></svg>
