<?xml version="1.0" encoding="UTF-8" standalone="no"?>
<svg
   xml:space="preserve"
   width="2000"
   height="2621.254"
   viewBox="0 0 529.167 693.54"
   version="1.1"
   id="svg14"
   sodipodi:docname="Blazium Logo &amp; Wordmark A Flat.svg"
   inkscape:version="1.4 (e7c3feb100, 2024-10-09)"
   xmlns:inkscape="http://www.inkscape.org/namespaces/inkscape"
   xmlns:sodipodi="http://sodipodi.sourceforge.net/DTD/sodipodi-0.dtd"
   xmlns:xlink="http://www.w3.org/1999/xlink"
   xmlns="http://www.w3.org/2000/svg"
   xmlns:svg="http://www.w3.org/2000/svg"><sodipodi:namedview
     id="namedview14"
     pagecolor="#ffffff"
     bordercolor="#000000"
     borderopacity="0.25"
     inkscape:showpageshadow="2"
     inkscape:pageopacity="0.0"
     inkscape:pagecheckerboard="0"
     inkscape:deskcolor="#d1d1d1"
     inkscape:zoom="0.30824942"
     inkscape:cx="1000.8129"
     inkscape:cy="1310.627"
     inkscape:window-width="1920"
     inkscape:window-height="1017"
     inkscape:window-x="0"
     inkscape:window-y="0"
     inkscape:window-maximized="1"
     inkscape:current-layer="svg14" /><defs
     id="defs12"><linearGradient
       xlink:href="#a"
       id="f"
       x1="635.831"
       x2="721.822"
       y1="589.778"
       y2="368.408"
       gradientTransform="translate(68.3 75.792)scale(.38017)"
       gradientUnits="userSpaceOnUse" /><linearGradient
       id="a"><stop
         offset=".045"
         stop-color="#7f24ce"
         id="stop1" /><stop
         offset=".468"
         stop-color="#b846e4"
         id="stop2" /><stop
         offset=".848"
         stop-color="#d055ee"
         id="stop3" /><stop
         offset="1"
         stop-color="#f87cfe"
         id="stop4" /></linearGradient><linearGradient
       xlink:href="#b"
       id="e"
       x1="269.585"
       x2="488.27"
       y1="847.204"
       y2="393.079"
       gradientTransform="translate(68.3 75.792)scale(.38017)"
       gradientUnits="userSpaceOnUse" /><linearGradient
       id="b"><stop
         offset=".045"
         stop-color="#7f24ce"
         id="stop5" /><stop
         offset=".478"
         stop-color="#b846e4"
         id="stop6" /><stop
         offset=".848"
         stop-color="#d055ee"
         id="stop7" /><stop
         offset="1"
         stop-color="#f87cfe"
         id="stop8" /></linearGradient><linearGradient
       xlink:href="#c"
       id="d"
       x1="496.519"
       x2="635.831"
       y1="813.477"
       y2="589.778"
       gradientTransform="translate(68.3 75.792)scale(.38017)"
       gradientUnits="userSpaceOnUse" /><linearGradient
       id="c"><stop
         offset=".045"
         stop-color="#7f24ce"
         id="stop9" /><stop
         offset=".468"
         stop-color="#b846e4"
         id="stop10" /><stop
         offset=".825"
         stop-color="#d055ee"
         id="stop11" /><stop
         offset="1"
         stop-color="#f87cfe"
         id="stop12" /></linearGradient></defs><g
     stroke="#fff"
     stroke-linejoin="round"
     stroke-width="26.458"
     paint-order="stroke fill markers"
     id="g14"
     style="stroke:none"><text
       xml:space="preserve"
       x="64.747"
       y="607.943"
       fill="#414042"
       stroke-width="15.346"
       font-family="Inter Alia"
       font-size="102.582"
       font-weight="700"
       style="-inkscape-font-specification:'Inter Alia, Bold';font-variant-ligatures:normal;font-variant-caps:normal;font-variant-numeric:normal;font-variant-east-asian:normal;text-align:start;stroke:none"
       transform="scale(.99777 1.00223)"
       id="text12"><tspan
         x="64.747"
         y="607.943"
         style="-inkscape-font-specification:'Inter Alia, Bold';font-variant-ligatures:normal;font-variant-caps:normal;font-variant-numeric:normal;font-variant-east-asian:normal;stroke:none"
         id="tspan12">Blazium</tspan></text><path
       fill="url(#d)"
       stroke-linecap="round"
       stroke-width="24.331"
       d="m 265.68739,294.93777 c 26.12462,-1.43723 49.46934,23.04725 46.79286,49.07787 -0.89795,24.10176 -23.29508,45.29065 -47.70275,42.91455 -28.3491,1.04056 -50.29048,-29.37686 -43.47571,-56.07748 4.05013,-20.54552 23.59451,-35.9094 44.3856,-35.91494 z"
       paint-order="markers stroke fill"
       style="mix-blend-mode:normal;stroke:none;fill:#d746fb;fill-opacity:1"
       id="path12" /><path
       fill="url(#e)"
       stroke-linecap="round"
       stroke-width="24.331"
       d="m 176.32441,93.203352 c 5.71042,11.734958 15.03224,22.406458 18.64172,35.503438 10.4086,27.28495 2.85496,57.36767 -10.68923,82.10654 -20.74597,40.73711 -40.88039,85.65605 -35.07638,132.44699 5.86197,42.26901 35.90649,81.05555 77.25867,93.60485 41.51015,13.85647 90.41318,0.054 118.24429,-33.81951 19.09609,-22.26235 30.21714,-53.10404 24.98429,-82.41521 -7.96129,-32.59056 -33.35805,-59.71261 -65.47864,-69.52838 -19.46314,-6.50322 -38.65087,-16.22793 -51.48156,-32.70172 -3.19259,10.47946 -6.81887,23.538 -10.62695,35.23478 -3.59364,12.66683 -8.97091,24.9591 -11.56176,37.82395 10.65748,-4.19116 23.16235,-11.42743 36.08941,-10.45023 32.53765,-0.6307 61.15332,29.09236 59.86877,61.52595 -0.26245,31.67261 -29.13252,59.80008 -60.95308,58.53036 -31.69879,0.14339 -58.86717,-27.91422 -59.81554,-59.21714 -0.43449,-23.75424 9.2205,-46.25066 15.7313,-68.75369 12.6046,-37.35865 24.68976,-77.02366 19.81696,-116.87526 -2.48088,-27.81101 -21.67345,-54.77379 -49.80443,-60.83732 -4.94339,-1.273694 -10.02019,-2.277892 -15.14784,-2.178398 z"
       paint-order="markers stroke fill"
       style="mix-blend-mode:normal;stroke:none;fill:#d746fb;fill-opacity:1"
       id="path13" /><path
       fill="url(#f)"
       stroke-linecap="round"
       stroke-width="24.331"
       d="m 283.55316,113.6011 c -12.75044,8.85536 -24.59486,21.61216 -28.52601,36.89412 2.70469,16.22657 0.81207,32.79937 0.56696,48.99788 6.9405,24.48593 32.30077,35.65271 54.39132,43.10461 26.93335,9.29284 50.29136,29.00765 61.74902,55.37529 2.67305,5.20922 11.86344,27.94724 10.85509,9.22472 0.91647,-32.29661 -12.82046,-64.76429 -38.10375,-85.24273 -18.66831,-16.76183 -45.03978,-25.8261 -56.57478,-49.70672 -9.98861,-17.52204 -9.39727,-38.99639 -3.46237,-57.75169 l -0.44774,-0.44774 z"
       paint-order="markers stroke fill"
       style="mix-blend-mode:normal;stroke:none;fill:#d746fb;fill-opacity:1"
       id="path14" /></g></svg>
