<?xml version="1.0" encoding="UTF-8" standalone="no"?>
<svg
   xml:space="preserve"
   width="2000"
   height="2621.254"
   viewBox="0 0 529.167 693.54"
   version="1.1"
   id="svg14"
   sodipodi:docname="Blazium Logo &amp; Wordmark - Monochrome Black.svg"
   inkscape:version="1.3 (0e150ed6c4, 2023-07-21)"
   xmlns:inkscape="http://www.inkscape.org/namespaces/inkscape"
   xmlns:sodipodi="http://sodipodi.sourceforge.net/DTD/sodipodi-0.dtd"
   xmlns:xlink="http://www.w3.org/1999/xlink"
   xmlns="http://www.w3.org/2000/svg"
   xmlns:svg="http://www.w3.org/2000/svg"><sodipodi:namedview
     id="namedview14"
     pagecolor="#ffffff"
     bordercolor="#000000"
     borderopacity="0.25"
     inkscape:showpageshadow="2"
     inkscape:pageopacity="0.0"
     inkscape:pagecheckerboard="0"
     inkscape:deskcolor="#d1d1d1"
     inkscape:zoom="0.30824942"
     inkscape:cx="1000.8129"
     inkscape:cy="1309.0049"
     inkscape:window-width="1858"
     inkscape:window-height="1057"
     inkscape:window-x="54"
     inkscape:window-y="-8"
     inkscape:window-maximized="1"
     inkscape:current-layer="g14" /><defs
     id="defs12"><linearGradient
       xlink:href="#a"
       id="f"
       x1="635.831"
       x2="721.822"
       y1="589.778"
       y2="368.408"
       gradientTransform="translate(68.3 75.792)scale(.38017)"
       gradientUnits="userSpaceOnUse" /><linearGradient
       id="a"><stop
         offset=".045"
         stop-color="#7f24ce"
         id="stop1" /><stop
         offset=".468"
         stop-color="#b846e4"
         id="stop2" /><stop
         offset=".848"
         stop-color="#d055ee"
         id="stop3" /><stop
         offset="1"
         stop-color="#f87cfe"
         id="stop4" /></linearGradient><linearGradient
       xlink:href="#b"
       id="e"
       x1="269.585"
       x2="488.27"
       y1="847.204"
       y2="393.079"
       gradientTransform="translate(68.3 75.792)scale(.38017)"
       gradientUnits="userSpaceOnUse" /><linearGradient
       id="b"><stop
         offset=".045"
         stop-color="#7f24ce"
         id="stop5" /><stop
         offset=".478"
         stop-color="#b846e4"
         id="stop6" /><stop
         offset=".848"
         stop-color="#d055ee"
         id="stop7" /><stop
         offset="1"
         stop-color="#f87cfe"
         id="stop8" /></linearGradient><linearGradient
       xlink:href="#c"
       id="d"
       x1="496.519"
       x2="635.831"
       y1="813.477"
       y2="589.778"
       gradientTransform="translate(68.3 75.792)scale(.38017)"
       gradientUnits="userSpaceOnUse" /><linearGradient
       id="c"><stop
         offset=".045"
         stop-color="#7f24ce"
         id="stop9" /><stop
         offset=".468"
         stop-color="#b846e4"
         id="stop10" /><stop
         offset=".825"
         stop-color="#d055ee"
         id="stop11" /><stop
         offset="1"
         stop-color="#f87cfe"
         id="stop12" /></linearGradient></defs><g
     stroke="#fff"
     stroke-linejoin="round"
     stroke-width="26.458"
     paint-order="stroke fill markers"
     id="g14"
     style="fill:#000000;fill-opacity:1"><path
       d="m 109.49072,586.40725 q 0,5.42166 -2.199,9.68871 -2.14901,4.26704 -5.94728,7.07828 -4.397986,3.31324 -9.695566,4.71885 -5.247602,1.40561 -13.343907,1.40561 H 45.819807 V 534.55006 H 74.70661 q 8.995894,0 13.143993,0.60241 4.198087,0.60241 8.296218,2.66063 4.248059,2.15863 6.297119,5.82326 2.09905,3.61444 2.09905,8.2831 0,5.42167 -2.84871,9.58831 -2.848701,4.11645 -8.046324,6.42567 v 0.40161 q 7.296674,1.45581 11.544724,6.02406 4.29804,4.56826 4.29804,12.04814 z M 84.901953,555.6845 q 0,-1.85742 -0.949568,-3.71484 -0.899589,-1.85742 -3.248509,-2.76103 -2.099049,-0.80321 -5.247612,-0.85341 -3.098575,-0.1004 -8.746,-0.1004 h -1.799178 v 15.81317 h 2.998631 q 4.547919,0 7.74646,-0.15059 3.198542,-0.15061 5.047699,-1.00402 2.598811,-1.15461 3.398444,-2.96183 0.799633,-1.85742 0.799633,-4.26705 z m 4.697851,30.42155 q 0,-3.56424 -1.399353,-5.47187 -1.349384,-1.95782 -4.647882,-2.91163 -2.248974,-0.65261 -6.197169,-0.70281 -3.948196,-0.0502 -8.246231,-0.0502 h -4.198083 v 18.62441 h 1.399361 q 8.096303,0 11.594704,-0.0502 3.498401,-0.0502 6.447051,-1.30522 2.998638,-1.25501 4.098131,-3.31323 1.149471,-2.10842 1.149471,-4.81925 z m 51.176626,23.19265 h -17.99178 v -78.11207 h 17.99178 z m 50.97671,-14.70876 v -11.74693 q -3.64833,0.3012 -7.8964,0.85341 -4.24805,0.502 -6.44705,1.20481 -2.69877,0.85341 -4.14811,2.51003 -1.39935,1.60642 -1.39935,4.26705 0,1.75702 0.29986,2.86143 0.29986,1.10441 1.49932,2.10842 1.14947,1.00402 2.74873,1.50602 1.59928,0.4518 4.99772,0.4518 2.69877,0 5.44752,-1.10441 2.79871,-1.10441 4.89776,-2.91163 z m 0,8.7349 q -1.44934,1.10441 -3.59836,2.66063 -2.14901,1.55621 -4.04815,2.45982 -2.64879,1.20482 -5.49749,1.75702 -2.84869,0.60241 -6.24715,0.60241 -7.99634,0 -13.39387,-4.96985 -5.39754,-4.96986 -5.39754,-12.70074 0,-6.17467 2.74875,-10.09032 2.74874,-3.91565 7.79643,-6.17467 4.99772,-2.25902 12.39434,-3.21283 7.39662,-0.95382 15.34299,-1.40562 v -0.3012 q 0,-4.66866 -3.79826,-6.42568 -3.79826,-1.80722 -11.19489,-1.80722 -4.44797,0 -9.49566,1.60643 -5.0477,1.55621 -7.24669,2.40962 h -1.64925 v -13.60435 q 2.8487,-0.75302 9.24578,-1.75702 6.44705,-1.05422 12.89411,-1.05422 15.34299,0 22.13989,4.76905 6.84687,4.71886 6.84687,14.85938 v 38.35322 h -17.84185 z m 82.81217,5.97386 H 221.8394 v -11.59633 l 29.58648,-31.57615 h -28.38703 v -13.20275 h 50.97672 V 564.319 l -29.13669,31.52596 h 29.68643 z m 30.636,0 h -17.99178 v -56.37523 h 17.99178 z m 0.49977,-64.40732 h -18.99132 v -13.70475 h 18.99132 z m 72.41694,64.40732 h -17.99179 v -6.22487 q -4.99771,3.81525 -9.14582,5.82327 -4.1481,1.95783 -9.89547,1.95783 -9.29576,0 -14.34345,-5.37147 -4.99772,-5.37146 -4.99772,-15.86337 v -36.69662 h 18.09173 v 27.96171 q 0,4.26706 0.24989,7.12848 0.29986,2.81124 1.29941,4.66866 0.94957,1.85742 2.84869,2.71083 1.94912,0.85341 5.39754,0.85341 2.29895,0 5.09767,-0.85341 2.79872,-0.85341 5.39753,-2.51003 v -39.95965 h 17.99179 z m 71.86716,-39.95965 v 39.95965 h -18.09174 v -28.16251 q 0,-4.11645 -0.1999,-6.97788 -0.19991,-2.91163 -1.0995,-4.71886 -0.89959,-1.80722 -2.74875,-2.61042 -1.79918,-0.85341 -5.09767,-0.85341 -2.64879,0 -5.14764,1.10441 -2.49887,1.05421 -4.49795,2.25902 v 39.95965 h -17.99178 v -56.37523 h 17.99178 v 6.22487 q 4.64787,-3.66464 8.89594,-5.72287 4.24805,-2.05822 9.3957,-2.05822 5.54747,0 9.79553,2.51003 4.24805,2.45983 6.64696,7.27908 5.39754,-4.56825 10.4952,-7.17868 5.09768,-2.61043 9.99544,-2.61043 9.09585,0 13.7937,5.47187 4.74783,5.47185 4.74783,15.76297 V 609.2987 H 468.7766 v -28.16251 q 0,-4.16665 -0.19991,-7.02808 -0.14994,-2.86143 -1.04953,-4.66866 -0.84961,-1.80722 -2.69876,-2.61042 -1.84915,-0.85341 -5.19763,-0.85341 -2.24897,0 -4.39799,0.8032 -2.14902,0.75302 -5.2476,2.56023 z"
       id="text12"
       style="font-weight:700;font-size:102.582px;font-family:'Inter Alia';-inkscape-font-specification:'Inter Alia, Bold';stroke-width:15.3459"
       aria-label="Blazium" /><path
       fill="url(#d)"
       stroke-linecap="round"
       stroke-width="24.331"
       d="m 265.68739,294.93777 c 26.12462,-1.43723 49.46934,23.04725 46.79286,49.07787 -0.89795,24.10176 -23.29508,45.29065 -47.70275,42.91455 -28.3491,1.04056 -50.29048,-29.37686 -43.47571,-56.07748 4.05013,-20.54552 23.59451,-35.9094 44.3856,-35.91494 z"
       paint-order="markers stroke fill"
       style="mix-blend-mode:normal;fill:#000000;fill-opacity:1"
       id="path12" /><path
       fill="url(#e)"
       stroke-linecap="round"
       stroke-width="24.331"
       d="m 176.32441,93.203352 c 5.71042,11.734958 15.03224,22.406458 18.64172,35.503438 10.4086,27.28495 2.85496,57.36767 -10.68923,82.10654 -20.74597,40.73711 -40.88039,85.65605 -35.07638,132.44699 5.86197,42.26901 35.90649,81.05555 77.25867,93.60485 41.51015,13.85647 90.41318,0.054 118.24429,-33.81951 19.09609,-22.26235 30.21714,-53.10404 24.98429,-82.41521 -7.96129,-32.59056 -33.35805,-59.71261 -65.47864,-69.52838 -19.46314,-6.50322 -38.65087,-16.22793 -51.48156,-32.70172 -3.19259,10.47946 -6.81887,23.538 -10.62695,35.23478 -3.59364,12.66683 -8.97091,24.9591 -11.56176,37.82395 10.65748,-4.19116 23.16235,-11.42743 36.08941,-10.45023 32.53765,-0.6307 61.15332,29.09236 59.86877,61.52595 -0.26245,31.67261 -29.13252,59.80008 -60.95308,58.53036 -31.69879,0.14339 -58.86717,-27.91422 -59.81554,-59.21714 -0.43449,-23.75424 9.2205,-46.25066 15.7313,-68.75369 12.6046,-37.35865 24.68976,-77.02366 19.81696,-116.87526 -2.48088,-27.81101 -21.67345,-54.77379 -49.80443,-60.83732 -4.94339,-1.273694 -10.02019,-2.277892 -15.14784,-2.178398 z"
       paint-order="markers stroke fill"
       style="mix-blend-mode:normal;fill:#000000;fill-opacity:1"
       id="path13" /><path
       fill="url(#f)"
       stroke-linecap="round"
       stroke-width="24.331"
       d="m 283.55316,113.6011 c -12.75044,8.85536 -24.59486,21.61216 -28.52601,36.89412 2.70469,16.22657 0.81207,32.79937 0.56696,48.99788 6.9405,24.48593 32.30077,35.65271 54.39132,43.10461 26.93335,9.29284 50.29136,29.00765 61.74902,55.37529 2.67305,5.20922 11.86344,27.94724 10.85509,9.22472 0.91647,-32.29661 -12.82046,-64.76429 -38.10375,-85.24273 -18.66831,-16.76183 -45.03978,-25.8261 -56.57478,-49.70672 -9.98861,-17.52204 -9.39727,-38.99639 -3.46237,-57.75169 l -0.44774,-0.44774 z"
       paint-order="markers stroke fill"
       style="mix-blend-mode:normal;fill:#000000;fill-opacity:1"
       id="path14" /></g></svg>
