<?xml version="1.0" encoding="UTF-8" standalone="no"?>
<svg
   width="1024"
   height="414"
   version="1.1"
   id="svg15"
   sodipodi:docname="Blazium Logo - Black Outline Flat.svg"
   inkscape:version="1.3 (0e150ed6c4, 2023-07-21)"
   xmlns:inkscape="http://www.inkscape.org/namespaces/inkscape"
   xmlns:sodipodi="http://sodipodi.sourceforge.net/DTD/sodipodi-0.dtd"
   xmlns:xlink="http://www.w3.org/1999/xlink"
   xmlns="http://www.w3.org/2000/svg"
   xmlns:svg="http://www.w3.org/2000/svg">
  <sodipodi:namedview
     id="namedview15"
     pagecolor="#ffffff"
     bordercolor="#000000"
     borderopacity="0.25"
     inkscape:showpageshadow="2"
     inkscape:pageopacity="0.0"
     inkscape:pagecheckerboard="0"
     inkscape:deskcolor="#d1d1d1"
     inkscape:zoom="0.86669923"
     inkscape:cx="508.25014"
     inkscape:cy="185.18535"
     inkscape:window-width="1858"
     inkscape:window-height="1057"
     inkscape:window-x="54"
     inkscape:window-y="-8"
     inkscape:window-maximized="1"
     inkscape:current-layer="svg15" />
  <defs
     id="defs12">
    <linearGradient
       id="c">
      <stop
         offset=".045"
         stop-color="#7f24ce"
         id="stop1" />
      <stop
         offset=".468"
         stop-color="#b846e4"
         id="stop2" />
      <stop
         offset=".825"
         stop-color="#d055ee"
         id="stop3" />
      <stop
         offset="1"
         stop-color="#f87cfe"
         id="stop4" />
    </linearGradient>
    <linearGradient
       id="b">
      <stop
         offset=".045"
         stop-color="#7f24ce"
         id="stop5" />
      <stop
         offset=".478"
         stop-color="#b846e4"
         id="stop6" />
      <stop
         offset=".848"
         stop-color="#d055ee"
         id="stop7" />
      <stop
         offset="1"
         stop-color="#f87cfe"
         id="stop8" />
    </linearGradient>
    <linearGradient
       id="a">
      <stop
         offset=".045"
         stop-color="#7f24ce"
         id="stop9" />
      <stop
         offset=".468"
         stop-color="#b846e4"
         id="stop10" />
      <stop
         offset=".848"
         stop-color="#d055ee"
         id="stop11" />
      <stop
         offset="1"
         stop-color="#f87cfe"
         id="stop12" />
    </linearGradient>
    <linearGradient
       xlink:href="#a"
       id="g"
       x1="635.831"
       x2="721.822"
       y1="589.778"
       y2="368.408"
       gradientTransform="translate(-23.58 17.032)scale(.3755)"
       gradientUnits="userSpaceOnUse" />
    <linearGradient
       xlink:href="#b"
       id="f"
       x1="269.585"
       x2="488.27"
       y1="847.204"
       y2="393.079"
       gradientTransform="translate(-23.58 17.032)scale(.3755)"
       gradientUnits="userSpaceOnUse" />
    <linearGradient
       xlink:href="#c"
       id="d"
       x1="496.519"
       x2="635.831"
       y1="813.477"
       y2="589.778"
       gradientTransform="translate(-23.58 17.032)scale(.3755)"
       gradientUnits="userSpaceOnUse" />
  </defs>
  <path
     fill="url(#d)"
     stroke="#fff"
     stroke-linecap="round"
     stroke-linejoin="round"
     stroke-width="24.032"
     d="m 171.38263,233.48538 c 25.80372,-1.41959 48.86166,22.76415 46.21807,48.47501 -0.8869,23.80571 -23.00891,44.73432 -47.11678,42.3874 -28.00087,1.02777 -49.67273,-29.01601 -42.94165,-55.38866 4.00038,-20.29313 23.30465,-35.46829 43.84036,-35.47375 z"
     paint-order="markers stroke fill"
     style="mix-blend-mode:normal;stroke:#000000;fill:#d746fb;fill-opacity:1"
     id="path12" />
  <path
     fill="url(#f)"
     stroke="#fff"
     stroke-linecap="round"
     stroke-linejoin="round"
     stroke-width="24.032"
     d="m 83.117367,34.229004 c 5.640272,11.590826 14.847583,22.131229 18.412733,35.067331 10.28073,26.949779 2.81987,56.662975 -10.557927,81.097955 -20.491143,40.23672 -40.378239,84.60388 -34.645517,130.82004 5.789955,41.7498 35.465416,80.05991 76.309654,92.45505 41.00023,13.68626 89.30256,0.0536 116.79179,-33.40406 18.86154,-21.98891 29.84597,-52.45176 24.67741,-81.40288 -7.8635,-32.19022 -32.9483,-58.97909 -64.67431,-68.67428 -19.22407,-6.42336 -38.17611,-16.02861 -50.84919,-32.30005 -3.15336,10.35073 -6.73511,23.24888 -10.4964,34.80197 -3.5495,12.51124 -8.86071,24.65253 -11.41974,37.35933 10.52656,-4.13966 22.87782,-11.28704 35.64611,-10.32186 32.13794,-0.62295 60.40212,28.73499 59.13333,60.77021 -0.25922,31.28352 -28.77465,59.06548 -60.20433,57.81136 -31.30942,0.14161 -58.14406,-27.57131 -59.08079,-58.48973 -0.42916,-23.46245 9.10724,-45.68252 15.53808,-67.90912 12.44975,-36.89975 24.38645,-76.07754 19.57351,-115.439607 C 144.82138,69.001262 125.86456,42.369703 98.079123,36.380651 93.196455,35.1226 88.182033,34.13075 83.117367,34.229004 Z"
     paint-order="markers stroke fill"
     style="mix-blend-mode:normal;stroke:#000000;fill:#d746fb;fill-opacity:1"
     id="path13" />
  <path
     fill="url(#g)"
     stroke="#fff"
     stroke-linecap="round"
     stroke-linejoin="round"
     stroke-width="24.032"
     d="m 189.02894,54.376199 c -12.59382,8.74659 -24.29273,21.346697 -28.17558,36.440921 2.67144,16.02727 0.80207,32.39646 0.55997,48.39603 6.85527,24.18514 31.904,35.21474 53.72321,42.5751 26.60248,9.1787 49.67357,28.65131 60.9905,54.69508 2.64021,5.14523 11.71772,27.60392 10.72174,9.11141 0.90523,-31.8999 -12.66297,-63.96877 -37.63567,-84.19563 -18.43901,-16.55595 -44.48653,-25.50886 -55.87985,-49.09615 -9.86592,-17.306803 -9.28182,-38.517372 -3.41984,-57.042282 l -0.44223,-0.442237 z"
     paint-order="markers stroke fill"
     style="mix-blend-mode:normal;stroke:#000000;fill:#d746fb;fill-opacity:1"
     id="path14" />
  <g
     fill="#414042"
     stroke="#fff"
     stroke-linejoin="round"
     stroke-width="14"
     font-family="'Inter Alia'"
     paint-order="stroke fill markers"
     id="g15"
     style="stroke:#000000;fill:#b3b3b3">
    <path
       style="font-weight:700;font-size:146.667px;-inkscape-font-specification:'Inter Alia, Bold'"
       d="m 518.44598,212.83368 q 0,7.73439 -3.15105,13.82165 -3.07943,6.08725 -8.52215,10.09768 -6.3021,4.72657 -13.89326,6.73178 -7.51955,2.00522 -19.12114,2.00522 H 427.20879 V 138.85564 h 41.39333 q 12.89065,0 18.83468,0.85938 6.01564,0.85938 11.88805,3.79558 6.08725,3.07944 9.02345,8.30731 3.00782,5.15626 3.00782,11.81644 0,7.73439 -4.08204,13.67841 -4.08204,5.87241 -11.52997,9.16669 v 0.57292 q 10.45575,2.07683 16.543,8.59377 6.15887,6.51694 6.15887,17.18754 z m -35.23445,-43.82823 q 0,-2.64974 -1.36068,-5.29949 -1.28907,-2.64974 -4.65496,-3.93881 -3.00782,-1.14584 -7.51955,-1.21745 -4.44012,-0.14323 -12.53258,-0.14323 h -2.57813 v 22.55865 h 4.29688 q 6.51694,0 11.10029,-0.21485 4.58334,-0.21484 7.23309,-1.43229 3.72396,-1.64714 4.8698,-4.22527 1.14584,-2.64975 1.14584,-6.08726 z m 6.73178,43.39854 q 0,-5.08465 -2.00521,-7.80601 -1.9336,-2.79297 -6.66017,-4.15365 -3.22267,-0.93099 -8.88023,-1.00261 -5.65757,-0.0716 -11.81643,-0.0716 h -6.01564 v 26.56907 h 2.00521 q 11.60159,0 16.61462,-0.0716 5.01303,-0.0716 9.2383,-1.86198 4.29689,-1.79037 5.87241,-4.72657 1.64714,-3.00782 1.64714,-6.87502 z m 73.33351,33.08602 H 537.49551 V 134.05745 h 25.78131 z m 73.04704,-20.98313 v -16.75785 q -5.22787,0.42969 -11.31513,1.21745 -6.08725,0.71615 -9.2383,1.71876 -3.8672,1.21745 -5.94403,3.58073 -2.00521,2.29168 -2.00521,6.08726 0,2.50651 0.42969,4.08204 0.42969,1.57552 2.14844,3.00782 1.64714,1.43229 3.93881,2.14844 2.29168,0.64453 7.16148,0.64453 3.8672,0 7.80601,-1.57552 4.01042,-1.57553 7.01824,-4.15366 z m 0,12.46097 q -2.07683,1.57552 -5.15626,3.79558 -3.07943,2.22006 -5.80079,3.50912 -3.79559,1.71876 -7.87763,2.50652 -4.08204,0.85938 -8.95184,0.85938 -11.45836,0 -19.19275,-7.08986 -7.7344,-7.08986 -7.7344,-18.11853 0,-8.80862 3.93881,-14.39457 3.93882,-5.58595 11.17191,-8.80861 7.16147,-3.22267 17.76045,-4.58335 10.59899,-1.36068 21.98573,-2.00521 v -0.42969 q 0,-6.66017 -5.44272,-9.16669 -5.44272,-2.57813 -16.0417,-2.57813 -6.37372,0 -13.60681,2.29167 -7.23309,2.22006 -10.38413,3.43751 h -2.36329 V 166.7854 q 4.08204,-1.07423 13.24873,-2.50652 9.2383,-1.50391 18.4766,-1.50391 21.98573,0 31.72534,6.8034 9.81122,6.73179 9.81122,21.19797 v 54.71367 h -25.56647 z m 118.66563,8.52216 H 679.43593 V 228.947 l 42.39593,-45.04568 h -40.67718 v -18.83468 h 73.04705 v 16.25655 l -41.7514,44.97406 h 42.53916 z m 43.89986,0 h -25.78131 v -80.42337 h 25.78131 z m 0.71615,-91.88173 h -27.21361 v -19.55083 h 27.21361 z m 103.76976,91.88173 h -25.78131 v -8.88023 q -7.16148,5.44272 -13.1055,8.30731 -5.94403,2.79297 -14.17972,2.79297 -13.32035,0 -20.55344,-7.66278 -7.16147,-7.66277 -7.16147,-22.63026 v -52.35038 h 25.92454 v 39.88942 q 0,6.08725 0.35807,10.16929 0.42969,4.01043 1.86198,6.66017 1.36068,2.64975 4.08204,3.8672 2.79298,1.21745 7.7344,1.21745 3.29428,0 7.3047,-1.21745 4.01043,-1.21745 7.7344,-3.58074 v -57.00534 h 25.78131 z m 102.98204,-57.00535 v 57.00535 h -25.92456 v -40.17588 q 0,-5.87241 -0.28646,-9.95445 -0.28646,-4.15365 -1.57553,-6.73179 -1.28906,-2.57813 -3.93881,-3.72396 -2.57813,-1.21745 -7.3047,-1.21745 -3.79558,0 -7.37632,1.57552 -3.58074,1.50391 -6.44533,3.22266 v 57.00535 h -25.78131 v -80.42337 h 25.78131 v 8.88023 q 6.66017,-5.22788 12.74743,-8.16408 6.08725,-2.93621 13.46357,-2.93621 7.94924,0 14.03649,3.58074 6.08725,3.50912 9.52472,10.38414 7.7344,-6.51694 15.0391,-10.24091 7.3047,-3.72397 14.323,-3.72397 13.0339,0 19.7657,7.80601 6.8034,7.80601 6.8034,22.48703 v 52.35039 h -25.9246 v -40.17588 q 0,-5.94402 -0.2864,-10.02606 -0.2149,-4.08204 -1.5039,-6.66018 -1.2175,-2.57813 -3.8672,-3.72396 -2.6498,-1.21745 -7.448,-1.21745 -3.2226,0 -6.3021,1.14583 -3.0794,1.07422 -7.5195,3.65235 z"
       id="text14"
       transform="translate(-109.188 -15.965)scale(1.05342)"
       aria-label="Blazium" />
    <path
       style="font-size:66.667px;-inkscape-font-specification:'Inter Alia, Normal'"
       d="m 465.86035,326.05026 q -3.97137,1.82293 -8.69145,3.19013 -4.68752,1.33464 -9.08207,1.33464 -5.66409,0 -10.38417,-1.56251 -4.72008,-1.56251 -8.04041,-4.68752 -3.35288,-3.15757 -5.1758,-7.87765 -1.82293,-4.75263 -1.82293,-11.10031 0,-11.62116 6.77087,-18.32692 6.80342,-6.73831 18.65244,-6.73831 4.13413,0 8.43103,1.00912 4.32945,0.97656 9.30994,3.35288 v 7.64978 h -0.58594 q -1.00912,-0.78126 -2.9297,-2.0508 -1.92059,-1.26953 -3.77606,-2.11589 -2.24611,-1.00912 -5.11071,-1.66017 -2.83204,-0.68359 -6.44534,-0.68359 -8.13806,0 -12.89069,5.24091 -4.72008,5.20836 -4.72008,14.12767 0,9.4076 4.94795,14.64851 4.94794,5.20836 13.47663,5.20836 3.12501,0 6.21747,-0.61849 3.12502,-0.61849 5.46878,-1.59506 v -11.88157 h -12.98834 v -5.66409 h 19.36858 z m 39.03014,3.58075 h -6.08727 v -3.87372 q -0.8138,0.55339 -2.21355,1.56251 -1.36719,0.97657 -2.66928,1.56251 -1.52996,0.7487 -3.51564,1.23699 -1.98569,0.52083 -4.65498,0.52083 -4.91538,0 -8.33337,-3.25522 -3.41799,-3.25523 -3.41799,-8.30083 0,-4.13413 1.75782,-6.67321 1.79038,-2.57162 5.07816,-4.03647 3.32032,-1.46486 7.9753,-1.98569 4.65497,-0.52084 9.99353,-0.78126 v -0.94401 q 0,-2.08334 -0.7487,-3.45054 -0.71615,-1.36719 -2.08334,-2.14845 -1.30209,-0.7487 -3.12502,-1.00912 -1.82292,-0.26041 -3.80861,-0.26041 -2.40887,0 -5.37112,0.65104 -2.96225,0.61849 -6.11982,1.82293 h -0.32552 v -6.21748 q 1.79037,-0.48829 5.1758,-1.07423 3.38544,-0.58594 6.67321,-0.58594 3.84117,0 6.67321,0.65105 2.8646,0.61849 4.94795,2.14845 2.05079,1.4974 3.12501,3.87371 1.07422,2.37632 1.07422,5.89196 z m -6.08727,-8.95187 V 310.5554 q -2.79949,0.16276 -6.6081,0.48828 -3.77606,0.32552 -5.98961,0.94401 -2.63674,0.74871 -4.26435,2.34377 -1.62761,1.5625 -1.62761,4.32945 0,3.12501 1.88803,4.72007 1.88803,1.56251 5.76175,1.56251 3.22267,0 5.89195,-1.23699 2.66929,-1.26953 4.94794,-3.02736 z m 70.93134,8.95187 h -6.11982 v -20.70323 q 0,-2.34376 -0.22786,-4.52476 -0.19532,-2.181 -0.87892,-3.48309 -0.7487,-1.39975 -2.14844,-2.1159 -1.39975,-0.71614 -4.03648,-0.71614 -2.57163,0 -5.14326,1.30209 -2.57162,1.26953 -5.14325,3.25522 0.0977,0.7487 0.16276,1.75782 0.0651,0.97657 0.0651,1.95314 v 23.27485 h -6.11982 v -20.70323 q 0,-2.40886 -0.22786,-4.55731 -0.19532,-2.181 -0.87891,-3.48309 -0.74871,-1.39975 -2.14845,-2.08335 -1.39975,-0.71614 -4.03648,-0.71614 -2.50652,0 -5.0456,1.23698 -2.50652,1.23699 -5.01305,3.15757 v 27.14857 h -6.11982 v -36.36086 h 6.11982 v 4.03648 q 2.8646,-2.37631 5.69665,-3.71095 2.8646,-1.33465 6.08727,-1.33465 3.71095,0 6.28258,1.56251 2.60418,1.56251 3.87372,4.32945 3.71095,-3.12502 6.77087,-4.49221 3.05991,-1.39975 6.543,-1.39975 5.98961,0 8.82166,3.64586 2.86459,3.61329 2.86459,10.12374 z m 42.22026,-17.54566 h -26.7905 q 0,3.35288 1.00912,5.85941 1.00912,2.47397 2.76694,4.06903 1.69272,1.5625 4.00393,2.34376 2.34376,0.78125 5.14326,0.78125 3.71095,0 7.45446,-1.46485 3.77606,-1.4974 5.37112,-2.9297 h 0.32552 v 6.67321 q -3.09246,1.30209 -6.31513,2.181 -3.22267,0.87891 -6.77087,0.87891 -9.04952,0 -14.12767,-4.88284 -5.07815,-4.91539 -5.07815,-13.93236 0,-8.91931 4.85028,-14.16022 4.88284,-5.24092 12.82559,-5.24092 7.3568,0 11.32818,4.2969 4.00392,4.2969 4.00392,12.20709 z m -5.95706,-4.68752 q -0.0326,-4.81773 -2.44142,-7.45447 -2.37631,-2.63673 -7.25915,-2.63673 -4.91539,0 -7.84509,2.89715 -2.89715,2.89715 -3.28778,7.19405 z m 69.10843,4.68752 h -26.7905 q 0,3.35288 1.00912,5.85941 1.00912,2.47397 2.76694,4.06903 1.69272,1.5625 4.00393,2.34376 2.34376,0.78125 5.14325,0.78125 3.71096,0 7.45447,-1.46485 3.77606,-1.4974 5.37112,-2.9297 h 0.32552 v 6.67321 q -3.09246,1.30209 -6.31514,2.181 -3.22267,0.87891 -6.77086,0.87891 -9.04953,0 -14.12768,-4.88284 -5.07815,-4.91539 -5.07815,-13.93236 0,-8.91931 4.85029,-14.16022 4.88283,-5.24092 12.82558,-5.24092 7.35681,0 11.32818,4.2969 4.00393,4.2969 4.00393,12.20709 z m -5.95706,-4.68752 q -0.0326,-4.81773 -2.44142,-7.45447 -2.37631,-2.63673 -7.25915,-2.63673 -4.91539,0 -7.84509,2.89715 -2.89715,2.89715 -3.28778,7.19405 z m 45.63825,22.23318 h -6.11982 v -20.70323 q 0,-2.50652 -0.29297,-4.68752 -0.29297,-2.21355 -1.07422,-3.45054 -0.81381,-1.36719 -2.34377,-2.01824 -1.52995,-0.68359 -3.97137,-0.68359 -2.50652,0 -5.24091,1.23698 -2.73439,1.23699 -5.24091,3.15757 v 27.14857 h -6.11982 v -36.36086 h 6.11982 v 4.03648 q 2.8646,-2.37631 5.92451,-3.71095 3.05991,-1.33465 6.28258,-1.33465 5.89196,0 8.98442,3.5482 3.09246,3.54819 3.09246,10.2214 z m 41.27625,-4.13413 q 0,9.24483 -4.19924,13.57428 -4.19924,4.32945 -12.92324,4.32945 -2.89715,0 -5.66409,-0.42318 -2.73439,-0.39062 -5.40367,-1.13933 v -6.25003 h 0.32552 q 1.4974,0.58594 4.75263,1.4323 3.25522,0.87891 6.51045,0.87891 3.12501,0 5.17581,-0.7487 2.05079,-0.7487 3.19012,-2.08334 1.13932,-1.26954 1.62761,-3.05991 0.48828,-1.79038 0.48828,-4.00393 v -3.32033 q -2.76694,2.21355 -5.30601,3.32033 -2.50653,1.07422 -6.4128,1.07422 -6.51045,0 -10.35161,-4.68752 -3.80861,-4.72008 -3.80861,-13.28132 0,-4.68752 1.30209,-8.07295 1.33464,-3.41799 3.6133,-5.89196 2.11589,-2.31121 5.14325,-3.58075 3.02736,-1.30209 6.02217,-1.30209 3.15756,0 5.27346,0.65105 2.14845,0.61849 4.52476,1.92058 l 0.39063,-1.56251 h 5.72919 z m -6.11982,-5.85941 v -19.82432 q -2.44142,-1.10677 -4.55731,-1.5625 -2.08335,-0.48829 -4.16669,-0.48829 -5.0456,0 -7.94275,3.38544 -2.89715,3.38543 -2.89715,9.83078 0,6.11982 2.14845,9.27739 2.14845,3.15756 7.12894,3.15756 2.66929,0 5.33857,-1.00912 2.70184,-1.04167 4.94794,-2.76694 z m 24.73969,-32.45459 h -6.90107 v -6.34768 h 6.90107 z m -0.39062,42.44813 h -6.11983 v -36.36086 h 6.11983 z m 42.51324,0 h -6.11982 v -20.70323 q 0,-2.50652 -0.29297,-4.68752 -0.29297,-2.21355 -1.07423,-3.45054 -0.8138,-1.36719 -2.34376,-2.01824 -1.52995,-0.68359 -3.97137,-0.68359 -2.50652,0 -5.24091,1.23698 -2.73439,1.23699 -5.24091,3.15757 v 27.14857 h -6.11983 v -36.36086 h 6.11983 v 4.03648 q 2.86459,-2.37631 5.9245,-3.71095 3.05992,-1.33465 6.28259,-1.33465 5.89195,0 8.98442,3.5482 3.09246,3.54819 3.09246,10.2214 z m 42.22027,-17.54566 h -26.7905 q 0,3.35288 1.00912,5.85941 1.00912,2.47397 2.76694,4.06903 1.69272,1.5625 4.00392,2.34376 2.34377,0.78125 5.14326,0.78125 3.71096,0 7.45446,-1.46485 3.77606,-1.4974 5.37112,-2.9297 h 0.32553 v 6.67321 q -3.09247,1.30209 -6.31514,2.181 -3.22267,0.87891 -6.77087,0.87891 -9.04952,0 -14.12767,-4.88284 -5.07815,-4.91539 -5.07815,-13.93236 0,-8.91931 4.85028,-14.16022 4.88284,-5.24092 12.82559,-5.24092 7.35681,0 11.32818,4.2969 4.00393,4.2969 4.00393,12.20709 z m -5.95706,-4.68752 q -0.0326,-4.81773 -2.44142,-7.45447 -2.37632,-2.63673 -7.25915,-2.63673 -4.91539,0 -7.84509,2.89715 -2.89715,2.89715 -3.28778,7.19405 z"
       id="text15"
       transform="translate(-109.188 -15.965)scale(1.05342)"
       aria-label="Game engine" />
  </g>
</svg>
