<svg xmlns="http://www.w3.org/2000/svg" xmlns:xlink="http://www.w3.org/1999/xlink" xml:space="preserve" width="600" height="900"><defs><linearGradient xlink:href="#a" id="d" x1="269.585" x2="488.27" y1="847.204" y2="393.079" gradientTransform="translate(-17.83 -14.01)scale(1.03628)" gradientUnits="userSpaceOnUse"/><linearGradient id="a"><stop offset=".045" stop-color="#7f24ce"/><stop offset="1" stop-color="#f87cfe"/></linearGradient><linearGradient xlink:href="#a" id="c" x1="496.519" x2="635.831" y1="813.477" y2="589.778" gradientTransform="translate(-17.83 -14.01)scale(1.03628)" gradientUnits="userSpaceOnUse"/><linearGradient xlink:href="#a" id="b" x1="635.831" x2="721.822" y1="589.778" y2="368.408" gradientTransform="translate(-17.83 -14.01)scale(1.03628)" gradientUnits="userSpaceOnUse"/></defs><path d="M0 0h600v900H0z" style="fill:#010101;stroke-width:9;stroke-linecap:round;stroke-linejoin:round;paint-order:stroke fill markers;fill-opacity:1"/><path d="M214.813 476.024q0 33.672-42.735 33.672h-45.312v-113.75h40.859q21.016 0 32.89 7.734 11.954 7.734 11.954 23.672 0 7.734-3.594 14.375-3.594 6.562-12.422 9.922 10.078 2.578 14.219 9.61 4.14 6.952 4.14 14.765m-60.625-58.907v26.25h13.28q9.532 0 13.516-3.203 4.063-3.203 4.063-9.53 0-13.517-17.422-13.517zm33.359 58.516q0-6.562-3.281-10.39-3.282-3.907-11.094-3.907h-18.984v27.266h17.89q8.36 0 11.875-3.75 3.594-3.828 3.594-9.219m65.062-85.937v120h-26.406v-120zm59.75 120q-1.484-3.047-2.421-7.579-3.047 3.829-7.891 6.485-4.766 2.656-12.422 2.656-11.719 0-20.234-7.031-8.438-7.11-8.438-18.36 0-13.046 9.61-20.39 9.609-7.422 30-7.422h8.125v-4.453q0-5.313-2.344-8.438-2.266-3.203-7.735-3.203-9.375 0-9.375 9.219h-26.328q0-11.797 10.078-19.688 10.079-7.89 27.032-7.89 15.078 0 25.078 7.578 10.078 7.5 10.078 22.578v34.61q0 8.28.937 12.578.938 4.218 2.657 7.421v1.329zm-16.484-17.188q4.844 0 8.125-2.031 3.281-2.11 4.688-4.688v-13.672h-8.282q-7.422 0-10.312 3.829-2.813 3.75-2.813 8.515 0 3.594 2.422 5.86 2.5 2.187 6.172 2.187m49.281-47.031v-20.313h69.375v14.22l-37.578 50h38.36v20.312h-71.72v-14.688l37.423-49.531zm78.89-42.11q0-5.625 4.063-9.218t10.547-3.594 10.547 3.594 4.063 9.218-4.063 9.22-10.547 3.593-10.547-3.594-4.062-9.219m27.97 21.797v84.532h-26.407v-84.532zm63.265 84.532-.781-9.063q-8.281 10.625-22.5 10.625-12.578 0-20.469-7.344-7.812-7.343-7.812-24.062v-54.688h26.328v54.844q0 10.938 10.625 10.938 9.219 0 12.89-6.641v-59.14h26.407v84.53zm73.266-65.782q-7.422 0-11.485 6.953v58.829h-26.328v-84.532h24.688l.937 9.922q8.75-11.484 24.063-11.484 7.422 0 12.969 3.047 5.625 3.047 8.672 9.687 3.984-5.937 10.156-9.297 6.25-3.437 14.61-3.437 11.562 0 18.984 7.265 7.421 7.266 7.421 25.625v53.204h-26.406v-53.204q0-7.89-2.734-10.234-2.657-2.344-7.344-2.344-7.89 0-11.719 6.953.078 1.172.078 2.422v56.407h-26.328v-53.047q0-8.047-2.734-10.39-2.656-2.345-7.5-2.345" aria-label="Blazium" style="font-weight:900;font-size:160px;line-height:1.25;font-family:Roboto;-inkscape-font-specification:&quot;Roboto Heavy&quot;;letter-spacing:-4px;fill:#fefefe" transform="translate(-30.655 197.792)scale(.82664)"/><path d="M246.112 543.554q-1.624-3.416-4.704-5.264-3.08-1.904-7.168-1.904t-7.392 1.904q-3.248 1.848-5.152 5.376-1.848 3.472-1.848 8.064t1.848 8.064q1.904 3.472 5.152 5.376 3.304 1.848 7.392 1.848 5.712 0 9.408-3.416t4.312-9.24h-15.568v-4.144h21v3.92q-.448 4.816-3.024 8.848-2.576 3.976-6.776 6.328-4.2 2.296-9.352 2.296-5.432 0-9.912-2.52-4.48-2.576-7.112-7.112-2.576-4.536-2.576-10.248t2.576-10.248q2.632-4.592 7.112-7.112 4.48-2.576 9.912-2.576 6.216 0 10.976 3.08 4.816 3.08 7 8.68zm12.096 12.264q0-4.704 1.904-8.232 1.904-3.584 5.208-5.544 3.36-1.96 7.448-1.96 4.032 0 7 1.736t4.424 4.368v-5.6h5.152v30.688h-5.152v-5.712q-1.512 2.688-4.536 4.48-2.968 1.736-6.944 1.736-4.088 0-7.392-2.016t-5.208-5.656-1.904-8.288m25.984.056q0-3.472-1.4-6.048t-3.808-3.92q-2.352-1.4-5.208-1.4t-5.208 1.344-3.752 3.92-1.4 6.048q0 3.528 1.4 6.16 1.4 2.576 3.752 3.976 2.352 1.344 5.208 1.344t5.208-1.344q2.408-1.4 3.808-3.976 1.4-2.632 1.4-6.104m50.68-15.848q3.584 0 6.384 1.512 2.8 1.456 4.424 4.424t1.624 7.224v18.088h-5.04v-17.36q0-4.592-2.296-7-2.24-2.464-6.104-2.464-3.976 0-6.328 2.576-2.352 2.52-2.352 7.336v16.912h-5.04v-17.36q0-4.592-2.296-7-2.24-2.464-6.104-2.464-3.976 0-6.328 2.576-2.352 2.52-2.352 7.336v16.912h-5.096v-30.688h5.096v4.424q1.512-2.408 4.032-3.696 2.576-1.288 5.656-1.288 3.864 0 6.832 1.736t4.424 5.096q1.288-3.248 4.256-5.04t6.608-1.792m48.776 14.728q0 1.456-.168 3.08h-24.528q.28 4.536 3.08 7.112 2.856 2.52 6.888 2.52 3.304 0 5.488-1.512 2.24-1.568 3.136-4.144h5.488q-1.232 4.424-4.928 7.224-3.696 2.744-9.184 2.744-4.368 0-7.84-1.96-3.416-1.96-5.376-5.544-1.96-3.64-1.96-8.4t1.904-8.344 5.32-5.488q3.472-1.96 7.952-1.96 4.368 0 7.728 1.904t5.152 5.264q1.848 3.304 1.848 7.504m-5.264-1.064q0-2.912-1.288-4.984-1.288-2.128-3.528-3.192-2.184-1.12-4.872-1.12-3.864 0-6.608 2.464-2.688 2.464-3.08 6.832zm32.032-17.304v13.048h14.224v4.2h-14.224v13.44h15.904v4.2h-21v-39.088h21v4.2zm38.584 3.64q5.6 0 9.072 3.416 3.472 3.36 3.472 9.744v18.088h-5.04v-17.36q0-4.592-2.296-7-2.296-2.464-6.272-2.464-4.032 0-6.44 2.52-2.352 2.52-2.352 7.336v16.968h-5.096v-30.688h5.096v4.368q1.512-2.352 4.088-3.64 2.632-1.288 5.768-1.288m33.544.056q3.976 0 6.944 1.736 3.024 1.736 4.48 4.368v-5.6h5.152v31.36q0 4.2-1.792 7.448-1.792 3.304-5.152 5.152-3.304 1.848-7.728 1.848-6.048 0-10.08-2.856t-4.76-7.784h5.04q.84 2.8 3.472 4.48 2.632 1.736 6.328 1.736 4.2 0 6.832-2.632 2.688-2.632 2.688-7.392v-6.44q-1.512 2.688-4.48 4.48t-6.944 1.792q-4.088 0-7.448-2.016-3.304-2.016-5.208-5.656t-1.904-8.288q0-4.704 1.904-8.232 1.904-3.584 5.208-5.544 3.36-1.96 7.448-1.96m11.424 15.792q0-3.472-1.4-6.048t-3.808-3.92q-2.352-1.4-5.208-1.4t-5.208 1.344-3.752 3.92-1.4 6.048q0 3.528 1.4 6.16 1.4 2.576 3.752 3.976 2.352 1.344 5.208 1.344t5.208-1.344q2.408-1.4 3.808-3.976 1.4-2.632 1.4-6.104m16.408-20.272q-1.456 0-2.464-1.008t-1.008-2.464 1.008-2.464 2.464-1.008q1.4 0 2.352 1.008 1.008 1.008 1.008 2.464t-1.008 2.464q-.952 1.008-2.352 1.008m2.464 4.984v30.688h-5.096v-30.688zm23.632-.56q5.6 0 9.072 3.416 3.472 3.36 3.472 9.744v18.088h-5.04v-17.36q0-4.592-2.296-7-2.296-2.464-6.272-2.464-4.032 0-6.44 2.52-2.352 2.52-2.352 7.336v16.968h-5.096v-30.688h5.096v4.368q1.512-2.352 4.088-3.64 2.632-1.288 5.768-1.288m48.888 14.728q0 1.456-.168 3.08h-24.528q.28 4.536 3.08 7.112 2.856 2.52 6.888 2.52 3.304 0 5.488-1.512 2.24-1.568 3.136-4.144h5.488q-1.232 4.424-4.928 7.224-3.696 2.744-9.184 2.744-4.368 0-7.84-1.96-3.416-1.96-5.376-5.544-1.96-3.64-1.96-8.4t1.904-8.344 5.32-5.488q3.472-1.96 7.952-1.96 4.368 0 7.728 1.904t5.152 5.264q1.848 3.304 1.848 7.504m-5.264-1.064q0-2.912-1.288-4.984-1.288-2.128-3.528-3.192-2.184-1.12-4.872-1.12-3.864 0-6.608 2.464-2.688 2.464-3.08 6.832z" aria-label="Game Engine" style="font-size:56px;line-height:1.25;font-family:Poppins;-inkscape-font-specification:Poppins;fill:#fefefe" transform="translate(-30.655 197.792)scale(.82664)"/><g paint-order="stroke fill markers"><path fill="url(#b)" d="M568.904 89.049c-34.755 24.138-66.55 61.123-77.751 100.567s-13.626 79.433 1.545 133.558c15.172 54.125 88.045 97.183 148.257 117.495 73.416 25.327 137.083 79.066 168.316 150.939 7.286 14.202 32.339 76.178 29.588 25.145 2.5-88.033-34.945-176.536-103.863-232.354-50.885-45.69-122.768-70.396-154.211-135.492-27.227-47.76-25.614-106.295-9.437-157.417l-1.219-1.22z" style="mix-blend-mode:normal;fill:url(#b)" transform="translate(138.407 197.964)scale(.31106)"/><path fill="url(#c)" d="M520.207 583.335c71.209-3.918 134.842 62.821 127.548 133.776-2.45 65.695-63.5 123.452-130.029 116.976-77.274 2.835-137.082-80.076-118.505-152.855 11.04-56.002 64.314-97.88 120.983-97.897z" style="mix-blend-mode:normal;fill:url(#c)" transform="translate(138.407 197.964)scale(.31106)"/><path fill="url(#d)" d="M287.71 62.723c15.875 21.464 31.444 41.24 39.725 67.501 28.37 74.372 7.785 156.373-29.135 223.804-56.55 111.042-111.432 233.484-95.612 361.024 15.98 115.215 97.874 220.939 210.59 255.147 113.148 37.77 246.447.148 322.31-92.186 52.051-60.68 82.366-144.75 68.103-224.644-21.702-88.837-90.927-162.766-178.483-189.522-53.05-17.726-113.022-50.278-150.9-91.191-4.784 29.001-11.279 64.886-21.369 98.097s-27.328 82.2-34.39 117.265c30.721-32.206 68.885-42.918 104.222-42.65 88.706.676 166.692 79.298 163.19 167.706-.717 86.334-79.409 163.003-166.145 159.543-86.404.39-160.458-76.089-163.045-161.413-1.183-64.752 25.134-126.072 42.88-187.41 34.358-101.83 49.095-185.241 48.522-243.119-.572-57.878-15.086-115.638-54.55-158.448-38.005-41.228-91.938-59.775-105.914-59.504" style="mix-blend-mode:normal;fill:url(#d)" transform="translate(138.407 197.964)scale(.31106)"/></g></svg>